G04 #@! TF.GenerationSoftware,KiCad,Pcbnew,9.0.0*
G04 #@! TF.CreationDate,2025-03-11T16:46:41+02:00*
G04 #@! TF.ProjectId,Plant-health-meter,506c616e-742d-4686-9561-6c74682d6d65,rev?*
G04 #@! TF.SameCoordinates,Original*
G04 #@! TF.FileFunction,Copper,L2,Inr*
G04 #@! TF.FilePolarity,Positive*
%FSLAX46Y46*%
G04 Gerber Fmt 4.6, Leading zero omitted, Abs format (unit mm)*
G04 Created by KiCad (PCBNEW 9.0.0) date 2025-03-11 16:46:41*
%MOMM*%
%LPD*%
G01*
G04 APERTURE LIST*
G04 Aperture macros list*
%AMRoundRect*
0 Rectangle with rounded corners*
0 $1 Rounding radius*
0 $2 $3 $4 $5 $6 $7 $8 $9 X,Y pos of 4 corners*
0 Add a 4 corners polygon primitive as box body*
4,1,4,$2,$3,$4,$5,$6,$7,$8,$9,$2,$3,0*
0 Add four circle primitives for the rounded corners*
1,1,$1+$1,$2,$3*
1,1,$1+$1,$4,$5*
1,1,$1+$1,$6,$7*
1,1,$1+$1,$8,$9*
0 Add four rect primitives between the rounded corners*
20,1,$1+$1,$2,$3,$4,$5,0*
20,1,$1+$1,$4,$5,$6,$7,0*
20,1,$1+$1,$6,$7,$8,$9,0*
20,1,$1+$1,$8,$9,$2,$3,0*%
G04 Aperture macros list end*
G04 #@! TA.AperFunction,ComponentPad*
%ADD10R,1.700000X1.700000*%
G04 #@! TD*
G04 #@! TA.AperFunction,ComponentPad*
%ADD11O,1.700000X1.700000*%
G04 #@! TD*
G04 #@! TA.AperFunction,HeatsinkPad*
%ADD12O,1.000000X2.100000*%
G04 #@! TD*
G04 #@! TA.AperFunction,HeatsinkPad*
%ADD13O,1.000000X1.600000*%
G04 #@! TD*
G04 #@! TA.AperFunction,ComponentPad*
%ADD14RoundRect,0.250000X0.893000X0.512000X-0.893000X0.512000X-0.893000X-0.512000X0.893000X-0.512000X0*%
G04 #@! TD*
G04 #@! TA.AperFunction,ComponentPad*
%ADD15RoundRect,0.381000X0.762000X0.381000X-0.762000X0.381000X-0.762000X-0.381000X0.762000X-0.381000X0*%
G04 #@! TD*
G04 #@! TA.AperFunction,ComponentPad*
%ADD16R,0.500000X0.900000*%
G04 #@! TD*
G04 #@! TA.AperFunction,ComponentPad*
%ADD17C,0.600000*%
G04 #@! TD*
G04 #@! TA.AperFunction,ViaPad*
%ADD18C,0.600000*%
G04 #@! TD*
G04 APERTURE END LIST*
D10*
G04 #@! TO.N,Net-(J6-Pin_1)*
G04 #@! TO.C,J6*
X109400000Y-100200000D03*
D11*
G04 #@! TO.N,Net-(J6-Pin_2)*
X109400000Y-102740000D03*
G04 #@! TD*
D12*
G04 #@! TO.N,GND*
G04 #@! TO.C,J5*
X125120000Y-104830000D03*
D13*
X125120000Y-100650000D03*
D12*
X116480000Y-104830000D03*
D13*
X116480000Y-100650000D03*
G04 #@! TD*
D10*
G04 #@! TO.N,+3.3V*
G04 #@! TO.C,J1*
X113090175Y-102775000D03*
D11*
G04 #@! TO.N,GND*
X113090175Y-100235000D03*
G04 #@! TD*
D10*
G04 #@! TO.N,+3.3V*
G04 #@! TO.C,J2*
X148650000Y-117275000D03*
D11*
G04 #@! TO.N,GND*
X148650000Y-119815000D03*
G04 #@! TD*
D14*
G04 #@! TO.N,/Sensors/sensor_cap*
G04 #@! TO.C,S1*
X154750000Y-110000000D03*
D15*
G04 #@! TO.N,GND*
X154750000Y-119000000D03*
X154750000Y-101000000D03*
G04 #@! TD*
D16*
G04 #@! TO.N,GND*
G04 #@! TO.C,AE1*
X91025000Y-103350000D03*
G04 #@! TD*
D17*
G04 #@! TO.N,GND*
G04 #@! TO.C,U5*
X130575000Y-106350002D03*
X131574998Y-106350002D03*
G04 #@! TD*
D10*
G04 #@! TO.N,+BATT*
G04 #@! TO.C,J3*
X140400000Y-99400000D03*
D11*
X142940000Y-99400000D03*
G04 #@! TD*
D10*
G04 #@! TO.N,GND*
G04 #@! TO.C,J4*
X133325000Y-99400000D03*
D11*
X135865000Y-99400000D03*
G04 #@! TD*
D18*
G04 #@! TO.N,GND*
X151300000Y-119600000D03*
X123800000Y-119100000D03*
X115600000Y-117900000D03*
G04 #@! TO.N,+BATT*
X116600000Y-115000000D03*
G04 #@! TO.N,GND*
X92000000Y-106500000D03*
X99750000Y-99000000D03*
X94000000Y-98750000D03*
X135250000Y-102000000D03*
X128778125Y-115121875D03*
X94350000Y-116850000D03*
X126500000Y-119300000D03*
X92750000Y-115000000D03*
X127000000Y-107000000D03*
X132500000Y-100750000D03*
X119570002Y-115902449D03*
X99000000Y-99000000D03*
X92750000Y-110250000D03*
X131500000Y-99750000D03*
X92000000Y-108000000D03*
X99550000Y-104200000D03*
X98250000Y-99000000D03*
X92750000Y-107250000D03*
X95500000Y-104500000D03*
X103000000Y-109200000D03*
X119450001Y-119900000D03*
X92500000Y-98750000D03*
X114500000Y-104800000D03*
X93250000Y-104000000D03*
X138512499Y-102750000D03*
X100500000Y-99000000D03*
X93250000Y-102500000D03*
X122300000Y-109800000D03*
X130500000Y-100750000D03*
X135500000Y-100750000D03*
X92750000Y-117000000D03*
X98250000Y-105000000D03*
X152800000Y-101000000D03*
X92500000Y-119600000D03*
X92000000Y-114250000D03*
X147900000Y-114639997D03*
X108250000Y-107500000D03*
X127000000Y-106250000D03*
X144512499Y-106750001D03*
X136500000Y-100750000D03*
X99000000Y-99750000D03*
X92000000Y-115750000D03*
X152000000Y-119000000D03*
X92500000Y-101750000D03*
X124400000Y-116000000D03*
X94000000Y-103250000D03*
X129656250Y-116000000D03*
X92000000Y-112750000D03*
X92750000Y-108750000D03*
X115500000Y-114700000D03*
X146700000Y-101300000D03*
X94000000Y-104500000D03*
X113750000Y-119000000D03*
X112750000Y-119000000D03*
X92500000Y-104500000D03*
X100450000Y-121350000D03*
X146899999Y-114640000D03*
X92500000Y-103250000D03*
X94000000Y-100250000D03*
X93500000Y-106500000D03*
X127000000Y-107750000D03*
X102900000Y-103700000D03*
X92400000Y-121300000D03*
X108100000Y-110000000D03*
X120650001Y-119900000D03*
X139762499Y-101750000D03*
X131500000Y-98750000D03*
X98500000Y-104200000D03*
X98250000Y-99750000D03*
X93500000Y-108000000D03*
X99750000Y-99750000D03*
X92750000Y-113500000D03*
X93500000Y-109500000D03*
X101600000Y-114400000D03*
X144512499Y-108000000D03*
X99000000Y-100500000D03*
X92500000Y-100250000D03*
X108375000Y-118400000D03*
X134500000Y-100750000D03*
X97416170Y-104191296D03*
X94000000Y-101750000D03*
X106700000Y-98724999D03*
X96544845Y-109223289D03*
X133500000Y-100750000D03*
X111100000Y-107000000D03*
X92000000Y-118250000D03*
X92000000Y-109500000D03*
X138512499Y-101750000D03*
X114750000Y-119000000D03*
X93100000Y-115850000D03*
X94500000Y-111200000D03*
X93500000Y-111000000D03*
X98250000Y-100500000D03*
X97796289Y-109234999D03*
X130500000Y-99750000D03*
X150500000Y-103200000D03*
X93250000Y-101000000D03*
X131500000Y-100750000D03*
X98900000Y-121000000D03*
X105175000Y-118300000D03*
X93250000Y-99500000D03*
X134250000Y-102000000D03*
X100500000Y-99750000D03*
X147800000Y-109100000D03*
X139762499Y-102750000D03*
X92750000Y-111750000D03*
X130500000Y-98750000D03*
X137750000Y-102250000D03*
X92000000Y-111000000D03*
X112250000Y-110000000D03*
X105149999Y-121400000D03*
G04 #@! TO.N,+3.3V*
X94100000Y-113600000D03*
X94600000Y-107600000D03*
X127000000Y-100750000D03*
X99010000Y-113600000D03*
X133300000Y-106000000D03*
X127000000Y-103749999D03*
X129250000Y-100750000D03*
X117870001Y-115202450D03*
X101410000Y-113500000D03*
X95700000Y-107600000D03*
X127000000Y-101500000D03*
X127000000Y-104499999D03*
X127000000Y-102999999D03*
X96800000Y-107600000D03*
X117870001Y-116802448D03*
X128500000Y-100750000D03*
X94100000Y-114400000D03*
X133434996Y-104060002D03*
X99550000Y-105200000D03*
X114181583Y-114110000D03*
X127000000Y-105250000D03*
X125700000Y-117800000D03*
X127000000Y-102249999D03*
X127750000Y-100750000D03*
X105700000Y-111600000D03*
X97100000Y-115700000D03*
X95500001Y-103400000D03*
X127750000Y-101500000D03*
X97200000Y-121100000D03*
X127750000Y-104500000D03*
X106100000Y-113400000D03*
X129250000Y-101500000D03*
X109700000Y-119800000D03*
X128500000Y-101500000D03*
X125900000Y-115200000D03*
X141100000Y-105800000D03*
X94600000Y-118850000D03*
X106500000Y-111600000D03*
G04 #@! TO.N,Net-(U6-GPIO9)*
X105100000Y-114000000D03*
X106900000Y-118200000D03*
G04 #@! TO.N,Net-(U6-CHIP_EN)*
X100500000Y-117200000D03*
X97800000Y-114600000D03*
G04 #@! TO.N,Net-(J7-Pin_2)*
X136460000Y-116000000D03*
X128900000Y-119000000D03*
G04 #@! TO.N,Net-(J7-Pin_16)*
X145350000Y-116000000D03*
X128400000Y-113100000D03*
G04 #@! TO.N,Net-(J7-Pin_4)*
X137730000Y-116000000D03*
X130000000Y-119300000D03*
G04 #@! TO.N,Net-(J7-Pin_8)*
X140270000Y-116000000D03*
X132600000Y-117600000D03*
G04 #@! TO.N,Net-(J7-Pin_6)*
X131200000Y-119000000D03*
X139000000Y-116000000D03*
G04 #@! TO.N,Net-(J7-Pin_14)*
X129900000Y-113021000D03*
X144080000Y-116000000D03*
G04 #@! TO.N,Net-(D1-A)*
X150500000Y-108050000D03*
X149800000Y-100800000D03*
G04 #@! TO.N,Net-(D6-K)*
X120850001Y-115100000D03*
X121500000Y-111110000D03*
G04 #@! TO.N,Net-(J7-Pin_10)*
X141540000Y-116000000D03*
X133300000Y-115300000D03*
G04 #@! TO.N,/ADC/ALERT*
X98650000Y-115250000D03*
X99500000Y-117300000D03*
G04 #@! TO.N,Net-(J7-Pin_12)*
X142810000Y-116000000D03*
X131700000Y-114000000D03*
G04 #@! TO.N,/ESP_32/Battery_stat*
X134300000Y-107600000D03*
X101083178Y-112616822D03*
G04 #@! TO.N,/ESP_32/IO_INT*
X124300000Y-112300000D03*
X125706250Y-116750000D03*
G04 #@! TO.N,Net-(J6-Pin_2)*
X103610000Y-112800000D03*
G04 #@! TO.N,Net-(U5-PG)*
X132574998Y-102300002D03*
X129840000Y-104860000D03*
G04 #@! TO.N,Net-(J6-Pin_1)*
X103400000Y-113700000D03*
G04 #@! TD*
G04 #@! TA.AperFunction,Conductor*
G04 #@! TO.N,GND*
G36*
X97343039Y-98020185D02*
G01*
X97388794Y-98072989D01*
X97400000Y-98124500D01*
X97400000Y-103800000D01*
X100100000Y-103800000D01*
X100100000Y-103400000D01*
X97924000Y-103400000D01*
X97856961Y-103380315D01*
X97811206Y-103327511D01*
X97800000Y-103276000D01*
X97800000Y-98574000D01*
X97819685Y-98506961D01*
X97872489Y-98461206D01*
X97924000Y-98450000D01*
X103376000Y-98450000D01*
X103443039Y-98469685D01*
X103488794Y-98522489D01*
X103500000Y-98574000D01*
X103500000Y-103276000D01*
X103480315Y-103343039D01*
X103427511Y-103388794D01*
X103376000Y-103400000D01*
X103200000Y-103400000D01*
X103200000Y-103700000D01*
X103900000Y-103700000D01*
X103900000Y-99305131D01*
X108249500Y-99305131D01*
X108249500Y-101094856D01*
X108249502Y-101094882D01*
X108252413Y-101119987D01*
X108252415Y-101119991D01*
X108297793Y-101222764D01*
X108297794Y-101222765D01*
X108377235Y-101302206D01*
X108480009Y-101347585D01*
X108505135Y-101350500D01*
X109242873Y-101350499D01*
X109309910Y-101370183D01*
X109355665Y-101422987D01*
X109365609Y-101492146D01*
X109336584Y-101555702D01*
X109277806Y-101593476D01*
X109262270Y-101596972D01*
X109130589Y-101617829D01*
X108958363Y-101673787D01*
X108958360Y-101673788D01*
X108797002Y-101756006D01*
X108650505Y-101862441D01*
X108650500Y-101862445D01*
X108522445Y-101990500D01*
X108522441Y-101990505D01*
X108416006Y-102137002D01*
X108333788Y-102298360D01*
X108333787Y-102298363D01*
X108277829Y-102470589D01*
X108249500Y-102649448D01*
X108249500Y-102830551D01*
X108277829Y-103009410D01*
X108333787Y-103181636D01*
X108333788Y-103181639D01*
X108389664Y-103291300D01*
X108404769Y-103320945D01*
X108416006Y-103342997D01*
X108522441Y-103489494D01*
X108522445Y-103489499D01*
X108650500Y-103617554D01*
X108650505Y-103617558D01*
X108763978Y-103700000D01*
X108797006Y-103723996D01*
X108898088Y-103775500D01*
X108958360Y-103806211D01*
X108958363Y-103806212D01*
X109028669Y-103829055D01*
X109130591Y-103862171D01*
X109213429Y-103875291D01*
X109309449Y-103890500D01*
X109309454Y-103890500D01*
X109490551Y-103890500D01*
X109577259Y-103876765D01*
X109669409Y-103862171D01*
X109841639Y-103806211D01*
X110002994Y-103723996D01*
X110149501Y-103617553D01*
X110277553Y-103489501D01*
X110383996Y-103342994D01*
X110466211Y-103181639D01*
X110522171Y-103009409D01*
X110545902Y-102859578D01*
X110550500Y-102830551D01*
X110550500Y-102649448D01*
X110531863Y-102531785D01*
X110522171Y-102470591D01*
X110466211Y-102298361D01*
X110466211Y-102298360D01*
X110394418Y-102157461D01*
X110383996Y-102137006D01*
X110327740Y-102059576D01*
X110277558Y-101990505D01*
X110277554Y-101990500D01*
X110167185Y-101880131D01*
X111939675Y-101880131D01*
X111939675Y-103669856D01*
X111939677Y-103669882D01*
X111942588Y-103694987D01*
X111942590Y-103694991D01*
X111987968Y-103797764D01*
X111987969Y-103797765D01*
X112067410Y-103877206D01*
X112170184Y-103922585D01*
X112195310Y-103925500D01*
X113985039Y-103925499D01*
X113985054Y-103925497D01*
X113985057Y-103925497D01*
X114010162Y-103922586D01*
X114010163Y-103922585D01*
X114010166Y-103922585D01*
X114112940Y-103877206D01*
X114192381Y-103797765D01*
X114237760Y-103694991D01*
X114240675Y-103669865D01*
X114240674Y-101880136D01*
X114240672Y-101880117D01*
X114237761Y-101855012D01*
X114237760Y-101855010D01*
X114237760Y-101855009D01*
X114192381Y-101752235D01*
X114112940Y-101672794D01*
X114112938Y-101672793D01*
X114010167Y-101627415D01*
X113985040Y-101624500D01*
X112195318Y-101624500D01*
X112195292Y-101624502D01*
X112170187Y-101627413D01*
X112170183Y-101627415D01*
X112067410Y-101672793D01*
X111987969Y-101752234D01*
X111942590Y-101855006D01*
X111942590Y-101855008D01*
X111939675Y-101880131D01*
X110167185Y-101880131D01*
X110149499Y-101862445D01*
X110149494Y-101862441D01*
X110002997Y-101756006D01*
X110002996Y-101756005D01*
X110002994Y-101756004D01*
X109951300Y-101729664D01*
X109841639Y-101673788D01*
X109841636Y-101673787D01*
X109669410Y-101617829D01*
X109537728Y-101596972D01*
X109474594Y-101567042D01*
X109437663Y-101507731D01*
X109438661Y-101437868D01*
X109477271Y-101379636D01*
X109541235Y-101351522D01*
X109557120Y-101350499D01*
X110294864Y-101350499D01*
X110294879Y-101350497D01*
X110294882Y-101350497D01*
X110319987Y-101347586D01*
X110319988Y-101347585D01*
X110319991Y-101347585D01*
X110422765Y-101302206D01*
X110502206Y-101222765D01*
X110547585Y-101119991D01*
X110550500Y-101094865D01*
X110550500Y-100670943D01*
X126399500Y-100670943D01*
X126399500Y-100829057D01*
X126415971Y-100890525D01*
X126440423Y-100981783D01*
X126440423Y-100981784D01*
X126487313Y-101063001D01*
X126503784Y-101130901D01*
X126487313Y-101186999D01*
X126440423Y-101268215D01*
X126440423Y-101268216D01*
X126399500Y-101420943D01*
X126399500Y-101579057D01*
X126424884Y-101673789D01*
X126440423Y-101731783D01*
X126440424Y-101731786D01*
X126487312Y-101812999D01*
X126503785Y-101880900D01*
X126487313Y-101936998D01*
X126440423Y-102018214D01*
X126440423Y-102018215D01*
X126399500Y-102170942D01*
X126399500Y-102329056D01*
X126412899Y-102379059D01*
X126440423Y-102481782D01*
X126440423Y-102481783D01*
X126487313Y-102563000D01*
X126503784Y-102630900D01*
X126487313Y-102686998D01*
X126440423Y-102768214D01*
X126440423Y-102768215D01*
X126399500Y-102920942D01*
X126399500Y-103079056D01*
X126423391Y-103168216D01*
X126440423Y-103231782D01*
X126440423Y-103231783D01*
X126487313Y-103313000D01*
X126503784Y-103380900D01*
X126487313Y-103436998D01*
X126440423Y-103518214D01*
X126440423Y-103518215D01*
X126399500Y-103670942D01*
X126399500Y-103829056D01*
X126440199Y-103980945D01*
X126440423Y-103981782D01*
X126440423Y-103981783D01*
X126487313Y-104063000D01*
X126503784Y-104130900D01*
X126487313Y-104186998D01*
X126440423Y-104268214D01*
X126440423Y-104268215D01*
X126399500Y-104420942D01*
X126399500Y-104579056D01*
X126440423Y-104731781D01*
X126440423Y-104731782D01*
X126440423Y-104731783D01*
X126487313Y-104813000D01*
X126503784Y-104880900D01*
X126487313Y-104936998D01*
X126440423Y-105018215D01*
X126440423Y-105018216D01*
X126399500Y-105170943D01*
X126399500Y-105329057D01*
X126429341Y-105440423D01*
X126440423Y-105481783D01*
X126440426Y-105481790D01*
X126519475Y-105618709D01*
X126519479Y-105618714D01*
X126519480Y-105618716D01*
X126631284Y-105730520D01*
X126631286Y-105730521D01*
X126631290Y-105730524D01*
X126752492Y-105800499D01*
X126768216Y-105809577D01*
X126920943Y-105850500D01*
X126920945Y-105850500D01*
X127079055Y-105850500D01*
X127079057Y-105850500D01*
X127231784Y-105809577D01*
X127238970Y-105805427D01*
X127238973Y-105805427D01*
X127368709Y-105730524D01*
X127368708Y-105730524D01*
X127368716Y-105730520D01*
X127480520Y-105618716D01*
X127559577Y-105481784D01*
X127600500Y-105329057D01*
X127600500Y-105224500D01*
X127620185Y-105157461D01*
X127672989Y-105111706D01*
X127724500Y-105100500D01*
X127829055Y-105100500D01*
X127829057Y-105100500D01*
X127981784Y-105059577D01*
X128118716Y-104980520D01*
X128230520Y-104868716D01*
X128281195Y-104780943D01*
X129239500Y-104780943D01*
X129239500Y-104939057D01*
X129260711Y-105018215D01*
X129280423Y-105091783D01*
X129280426Y-105091790D01*
X129359475Y-105228709D01*
X129359479Y-105228714D01*
X129359480Y-105228716D01*
X129471284Y-105340520D01*
X129471286Y-105340521D01*
X129471290Y-105340524D01*
X129573441Y-105399500D01*
X129608216Y-105419577D01*
X129760943Y-105460500D01*
X129760945Y-105460500D01*
X129919055Y-105460500D01*
X129919057Y-105460500D01*
X130071784Y-105419577D01*
X130208716Y-105340520D01*
X130320520Y-105228716D01*
X130399577Y-105091784D01*
X130440500Y-104939057D01*
X130440500Y-104780943D01*
X130399577Y-104628216D01*
X130399573Y-104628209D01*
X130320524Y-104491290D01*
X130320518Y-104491282D01*
X130208717Y-104379481D01*
X130208709Y-104379475D01*
X130071790Y-104300426D01*
X130071786Y-104300424D01*
X130071784Y-104300423D01*
X129919057Y-104259500D01*
X129760943Y-104259500D01*
X129608216Y-104300423D01*
X129608209Y-104300426D01*
X129471290Y-104379475D01*
X129471282Y-104379481D01*
X129359481Y-104491282D01*
X129359475Y-104491290D01*
X129280426Y-104628209D01*
X129280423Y-104628216D01*
X129239500Y-104780943D01*
X128281195Y-104780943D01*
X128309577Y-104731784D01*
X128350500Y-104579057D01*
X128350500Y-104420943D01*
X128309577Y-104268216D01*
X128304545Y-104259500D01*
X128230524Y-104131290D01*
X128230518Y-104131282D01*
X128118717Y-104019481D01*
X128118709Y-104019475D01*
X128051972Y-103980945D01*
X132834496Y-103980945D01*
X132834496Y-104139059D01*
X132869104Y-104268216D01*
X132875419Y-104291785D01*
X132875422Y-104291792D01*
X132954471Y-104428711D01*
X132954475Y-104428716D01*
X132954476Y-104428718D01*
X133066280Y-104540522D01*
X133066282Y-104540523D01*
X133066286Y-104540526D01*
X133133023Y-104579056D01*
X133203212Y-104619579D01*
X133355939Y-104660502D01*
X133355941Y-104660502D01*
X133514051Y-104660502D01*
X133514053Y-104660502D01*
X133666780Y-104619579D01*
X133803712Y-104540522D01*
X133915516Y-104428718D01*
X133994573Y-104291786D01*
X134035496Y-104139059D01*
X134035496Y-103980945D01*
X133994573Y-103828218D01*
X133981867Y-103806211D01*
X133915520Y-103691292D01*
X133915514Y-103691284D01*
X133803713Y-103579483D01*
X133803705Y-103579477D01*
X133666786Y-103500428D01*
X133666782Y-103500426D01*
X133666780Y-103500425D01*
X133514053Y-103459502D01*
X133355939Y-103459502D01*
X133203212Y-103500425D01*
X133203205Y-103500428D01*
X133066286Y-103579477D01*
X133066278Y-103579483D01*
X132954477Y-103691284D01*
X132954471Y-103691292D01*
X132875422Y-103828211D01*
X132875419Y-103828218D01*
X132834496Y-103980945D01*
X128051972Y-103980945D01*
X127981790Y-103940426D01*
X127981786Y-103940424D01*
X127981784Y-103940423D01*
X127829057Y-103899500D01*
X127724500Y-103899500D01*
X127657461Y-103879815D01*
X127611706Y-103827011D01*
X127600500Y-103775500D01*
X127600500Y-103670944D01*
X127600500Y-103670942D01*
X127559577Y-103518215D01*
X127512686Y-103436997D01*
X127496214Y-103369099D01*
X127512687Y-103312999D01*
X127559577Y-103231783D01*
X127600500Y-103079056D01*
X127600500Y-102920942D01*
X127559577Y-102768215D01*
X127512686Y-102686997D01*
X127496214Y-102619099D01*
X127512687Y-102562999D01*
X127559577Y-102481783D01*
X127600500Y-102329056D01*
X127600500Y-102224500D01*
X127601544Y-102220945D01*
X131974498Y-102220945D01*
X131974498Y-102379059D01*
X132002024Y-102481785D01*
X132015421Y-102531785D01*
X132015424Y-102531792D01*
X132094473Y-102668711D01*
X132094477Y-102668716D01*
X132094478Y-102668718D01*
X132206282Y-102780522D01*
X132206284Y-102780523D01*
X132206288Y-102780526D01*
X132343207Y-102859575D01*
X132343214Y-102859579D01*
X132495941Y-102900502D01*
X132495943Y-102900502D01*
X132654053Y-102900502D01*
X132654055Y-102900502D01*
X132806782Y-102859579D01*
X132943714Y-102780522D01*
X133055518Y-102668718D01*
X133134575Y-102531786D01*
X133175498Y-102379059D01*
X133175498Y-102220945D01*
X133134575Y-102068218D01*
X133105706Y-102018215D01*
X133055522Y-101931292D01*
X133055516Y-101931284D01*
X132943715Y-101819483D01*
X132943707Y-101819477D01*
X132806788Y-101740428D01*
X132806784Y-101740426D01*
X132806782Y-101740425D01*
X132654055Y-101699502D01*
X132495941Y-101699502D01*
X132343214Y-101740425D01*
X132343207Y-101740428D01*
X132206288Y-101819477D01*
X132206280Y-101819483D01*
X132094479Y-101931284D01*
X132094473Y-101931292D01*
X132015424Y-102068211D01*
X132015421Y-102068218D01*
X131974498Y-102220945D01*
X127601544Y-102220945D01*
X127620185Y-102157461D01*
X127672989Y-102111706D01*
X127724500Y-102100500D01*
X127829055Y-102100500D01*
X127829057Y-102100500D01*
X127981784Y-102059577D01*
X128063001Y-102012686D01*
X128130900Y-101996214D01*
X128186998Y-102012686D01*
X128268216Y-102059577D01*
X128420943Y-102100500D01*
X128420945Y-102100500D01*
X128579055Y-102100500D01*
X128579057Y-102100500D01*
X128731784Y-102059577D01*
X128813001Y-102012686D01*
X128880900Y-101996214D01*
X128936998Y-102012686D01*
X129018216Y-102059577D01*
X129170943Y-102100500D01*
X129170945Y-102100500D01*
X129329055Y-102100500D01*
X129329057Y-102100500D01*
X129481784Y-102059577D01*
X129618716Y-101980520D01*
X129730520Y-101868716D01*
X129809577Y-101731784D01*
X129850500Y-101579057D01*
X129850500Y-101420943D01*
X129809577Y-101268216D01*
X129762686Y-101186998D01*
X129746214Y-101119100D01*
X129762687Y-101063000D01*
X129809577Y-100981784D01*
X129850500Y-100829057D01*
X129850500Y-100720943D01*
X149199500Y-100720943D01*
X149199500Y-100879057D01*
X149238796Y-101025710D01*
X149240423Y-101031783D01*
X149240426Y-101031790D01*
X149319475Y-101168709D01*
X149319479Y-101168714D01*
X149319480Y-101168716D01*
X149431284Y-101280520D01*
X149431286Y-101280521D01*
X149431290Y-101280524D01*
X149547443Y-101347584D01*
X149568216Y-101359577D01*
X149720943Y-101400500D01*
X149720945Y-101400500D01*
X149879055Y-101400500D01*
X149879057Y-101400500D01*
X150031784Y-101359577D01*
X150168716Y-101280520D01*
X150280520Y-101168716D01*
X150359577Y-101031784D01*
X150400500Y-100879057D01*
X150400500Y-100720943D01*
X150359577Y-100568216D01*
X150330706Y-100518209D01*
X150280524Y-100431290D01*
X150280518Y-100431282D01*
X150168717Y-100319481D01*
X150168709Y-100319475D01*
X150031790Y-100240426D01*
X150031786Y-100240424D01*
X150031784Y-100240423D01*
X149879057Y-100199500D01*
X149720943Y-100199500D01*
X149568216Y-100240423D01*
X149568209Y-100240426D01*
X149431290Y-100319475D01*
X149431282Y-100319481D01*
X149319481Y-100431282D01*
X149319475Y-100431290D01*
X149240426Y-100568209D01*
X149240423Y-100568216D01*
X149199500Y-100720943D01*
X129850500Y-100720943D01*
X129850500Y-100670943D01*
X129809577Y-100518216D01*
X129759391Y-100431290D01*
X129730524Y-100381290D01*
X129730518Y-100381282D01*
X129618717Y-100269481D01*
X129618709Y-100269475D01*
X129481790Y-100190426D01*
X129481786Y-100190424D01*
X129481784Y-100190423D01*
X129329057Y-100149500D01*
X129170943Y-100149500D01*
X129018216Y-100190423D01*
X129018215Y-100190423D01*
X128936999Y-100237313D01*
X128869099Y-100253784D01*
X128813001Y-100237313D01*
X128731784Y-100190423D01*
X128579057Y-100149500D01*
X128420943Y-100149500D01*
X128268216Y-100190423D01*
X128268215Y-100190423D01*
X128186999Y-100237313D01*
X128119099Y-100253784D01*
X128063001Y-100237313D01*
X127981784Y-100190423D01*
X127829057Y-100149500D01*
X127670943Y-100149500D01*
X127518216Y-100190423D01*
X127518215Y-100190423D01*
X127436999Y-100237313D01*
X127369099Y-100253784D01*
X127313001Y-100237313D01*
X127231784Y-100190423D01*
X127079057Y-100149500D01*
X126920943Y-100149500D01*
X126768216Y-100190423D01*
X126768209Y-100190426D01*
X126631290Y-100269475D01*
X126631282Y-100269481D01*
X126519481Y-100381282D01*
X126519475Y-100381290D01*
X126440426Y-100518209D01*
X126440423Y-100518216D01*
X126399500Y-100670943D01*
X110550500Y-100670943D01*
X110550499Y-100199500D01*
X110550499Y-99305143D01*
X110550499Y-99305136D01*
X110550497Y-99305117D01*
X110547586Y-99280012D01*
X110547585Y-99280010D01*
X110547585Y-99280009D01*
X110502206Y-99177235D01*
X110422765Y-99097794D01*
X110394951Y-99085513D01*
X110319992Y-99052415D01*
X110294865Y-99049500D01*
X108505143Y-99049500D01*
X108505117Y-99049502D01*
X108480012Y-99052413D01*
X108480008Y-99052415D01*
X108377235Y-99097793D01*
X108297794Y-99177234D01*
X108252415Y-99280006D01*
X108252415Y-99280008D01*
X108249500Y-99305131D01*
X103900000Y-99305131D01*
X103900000Y-98505131D01*
X139249500Y-98505131D01*
X139249500Y-100294856D01*
X139249502Y-100294882D01*
X139252413Y-100319987D01*
X139252415Y-100319991D01*
X139297793Y-100422764D01*
X139297794Y-100422765D01*
X139377235Y-100502206D01*
X139480009Y-100547585D01*
X139505135Y-100550500D01*
X141294864Y-100550499D01*
X141294879Y-100550497D01*
X141294882Y-100550497D01*
X141319987Y-100547586D01*
X141319988Y-100547585D01*
X141319991Y-100547585D01*
X141422765Y-100502206D01*
X141502206Y-100422765D01*
X141547585Y-100319991D01*
X141550500Y-100294865D01*
X141550499Y-99557125D01*
X141570183Y-99490089D01*
X141622987Y-99444334D01*
X141692146Y-99434390D01*
X141755702Y-99463415D01*
X141793476Y-99522193D01*
X141796972Y-99537729D01*
X141817829Y-99669410D01*
X141873787Y-99841636D01*
X141873788Y-99841639D01*
X141956006Y-100002997D01*
X142062441Y-100149494D01*
X142062445Y-100149499D01*
X142190500Y-100277554D01*
X142190505Y-100277558D01*
X142318287Y-100370396D01*
X142337006Y-100383996D01*
X142429825Y-100431290D01*
X142498360Y-100466211D01*
X142498363Y-100466212D01*
X142584476Y-100494191D01*
X142670591Y-100522171D01*
X142753429Y-100535291D01*
X142849449Y-100550500D01*
X142849454Y-100550500D01*
X143030551Y-100550500D01*
X143117259Y-100536765D01*
X143209409Y-100522171D01*
X143381639Y-100466211D01*
X143542994Y-100383996D01*
X143689501Y-100277553D01*
X143817553Y-100149501D01*
X143923996Y-100002994D01*
X144006211Y-99841639D01*
X144062171Y-99669409D01*
X144076765Y-99577259D01*
X144090500Y-99490551D01*
X144090500Y-99309448D01*
X144074019Y-99205397D01*
X144062171Y-99130591D01*
X144006211Y-98958361D01*
X144006211Y-98958360D01*
X143977740Y-98902484D01*
X143923996Y-98797006D01*
X143910396Y-98778287D01*
X143817558Y-98650505D01*
X143817554Y-98650500D01*
X143689499Y-98522445D01*
X143689494Y-98522441D01*
X143542997Y-98416006D01*
X143542996Y-98416005D01*
X143542994Y-98416004D01*
X143466906Y-98377235D01*
X143381639Y-98333788D01*
X143381636Y-98333787D01*
X143209410Y-98277829D01*
X143030551Y-98249500D01*
X143030546Y-98249500D01*
X142849454Y-98249500D01*
X142849449Y-98249500D01*
X142670589Y-98277829D01*
X142498363Y-98333787D01*
X142498360Y-98333788D01*
X142337002Y-98416006D01*
X142190505Y-98522441D01*
X142190500Y-98522445D01*
X142062445Y-98650500D01*
X142062441Y-98650505D01*
X141956006Y-98797002D01*
X141873788Y-98958360D01*
X141873787Y-98958363D01*
X141817829Y-99130589D01*
X141796972Y-99262271D01*
X141767042Y-99325405D01*
X141707731Y-99362336D01*
X141637868Y-99361338D01*
X141579636Y-99322728D01*
X141551522Y-99258764D01*
X141550499Y-99242872D01*
X141550499Y-98505143D01*
X141550499Y-98505136D01*
X141550497Y-98505117D01*
X141547586Y-98480012D01*
X141547585Y-98480010D01*
X141547585Y-98480009D01*
X141502206Y-98377235D01*
X141422765Y-98297794D01*
X141397035Y-98286433D01*
X141319992Y-98252415D01*
X141294865Y-98249500D01*
X139505143Y-98249500D01*
X139505117Y-98249502D01*
X139480012Y-98252413D01*
X139480008Y-98252415D01*
X139377235Y-98297793D01*
X139297794Y-98377234D01*
X139252415Y-98480006D01*
X139252415Y-98480008D01*
X139249500Y-98505131D01*
X103900000Y-98505131D01*
X103900000Y-98124500D01*
X103919685Y-98057461D01*
X103972489Y-98011706D01*
X104024000Y-98000500D01*
X115034108Y-98000500D01*
X126434108Y-98000500D01*
X143934108Y-98000500D01*
X151745308Y-98000500D01*
X151812347Y-98020185D01*
X151857027Y-98071749D01*
X151857220Y-98071651D01*
X151857615Y-98072428D01*
X151858102Y-98072989D01*
X151859279Y-98075693D01*
X151884148Y-98124500D01*
X151966657Y-98286433D01*
X152105483Y-98477510D01*
X152272490Y-98644517D01*
X152463567Y-98783343D01*
X152562991Y-98834002D01*
X152674003Y-98890566D01*
X152674005Y-98890566D01*
X152674008Y-98890568D01*
X152882650Y-98958360D01*
X152898632Y-98963553D01*
X152903361Y-98964688D01*
X152902899Y-98966609D01*
X152958488Y-98992930D01*
X152995448Y-99052224D01*
X153000000Y-99085513D01*
X153000000Y-120914486D01*
X152980315Y-120981525D01*
X152927511Y-121027280D01*
X152903191Y-121034611D01*
X152903360Y-121035312D01*
X152898631Y-121036446D01*
X152674003Y-121109433D01*
X152463566Y-121216657D01*
X152354550Y-121295862D01*
X152272490Y-121355483D01*
X152272488Y-121355485D01*
X152272487Y-121355485D01*
X152105485Y-121522487D01*
X152105485Y-121522488D01*
X152105483Y-121522490D01*
X152063323Y-121580518D01*
X151966657Y-121713566D01*
X151857220Y-121928349D01*
X151856013Y-121927734D01*
X151816038Y-121977350D01*
X151749746Y-121999421D01*
X151745308Y-121999500D01*
X92256962Y-121999500D01*
X92243078Y-121998720D01*
X92230553Y-121997308D01*
X92152735Y-121988540D01*
X92125666Y-121982362D01*
X92046462Y-121954648D01*
X92021444Y-121942600D01*
X91950395Y-121897957D01*
X91928686Y-121880644D01*
X91869355Y-121821313D01*
X91852042Y-121799604D01*
X91807399Y-121728555D01*
X91795351Y-121703537D01*
X91794288Y-121700500D01*
X91767636Y-121624331D01*
X91761459Y-121597263D01*
X91759572Y-121580518D01*
X91751280Y-121506922D01*
X91750500Y-121493038D01*
X91750500Y-121020943D01*
X96599500Y-121020943D01*
X96599500Y-121179056D01*
X96640423Y-121331783D01*
X96640426Y-121331790D01*
X96719475Y-121468709D01*
X96719479Y-121468714D01*
X96719480Y-121468716D01*
X96831284Y-121580520D01*
X96831286Y-121580521D01*
X96831290Y-121580524D01*
X96884335Y-121611149D01*
X96968216Y-121659577D01*
X97120943Y-121700500D01*
X97120945Y-121700500D01*
X97279055Y-121700500D01*
X97279057Y-121700500D01*
X97431784Y-121659577D01*
X97568716Y-121580520D01*
X97680520Y-121468716D01*
X97759577Y-121331784D01*
X97800500Y-121179057D01*
X97800500Y-121020943D01*
X97759577Y-120868216D01*
X97759573Y-120868209D01*
X97680524Y-120731290D01*
X97680518Y-120731282D01*
X97568717Y-120619481D01*
X97568709Y-120619475D01*
X97431790Y-120540426D01*
X97431786Y-120540424D01*
X97431784Y-120540423D01*
X97279057Y-120499500D01*
X97120943Y-120499500D01*
X96968216Y-120540423D01*
X96968209Y-120540426D01*
X96831290Y-120619475D01*
X96831282Y-120619481D01*
X96719481Y-120731282D01*
X96719475Y-120731290D01*
X96640426Y-120868209D01*
X96640423Y-120868216D01*
X96599500Y-121020943D01*
X91750500Y-121020943D01*
X91750500Y-119720943D01*
X109099500Y-119720943D01*
X109099500Y-119879057D01*
X109105246Y-119900499D01*
X109140423Y-120031783D01*
X109140426Y-120031790D01*
X109219475Y-120168709D01*
X109219479Y-120168714D01*
X109219480Y-120168716D01*
X109331284Y-120280520D01*
X109331286Y-120280521D01*
X109331290Y-120280524D01*
X109468209Y-120359573D01*
X109468216Y-120359577D01*
X109620943Y-120400500D01*
X109620945Y-120400500D01*
X109779055Y-120400500D01*
X109779057Y-120400500D01*
X109931784Y-120359577D01*
X110068716Y-120280520D01*
X110180520Y-120168716D01*
X110259577Y-120031784D01*
X110300500Y-119879057D01*
X110300500Y-119720943D01*
X110259577Y-119568216D01*
X110238543Y-119531784D01*
X110180524Y-119431290D01*
X110180518Y-119431282D01*
X110068717Y-119319481D01*
X110068709Y-119319475D01*
X109931790Y-119240426D01*
X109931786Y-119240424D01*
X109931784Y-119240423D01*
X109779057Y-119199500D01*
X109620943Y-119199500D01*
X109468216Y-119240423D01*
X109468209Y-119240426D01*
X109331290Y-119319475D01*
X109331282Y-119319481D01*
X109219481Y-119431282D01*
X109219475Y-119431290D01*
X109140426Y-119568209D01*
X109140423Y-119568216D01*
X109099500Y-119720943D01*
X91750500Y-119720943D01*
X91750500Y-119392683D01*
X91750500Y-119392682D01*
X91725808Y-119220943D01*
X91719955Y-119180235D01*
X91719952Y-119180225D01*
X91690247Y-119079057D01*
X91659484Y-118974290D01*
X91659483Y-118974288D01*
X91659482Y-118974284D01*
X91586432Y-118814327D01*
X91586431Y-118814326D01*
X91570323Y-118779054D01*
X91570320Y-118779048D01*
X91565111Y-118770943D01*
X93999500Y-118770943D01*
X93999500Y-118929057D01*
X94039693Y-119079057D01*
X94040423Y-119081783D01*
X94040426Y-119081790D01*
X94119475Y-119218709D01*
X94119479Y-119218714D01*
X94119480Y-119218716D01*
X94231284Y-119330520D01*
X94231286Y-119330521D01*
X94231290Y-119330524D01*
X94338954Y-119392683D01*
X94368216Y-119409577D01*
X94520943Y-119450500D01*
X94520945Y-119450500D01*
X94679055Y-119450500D01*
X94679057Y-119450500D01*
X94831784Y-119409577D01*
X94968716Y-119330520D01*
X95080520Y-119218716D01*
X95159577Y-119081784D01*
X95200500Y-118929057D01*
X95200500Y-118920943D01*
X128299500Y-118920943D01*
X128299500Y-119079057D01*
X128336922Y-119218716D01*
X128340423Y-119231783D01*
X128340426Y-119231790D01*
X128419475Y-119368709D01*
X128419479Y-119368714D01*
X128419480Y-119368716D01*
X128531284Y-119480520D01*
X128531286Y-119480521D01*
X128531290Y-119480524D01*
X128620087Y-119531790D01*
X128668216Y-119559577D01*
X128820943Y-119600500D01*
X128820945Y-119600500D01*
X128979055Y-119600500D01*
X128979057Y-119600500D01*
X129131784Y-119559577D01*
X129267913Y-119480983D01*
X129335811Y-119464511D01*
X129401838Y-119487364D01*
X129437299Y-119526372D01*
X129440422Y-119531781D01*
X129440423Y-119531784D01*
X129519480Y-119668716D01*
X129631284Y-119780520D01*
X129631286Y-119780521D01*
X129631290Y-119780524D01*
X129768209Y-119859573D01*
X129768216Y-119859577D01*
X129920943Y-119900500D01*
X129920945Y-119900500D01*
X130079055Y-119900500D01*
X130079057Y-119900500D01*
X130231784Y-119859577D01*
X130368716Y-119780520D01*
X130480520Y-119668716D01*
X130559577Y-119531784D01*
X130572241Y-119484519D01*
X130608604Y-119424860D01*
X130671450Y-119394330D01*
X130740826Y-119402624D01*
X130779696Y-119428932D01*
X130831284Y-119480520D01*
X130831286Y-119480521D01*
X130831290Y-119480524D01*
X130920087Y-119531790D01*
X130968216Y-119559577D01*
X131120943Y-119600500D01*
X131120945Y-119600500D01*
X131279055Y-119600500D01*
X131279057Y-119600500D01*
X131431784Y-119559577D01*
X131568716Y-119480520D01*
X131680520Y-119368716D01*
X131759577Y-119231784D01*
X131800500Y-119079057D01*
X131800500Y-118920943D01*
X131759577Y-118768216D01*
X131716259Y-118693186D01*
X131680524Y-118631290D01*
X131680518Y-118631282D01*
X131568717Y-118519481D01*
X131568709Y-118519475D01*
X131431790Y-118440426D01*
X131431786Y-118440424D01*
X131431784Y-118440423D01*
X131279057Y-118399500D01*
X131120943Y-118399500D01*
X130968216Y-118440423D01*
X130968209Y-118440426D01*
X130831290Y-118519475D01*
X130831282Y-118519481D01*
X130719481Y-118631282D01*
X130719475Y-118631290D01*
X130640426Y-118768209D01*
X130640423Y-118768214D01*
X130627759Y-118815480D01*
X130591394Y-118875140D01*
X130528546Y-118905669D01*
X130459171Y-118897374D01*
X130420303Y-118871067D01*
X130368717Y-118819481D01*
X130368709Y-118819475D01*
X130231790Y-118740426D01*
X130231786Y-118740424D01*
X130231784Y-118740423D01*
X130079057Y-118699500D01*
X129920943Y-118699500D01*
X129768216Y-118740423D01*
X129768215Y-118740423D01*
X129632087Y-118819016D01*
X129564187Y-118835488D01*
X129498160Y-118812635D01*
X129462700Y-118773627D01*
X129459577Y-118768219D01*
X129459577Y-118768216D01*
X129380520Y-118631284D01*
X129268716Y-118519480D01*
X129268714Y-118519479D01*
X129268709Y-118519475D01*
X129131790Y-118440426D01*
X129131786Y-118440424D01*
X129131784Y-118440423D01*
X128979057Y-118399500D01*
X128820943Y-118399500D01*
X128668216Y-118440423D01*
X128668209Y-118440426D01*
X128531290Y-118519475D01*
X128531282Y-118519481D01*
X128419481Y-118631282D01*
X128419475Y-118631290D01*
X128340426Y-118768209D01*
X128340424Y-118768214D01*
X128340423Y-118768216D01*
X128299500Y-118920943D01*
X95200500Y-118920943D01*
X95200500Y-118770943D01*
X95159577Y-118618216D01*
X95148187Y-118598487D01*
X95080524Y-118481290D01*
X95080518Y-118481282D01*
X94968717Y-118369481D01*
X94968709Y-118369475D01*
X94831790Y-118290426D01*
X94831786Y-118290424D01*
X94831784Y-118290423D01*
X94679057Y-118249500D01*
X94520943Y-118249500D01*
X94368216Y-118290423D01*
X94368209Y-118290426D01*
X94231290Y-118369475D01*
X94231282Y-118369481D01*
X94119481Y-118481282D01*
X94119475Y-118481290D01*
X94040426Y-118618209D01*
X94040423Y-118618216D01*
X93999500Y-118770943D01*
X91565111Y-118770943D01*
X91515140Y-118693186D01*
X91454281Y-118598487D01*
X91385817Y-118519475D01*
X91313724Y-118436275D01*
X91151512Y-118295718D01*
X91140971Y-118288944D01*
X91095216Y-118236140D01*
X91085273Y-118166981D01*
X91106299Y-118120943D01*
X106299500Y-118120943D01*
X106299500Y-118279057D01*
X106338739Y-118425497D01*
X106340423Y-118431783D01*
X106340426Y-118431790D01*
X106419475Y-118568709D01*
X106419479Y-118568714D01*
X106419480Y-118568716D01*
X106531284Y-118680520D01*
X106531286Y-118680521D01*
X106531290Y-118680524D01*
X106635040Y-118740423D01*
X106668216Y-118759577D01*
X106820943Y-118800500D01*
X106820945Y-118800500D01*
X106979055Y-118800500D01*
X106979057Y-118800500D01*
X107131784Y-118759577D01*
X107268716Y-118680520D01*
X107380520Y-118568716D01*
X107459577Y-118431784D01*
X107500500Y-118279057D01*
X107500500Y-118120943D01*
X107459577Y-117968216D01*
X107408101Y-117879056D01*
X107380524Y-117831290D01*
X107380518Y-117831282D01*
X107270179Y-117720943D01*
X125099500Y-117720943D01*
X125099500Y-117879057D01*
X125132418Y-118001907D01*
X125140423Y-118031783D01*
X125140426Y-118031790D01*
X125219475Y-118168709D01*
X125219479Y-118168714D01*
X125219480Y-118168716D01*
X125331284Y-118280520D01*
X125331286Y-118280521D01*
X125331290Y-118280524D01*
X125468209Y-118359573D01*
X125468216Y-118359577D01*
X125620943Y-118400500D01*
X125620945Y-118400500D01*
X125779055Y-118400500D01*
X125779057Y-118400500D01*
X125931784Y-118359577D01*
X126068716Y-118280520D01*
X126180520Y-118168716D01*
X126259577Y-118031784D01*
X126300500Y-117879057D01*
X126300500Y-117720943D01*
X126259577Y-117568216D01*
X126238543Y-117531784D01*
X126232284Y-117520943D01*
X131999500Y-117520943D01*
X131999500Y-117679057D01*
X132040289Y-117831282D01*
X132040423Y-117831783D01*
X132040426Y-117831790D01*
X132119475Y-117968709D01*
X132119479Y-117968714D01*
X132119480Y-117968716D01*
X132231284Y-118080520D01*
X132231286Y-118080521D01*
X132231290Y-118080524D01*
X132368209Y-118159573D01*
X132368216Y-118159577D01*
X132520943Y-118200500D01*
X132520945Y-118200500D01*
X132679055Y-118200500D01*
X132679057Y-118200500D01*
X132831784Y-118159577D01*
X132968716Y-118080520D01*
X133080520Y-117968716D01*
X133159577Y-117831784D01*
X133200500Y-117679057D01*
X133200500Y-117520943D01*
X133159577Y-117368216D01*
X133110362Y-117282972D01*
X133080524Y-117231290D01*
X133080518Y-117231282D01*
X132968717Y-117119481D01*
X132968709Y-117119475D01*
X132831790Y-117040426D01*
X132831786Y-117040424D01*
X132831784Y-117040423D01*
X132679057Y-116999500D01*
X132520943Y-116999500D01*
X132368216Y-117040423D01*
X132368209Y-117040426D01*
X132231290Y-117119475D01*
X132231282Y-117119481D01*
X132119481Y-117231282D01*
X132119475Y-117231290D01*
X132040426Y-117368209D01*
X132040423Y-117368216D01*
X131999500Y-117520943D01*
X126232284Y-117520943D01*
X126180522Y-117431287D01*
X126180518Y-117431282D01*
X126115042Y-117365806D01*
X126081557Y-117304483D01*
X126086541Y-117234791D01*
X126115042Y-117190444D01*
X126134329Y-117171157D01*
X126186770Y-117118716D01*
X126265827Y-116981784D01*
X126306750Y-116829057D01*
X126306750Y-116670943D01*
X126265827Y-116518216D01*
X126244066Y-116480524D01*
X126186774Y-116381290D01*
X126186768Y-116381282D01*
X126074967Y-116269481D01*
X126074959Y-116269475D01*
X125938040Y-116190426D01*
X125938036Y-116190424D01*
X125938034Y-116190423D01*
X125785307Y-116149500D01*
X125627193Y-116149500D01*
X125474466Y-116190423D01*
X125474459Y-116190426D01*
X125337540Y-116269475D01*
X125337532Y-116269481D01*
X125225731Y-116381282D01*
X125225725Y-116381290D01*
X125146676Y-116518209D01*
X125146673Y-116518216D01*
X125105750Y-116670943D01*
X125105750Y-116829057D01*
X125143038Y-116968216D01*
X125146673Y-116981783D01*
X125146676Y-116981790D01*
X125225725Y-117118709D01*
X125225731Y-117118717D01*
X125291208Y-117184194D01*
X125324693Y-117245517D01*
X125319709Y-117315209D01*
X125291208Y-117359556D01*
X125219481Y-117431282D01*
X125219475Y-117431290D01*
X125140426Y-117568209D01*
X125140426Y-117568210D01*
X125140423Y-117568216D01*
X125099500Y-117720943D01*
X107270179Y-117720943D01*
X107268717Y-117719481D01*
X107268709Y-117719475D01*
X107131790Y-117640426D01*
X107131786Y-117640424D01*
X107131784Y-117640423D01*
X106979057Y-117599500D01*
X106820943Y-117599500D01*
X106668216Y-117640423D01*
X106668209Y-117640426D01*
X106531290Y-117719475D01*
X106531282Y-117719481D01*
X106419481Y-117831282D01*
X106419475Y-117831290D01*
X106340426Y-117968209D01*
X106340423Y-117968216D01*
X106299500Y-118120943D01*
X91106299Y-118120943D01*
X91114299Y-118103426D01*
X91152552Y-118073723D01*
X91800000Y-117750000D01*
X91800000Y-117220943D01*
X98899500Y-117220943D01*
X98899500Y-117379057D01*
X98905902Y-117402947D01*
X98940423Y-117531783D01*
X98940426Y-117531790D01*
X99019475Y-117668709D01*
X99019479Y-117668714D01*
X99019480Y-117668716D01*
X99131284Y-117780520D01*
X99131286Y-117780521D01*
X99131290Y-117780524D01*
X99220087Y-117831790D01*
X99268216Y-117859577D01*
X99420943Y-117900500D01*
X99420945Y-117900500D01*
X99579055Y-117900500D01*
X99579057Y-117900500D01*
X99731784Y-117859577D01*
X99868716Y-117780520D01*
X99962407Y-117686828D01*
X100023726Y-117653346D01*
X100093418Y-117658330D01*
X100125574Y-117676138D01*
X100131281Y-117680517D01*
X100131284Y-117680520D01*
X100131287Y-117680521D01*
X100131290Y-117680524D01*
X100251626Y-117749999D01*
X100268216Y-117759577D01*
X100420943Y-117800500D01*
X100420945Y-117800500D01*
X100579055Y-117800500D01*
X100579057Y-117800500D01*
X100731784Y-117759577D01*
X100868716Y-117680520D01*
X100980520Y-117568716D01*
X101059577Y-117431784D01*
X101100500Y-117279057D01*
X101100500Y-117120943D01*
X101059577Y-116968216D01*
X101038258Y-116931290D01*
X100980524Y-116831290D01*
X100980518Y-116831282D01*
X100872627Y-116723391D01*
X117269501Y-116723391D01*
X117269501Y-116881505D01*
X117296373Y-116981790D01*
X117310424Y-117034231D01*
X117310427Y-117034238D01*
X117389476Y-117171157D01*
X117389480Y-117171162D01*
X117389481Y-117171164D01*
X117501285Y-117282968D01*
X117501287Y-117282969D01*
X117501291Y-117282972D01*
X117638210Y-117362021D01*
X117638217Y-117362025D01*
X117790944Y-117402948D01*
X117790946Y-117402948D01*
X117949056Y-117402948D01*
X117949058Y-117402948D01*
X118101785Y-117362025D01*
X118238717Y-117282968D01*
X118350521Y-117171164D01*
X118429578Y-117034232D01*
X118470501Y-116881505D01*
X118470501Y-116723391D01*
X118429578Y-116570664D01*
X118423175Y-116559573D01*
X118350525Y-116433738D01*
X118350519Y-116433730D01*
X118238718Y-116321929D01*
X118238710Y-116321923D01*
X118101791Y-116242874D01*
X118101787Y-116242872D01*
X118101785Y-116242871D01*
X117949058Y-116201948D01*
X117790944Y-116201948D01*
X117638217Y-116242871D01*
X117638210Y-116242874D01*
X117501291Y-116321923D01*
X117501283Y-116321929D01*
X117389482Y-116433730D01*
X117389476Y-116433738D01*
X117310427Y-116570657D01*
X117310424Y-116570664D01*
X117269501Y-116723391D01*
X100872627Y-116723391D01*
X100868717Y-116719481D01*
X100868709Y-116719475D01*
X100731790Y-116640426D01*
X100731786Y-116640424D01*
X100731784Y-116640423D01*
X100579057Y-116599500D01*
X100420943Y-116599500D01*
X100268216Y-116640423D01*
X100268209Y-116640426D01*
X100131290Y-116719475D01*
X100131286Y-116719478D01*
X100037595Y-116813169D01*
X99976271Y-116846653D01*
X99906580Y-116841669D01*
X99874426Y-116823862D01*
X99868720Y-116819484D01*
X99868716Y-116819480D01*
X99868710Y-116819476D01*
X99868708Y-116819475D01*
X99731790Y-116740426D01*
X99731786Y-116740424D01*
X99731784Y-116740423D01*
X99579057Y-116699500D01*
X99420943Y-116699500D01*
X99268216Y-116740423D01*
X99268209Y-116740426D01*
X99131290Y-116819475D01*
X99131282Y-116819481D01*
X99019481Y-116931282D01*
X99019475Y-116931290D01*
X98940426Y-117068209D01*
X98940423Y-117068216D01*
X98899500Y-117220943D01*
X91800000Y-117220943D01*
X91800000Y-116250000D01*
X91799999Y-116249999D01*
X91343545Y-116021772D01*
X91292387Y-115974185D01*
X91275000Y-115910863D01*
X91275000Y-115620943D01*
X96499500Y-115620943D01*
X96499500Y-115779057D01*
X96534818Y-115910863D01*
X96540423Y-115931783D01*
X96540426Y-115931790D01*
X96619475Y-116068709D01*
X96619479Y-116068714D01*
X96619480Y-116068716D01*
X96731284Y-116180520D01*
X96731286Y-116180521D01*
X96731290Y-116180524D01*
X96820080Y-116231786D01*
X96868216Y-116259577D01*
X97020943Y-116300500D01*
X97020945Y-116300500D01*
X97179055Y-116300500D01*
X97179057Y-116300500D01*
X97331784Y-116259577D01*
X97468716Y-116180520D01*
X97580520Y-116068716D01*
X97659577Y-115931784D01*
X97662482Y-115920943D01*
X135859500Y-115920943D01*
X135859500Y-116079057D01*
X135892429Y-116201948D01*
X135900423Y-116231783D01*
X135900426Y-116231790D01*
X135979475Y-116368709D01*
X135979479Y-116368714D01*
X135979480Y-116368716D01*
X136091284Y-116480520D01*
X136091286Y-116480521D01*
X136091290Y-116480524D01*
X136228209Y-116559573D01*
X136228216Y-116559577D01*
X136380943Y-116600500D01*
X136380945Y-116600500D01*
X136539055Y-116600500D01*
X136539057Y-116600500D01*
X136691784Y-116559577D01*
X136828716Y-116480520D01*
X136940520Y-116368716D01*
X136987612Y-116287148D01*
X137038179Y-116238933D01*
X137106786Y-116225709D01*
X137171651Y-116251677D01*
X137202387Y-116287147D01*
X137249480Y-116368716D01*
X137361284Y-116480520D01*
X137361286Y-116480521D01*
X137361290Y-116480524D01*
X137498209Y-116559573D01*
X137498216Y-116559577D01*
X137650943Y-116600500D01*
X137650945Y-116600500D01*
X137809055Y-116600500D01*
X137809057Y-116600500D01*
X137961784Y-116559577D01*
X138098716Y-116480520D01*
X138210520Y-116368716D01*
X138257612Y-116287148D01*
X138308179Y-116238933D01*
X138376786Y-116225709D01*
X138441651Y-116251677D01*
X138472387Y-116287147D01*
X138519480Y-116368716D01*
X138631284Y-116480520D01*
X138631286Y-116480521D01*
X138631290Y-116480524D01*
X138768209Y-116559573D01*
X138768216Y-116559577D01*
X138920943Y-116600500D01*
X138920945Y-116600500D01*
X139079055Y-116600500D01*
X139079057Y-116600500D01*
X139231784Y-116559577D01*
X139368716Y-116480520D01*
X139480520Y-116368716D01*
X139527612Y-116287148D01*
X139578179Y-116238933D01*
X139646786Y-116225709D01*
X139711651Y-116251677D01*
X139742387Y-116287147D01*
X139789480Y-116368716D01*
X139901284Y-116480520D01*
X139901286Y-116480521D01*
X139901290Y-116480524D01*
X140038209Y-116559573D01*
X140038216Y-116559577D01*
X140190943Y-116600500D01*
X140190945Y-116600500D01*
X140349055Y-116600500D01*
X140349057Y-116600500D01*
X140501784Y-116559577D01*
X140638716Y-116480520D01*
X140750520Y-116368716D01*
X140797612Y-116287148D01*
X140848179Y-116238933D01*
X140916786Y-116225709D01*
X140981651Y-116251677D01*
X141012387Y-116287147D01*
X141059480Y-116368716D01*
X141171284Y-116480520D01*
X141171286Y-116480521D01*
X141171290Y-116480524D01*
X141308209Y-116559573D01*
X141308216Y-116559577D01*
X141460943Y-116600500D01*
X141460945Y-116600500D01*
X141619055Y-116600500D01*
X141619057Y-116600500D01*
X141771784Y-116559577D01*
X141908716Y-116480520D01*
X142020520Y-116368716D01*
X142067612Y-116287148D01*
X142118179Y-116238933D01*
X142186786Y-116225709D01*
X142251651Y-116251677D01*
X142282387Y-116287147D01*
X142329480Y-116368716D01*
X142441284Y-116480520D01*
X142441286Y-116480521D01*
X142441290Y-116480524D01*
X142578209Y-116559573D01*
X142578216Y-116559577D01*
X142730943Y-116600500D01*
X142730945Y-116600500D01*
X142889055Y-116600500D01*
X142889057Y-116600500D01*
X143041784Y-116559577D01*
X143178716Y-116480520D01*
X143290520Y-116368716D01*
X143337612Y-116287148D01*
X143388179Y-116238933D01*
X143456786Y-116225709D01*
X143521651Y-116251677D01*
X143552387Y-116287147D01*
X143599480Y-116368716D01*
X143711284Y-116480520D01*
X143711286Y-116480521D01*
X143711290Y-116480524D01*
X143848209Y-116559573D01*
X143848216Y-116559577D01*
X144000943Y-116600500D01*
X144000945Y-116600500D01*
X144159055Y-116600500D01*
X144159057Y-116600500D01*
X144311784Y-116559577D01*
X144448716Y-116480520D01*
X144560520Y-116368716D01*
X144607612Y-116287148D01*
X144658179Y-116238933D01*
X144726786Y-116225709D01*
X144791651Y-116251677D01*
X144822387Y-116287147D01*
X144869480Y-116368716D01*
X144981284Y-116480520D01*
X144981286Y-116480521D01*
X144981290Y-116480524D01*
X145118209Y-116559573D01*
X145118216Y-116559577D01*
X145270943Y-116600500D01*
X145270945Y-116600500D01*
X145429055Y-116600500D01*
X145429057Y-116600500D01*
X145581784Y-116559577D01*
X145718716Y-116480520D01*
X145819105Y-116380131D01*
X147499500Y-116380131D01*
X147499500Y-118169856D01*
X147499502Y-118169882D01*
X147502413Y-118194987D01*
X147502415Y-118194991D01*
X147547793Y-118297764D01*
X147547794Y-118297765D01*
X147627235Y-118377206D01*
X147730009Y-118422585D01*
X147755135Y-118425500D01*
X149544864Y-118425499D01*
X149544879Y-118425497D01*
X149544882Y-118425497D01*
X149569987Y-118422586D01*
X149569988Y-118422585D01*
X149569991Y-118422585D01*
X149672765Y-118377206D01*
X149752206Y-118297765D01*
X149797585Y-118194991D01*
X149800500Y-118169865D01*
X149800499Y-116380136D01*
X149799175Y-116368716D01*
X149797586Y-116355012D01*
X149797585Y-116355010D01*
X149797585Y-116355009D01*
X149752206Y-116252235D01*
X149672765Y-116172794D01*
X149620009Y-116149500D01*
X149569992Y-116127415D01*
X149544865Y-116124500D01*
X147755143Y-116124500D01*
X147755117Y-116124502D01*
X147730012Y-116127413D01*
X147730008Y-116127415D01*
X147627235Y-116172793D01*
X147547794Y-116252234D01*
X147502415Y-116355006D01*
X147502415Y-116355008D01*
X147499500Y-116380131D01*
X145819105Y-116380131D01*
X145830520Y-116368716D01*
X145909577Y-116231784D01*
X145950500Y-116079057D01*
X145950500Y-115920943D01*
X145909577Y-115768216D01*
X145887816Y-115730524D01*
X145830524Y-115631290D01*
X145830518Y-115631282D01*
X145718717Y-115519481D01*
X145718709Y-115519475D01*
X145581790Y-115440426D01*
X145581786Y-115440424D01*
X145581784Y-115440423D01*
X145429057Y-115399500D01*
X145270943Y-115399500D01*
X145118216Y-115440423D01*
X145118209Y-115440426D01*
X144981290Y-115519475D01*
X144981282Y-115519481D01*
X144869481Y-115631282D01*
X144869477Y-115631287D01*
X144822387Y-115712851D01*
X144771820Y-115761067D01*
X144703213Y-115774290D01*
X144638348Y-115748322D01*
X144607613Y-115712851D01*
X144560522Y-115631287D01*
X144560518Y-115631282D01*
X144448717Y-115519481D01*
X144448709Y-115519475D01*
X144311790Y-115440426D01*
X144311786Y-115440424D01*
X144311784Y-115440423D01*
X144159057Y-115399500D01*
X144000943Y-115399500D01*
X143848216Y-115440423D01*
X143848209Y-115440426D01*
X143711290Y-115519475D01*
X143711282Y-115519481D01*
X143599481Y-115631282D01*
X143599477Y-115631287D01*
X143552387Y-115712851D01*
X143501820Y-115761067D01*
X143433213Y-115774290D01*
X143368348Y-115748322D01*
X143337613Y-115712851D01*
X143290522Y-115631287D01*
X143290518Y-115631282D01*
X143178717Y-115519481D01*
X143178709Y-115519475D01*
X143041790Y-115440426D01*
X143041786Y-115440424D01*
X143041784Y-115440423D01*
X142889057Y-115399500D01*
X142730943Y-115399500D01*
X142578216Y-115440423D01*
X142578209Y-115440426D01*
X142441290Y-115519475D01*
X142441282Y-115519481D01*
X142329481Y-115631282D01*
X142329477Y-115631287D01*
X142282387Y-115712851D01*
X142231820Y-115761067D01*
X142163213Y-115774290D01*
X142098348Y-115748322D01*
X142067613Y-115712851D01*
X142020522Y-115631287D01*
X142020518Y-115631282D01*
X141908717Y-115519481D01*
X141908709Y-115519475D01*
X141771790Y-115440426D01*
X141771786Y-115440424D01*
X141771784Y-115440423D01*
X141619057Y-115399500D01*
X141460943Y-115399500D01*
X141308216Y-115440423D01*
X141308209Y-115440426D01*
X141171290Y-115519475D01*
X141171282Y-115519481D01*
X141059481Y-115631282D01*
X141059477Y-115631287D01*
X141012387Y-115712851D01*
X140961820Y-115761067D01*
X140893213Y-115774290D01*
X140828348Y-115748322D01*
X140797613Y-115712851D01*
X140750522Y-115631287D01*
X140750518Y-115631282D01*
X140638717Y-115519481D01*
X140638709Y-115519475D01*
X140501790Y-115440426D01*
X140501786Y-115440424D01*
X140501784Y-115440423D01*
X140349057Y-115399500D01*
X140190943Y-115399500D01*
X140038216Y-115440423D01*
X140038209Y-115440426D01*
X139901290Y-115519475D01*
X139901282Y-115519481D01*
X139789481Y-115631282D01*
X139789477Y-115631287D01*
X139742387Y-115712851D01*
X139691820Y-115761067D01*
X139623213Y-115774290D01*
X139558348Y-115748322D01*
X139527613Y-115712851D01*
X139480522Y-115631287D01*
X139480518Y-115631282D01*
X139368717Y-115519481D01*
X139368709Y-115519475D01*
X139231790Y-115440426D01*
X139231786Y-115440424D01*
X139231784Y-115440423D01*
X139079057Y-115399500D01*
X138920943Y-115399500D01*
X138768216Y-115440423D01*
X138768209Y-115440426D01*
X138631290Y-115519475D01*
X138631282Y-115519481D01*
X138519481Y-115631282D01*
X138519477Y-115631287D01*
X138472387Y-115712851D01*
X138421820Y-115761067D01*
X138353213Y-115774290D01*
X138288348Y-115748322D01*
X138257613Y-115712851D01*
X138210522Y-115631287D01*
X138210518Y-115631282D01*
X138098717Y-115519481D01*
X138098709Y-115519475D01*
X137961790Y-115440426D01*
X137961786Y-115440424D01*
X137961784Y-115440423D01*
X137809057Y-115399500D01*
X137650943Y-115399500D01*
X137498216Y-115440423D01*
X137498209Y-115440426D01*
X137361290Y-115519475D01*
X137361282Y-115519481D01*
X137249481Y-115631282D01*
X137249477Y-115631287D01*
X137202387Y-115712851D01*
X137151820Y-115761067D01*
X137083213Y-115774290D01*
X137018348Y-115748322D01*
X136987613Y-115712851D01*
X136940522Y-115631287D01*
X136940518Y-115631282D01*
X136828717Y-115519481D01*
X136828709Y-115519475D01*
X136691790Y-115440426D01*
X136691786Y-115440424D01*
X136691784Y-115440423D01*
X136539057Y-115399500D01*
X136380943Y-115399500D01*
X136228216Y-115440423D01*
X136228209Y-115440426D01*
X136091290Y-115519475D01*
X136091282Y-115519481D01*
X135979481Y-115631282D01*
X135979475Y-115631290D01*
X135900426Y-115768209D01*
X135900423Y-115768216D01*
X135859500Y-115920943D01*
X97662482Y-115920943D01*
X97700500Y-115779057D01*
X97700500Y-115620943D01*
X97659577Y-115468216D01*
X97612397Y-115386498D01*
X97611551Y-115383011D01*
X97609098Y-115380394D01*
X97603379Y-115349324D01*
X97595926Y-115318599D01*
X97597100Y-115315206D01*
X97596451Y-115311678D01*
X97608438Y-115282448D01*
X97618779Y-115252572D01*
X97621600Y-115250352D01*
X97622962Y-115247034D01*
X97648852Y-115228922D01*
X97673701Y-115209382D01*
X97678138Y-115208436D01*
X97680214Y-115206984D01*
X97700695Y-115203627D01*
X97714925Y-115200595D01*
X97720483Y-115200376D01*
X97720943Y-115200500D01*
X97879057Y-115200500D01*
X97906797Y-115193067D01*
X97920639Y-115192524D01*
X97941622Y-115197801D01*
X97963254Y-115198316D01*
X97974837Y-115206155D01*
X97988398Y-115209566D01*
X98003195Y-115225348D01*
X98021117Y-115237477D01*
X98026622Y-115250333D01*
X98036188Y-115260535D01*
X98040104Y-115281813D01*
X98048623Y-115301705D01*
X98049500Y-115316429D01*
X98049500Y-115329057D01*
X98090086Y-115480524D01*
X98090423Y-115481783D01*
X98090426Y-115481790D01*
X98169475Y-115618709D01*
X98169479Y-115618714D01*
X98169480Y-115618716D01*
X98281284Y-115730520D01*
X98281286Y-115730521D01*
X98281290Y-115730524D01*
X98411030Y-115805428D01*
X98418216Y-115809577D01*
X98570943Y-115850500D01*
X98570945Y-115850500D01*
X98729055Y-115850500D01*
X98729057Y-115850500D01*
X98881784Y-115809577D01*
X99018716Y-115730520D01*
X99130520Y-115618716D01*
X99209577Y-115481784D01*
X99250500Y-115329057D01*
X99250500Y-115170943D01*
X99209577Y-115018216D01*
X99153417Y-114920943D01*
X115999500Y-114920943D01*
X115999500Y-115079057D01*
X116038699Y-115225348D01*
X116040423Y-115231783D01*
X116040426Y-115231790D01*
X116119475Y-115368709D01*
X116119479Y-115368714D01*
X116119480Y-115368716D01*
X116231284Y-115480520D01*
X116231286Y-115480521D01*
X116231290Y-115480524D01*
X116320087Y-115531790D01*
X116368216Y-115559577D01*
X116520943Y-115600500D01*
X116520945Y-115600500D01*
X116679055Y-115600500D01*
X116679057Y-115600500D01*
X116831784Y-115559577D01*
X116968716Y-115480520D01*
X117080520Y-115368716D01*
X117080525Y-115368705D01*
X117084835Y-115363091D01*
X117141262Y-115321887D01*
X117211008Y-115317730D01*
X117271929Y-115351941D01*
X117302988Y-115406481D01*
X117310424Y-115434235D01*
X117310427Y-115434240D01*
X117389476Y-115571159D01*
X117389480Y-115571164D01*
X117389481Y-115571166D01*
X117501285Y-115682970D01*
X117501287Y-115682971D01*
X117501291Y-115682974D01*
X117633972Y-115759576D01*
X117638217Y-115762027D01*
X117790944Y-115802950D01*
X117790946Y-115802950D01*
X117949056Y-115802950D01*
X117949058Y-115802950D01*
X118101785Y-115762027D01*
X118238717Y-115682970D01*
X118350521Y-115571166D01*
X118429578Y-115434234D01*
X118470501Y-115281507D01*
X118470501Y-115123393D01*
X118443050Y-115020943D01*
X120249501Y-115020943D01*
X120249501Y-115179057D01*
X120290290Y-115331282D01*
X120290424Y-115331783D01*
X120290427Y-115331790D01*
X120369476Y-115468709D01*
X120369480Y-115468714D01*
X120369481Y-115468716D01*
X120481285Y-115580520D01*
X120481287Y-115580521D01*
X120481291Y-115580524D01*
X120569222Y-115631290D01*
X120618217Y-115659577D01*
X120770944Y-115700500D01*
X120770946Y-115700500D01*
X120929056Y-115700500D01*
X120929058Y-115700500D01*
X121081785Y-115659577D01*
X121218717Y-115580520D01*
X121330521Y-115468716D01*
X121409578Y-115331784D01*
X121450501Y-115179057D01*
X121450501Y-115120943D01*
X125299500Y-115120943D01*
X125299500Y-115279057D01*
X125327355Y-115383011D01*
X125340423Y-115431783D01*
X125340426Y-115431790D01*
X125419475Y-115568709D01*
X125419479Y-115568714D01*
X125419480Y-115568716D01*
X125531284Y-115680520D01*
X125531286Y-115680521D01*
X125531290Y-115680524D01*
X125668209Y-115759573D01*
X125668216Y-115759577D01*
X125820943Y-115800500D01*
X125820945Y-115800500D01*
X125979055Y-115800500D01*
X125979057Y-115800500D01*
X126131784Y-115759577D01*
X126268716Y-115680520D01*
X126380520Y-115568716D01*
X126459577Y-115431784D01*
X126500500Y-115279057D01*
X126500500Y-115220943D01*
X132699500Y-115220943D01*
X132699500Y-115379057D01*
X132737127Y-115519481D01*
X132740423Y-115531783D01*
X132740426Y-115531790D01*
X132819475Y-115668709D01*
X132819479Y-115668714D01*
X132819480Y-115668716D01*
X132931284Y-115780520D01*
X132931286Y-115780521D01*
X132931290Y-115780524D01*
X133052492Y-115850499D01*
X133068216Y-115859577D01*
X133220943Y-115900500D01*
X133220945Y-115900500D01*
X133379055Y-115900500D01*
X133379057Y-115900500D01*
X133531784Y-115859577D01*
X133668716Y-115780520D01*
X133780520Y-115668716D01*
X133859577Y-115531784D01*
X133900500Y-115379057D01*
X133900500Y-115220943D01*
X133859577Y-115068216D01*
X133846121Y-115044909D01*
X133780524Y-114931290D01*
X133780518Y-114931282D01*
X133668717Y-114819481D01*
X133668709Y-114819475D01*
X133531790Y-114740426D01*
X133531786Y-114740424D01*
X133531784Y-114740423D01*
X133379057Y-114699500D01*
X133220943Y-114699500D01*
X133068216Y-114740423D01*
X133068209Y-114740426D01*
X132931290Y-114819475D01*
X132931282Y-114819481D01*
X132819481Y-114931282D01*
X132819475Y-114931290D01*
X132740426Y-115068209D01*
X132740423Y-115068216D01*
X132699500Y-115220943D01*
X126500500Y-115220943D01*
X126500500Y-115120943D01*
X126459577Y-114968216D01*
X126438258Y-114931290D01*
X126380524Y-114831290D01*
X126380518Y-114831282D01*
X126268717Y-114719481D01*
X126268709Y-114719475D01*
X126131790Y-114640426D01*
X126131786Y-114640424D01*
X126131784Y-114640423D01*
X125979057Y-114599500D01*
X125820943Y-114599500D01*
X125668216Y-114640423D01*
X125668209Y-114640426D01*
X125531290Y-114719475D01*
X125531282Y-114719481D01*
X125419481Y-114831282D01*
X125419475Y-114831290D01*
X125340426Y-114968209D01*
X125340423Y-114968216D01*
X125299500Y-115120943D01*
X121450501Y-115120943D01*
X121450501Y-115020943D01*
X121409578Y-114868216D01*
X121392922Y-114839367D01*
X121330525Y-114731290D01*
X121330519Y-114731282D01*
X121218718Y-114619481D01*
X121218710Y-114619475D01*
X121081791Y-114540426D01*
X121081787Y-114540424D01*
X121081785Y-114540423D01*
X120929058Y-114499500D01*
X120770944Y-114499500D01*
X120618217Y-114540423D01*
X120618210Y-114540426D01*
X120481291Y-114619475D01*
X120481283Y-114619481D01*
X120369482Y-114731282D01*
X120369476Y-114731290D01*
X120290427Y-114868209D01*
X120290424Y-114868216D01*
X120249501Y-115020943D01*
X118443050Y-115020943D01*
X118429578Y-114970666D01*
X118428164Y-114968216D01*
X118350525Y-114833740D01*
X118350519Y-114833732D01*
X118238718Y-114721931D01*
X118238710Y-114721925D01*
X118101791Y-114642876D01*
X118101787Y-114642874D01*
X118101785Y-114642873D01*
X117949058Y-114601950D01*
X117790944Y-114601950D01*
X117638217Y-114642873D01*
X117638210Y-114642876D01*
X117501291Y-114721925D01*
X117501283Y-114721931D01*
X117389480Y-114833734D01*
X117385158Y-114839367D01*
X117328727Y-114880566D01*
X117258981Y-114884716D01*
X117198063Y-114850500D01*
X117167013Y-114795967D01*
X117159577Y-114768216D01*
X117138258Y-114731290D01*
X117080524Y-114631290D01*
X117080518Y-114631282D01*
X116968717Y-114519481D01*
X116968709Y-114519475D01*
X116831790Y-114440426D01*
X116831786Y-114440424D01*
X116831784Y-114440423D01*
X116679057Y-114399500D01*
X116520943Y-114399500D01*
X116368216Y-114440423D01*
X116368209Y-114440426D01*
X116231290Y-114519475D01*
X116231282Y-114519481D01*
X116119481Y-114631282D01*
X116119475Y-114631290D01*
X116040426Y-114768209D01*
X116040423Y-114768216D01*
X115999500Y-114920943D01*
X99153417Y-114920943D01*
X99130520Y-114881284D01*
X99018716Y-114769480D01*
X99018714Y-114769479D01*
X99018709Y-114769475D01*
X98881790Y-114690426D01*
X98881786Y-114690424D01*
X98881784Y-114690423D01*
X98729057Y-114649500D01*
X98570943Y-114649500D01*
X98570938Y-114649500D01*
X98556591Y-114653345D01*
X98486741Y-114651681D01*
X98428880Y-114612518D01*
X98401377Y-114548289D01*
X98400500Y-114533570D01*
X98400500Y-114520945D01*
X98400500Y-114520943D01*
X98359577Y-114368216D01*
X98344316Y-114341783D01*
X98280524Y-114231290D01*
X98280518Y-114231282D01*
X98168717Y-114119481D01*
X98168709Y-114119475D01*
X98031790Y-114040426D01*
X98031786Y-114040424D01*
X98031784Y-114040423D01*
X97879057Y-113999500D01*
X97720943Y-113999500D01*
X97568216Y-114040423D01*
X97568209Y-114040426D01*
X97431290Y-114119475D01*
X97431282Y-114119481D01*
X97319481Y-114231282D01*
X97319475Y-114231290D01*
X97240426Y-114368209D01*
X97240423Y-114368216D01*
X97199500Y-114520943D01*
X97199500Y-114679057D01*
X97240423Y-114831784D01*
X97268560Y-114880520D01*
X97287602Y-114913501D01*
X97304074Y-114981401D01*
X97281221Y-115047428D01*
X97226299Y-115090618D01*
X97180214Y-115099500D01*
X97020943Y-115099500D01*
X96868216Y-115140423D01*
X96868209Y-115140426D01*
X96731290Y-115219475D01*
X96731282Y-115219481D01*
X96619481Y-115331282D01*
X96619475Y-115331290D01*
X96540426Y-115468209D01*
X96540423Y-115468216D01*
X96499500Y-115620943D01*
X91275000Y-115620943D01*
X91275000Y-113520943D01*
X93499500Y-113520943D01*
X93499500Y-113679057D01*
X93538250Y-113823672D01*
X93540423Y-113831783D01*
X93540423Y-113831784D01*
X93601746Y-113938001D01*
X93618217Y-114005902D01*
X93601746Y-114061999D01*
X93540423Y-114168215D01*
X93540423Y-114168216D01*
X93499500Y-114320943D01*
X93499500Y-114479057D01*
X93540289Y-114631282D01*
X93540423Y-114631783D01*
X93540426Y-114631790D01*
X93619475Y-114768709D01*
X93619479Y-114768714D01*
X93619480Y-114768716D01*
X93731284Y-114880520D01*
X93731286Y-114880521D01*
X93731290Y-114880524D01*
X93819221Y-114931290D01*
X93868216Y-114959577D01*
X94020943Y-115000500D01*
X94020945Y-115000500D01*
X94179055Y-115000500D01*
X94179057Y-115000500D01*
X94331784Y-114959577D01*
X94468716Y-114880520D01*
X94580520Y-114768716D01*
X94659577Y-114631784D01*
X94700500Y-114479057D01*
X94700500Y-114320943D01*
X94659577Y-114168216D01*
X94654587Y-114159573D01*
X94598254Y-114061999D01*
X94581781Y-113994099D01*
X94598254Y-113938001D01*
X94638254Y-113868716D01*
X94659577Y-113831784D01*
X94700500Y-113679057D01*
X94700500Y-113520943D01*
X98409500Y-113520943D01*
X98409500Y-113679057D01*
X98448250Y-113823672D01*
X98450423Y-113831783D01*
X98450426Y-113831790D01*
X98529475Y-113968709D01*
X98529479Y-113968714D01*
X98529480Y-113968716D01*
X98641284Y-114080520D01*
X98641286Y-114080521D01*
X98641290Y-114080524D01*
X98708765Y-114119480D01*
X98778216Y-114159577D01*
X98930943Y-114200500D01*
X98930945Y-114200500D01*
X99089055Y-114200500D01*
X99089057Y-114200500D01*
X99241784Y-114159577D01*
X99378716Y-114080520D01*
X99490520Y-113968716D01*
X99569577Y-113831784D01*
X99610500Y-113679057D01*
X99610500Y-113520943D01*
X99569577Y-113368216D01*
X99569573Y-113368209D01*
X99490524Y-113231290D01*
X99490518Y-113231282D01*
X99378717Y-113119481D01*
X99378709Y-113119475D01*
X99241790Y-113040426D01*
X99241786Y-113040424D01*
X99241784Y-113040423D01*
X99089057Y-112999500D01*
X98930943Y-112999500D01*
X98778216Y-113040423D01*
X98778209Y-113040426D01*
X98641290Y-113119475D01*
X98641282Y-113119481D01*
X98529481Y-113231282D01*
X98529475Y-113231290D01*
X98450426Y-113368209D01*
X98450423Y-113368216D01*
X98409500Y-113520943D01*
X94700500Y-113520943D01*
X94659577Y-113368216D01*
X94659573Y-113368209D01*
X94580524Y-113231290D01*
X94580518Y-113231282D01*
X94468717Y-113119481D01*
X94468709Y-113119475D01*
X94331790Y-113040426D01*
X94331786Y-113040424D01*
X94331784Y-113040423D01*
X94179057Y-112999500D01*
X94020943Y-112999500D01*
X93868216Y-113040423D01*
X93868209Y-113040426D01*
X93731290Y-113119475D01*
X93731282Y-113119481D01*
X93619481Y-113231282D01*
X93619475Y-113231290D01*
X93540426Y-113368209D01*
X93540423Y-113368216D01*
X93499500Y-113520943D01*
X91275000Y-113520943D01*
X91275000Y-112537765D01*
X100482678Y-112537765D01*
X100482678Y-112695879D01*
X100521409Y-112840423D01*
X100523601Y-112848605D01*
X100523604Y-112848612D01*
X100602653Y-112985531D01*
X100602657Y-112985536D01*
X100602658Y-112985538D01*
X100714462Y-113097342D01*
X100714463Y-113097343D01*
X100714465Y-113097344D01*
X100789458Y-113140641D01*
X100837673Y-113191208D01*
X100850897Y-113259815D01*
X100847232Y-113280121D01*
X100809500Y-113420943D01*
X100809500Y-113579057D01*
X100842041Y-113700500D01*
X100850423Y-113731783D01*
X100850426Y-113731790D01*
X100929475Y-113868709D01*
X100929479Y-113868714D01*
X100929480Y-113868716D01*
X101041284Y-113980520D01*
X101041286Y-113980521D01*
X101041290Y-113980524D01*
X101145040Y-114040423D01*
X101178216Y-114059577D01*
X101330943Y-114100500D01*
X101330945Y-114100500D01*
X101489055Y-114100500D01*
X101489057Y-114100500D01*
X101641784Y-114059577D01*
X101778716Y-113980520D01*
X101890520Y-113868716D01*
X101969577Y-113731784D01*
X101999277Y-113620943D01*
X102799500Y-113620943D01*
X102799500Y-113779057D01*
X102836041Y-113915428D01*
X102840423Y-113931783D01*
X102840426Y-113931790D01*
X102919475Y-114068709D01*
X102919479Y-114068714D01*
X102919480Y-114068716D01*
X103031284Y-114180520D01*
X103031286Y-114180521D01*
X103031290Y-114180524D01*
X103120087Y-114231790D01*
X103168216Y-114259577D01*
X103320943Y-114300500D01*
X103320945Y-114300500D01*
X103479055Y-114300500D01*
X103479057Y-114300500D01*
X103631784Y-114259577D01*
X103768716Y-114180520D01*
X103880520Y-114068716D01*
X103959577Y-113931784D01*
X103962482Y-113920943D01*
X104499500Y-113920943D01*
X104499500Y-114079057D01*
X104540289Y-114231282D01*
X104540423Y-114231783D01*
X104540426Y-114231790D01*
X104619475Y-114368709D01*
X104619479Y-114368714D01*
X104619480Y-114368716D01*
X104731284Y-114480520D01*
X104731286Y-114480521D01*
X104731290Y-114480524D01*
X104823170Y-114533570D01*
X104868216Y-114559577D01*
X105020943Y-114600500D01*
X105020945Y-114600500D01*
X105179055Y-114600500D01*
X105179057Y-114600500D01*
X105331784Y-114559577D01*
X105468716Y-114480520D01*
X105580520Y-114368716D01*
X105659577Y-114231784D01*
X105700500Y-114079057D01*
X105700500Y-114075685D01*
X105701304Y-114072945D01*
X105701561Y-114070997D01*
X105701864Y-114071037D01*
X105713638Y-114030943D01*
X113581083Y-114030943D01*
X113581083Y-114189057D01*
X113599979Y-114259576D01*
X113622006Y-114341783D01*
X113622009Y-114341790D01*
X113701058Y-114478709D01*
X113701062Y-114478714D01*
X113701063Y-114478716D01*
X113812867Y-114590520D01*
X113812869Y-114590521D01*
X113812873Y-114590524D01*
X113903546Y-114642873D01*
X113949799Y-114669577D01*
X114102526Y-114710500D01*
X114102528Y-114710500D01*
X114260638Y-114710500D01*
X114260640Y-114710500D01*
X114413367Y-114669577D01*
X114550299Y-114590520D01*
X114662103Y-114478716D01*
X114741160Y-114341784D01*
X114782083Y-114189057D01*
X114782083Y-114030943D01*
X114752609Y-113920943D01*
X131099500Y-113920943D01*
X131099500Y-114079057D01*
X131140289Y-114231282D01*
X131140423Y-114231783D01*
X131140426Y-114231790D01*
X131219475Y-114368709D01*
X131219479Y-114368714D01*
X131219480Y-114368716D01*
X131331284Y-114480520D01*
X131331286Y-114480521D01*
X131331290Y-114480524D01*
X131423170Y-114533570D01*
X131468216Y-114559577D01*
X131620943Y-114600500D01*
X131620945Y-114600500D01*
X131779055Y-114600500D01*
X131779057Y-114600500D01*
X131931784Y-114559577D01*
X132068716Y-114480520D01*
X132180520Y-114368716D01*
X132259577Y-114231784D01*
X132300500Y-114079057D01*
X132300500Y-113920943D01*
X132259577Y-113768216D01*
X132259573Y-113768209D01*
X132180524Y-113631290D01*
X132180518Y-113631282D01*
X132068717Y-113519481D01*
X132068709Y-113519475D01*
X131931790Y-113440426D01*
X131931786Y-113440424D01*
X131931784Y-113440423D01*
X131779057Y-113399500D01*
X131620943Y-113399500D01*
X131468216Y-113440423D01*
X131468209Y-113440426D01*
X131331290Y-113519475D01*
X131331282Y-113519481D01*
X131219481Y-113631282D01*
X131219475Y-113631290D01*
X131140426Y-113768209D01*
X131140423Y-113768216D01*
X131099500Y-113920943D01*
X114752609Y-113920943D01*
X114741160Y-113878216D01*
X114714352Y-113831783D01*
X114662107Y-113741290D01*
X114662101Y-113741282D01*
X114550300Y-113629481D01*
X114550292Y-113629475D01*
X114413373Y-113550426D01*
X114413369Y-113550424D01*
X114413367Y-113550423D01*
X114260640Y-113509500D01*
X114102526Y-113509500D01*
X113949799Y-113550423D01*
X113949792Y-113550426D01*
X113812873Y-113629475D01*
X113812865Y-113629481D01*
X113701064Y-113741282D01*
X113701058Y-113741290D01*
X113622009Y-113878209D01*
X113622007Y-113878214D01*
X113622006Y-113878216D01*
X113581083Y-114030943D01*
X105713638Y-114030943D01*
X105720185Y-114008646D01*
X105772989Y-113962891D01*
X105842147Y-113952947D01*
X105860246Y-113957913D01*
X105860365Y-113957473D01*
X105868214Y-113959576D01*
X105868216Y-113959577D01*
X106020943Y-114000500D01*
X106020945Y-114000500D01*
X106179055Y-114000500D01*
X106179057Y-114000500D01*
X106331784Y-113959577D01*
X106468716Y-113880520D01*
X106580520Y-113768716D01*
X106659577Y-113631784D01*
X106700500Y-113479057D01*
X106700500Y-113320943D01*
X106659577Y-113168216D01*
X106638258Y-113131290D01*
X106580524Y-113031290D01*
X106580518Y-113031282D01*
X106570179Y-113020943D01*
X127799500Y-113020943D01*
X127799500Y-113179057D01*
X127840289Y-113331282D01*
X127840423Y-113331783D01*
X127840426Y-113331790D01*
X127919475Y-113468709D01*
X127919479Y-113468714D01*
X127919480Y-113468716D01*
X128031284Y-113580520D01*
X128031286Y-113580521D01*
X128031290Y-113580524D01*
X128120087Y-113631790D01*
X128168216Y-113659577D01*
X128320943Y-113700500D01*
X128320945Y-113700500D01*
X128479055Y-113700500D01*
X128479057Y-113700500D01*
X128631784Y-113659577D01*
X128768716Y-113580520D01*
X128880520Y-113468716D01*
X128959577Y-113331784D01*
X129000500Y-113179057D01*
X129000500Y-113020943D01*
X128979332Y-112941943D01*
X129299500Y-112941943D01*
X129299500Y-113100057D01*
X129331500Y-113219480D01*
X129340423Y-113252783D01*
X129340426Y-113252790D01*
X129419475Y-113389709D01*
X129419479Y-113389714D01*
X129419480Y-113389716D01*
X129531284Y-113501520D01*
X129531286Y-113501521D01*
X129531290Y-113501524D01*
X129665583Y-113579057D01*
X129668216Y-113580577D01*
X129820943Y-113621500D01*
X129820945Y-113621500D01*
X129979055Y-113621500D01*
X129979057Y-113621500D01*
X130131784Y-113580577D01*
X130268716Y-113501520D01*
X130380520Y-113389716D01*
X130459577Y-113252784D01*
X130500500Y-113100057D01*
X130500500Y-112941943D01*
X130459577Y-112789216D01*
X130426134Y-112731290D01*
X130380524Y-112652290D01*
X130380518Y-112652282D01*
X130268717Y-112540481D01*
X130268709Y-112540475D01*
X130131790Y-112461426D01*
X130131786Y-112461424D01*
X130131784Y-112461423D01*
X129979057Y-112420500D01*
X129820943Y-112420500D01*
X129668216Y-112461423D01*
X129668209Y-112461426D01*
X129531290Y-112540475D01*
X129531282Y-112540481D01*
X129419481Y-112652282D01*
X129419475Y-112652290D01*
X129340426Y-112789209D01*
X129340423Y-112789216D01*
X129299500Y-112941943D01*
X128979332Y-112941943D01*
X128959577Y-112868216D01*
X128913963Y-112789209D01*
X128880524Y-112731290D01*
X128880518Y-112731282D01*
X128768717Y-112619481D01*
X128768709Y-112619475D01*
X128631790Y-112540426D01*
X128631786Y-112540424D01*
X128631784Y-112540423D01*
X128479057Y-112499500D01*
X128320943Y-112499500D01*
X128168216Y-112540423D01*
X128168209Y-112540426D01*
X128031290Y-112619475D01*
X128031282Y-112619481D01*
X127919481Y-112731282D01*
X127919475Y-112731290D01*
X127840426Y-112868209D01*
X127840423Y-112868216D01*
X127799500Y-113020943D01*
X106570179Y-113020943D01*
X106468717Y-112919481D01*
X106468709Y-112919475D01*
X106331790Y-112840426D01*
X106331786Y-112840424D01*
X106331784Y-112840423D01*
X106179057Y-112799500D01*
X106020943Y-112799500D01*
X105868216Y-112840423D01*
X105868209Y-112840426D01*
X105731290Y-112919475D01*
X105731282Y-112919481D01*
X105619481Y-113031282D01*
X105619475Y-113031290D01*
X105540426Y-113168209D01*
X105540423Y-113168216D01*
X105499500Y-113320943D01*
X105499500Y-113324314D01*
X105498695Y-113327052D01*
X105498439Y-113329003D01*
X105498134Y-113328962D01*
X105479815Y-113391353D01*
X105427011Y-113437108D01*
X105357853Y-113447052D01*
X105339752Y-113442087D01*
X105339635Y-113442527D01*
X105331785Y-113440423D01*
X105331784Y-113440423D01*
X105179057Y-113399500D01*
X105020943Y-113399500D01*
X104868216Y-113440423D01*
X104868209Y-113440426D01*
X104731290Y-113519475D01*
X104731282Y-113519481D01*
X104619481Y-113631282D01*
X104619475Y-113631290D01*
X104540426Y-113768209D01*
X104540423Y-113768216D01*
X104499500Y-113920943D01*
X103962482Y-113920943D01*
X104000500Y-113779057D01*
X104000500Y-113620943D01*
X103959577Y-113468216D01*
X103944727Y-113442496D01*
X103928255Y-113374597D01*
X103951107Y-113308570D01*
X103976630Y-113282120D01*
X103978708Y-113280524D01*
X103978716Y-113280520D01*
X104090520Y-113168716D01*
X104169577Y-113031784D01*
X104210500Y-112879057D01*
X104210500Y-112720943D01*
X104169577Y-112568216D01*
X104153531Y-112540423D01*
X104090524Y-112431290D01*
X104090518Y-112431282D01*
X103978717Y-112319481D01*
X103978709Y-112319475D01*
X103841790Y-112240426D01*
X103841786Y-112240424D01*
X103841784Y-112240423D01*
X103769084Y-112220943D01*
X123699500Y-112220943D01*
X123699500Y-112379056D01*
X123740423Y-112531783D01*
X123740426Y-112531790D01*
X123819475Y-112668709D01*
X123819479Y-112668714D01*
X123819480Y-112668716D01*
X123931284Y-112780520D01*
X123931286Y-112780521D01*
X123931290Y-112780524D01*
X124035040Y-112840423D01*
X124068216Y-112859577D01*
X124220943Y-112900500D01*
X124220945Y-112900500D01*
X124379055Y-112900500D01*
X124379057Y-112900500D01*
X124531784Y-112859577D01*
X124668716Y-112780520D01*
X124780520Y-112668716D01*
X124859577Y-112531784D01*
X124900500Y-112379057D01*
X124900500Y-112220943D01*
X124859577Y-112068216D01*
X124802132Y-111968717D01*
X124780524Y-111931290D01*
X124780518Y-111931282D01*
X124668717Y-111819481D01*
X124668709Y-111819475D01*
X124531790Y-111740426D01*
X124531786Y-111740424D01*
X124531784Y-111740423D01*
X124379057Y-111699500D01*
X124220943Y-111699500D01*
X124068216Y-111740423D01*
X124068209Y-111740426D01*
X123931290Y-111819475D01*
X123931282Y-111819481D01*
X123819481Y-111931282D01*
X123819475Y-111931290D01*
X123740426Y-112068209D01*
X123740423Y-112068216D01*
X123699500Y-112220943D01*
X103769084Y-112220943D01*
X103689057Y-112199500D01*
X103530943Y-112199500D01*
X103378216Y-112240423D01*
X103378209Y-112240426D01*
X103241290Y-112319475D01*
X103241282Y-112319481D01*
X103129481Y-112431282D01*
X103129475Y-112431290D01*
X103050426Y-112568209D01*
X103050423Y-112568216D01*
X103009500Y-112720943D01*
X103009500Y-112879057D01*
X103050289Y-113031282D01*
X103050423Y-113031783D01*
X103050425Y-113031788D01*
X103065272Y-113057505D01*
X103081743Y-113125406D01*
X103058890Y-113191432D01*
X103033375Y-113217875D01*
X103031285Y-113219478D01*
X102919481Y-113331282D01*
X102919475Y-113331290D01*
X102840426Y-113468209D01*
X102840423Y-113468216D01*
X102799500Y-113620943D01*
X101999277Y-113620943D01*
X102010500Y-113579057D01*
X102010500Y-113420943D01*
X101969577Y-113268216D01*
X101960671Y-113252790D01*
X101890524Y-113131290D01*
X101890518Y-113131282D01*
X101778717Y-113019481D01*
X101778712Y-113019477D01*
X101703719Y-112976180D01*
X101655503Y-112925613D01*
X101642280Y-112857006D01*
X101645940Y-112836715D01*
X101683678Y-112695879D01*
X101683678Y-112537765D01*
X101642755Y-112385038D01*
X101604906Y-112319481D01*
X101563702Y-112248112D01*
X101563696Y-112248104D01*
X101451895Y-112136303D01*
X101451887Y-112136297D01*
X101314968Y-112057248D01*
X101314964Y-112057246D01*
X101314962Y-112057245D01*
X101162235Y-112016322D01*
X101004121Y-112016322D01*
X100851394Y-112057245D01*
X100851387Y-112057248D01*
X100714468Y-112136297D01*
X100714460Y-112136303D01*
X100602659Y-112248104D01*
X100602653Y-112248112D01*
X100523604Y-112385031D01*
X100523601Y-112385038D01*
X100482678Y-112537765D01*
X91275000Y-112537765D01*
X91275000Y-111520943D01*
X105099500Y-111520943D01*
X105099500Y-111679057D01*
X105137127Y-111819481D01*
X105140423Y-111831783D01*
X105140426Y-111831790D01*
X105219475Y-111968709D01*
X105219479Y-111968714D01*
X105219480Y-111968716D01*
X105331284Y-112080520D01*
X105331286Y-112080521D01*
X105331290Y-112080524D01*
X105427893Y-112136297D01*
X105468216Y-112159577D01*
X105620943Y-112200500D01*
X105620945Y-112200500D01*
X105779055Y-112200500D01*
X105779057Y-112200500D01*
X105931784Y-112159577D01*
X105972873Y-112135853D01*
X106038001Y-112098254D01*
X106105901Y-112081781D01*
X106161999Y-112098254D01*
X106268209Y-112159573D01*
X106268216Y-112159577D01*
X106420943Y-112200500D01*
X106420945Y-112200500D01*
X106579055Y-112200500D01*
X106579057Y-112200500D01*
X106731784Y-112159577D01*
X106868716Y-112080520D01*
X106980520Y-111968716D01*
X107059577Y-111831784D01*
X107100500Y-111679057D01*
X107100500Y-111520943D01*
X107059577Y-111368216D01*
X107044316Y-111341783D01*
X106980524Y-111231290D01*
X106980518Y-111231282D01*
X106868717Y-111119481D01*
X106868709Y-111119475D01*
X106731790Y-111040426D01*
X106731786Y-111040424D01*
X106731784Y-111040423D01*
X106696404Y-111030943D01*
X120899500Y-111030943D01*
X120899500Y-111189057D01*
X120910817Y-111231290D01*
X120940423Y-111341783D01*
X120940426Y-111341790D01*
X121019475Y-111478709D01*
X121019479Y-111478714D01*
X121019480Y-111478716D01*
X121131284Y-111590520D01*
X121131286Y-111590521D01*
X121131290Y-111590524D01*
X121268209Y-111669573D01*
X121268216Y-111669577D01*
X121420943Y-111710500D01*
X121420945Y-111710500D01*
X121579055Y-111710500D01*
X121579057Y-111710500D01*
X121731784Y-111669577D01*
X121868716Y-111590520D01*
X121980520Y-111478716D01*
X122059577Y-111341784D01*
X122100500Y-111189057D01*
X122100500Y-111030943D01*
X122059577Y-110878216D01*
X122059573Y-110878209D01*
X121980524Y-110741290D01*
X121980518Y-110741282D01*
X121868717Y-110629481D01*
X121868709Y-110629475D01*
X121731790Y-110550426D01*
X121731786Y-110550424D01*
X121731784Y-110550423D01*
X121579057Y-110509500D01*
X121420943Y-110509500D01*
X121268216Y-110550423D01*
X121268209Y-110550426D01*
X121131290Y-110629475D01*
X121131282Y-110629481D01*
X121019481Y-110741282D01*
X121019475Y-110741290D01*
X120940426Y-110878209D01*
X120940423Y-110878216D01*
X120899500Y-111030943D01*
X106696404Y-111030943D01*
X106579057Y-110999500D01*
X106420943Y-110999500D01*
X106268216Y-111040423D01*
X106268215Y-111040423D01*
X106161999Y-111101746D01*
X106094098Y-111118217D01*
X106038001Y-111101746D01*
X105931784Y-111040423D01*
X105779057Y-110999500D01*
X105620943Y-110999500D01*
X105468216Y-111040423D01*
X105468209Y-111040426D01*
X105331290Y-111119475D01*
X105331282Y-111119481D01*
X105219481Y-111231282D01*
X105219475Y-111231290D01*
X105140426Y-111368209D01*
X105140423Y-111368216D01*
X105099500Y-111520943D01*
X91275000Y-111520943D01*
X91275000Y-107520943D01*
X93999500Y-107520943D01*
X93999500Y-107679057D01*
X94036788Y-107818216D01*
X94040423Y-107831783D01*
X94040426Y-107831790D01*
X94119475Y-107968709D01*
X94119479Y-107968714D01*
X94119480Y-107968716D01*
X94231284Y-108080520D01*
X94231286Y-108080521D01*
X94231290Y-108080524D01*
X94315353Y-108129057D01*
X94368216Y-108159577D01*
X94520943Y-108200500D01*
X94520945Y-108200500D01*
X94679055Y-108200500D01*
X94679057Y-108200500D01*
X94831784Y-108159577D01*
X94968716Y-108080520D01*
X95062319Y-107986917D01*
X95123642Y-107953432D01*
X95193334Y-107958416D01*
X95237681Y-107986917D01*
X95331284Y-108080520D01*
X95331286Y-108080521D01*
X95331290Y-108080524D01*
X95415353Y-108129057D01*
X95468216Y-108159577D01*
X95620943Y-108200500D01*
X95620945Y-108200500D01*
X95779055Y-108200500D01*
X95779057Y-108200500D01*
X95931784Y-108159577D01*
X96068716Y-108080520D01*
X96162319Y-107986917D01*
X96223642Y-107953432D01*
X96293334Y-107958416D01*
X96337681Y-107986917D01*
X96431284Y-108080520D01*
X96431286Y-108080521D01*
X96431290Y-108080524D01*
X96515353Y-108129057D01*
X96568216Y-108159577D01*
X96720943Y-108200500D01*
X96720945Y-108200500D01*
X96879055Y-108200500D01*
X96879057Y-108200500D01*
X97031784Y-108159577D01*
X97168716Y-108080520D01*
X97280520Y-107968716D01*
X97359577Y-107831784D01*
X97400500Y-107679057D01*
X97400500Y-107520943D01*
X133699500Y-107520943D01*
X133699500Y-107679057D01*
X133736788Y-107818216D01*
X133740423Y-107831783D01*
X133740426Y-107831790D01*
X133819475Y-107968709D01*
X133819479Y-107968714D01*
X133819480Y-107968716D01*
X133931284Y-108080520D01*
X133931286Y-108080521D01*
X133931290Y-108080524D01*
X134015353Y-108129057D01*
X134068216Y-108159577D01*
X134220943Y-108200500D01*
X134220945Y-108200500D01*
X134379055Y-108200500D01*
X134379057Y-108200500D01*
X134531784Y-108159577D01*
X134668716Y-108080520D01*
X134778293Y-107970943D01*
X149899500Y-107970943D01*
X149899500Y-108129056D01*
X149940423Y-108281783D01*
X149940426Y-108281790D01*
X150019475Y-108418709D01*
X150019479Y-108418714D01*
X150019480Y-108418716D01*
X150131284Y-108530520D01*
X150131286Y-108530521D01*
X150131290Y-108530524D01*
X150268209Y-108609573D01*
X150268216Y-108609577D01*
X150420943Y-108650500D01*
X150420945Y-108650500D01*
X150579055Y-108650500D01*
X150579057Y-108650500D01*
X150731784Y-108609577D01*
X150868716Y-108530520D01*
X150980520Y-108418716D01*
X151059577Y-108281784D01*
X151100500Y-108129057D01*
X151100500Y-107970943D01*
X151059577Y-107818216D01*
X151059573Y-107818209D01*
X150980524Y-107681290D01*
X150980518Y-107681282D01*
X150868717Y-107569481D01*
X150868709Y-107569475D01*
X150731790Y-107490426D01*
X150731786Y-107490424D01*
X150731784Y-107490423D01*
X150579057Y-107449500D01*
X150420943Y-107449500D01*
X150268216Y-107490423D01*
X150268209Y-107490426D01*
X150131290Y-107569475D01*
X150131282Y-107569481D01*
X150019481Y-107681282D01*
X150019475Y-107681290D01*
X149940426Y-107818209D01*
X149940423Y-107818216D01*
X149899500Y-107970943D01*
X134778293Y-107970943D01*
X134780520Y-107968716D01*
X134859577Y-107831784D01*
X134900500Y-107679057D01*
X134900500Y-107520943D01*
X134859577Y-107368216D01*
X134859573Y-107368209D01*
X134780524Y-107231290D01*
X134780518Y-107231282D01*
X134668717Y-107119481D01*
X134668709Y-107119475D01*
X134531790Y-107040426D01*
X134531786Y-107040424D01*
X134531784Y-107040423D01*
X134379057Y-106999500D01*
X134220943Y-106999500D01*
X134068216Y-107040423D01*
X134068209Y-107040426D01*
X133931290Y-107119475D01*
X133931282Y-107119481D01*
X133819481Y-107231282D01*
X133819475Y-107231290D01*
X133740426Y-107368209D01*
X133740423Y-107368216D01*
X133699500Y-107520943D01*
X97400500Y-107520943D01*
X97359577Y-107368216D01*
X97359573Y-107368209D01*
X97280524Y-107231290D01*
X97280518Y-107231282D01*
X97168717Y-107119481D01*
X97168709Y-107119475D01*
X97031790Y-107040426D01*
X97031786Y-107040424D01*
X97031784Y-107040423D01*
X96879057Y-106999500D01*
X96720943Y-106999500D01*
X96568216Y-107040423D01*
X96568209Y-107040426D01*
X96431290Y-107119475D01*
X96431282Y-107119481D01*
X96337681Y-107213083D01*
X96276358Y-107246568D01*
X96206666Y-107241584D01*
X96162319Y-107213083D01*
X96068717Y-107119481D01*
X96068709Y-107119475D01*
X95931790Y-107040426D01*
X95931786Y-107040424D01*
X95931784Y-107040423D01*
X95779057Y-106999500D01*
X95620943Y-106999500D01*
X95468216Y-107040423D01*
X95468209Y-107040426D01*
X95331290Y-107119475D01*
X95331282Y-107119481D01*
X95237681Y-107213083D01*
X95176358Y-107246568D01*
X95106666Y-107241584D01*
X95062319Y-107213083D01*
X94968717Y-107119481D01*
X94968709Y-107119475D01*
X94831790Y-107040426D01*
X94831786Y-107040424D01*
X94831784Y-107040423D01*
X94679057Y-106999500D01*
X94520943Y-106999500D01*
X94368216Y-107040423D01*
X94368209Y-107040426D01*
X94231290Y-107119475D01*
X94231282Y-107119481D01*
X94119481Y-107231282D01*
X94119475Y-107231290D01*
X94040426Y-107368209D01*
X94040423Y-107368216D01*
X93999500Y-107520943D01*
X91275000Y-107520943D01*
X91275000Y-105920943D01*
X132699500Y-105920943D01*
X132699500Y-106079057D01*
X132723525Y-106168717D01*
X132740423Y-106231783D01*
X132740426Y-106231790D01*
X132819475Y-106368709D01*
X132819479Y-106368714D01*
X132819480Y-106368716D01*
X132931284Y-106480520D01*
X132931286Y-106480521D01*
X132931290Y-106480524D01*
X133068209Y-106559573D01*
X133068216Y-106559577D01*
X133220943Y-106600500D01*
X133220945Y-106600500D01*
X133379055Y-106600500D01*
X133379057Y-106600500D01*
X133531784Y-106559577D01*
X133668716Y-106480520D01*
X133780520Y-106368716D01*
X133859577Y-106231784D01*
X133900500Y-106079057D01*
X133900500Y-105920943D01*
X133859577Y-105768216D01*
X133854589Y-105759577D01*
X133832284Y-105720943D01*
X140499500Y-105720943D01*
X140499500Y-105879057D01*
X140510724Y-105920943D01*
X140540423Y-106031783D01*
X140540426Y-106031790D01*
X140619475Y-106168709D01*
X140619479Y-106168714D01*
X140619480Y-106168716D01*
X140731284Y-106280520D01*
X140731286Y-106280521D01*
X140731290Y-106280524D01*
X140868209Y-106359573D01*
X140868216Y-106359577D01*
X141020943Y-106400500D01*
X141020945Y-106400500D01*
X141179055Y-106400500D01*
X141179057Y-106400500D01*
X141331784Y-106359577D01*
X141468716Y-106280520D01*
X141580520Y-106168716D01*
X141659577Y-106031784D01*
X141700500Y-105879057D01*
X141700500Y-105720943D01*
X141659577Y-105568216D01*
X141631437Y-105519475D01*
X141580524Y-105431290D01*
X141580518Y-105431282D01*
X141468717Y-105319481D01*
X141468709Y-105319475D01*
X141331790Y-105240426D01*
X141331786Y-105240424D01*
X141331784Y-105240423D01*
X141179057Y-105199500D01*
X141020943Y-105199500D01*
X140868216Y-105240423D01*
X140868209Y-105240426D01*
X140731290Y-105319475D01*
X140731282Y-105319481D01*
X140619481Y-105431282D01*
X140619475Y-105431290D01*
X140540426Y-105568209D01*
X140540423Y-105568216D01*
X140499500Y-105720943D01*
X133832284Y-105720943D01*
X133780522Y-105631287D01*
X133780518Y-105631282D01*
X133668717Y-105519481D01*
X133668709Y-105519475D01*
X133531790Y-105440426D01*
X133531786Y-105440424D01*
X133531784Y-105440423D01*
X133379057Y-105399500D01*
X133220943Y-105399500D01*
X133068216Y-105440423D01*
X133068209Y-105440426D01*
X132931290Y-105519475D01*
X132931282Y-105519481D01*
X132819481Y-105631282D01*
X132819475Y-105631290D01*
X132740426Y-105768209D01*
X132740426Y-105768210D01*
X132740423Y-105768216D01*
X132699500Y-105920943D01*
X91275000Y-105920943D01*
X91275000Y-105120943D01*
X98949500Y-105120943D01*
X98949500Y-105279057D01*
X98990289Y-105431282D01*
X98990423Y-105431783D01*
X98990426Y-105431790D01*
X99069475Y-105568709D01*
X99069479Y-105568714D01*
X99069480Y-105568716D01*
X99181284Y-105680520D01*
X99181286Y-105680521D01*
X99181290Y-105680524D01*
X99267887Y-105730520D01*
X99318216Y-105759577D01*
X99470943Y-105800500D01*
X99470945Y-105800500D01*
X99629055Y-105800500D01*
X99629057Y-105800500D01*
X99781784Y-105759577D01*
X99918716Y-105680520D01*
X100030520Y-105568716D01*
X100109577Y-105431784D01*
X100150500Y-105279057D01*
X100150500Y-105120943D01*
X100109577Y-104968216D01*
X100092741Y-104939055D01*
X100030524Y-104831290D01*
X100030518Y-104831282D01*
X99918717Y-104719481D01*
X99918709Y-104719475D01*
X99781790Y-104640426D01*
X99781786Y-104640424D01*
X99781784Y-104640423D01*
X99629057Y-104599500D01*
X99470943Y-104599500D01*
X99318216Y-104640423D01*
X99318209Y-104640426D01*
X99181290Y-104719475D01*
X99181282Y-104719481D01*
X99069481Y-104831282D01*
X99069475Y-104831290D01*
X98990426Y-104968209D01*
X98990423Y-104968216D01*
X98949500Y-105120943D01*
X91275000Y-105120943D01*
X91275000Y-104799999D01*
X90891157Y-104224234D01*
X117334500Y-104224234D01*
X117334500Y-104375766D01*
X117346605Y-104420942D01*
X117373719Y-104522136D01*
X117384337Y-104540526D01*
X117449485Y-104653365D01*
X117556635Y-104760515D01*
X117670281Y-104826129D01*
X117679206Y-104831282D01*
X117687865Y-104836281D01*
X117834234Y-104875500D01*
X117834236Y-104875500D01*
X117985764Y-104875500D01*
X117985766Y-104875500D01*
X118132135Y-104836281D01*
X118263365Y-104760515D01*
X118370515Y-104653365D01*
X118446281Y-104522135D01*
X118485500Y-104375766D01*
X118485500Y-104224234D01*
X123114500Y-104224234D01*
X123114500Y-104375766D01*
X123126605Y-104420942D01*
X123153719Y-104522136D01*
X123164337Y-104540526D01*
X123229485Y-104653365D01*
X123336635Y-104760515D01*
X123450281Y-104826129D01*
X123459206Y-104831282D01*
X123467865Y-104836281D01*
X123614234Y-104875500D01*
X123614236Y-104875500D01*
X123765764Y-104875500D01*
X123765766Y-104875500D01*
X123912135Y-104836281D01*
X124043365Y-104760515D01*
X124150515Y-104653365D01*
X124226281Y-104522135D01*
X124265500Y-104375766D01*
X124265500Y-104224234D01*
X124226281Y-104077865D01*
X124150515Y-103946635D01*
X124043365Y-103839485D01*
X123971104Y-103797765D01*
X123912136Y-103763719D01*
X123838950Y-103744109D01*
X123765766Y-103724500D01*
X123614234Y-103724500D01*
X123467863Y-103763719D01*
X123336635Y-103839485D01*
X123336632Y-103839487D01*
X123229487Y-103946632D01*
X123229485Y-103946635D01*
X123153719Y-104077863D01*
X123137322Y-104139059D01*
X123114500Y-104224234D01*
X118485500Y-104224234D01*
X118446281Y-104077865D01*
X118370515Y-103946635D01*
X118263365Y-103839485D01*
X118191104Y-103797765D01*
X118132136Y-103763719D01*
X118058950Y-103744109D01*
X117985766Y-103724500D01*
X117834234Y-103724500D01*
X117687863Y-103763719D01*
X117556635Y-103839485D01*
X117556632Y-103839487D01*
X117449487Y-103946632D01*
X117449485Y-103946635D01*
X117373719Y-104077863D01*
X117357322Y-104139059D01*
X117334500Y-104224234D01*
X90891157Y-104224234D01*
X90820826Y-104118738D01*
X90800018Y-104052039D01*
X90800000Y-104049955D01*
X90800000Y-103320943D01*
X94899501Y-103320943D01*
X94899501Y-103479057D01*
X94926409Y-103579477D01*
X94940424Y-103631783D01*
X94940427Y-103631790D01*
X95019476Y-103768709D01*
X95019480Y-103768714D01*
X95019481Y-103768716D01*
X95131285Y-103880520D01*
X95131287Y-103880521D01*
X95131291Y-103880524D01*
X95268210Y-103959573D01*
X95268217Y-103959577D01*
X95420944Y-104000500D01*
X95420946Y-104000500D01*
X95579056Y-104000500D01*
X95579058Y-104000500D01*
X95731785Y-103959577D01*
X95868717Y-103880520D01*
X95980521Y-103768716D01*
X96059578Y-103631784D01*
X96100501Y-103479057D01*
X96100501Y-103320943D01*
X96059578Y-103168216D01*
X96008102Y-103079056D01*
X95980525Y-103031290D01*
X95980519Y-103031282D01*
X95868718Y-102919481D01*
X95868710Y-102919475D01*
X95731791Y-102840426D01*
X95731787Y-102840424D01*
X95731785Y-102840423D01*
X95579058Y-102799500D01*
X95420944Y-102799500D01*
X95268217Y-102840423D01*
X95268210Y-102840426D01*
X95131291Y-102919475D01*
X95131283Y-102919481D01*
X95019482Y-103031282D01*
X95019476Y-103031290D01*
X94940427Y-103168209D01*
X94940424Y-103168216D01*
X94899501Y-103320943D01*
X90800000Y-103320943D01*
X90800000Y-102351362D01*
X90819685Y-102284323D01*
X90836319Y-102263681D01*
X91040427Y-102059573D01*
X91300000Y-101800000D01*
X91300000Y-101625812D01*
X91319685Y-101558773D01*
X91330287Y-101544609D01*
X91362242Y-101507731D01*
X91454281Y-101401513D01*
X91570321Y-101220950D01*
X91570323Y-101220944D01*
X91570327Y-101220938D01*
X91659482Y-101025715D01*
X91659482Y-101025713D01*
X91659484Y-101025710D01*
X91719954Y-100819769D01*
X91750500Y-100607318D01*
X91750500Y-100500000D01*
X91750500Y-100434108D01*
X91750500Y-98506961D01*
X91751280Y-98493077D01*
X91752752Y-98480012D01*
X91761459Y-98402731D01*
X91767635Y-98375670D01*
X91795353Y-98296456D01*
X91807396Y-98271450D01*
X91852046Y-98200389D01*
X91869351Y-98178690D01*
X91928690Y-98119351D01*
X91950389Y-98102046D01*
X92021450Y-98057396D01*
X92046456Y-98045353D01*
X92125670Y-98017635D01*
X92152733Y-98011459D01*
X92215419Y-98004396D01*
X92243079Y-98001280D01*
X92256962Y-98000500D01*
X92315892Y-98000500D01*
X97276000Y-98000500D01*
X97343039Y-98020185D01*
G37*
G04 #@! TD.AperFunction*
G04 #@! TD*
M02*
