G04 #@! TF.GenerationSoftware,KiCad,Pcbnew,9.0.0*
G04 #@! TF.CreationDate,2025-03-11T16:46:41+02:00*
G04 #@! TF.ProjectId,Plant-health-meter,506c616e-742d-4686-9561-6c74682d6d65,rev?*
G04 #@! TF.SameCoordinates,Original*
G04 #@! TF.FileFunction,Copper,L4,Bot*
G04 #@! TF.FilePolarity,Positive*
%FSLAX46Y46*%
G04 Gerber Fmt 4.6, Leading zero omitted, Abs format (unit mm)*
G04 Created by KiCad (PCBNEW 9.0.0) date 2025-03-11 16:46:41*
%MOMM*%
%LPD*%
G01*
G04 APERTURE LIST*
G04 Aperture macros list*
%AMRoundRect*
0 Rectangle with rounded corners*
0 $1 Rounding radius*
0 $2 $3 $4 $5 $6 $7 $8 $9 X,Y pos of 4 corners*
0 Add a 4 corners polygon primitive as box body*
4,1,4,$2,$3,$4,$5,$6,$7,$8,$9,$2,$3,0*
0 Add four circle primitives for the rounded corners*
1,1,$1+$1,$2,$3*
1,1,$1+$1,$4,$5*
1,1,$1+$1,$6,$7*
1,1,$1+$1,$8,$9*
0 Add four rect primitives between the rounded corners*
20,1,$1+$1,$2,$3,$4,$5,0*
20,1,$1+$1,$4,$5,$6,$7,0*
20,1,$1+$1,$6,$7,$8,$9,0*
20,1,$1+$1,$8,$9,$2,$3,0*%
G04 Aperture macros list end*
G04 #@! TA.AperFunction,ComponentPad*
%ADD10R,1.700000X1.700000*%
G04 #@! TD*
G04 #@! TA.AperFunction,ComponentPad*
%ADD11O,1.700000X1.700000*%
G04 #@! TD*
G04 #@! TA.AperFunction,HeatsinkPad*
%ADD12O,1.000000X2.100000*%
G04 #@! TD*
G04 #@! TA.AperFunction,HeatsinkPad*
%ADD13O,1.000000X1.600000*%
G04 #@! TD*
G04 #@! TA.AperFunction,ComponentPad*
%ADD14RoundRect,0.250000X0.893000X0.512000X-0.893000X0.512000X-0.893000X-0.512000X0.893000X-0.512000X0*%
G04 #@! TD*
G04 #@! TA.AperFunction,ComponentPad*
%ADD15RoundRect,0.381000X0.762000X0.381000X-0.762000X0.381000X-0.762000X-0.381000X0.762000X-0.381000X0*%
G04 #@! TD*
G04 #@! TA.AperFunction,ComponentPad*
%ADD16R,0.500000X0.900000*%
G04 #@! TD*
G04 #@! TA.AperFunction,ComponentPad*
%ADD17C,0.600000*%
G04 #@! TD*
G04 #@! TA.AperFunction,SMDPad,CuDef*
%ADD18R,1.600000X0.900000*%
G04 #@! TD*
G04 #@! TA.AperFunction,ViaPad*
%ADD19C,0.600000*%
G04 #@! TD*
G04 #@! TA.AperFunction,Conductor*
%ADD20C,0.200000*%
G04 #@! TD*
G04 #@! TA.AperFunction,Conductor*
%ADD21C,0.300000*%
G04 #@! TD*
G04 APERTURE END LIST*
D10*
G04 #@! TO.P,J6,1,Pin_1*
G04 #@! TO.N,Net-(J6-Pin_1)*
X109400000Y-100200000D03*
D11*
G04 #@! TO.P,J6,2,Pin_2*
G04 #@! TO.N,Net-(J6-Pin_2)*
X109400000Y-102740000D03*
G04 #@! TD*
D12*
G04 #@! TO.P,J5,S1,SHIELD*
G04 #@! TO.N,GND*
X125120000Y-104830000D03*
D13*
X125120000Y-100650000D03*
D12*
X116480000Y-104830000D03*
D13*
X116480000Y-100650000D03*
G04 #@! TD*
D10*
G04 #@! TO.P,J1,1,Pin_1*
G04 #@! TO.N,+3.3V*
X113090175Y-102775000D03*
D11*
G04 #@! TO.P,J1,2,Pin_2*
G04 #@! TO.N,GND*
X113090175Y-100235000D03*
G04 #@! TD*
D10*
G04 #@! TO.P,J2,1,Pin_1*
G04 #@! TO.N,+3.3V*
X148650000Y-117275000D03*
D11*
G04 #@! TO.P,J2,2,Pin_2*
G04 #@! TO.N,GND*
X148650000Y-119815000D03*
G04 #@! TD*
D14*
G04 #@! TO.P,S1,1,1*
G04 #@! TO.N,/Sensors/sensor_cap*
X154750000Y-110000000D03*
D15*
G04 #@! TO.P,S1,2*
G04 #@! TO.N,GND*
X154750000Y-119000000D03*
X154750000Y-101000000D03*
G04 #@! TD*
D16*
G04 #@! TO.P,AE1,2,Shield*
G04 #@! TO.N,GND*
X91025000Y-103350000D03*
G04 #@! TD*
D17*
G04 #@! TO.P,U5,9,PAD*
G04 #@! TO.N,GND*
X130575000Y-106350002D03*
D18*
X131074999Y-106350002D03*
D17*
X131574998Y-106350002D03*
G04 #@! TD*
D10*
G04 #@! TO.P,J3,1,Pin_1*
G04 #@! TO.N,+BATT*
X140400000Y-99400000D03*
D11*
G04 #@! TO.P,J3,2,Pin_2*
X142940000Y-99400000D03*
G04 #@! TD*
D10*
G04 #@! TO.P,J4,1,Pin_1*
G04 #@! TO.N,GND*
X133325000Y-99400000D03*
D11*
G04 #@! TO.P,J4,2,Pin_2*
X135865000Y-99400000D03*
G04 #@! TD*
D19*
G04 #@! TO.N,GND*
X151300000Y-119600000D03*
X123800000Y-119100000D03*
X115600000Y-117900000D03*
G04 #@! TO.N,+BATT*
X116600000Y-115000000D03*
G04 #@! TO.N,GND*
X92000000Y-106500000D03*
X99750000Y-99000000D03*
X94000000Y-98750000D03*
X135250000Y-102000000D03*
X128778125Y-115121875D03*
X94350000Y-116850000D03*
X126500000Y-119300000D03*
X92750000Y-115000000D03*
X127000000Y-107000000D03*
X132500000Y-100750000D03*
X119570002Y-115902449D03*
X99000000Y-99000000D03*
X92750000Y-110250000D03*
X131500000Y-99750000D03*
X92000000Y-108000000D03*
X99550000Y-104200000D03*
X98250000Y-99000000D03*
X92750000Y-107250000D03*
X95500000Y-104500000D03*
X103000000Y-109200000D03*
X119450001Y-119900000D03*
X92500000Y-98750000D03*
X114500000Y-104800000D03*
X93250000Y-104000000D03*
X138512499Y-102750000D03*
X100500000Y-99000000D03*
X93250000Y-102500000D03*
X122300000Y-109800000D03*
X130500000Y-100750000D03*
X135500000Y-100750000D03*
X92750000Y-117000000D03*
X98250000Y-105000000D03*
X152800000Y-101000000D03*
X92500000Y-119600000D03*
X92000000Y-114250000D03*
X147900000Y-114639997D03*
X108250000Y-107500000D03*
X127000000Y-106250000D03*
X144512499Y-106750001D03*
X136500000Y-100750000D03*
X99000000Y-99750000D03*
X92000000Y-115750000D03*
X152000000Y-119000000D03*
X92500000Y-101750000D03*
X124400000Y-116000000D03*
X94000000Y-103250000D03*
X129656250Y-116000000D03*
X92000000Y-112750000D03*
X92750000Y-108750000D03*
X115500000Y-114700000D03*
X146700000Y-101300000D03*
X94000000Y-104500000D03*
X113750000Y-119000000D03*
X112750000Y-119000000D03*
X92500000Y-104500000D03*
X100450000Y-121350000D03*
X146899999Y-114640000D03*
X92500000Y-103250000D03*
X94000000Y-100250000D03*
X93500000Y-106500000D03*
X127000000Y-107750000D03*
X102900000Y-103700000D03*
X92400000Y-121300000D03*
X108100000Y-110000000D03*
X120650001Y-119900000D03*
X139762499Y-101750000D03*
X131500000Y-98750000D03*
X98500000Y-104200000D03*
X98250000Y-99750000D03*
X93500000Y-108000000D03*
X99750000Y-99750000D03*
X92750000Y-113500000D03*
X93500000Y-109500000D03*
X101600000Y-114400000D03*
X144512499Y-108000000D03*
X99000000Y-100500000D03*
X92500000Y-100250000D03*
X108375000Y-118400000D03*
X134500000Y-100750000D03*
X97416170Y-104191296D03*
X94000000Y-101750000D03*
X106700000Y-98724999D03*
X96544845Y-109223289D03*
X133500000Y-100750000D03*
X111100000Y-107000000D03*
X92000000Y-118250000D03*
X92000000Y-109500000D03*
X138512499Y-101750000D03*
X114750000Y-119000000D03*
X93100000Y-115850000D03*
X94500000Y-111200000D03*
X93500000Y-111000000D03*
X98250000Y-100500000D03*
X97796289Y-109234999D03*
X130500000Y-99750000D03*
X150500000Y-103200000D03*
X93250000Y-101000000D03*
X131500000Y-100750000D03*
X98900000Y-121000000D03*
X105175000Y-118300000D03*
X93250000Y-99500000D03*
X134250000Y-102000000D03*
X100500000Y-99750000D03*
X147800000Y-109100000D03*
X139762499Y-102750000D03*
X92750000Y-111750000D03*
X130500000Y-98750000D03*
X137750000Y-102250000D03*
X92000000Y-111000000D03*
X112250000Y-110000000D03*
X105149999Y-121400000D03*
G04 #@! TO.N,+3.3V*
X94100000Y-113600000D03*
X94600000Y-107600000D03*
X127000000Y-100750000D03*
X99010000Y-113600000D03*
X133300000Y-106000000D03*
X127000000Y-103749999D03*
X129250000Y-100750000D03*
X117870001Y-115202450D03*
X101410000Y-113500000D03*
X95700000Y-107600000D03*
X127000000Y-101500000D03*
X127000000Y-104499999D03*
X127000000Y-102999999D03*
X96800000Y-107600000D03*
X117870001Y-116802448D03*
X128500000Y-100750000D03*
X94100000Y-114400000D03*
X133434996Y-104060002D03*
X99550000Y-105200000D03*
X114181583Y-114110000D03*
X127000000Y-105250000D03*
X125700000Y-117800000D03*
X127000000Y-102249999D03*
X127750000Y-100750000D03*
X105700000Y-111600000D03*
X97100000Y-115700000D03*
X95500001Y-103400000D03*
X127750000Y-101500000D03*
X97200000Y-121100000D03*
X127750000Y-104500000D03*
X106100000Y-113400000D03*
X129250000Y-101500000D03*
X109700000Y-119800000D03*
X128500000Y-101500000D03*
X125900000Y-115200000D03*
X141100000Y-105800000D03*
X94600000Y-118850000D03*
X106500000Y-111600000D03*
G04 #@! TO.N,Net-(U6-GPIO9)*
X105100000Y-114000000D03*
X106900000Y-118200000D03*
G04 #@! TO.N,Net-(U6-CHIP_EN)*
X100500000Y-117200000D03*
X97800000Y-114600000D03*
G04 #@! TO.N,Net-(J7-Pin_2)*
X136460000Y-116000000D03*
X128900000Y-119000000D03*
G04 #@! TO.N,Net-(J7-Pin_16)*
X145350000Y-116000000D03*
X128400000Y-113100000D03*
G04 #@! TO.N,Net-(J7-Pin_4)*
X137730000Y-116000000D03*
X130000000Y-119300000D03*
G04 #@! TO.N,Net-(J7-Pin_8)*
X140270000Y-116000000D03*
X132600000Y-117600000D03*
G04 #@! TO.N,Net-(J7-Pin_6)*
X131200000Y-119000000D03*
X139000000Y-116000000D03*
G04 #@! TO.N,Net-(J7-Pin_14)*
X129900000Y-113021000D03*
X144080000Y-116000000D03*
G04 #@! TO.N,Net-(D1-A)*
X150500000Y-108050000D03*
X149800000Y-100800000D03*
G04 #@! TO.N,Net-(D6-K)*
X120850001Y-115100000D03*
X121500000Y-111110000D03*
G04 #@! TO.N,Net-(J7-Pin_10)*
X141540000Y-116000000D03*
X133300000Y-115300000D03*
G04 #@! TO.N,/ADC/ALERT*
X98650000Y-115250000D03*
X99500000Y-117300000D03*
G04 #@! TO.N,Net-(J7-Pin_12)*
X142810000Y-116000000D03*
X131700000Y-114000000D03*
G04 #@! TO.N,/ESP_32/Battery_stat*
X134300000Y-107600000D03*
X101083178Y-112616822D03*
G04 #@! TO.N,/ESP_32/IO_INT*
X124300000Y-112300000D03*
X125706250Y-116750000D03*
G04 #@! TO.N,Net-(J6-Pin_2)*
X103610000Y-112800000D03*
G04 #@! TO.N,Net-(U5-PG)*
X132574998Y-102300002D03*
X129840000Y-104860000D03*
G04 #@! TO.N,Net-(J6-Pin_1)*
X103400000Y-113700000D03*
G04 #@! TD*
D20*
G04 #@! TO.N,Net-(J6-Pin_1)*
X103400000Y-113700000D02*
X102125000Y-112425000D01*
X102125000Y-112425000D02*
X102125000Y-109125000D01*
G04 #@! TO.N,Net-(J6-Pin_2)*
X103610000Y-112800000D02*
X103610000Y-110140000D01*
G04 #@! TO.N,Net-(J6-Pin_1)*
X102125000Y-109125000D02*
X107725000Y-103525000D01*
X107725000Y-103525000D02*
X107725000Y-101375000D01*
X107725000Y-101375000D02*
X108900000Y-100200000D01*
G04 #@! TO.N,Net-(J6-Pin_2)*
X103610000Y-110140000D02*
X109225000Y-104525000D01*
G04 #@! TO.N,Net-(J6-Pin_1)*
X108900000Y-100200000D02*
X109400000Y-100200000D01*
G04 #@! TO.N,Net-(J6-Pin_2)*
X109225000Y-104525000D02*
X109225000Y-102915000D01*
X109225000Y-102915000D02*
X109400000Y-102740000D01*
G04 #@! TO.N,/ESP_32/IO_INT*
X124300000Y-112300000D02*
X125100000Y-113100000D01*
X125100000Y-113100000D02*
X125100000Y-116143750D01*
X125100000Y-116143750D02*
X125706250Y-116750000D01*
G04 #@! TO.N,+BATT*
X116600000Y-115000000D02*
X116400000Y-114800000D01*
X116400000Y-114800000D02*
X116400000Y-112000000D01*
X119700000Y-108700000D02*
X131300000Y-108700000D01*
X132400000Y-107600000D02*
X132400000Y-105700000D01*
X131300000Y-108700000D02*
X132400000Y-107600000D01*
X116400000Y-112000000D02*
X119700000Y-108700000D01*
X132900000Y-105200000D02*
X134600000Y-105200000D01*
X139200000Y-99400000D02*
X140400000Y-99400000D01*
X132400000Y-105700000D02*
X132900000Y-105200000D01*
X134600000Y-105200000D02*
X135400000Y-104400000D01*
X135400000Y-104400000D02*
X135400000Y-103200000D01*
X135400000Y-103200000D02*
X139200000Y-99400000D01*
G04 #@! TO.N,Net-(D6-K)*
X121500000Y-114600000D02*
X121000000Y-115100000D01*
X121000000Y-115100000D02*
X120850001Y-115100000D01*
G04 #@! TO.N,Net-(U6-GPIO9)*
X105800000Y-114200000D02*
X105300000Y-114200000D01*
X106900000Y-115300000D02*
X105800000Y-114200000D01*
X105300000Y-114200000D02*
X105100000Y-114000000D01*
X106900000Y-118200000D02*
X106900000Y-115300000D01*
G04 #@! TO.N,Net-(U6-CHIP_EN)*
X100400000Y-115800000D02*
X100400000Y-117100000D01*
X97800000Y-114600000D02*
X99200000Y-114600000D01*
X99200000Y-114600000D02*
X100400000Y-115800000D01*
X100400000Y-117100000D02*
X100500000Y-117200000D01*
G04 #@! TO.N,Net-(J7-Pin_2)*
X136460000Y-116000000D02*
X136100000Y-116360000D01*
X128900000Y-120000000D02*
X128900000Y-119000000D01*
X136100000Y-116360000D02*
X136100000Y-118600000D01*
X136100000Y-118600000D02*
X134200000Y-120500000D01*
X129400000Y-120500000D02*
X128900000Y-120000000D01*
X134200000Y-120500000D02*
X129400000Y-120500000D01*
G04 #@! TO.N,Net-(J7-Pin_16)*
X129300000Y-111100000D02*
X144400000Y-111100000D01*
X128400000Y-113100000D02*
X128400000Y-112000000D01*
X144400000Y-111100000D02*
X145350000Y-112050000D01*
X128400000Y-112000000D02*
X129300000Y-111100000D01*
X145350000Y-112050000D02*
X145350000Y-116000000D01*
G04 #@! TO.N,Net-(J7-Pin_4)*
X130500000Y-119800000D02*
X133600000Y-119800000D01*
X137800000Y-115081916D02*
X137800000Y-115930000D01*
X130000000Y-119300000D02*
X130500000Y-119800000D01*
X137800000Y-115930000D02*
X137730000Y-116000000D01*
X136100000Y-114900000D02*
X137618084Y-114900000D01*
X135300000Y-115700000D02*
X136100000Y-114900000D01*
X137618084Y-114900000D02*
X137800000Y-115081916D01*
X135300000Y-118100000D02*
X135300000Y-115700000D01*
X133600000Y-119800000D02*
X135300000Y-118100000D01*
G04 #@! TO.N,Net-(J7-Pin_8)*
X140270000Y-116000000D02*
X140270000Y-113970000D01*
X133400000Y-117600000D02*
X132600000Y-117600000D01*
X134000000Y-117000000D02*
X133400000Y-117600000D01*
X134800000Y-113600000D02*
X134000000Y-114400000D01*
X139900000Y-113600000D02*
X134800000Y-113600000D01*
X140270000Y-113970000D02*
X139900000Y-113600000D01*
X134000000Y-114400000D02*
X134000000Y-117000000D01*
G04 #@! TO.N,Net-(J7-Pin_6)*
X139000000Y-114900000D02*
X139000000Y-116000000D01*
X134700000Y-117500000D02*
X134700000Y-115000000D01*
X131300000Y-119100000D02*
X133100000Y-119100000D01*
X134700000Y-115000000D02*
X135500000Y-114200000D01*
X131200000Y-119000000D02*
X131300000Y-119100000D01*
X135500000Y-114200000D02*
X138300000Y-114200000D01*
X138300000Y-114200000D02*
X139000000Y-114900000D01*
X133100000Y-119100000D02*
X134700000Y-117500000D01*
G04 #@! TO.N,Net-(J7-Pin_14)*
X144080000Y-112480000D02*
X144080000Y-116000000D01*
X130799147Y-111700000D02*
X143300000Y-111700000D01*
X129900000Y-112599147D02*
X130799147Y-111700000D01*
X129900000Y-113021000D02*
X129900000Y-112599147D01*
X143300000Y-111700000D02*
X144080000Y-112480000D01*
D21*
G04 #@! TO.N,Net-(D1-A)*
X151000000Y-107550000D02*
X151000000Y-106800000D01*
X149800000Y-105600000D02*
X149800000Y-100800000D01*
X151000000Y-106800000D02*
X149800000Y-105600000D01*
X150500000Y-108050000D02*
X151000000Y-107550000D01*
D20*
G04 #@! TO.N,Net-(D6-K)*
X121500000Y-111110000D02*
X121500000Y-114600000D01*
G04 #@! TO.N,Net-(J7-Pin_10)*
X134200000Y-112900000D02*
X140800000Y-112900000D01*
X140800000Y-112900000D02*
X141540000Y-113640000D01*
X133300000Y-115300000D02*
X133300000Y-113800000D01*
X133300000Y-113800000D02*
X134200000Y-112900000D01*
X141540000Y-113640000D02*
X141540000Y-116000000D01*
G04 #@! TO.N,/ADC/ALERT*
X98650000Y-115250000D02*
X98400000Y-115500000D01*
X98400000Y-115500000D02*
X98400000Y-116200000D01*
X98400000Y-116200000D02*
X99500000Y-117300000D01*
G04 #@! TO.N,Net-(J7-Pin_12)*
X131700000Y-113100000D02*
X132500000Y-112300000D01*
X142810000Y-113210000D02*
X142810000Y-116000000D01*
X132500000Y-112300000D02*
X141900000Y-112300000D01*
X131700000Y-114000000D02*
X131700000Y-113100000D01*
X141900000Y-112300000D02*
X142810000Y-113210000D01*
G04 #@! TO.N,/ESP_32/Battery_stat*
X101083178Y-112616822D02*
X100300000Y-113400000D01*
X122700000Y-111600000D02*
X122700000Y-118900000D01*
X100300000Y-113400000D02*
X100300000Y-114200000D01*
X134300000Y-107600000D02*
X132000000Y-109900000D01*
X102000000Y-116500000D02*
X102000000Y-119000000D01*
X101000000Y-115500000D02*
X102000000Y-116500000D01*
X124400000Y-109900000D02*
X122700000Y-111600000D01*
X102750000Y-119750000D02*
X108050000Y-119750000D01*
X120800000Y-120800000D02*
X109100000Y-120800000D01*
X108050000Y-119750000D02*
X108600000Y-120300000D01*
X102000000Y-119000000D02*
X102750000Y-119750000D01*
X101000000Y-114900000D02*
X101000000Y-115500000D01*
X109100000Y-120800000D02*
X108600000Y-120300000D01*
X100300000Y-114200000D02*
X101000000Y-114900000D01*
X132000000Y-109900000D02*
X124400000Y-109900000D01*
X122700000Y-118900000D02*
X120800000Y-120800000D01*
G04 #@! TO.N,Net-(J6-Pin_2)*
X103610000Y-113000000D02*
X103610000Y-112800000D01*
G04 #@! TO.N,Net-(U5-PG)*
X132574998Y-104550000D02*
X132574998Y-102300002D01*
X129840000Y-104860000D02*
X130330001Y-105350001D01*
X131774998Y-105350001D02*
X132574998Y-104550000D01*
X130330001Y-105350001D02*
X131774998Y-105350001D01*
G04 #@! TD*
G04 #@! TA.AperFunction,Conductor*
G04 #@! TO.N,GND*
G36*
X208565796Y-98020185D02*
G01*
X208584631Y-98035048D01*
X220888478Y-109846743D01*
X220902922Y-109863309D01*
X220922541Y-109890312D01*
X220923611Y-109892413D01*
X220924580Y-109893205D01*
X220940153Y-109924877D01*
X220947991Y-109948998D01*
X220954061Y-109987319D01*
X220954061Y-110012680D01*
X220947991Y-110051001D01*
X220940153Y-110075122D01*
X220922542Y-110109685D01*
X220902925Y-110136686D01*
X220888480Y-110153254D01*
X208584631Y-121964952D01*
X208522637Y-121997179D01*
X208498757Y-121999500D01*
X154754692Y-121999500D01*
X154687653Y-121979815D01*
X154642972Y-121928250D01*
X154642780Y-121928349D01*
X154642384Y-121927571D01*
X154641898Y-121927011D01*
X154640720Y-121924306D01*
X154533342Y-121713566D01*
X154394517Y-121522490D01*
X154227510Y-121355483D01*
X154036433Y-121216657D01*
X153825992Y-121109432D01*
X153821651Y-121107220D01*
X153822193Y-121106156D01*
X153772136Y-121065809D01*
X153750079Y-120999512D01*
X153750000Y-120995100D01*
X153750000Y-116006092D01*
X153750597Y-115993938D01*
X153768018Y-115817056D01*
X153772757Y-115793232D01*
X153822577Y-115628994D01*
X153831875Y-115606549D01*
X153912775Y-115455195D01*
X153926272Y-115434995D01*
X154035149Y-115302328D01*
X154052322Y-115285154D01*
X154126363Y-115224390D01*
X154190666Y-115197081D01*
X154252481Y-115205688D01*
X154262085Y-115209667D01*
X154290320Y-115219770D01*
X154454543Y-115269586D01*
X154483627Y-115276871D01*
X154507468Y-115281613D01*
X154537120Y-115286011D01*
X154713994Y-115303432D01*
X154728951Y-115304535D01*
X154741105Y-115305132D01*
X154756093Y-115305500D01*
X154756111Y-115305500D01*
X203380764Y-115305500D01*
X203382868Y-115305439D01*
X203398430Y-115304989D01*
X203412756Y-115304159D01*
X203430381Y-115302624D01*
X203638433Y-115278425D01*
X203669049Y-115273053D01*
X203673250Y-115272317D01*
X203673252Y-115272316D01*
X203673255Y-115272316D01*
X203701142Y-115265740D01*
X203735025Y-115255648D01*
X203925165Y-115186808D01*
X203957665Y-115172864D01*
X203983298Y-115160062D01*
X204013952Y-115142467D01*
X204189275Y-115027863D01*
X204203785Y-115017767D01*
X204215322Y-115009234D01*
X204229234Y-114998308D01*
X209019066Y-111006782D01*
X209030242Y-110996998D01*
X209039124Y-110988833D01*
X209049831Y-110978498D01*
X209173609Y-110853055D01*
X209193433Y-110830907D01*
X209208614Y-110812187D01*
X209226192Y-110788215D01*
X209320016Y-110646264D01*
X209335181Y-110620695D01*
X209346454Y-110599391D01*
X209359062Y-110572475D01*
X209423652Y-110415058D01*
X209433584Y-110387042D01*
X209440523Y-110363960D01*
X209447686Y-110335106D01*
X209480603Y-110168161D01*
X209484928Y-110138748D01*
X209484929Y-110138734D01*
X209484931Y-110138723D01*
X209484931Y-110138721D01*
X209487268Y-110114785D01*
X209487271Y-110114741D01*
X209488715Y-110085098D01*
X209488716Y-110085072D01*
X209488716Y-109914926D01*
X209488715Y-109914900D01*
X209487271Y-109885257D01*
X209487268Y-109885213D01*
X209484931Y-109861277D01*
X209484931Y-109861275D01*
X209484929Y-109861261D01*
X209484928Y-109861251D01*
X209480603Y-109831838D01*
X209447686Y-109664893D01*
X209440523Y-109636039D01*
X209433584Y-109612957D01*
X209428463Y-109598512D01*
X209423654Y-109584945D01*
X209359058Y-109427515D01*
X209346467Y-109400635D01*
X209346454Y-109400608D01*
X209335181Y-109379304D01*
X209335170Y-109379286D01*
X209335162Y-109379271D01*
X209320011Y-109353727D01*
X209274458Y-109284808D01*
X209226192Y-109211784D01*
X209208614Y-109187812D01*
X209193433Y-109169092D01*
X209193425Y-109169083D01*
X209193412Y-109169067D01*
X209173631Y-109146968D01*
X209173587Y-109146921D01*
X209049842Y-109021512D01*
X209039132Y-109011174D01*
X209039124Y-109011166D01*
X209030242Y-109003001D01*
X209019066Y-108993217D01*
X207821608Y-107995335D01*
X204229243Y-105001698D01*
X204215328Y-104990770D01*
X204215322Y-104990765D01*
X204203785Y-104982232D01*
X204189275Y-104972136D01*
X204189274Y-104972135D01*
X204013969Y-104857543D01*
X204013964Y-104857540D01*
X204013952Y-104857532D01*
X204013946Y-104857528D01*
X204013934Y-104857521D01*
X203995230Y-104846785D01*
X203983302Y-104839939D01*
X203983298Y-104839937D01*
X203983293Y-104839934D01*
X203957671Y-104827137D01*
X203957664Y-104827134D01*
X203925187Y-104813199D01*
X203735016Y-104744348D01*
X203717708Y-104739193D01*
X203701137Y-104734258D01*
X203701129Y-104734256D01*
X203673276Y-104727688D01*
X203673268Y-104727686D01*
X203673258Y-104727684D01*
X203673247Y-104727682D01*
X203673237Y-104727680D01*
X203638457Y-104721578D01*
X203638451Y-104721577D01*
X203638438Y-104721575D01*
X203430381Y-104697376D01*
X203412734Y-104695839D01*
X203398435Y-104695011D01*
X203380764Y-104694500D01*
X203380760Y-104694500D01*
X154756093Y-104694500D01*
X154746101Y-104694745D01*
X154741096Y-104694868D01*
X154728938Y-104695465D01*
X154714003Y-104696567D01*
X154537126Y-104713987D01*
X154537100Y-104713990D01*
X154507471Y-104718384D01*
X154483608Y-104723131D01*
X154454578Y-104730404D01*
X154454547Y-104730412D01*
X154290321Y-104780228D01*
X154262072Y-104790336D01*
X154262052Y-104790344D01*
X154252477Y-104794311D01*
X154238538Y-104795809D01*
X154225949Y-104801972D01*
X154204489Y-104799471D01*
X154183008Y-104801781D01*
X154169077Y-104795344D01*
X154156549Y-104793884D01*
X154126357Y-104775604D01*
X154052333Y-104714854D01*
X154035145Y-104697666D01*
X153926277Y-104565010D01*
X153912772Y-104544798D01*
X153831878Y-104393456D01*
X153822575Y-104370998D01*
X153772757Y-104206769D01*
X153768018Y-104182941D01*
X153750597Y-104006061D01*
X153750000Y-103993907D01*
X153750000Y-99004899D01*
X153769685Y-98937860D01*
X153821669Y-98892815D01*
X153821651Y-98892780D01*
X153821794Y-98892707D01*
X153822489Y-98892105D01*
X153825833Y-98890648D01*
X153825986Y-98890569D01*
X153825992Y-98890568D01*
X154036433Y-98783343D01*
X154227510Y-98644517D01*
X154394517Y-98477510D01*
X154533343Y-98286433D01*
X154640568Y-98075992D01*
X154640567Y-98075992D01*
X154642780Y-98071651D01*
X154643986Y-98072265D01*
X154683962Y-98022650D01*
X154750254Y-98000579D01*
X154754692Y-98000500D01*
X208498757Y-98000500D01*
X208565796Y-98020185D01*
G37*
G04 #@! TD.AperFunction*
G04 #@! TD*
G04 #@! TA.AperFunction,Conductor*
G04 #@! TO.N,/Sensors/sensor_cap*
G36*
X203395086Y-105000830D02*
G01*
X203603143Y-105025029D01*
X203631022Y-105031603D01*
X203821166Y-105100444D01*
X203846798Y-105113246D01*
X204022121Y-105227850D01*
X204033658Y-105236383D01*
X208823490Y-109227909D01*
X208832372Y-109236074D01*
X208956150Y-109361517D01*
X208971331Y-109380237D01*
X209065155Y-109522188D01*
X209076428Y-109543492D01*
X209141018Y-109700909D01*
X209147957Y-109723991D01*
X209180874Y-109890936D01*
X209183216Y-109914924D01*
X209183216Y-110085075D01*
X209180874Y-110109063D01*
X209147957Y-110276008D01*
X209141018Y-110299090D01*
X209076428Y-110456507D01*
X209065155Y-110477811D01*
X208971331Y-110619762D01*
X208956150Y-110638482D01*
X208832372Y-110763925D01*
X208823490Y-110772090D01*
X204033658Y-114763616D01*
X204022121Y-114772149D01*
X203846798Y-114886753D01*
X203821165Y-114899555D01*
X203631025Y-114968395D01*
X203603138Y-114974971D01*
X203395086Y-114999170D01*
X203380760Y-115000000D01*
X154756093Y-115000000D01*
X154743939Y-114999403D01*
X154567065Y-114981982D01*
X154543224Y-114977240D01*
X154379001Y-114927424D01*
X154356543Y-114918121D01*
X154205201Y-114837227D01*
X154184989Y-114823722D01*
X154052333Y-114714854D01*
X154035145Y-114697666D01*
X153926277Y-114565010D01*
X153912772Y-114544798D01*
X153831878Y-114393456D01*
X153822575Y-114370998D01*
X153772757Y-114206769D01*
X153768018Y-114182941D01*
X153750597Y-114006061D01*
X153750000Y-113993907D01*
X153750000Y-106006092D01*
X153750597Y-105993938D01*
X153768018Y-105817056D01*
X153772757Y-105793232D01*
X153822577Y-105628994D01*
X153831875Y-105606549D01*
X153912775Y-105455195D01*
X153926272Y-105434995D01*
X154035149Y-105302328D01*
X154052328Y-105285149D01*
X154184995Y-105176272D01*
X154205195Y-105162775D01*
X154356549Y-105081875D01*
X154378994Y-105072577D01*
X154543232Y-105022757D01*
X154567056Y-105018018D01*
X154743939Y-105000597D01*
X154756093Y-105000000D01*
X203380760Y-105000000D01*
X203395086Y-105000830D01*
G37*
G04 #@! TD.AperFunction*
G04 #@! TD*
M02*
