G04 #@! TF.GenerationSoftware,KiCad,Pcbnew,9.0.0*
G04 #@! TF.CreationDate,2025-03-11T16:46:41+02:00*
G04 #@! TF.ProjectId,Plant-health-meter,506c616e-742d-4686-9561-6c74682d6d65,rev?*
G04 #@! TF.SameCoordinates,Original*
G04 #@! TF.FileFunction,Copper,L3,Inr*
G04 #@! TF.FilePolarity,Positive*
%FSLAX46Y46*%
G04 Gerber Fmt 4.6, Leading zero omitted, Abs format (unit mm)*
G04 Created by KiCad (PCBNEW 9.0.0) date 2025-03-11 16:46:41*
%MOMM*%
%LPD*%
G01*
G04 APERTURE LIST*
G04 Aperture macros list*
%AMRoundRect*
0 Rectangle with rounded corners*
0 $1 Rounding radius*
0 $2 $3 $4 $5 $6 $7 $8 $9 X,Y pos of 4 corners*
0 Add a 4 corners polygon primitive as box body*
4,1,4,$2,$3,$4,$5,$6,$7,$8,$9,$2,$3,0*
0 Add four circle primitives for the rounded corners*
1,1,$1+$1,$2,$3*
1,1,$1+$1,$4,$5*
1,1,$1+$1,$6,$7*
1,1,$1+$1,$8,$9*
0 Add four rect primitives between the rounded corners*
20,1,$1+$1,$2,$3,$4,$5,0*
20,1,$1+$1,$4,$5,$6,$7,0*
20,1,$1+$1,$6,$7,$8,$9,0*
20,1,$1+$1,$8,$9,$2,$3,0*%
G04 Aperture macros list end*
G04 #@! TA.AperFunction,ComponentPad*
%ADD10R,1.700000X1.700000*%
G04 #@! TD*
G04 #@! TA.AperFunction,ComponentPad*
%ADD11O,1.700000X1.700000*%
G04 #@! TD*
G04 #@! TA.AperFunction,HeatsinkPad*
%ADD12O,1.000000X2.100000*%
G04 #@! TD*
G04 #@! TA.AperFunction,HeatsinkPad*
%ADD13O,1.000000X1.600000*%
G04 #@! TD*
G04 #@! TA.AperFunction,ComponentPad*
%ADD14RoundRect,0.250000X0.893000X0.512000X-0.893000X0.512000X-0.893000X-0.512000X0.893000X-0.512000X0*%
G04 #@! TD*
G04 #@! TA.AperFunction,ComponentPad*
%ADD15RoundRect,0.381000X0.762000X0.381000X-0.762000X0.381000X-0.762000X-0.381000X0.762000X-0.381000X0*%
G04 #@! TD*
G04 #@! TA.AperFunction,ComponentPad*
%ADD16R,0.500000X0.900000*%
G04 #@! TD*
G04 #@! TA.AperFunction,ComponentPad*
%ADD17C,0.600000*%
G04 #@! TD*
G04 #@! TA.AperFunction,ViaPad*
%ADD18C,0.600000*%
G04 #@! TD*
G04 APERTURE END LIST*
D10*
G04 #@! TO.N,Net-(J6-Pin_1)*
G04 #@! TO.C,J6*
X109400000Y-100200000D03*
D11*
G04 #@! TO.N,Net-(J6-Pin_2)*
X109400000Y-102740000D03*
G04 #@! TD*
D12*
G04 #@! TO.N,GND*
G04 #@! TO.C,J5*
X125120000Y-104830000D03*
D13*
X125120000Y-100650000D03*
D12*
X116480000Y-104830000D03*
D13*
X116480000Y-100650000D03*
G04 #@! TD*
D10*
G04 #@! TO.N,+3.3V*
G04 #@! TO.C,J1*
X113090175Y-102775000D03*
D11*
G04 #@! TO.N,GND*
X113090175Y-100235000D03*
G04 #@! TD*
D10*
G04 #@! TO.N,+3.3V*
G04 #@! TO.C,J2*
X148650000Y-117275000D03*
D11*
G04 #@! TO.N,GND*
X148650000Y-119815000D03*
G04 #@! TD*
D14*
G04 #@! TO.N,/Sensors/sensor_cap*
G04 #@! TO.C,S1*
X154750000Y-110000000D03*
D15*
G04 #@! TO.N,GND*
X154750000Y-119000000D03*
X154750000Y-101000000D03*
G04 #@! TD*
D16*
G04 #@! TO.N,GND*
G04 #@! TO.C,AE1*
X91025000Y-103350000D03*
G04 #@! TD*
D17*
G04 #@! TO.N,GND*
G04 #@! TO.C,U5*
X130575000Y-106350002D03*
X131574998Y-106350002D03*
G04 #@! TD*
D10*
G04 #@! TO.N,+BATT*
G04 #@! TO.C,J3*
X140400000Y-99400000D03*
D11*
X142940000Y-99400000D03*
G04 #@! TD*
D10*
G04 #@! TO.N,GND*
G04 #@! TO.C,J4*
X133325000Y-99400000D03*
D11*
X135865000Y-99400000D03*
G04 #@! TD*
D18*
G04 #@! TO.N,GND*
X151300000Y-119600000D03*
X123800000Y-119100000D03*
X115600000Y-117900000D03*
G04 #@! TO.N,+BATT*
X116600000Y-115000000D03*
G04 #@! TO.N,GND*
X92000000Y-106500000D03*
X99750000Y-99000000D03*
X94000000Y-98750000D03*
X135250000Y-102000000D03*
X128778125Y-115121875D03*
X94350000Y-116850000D03*
X126500000Y-119300000D03*
X92750000Y-115000000D03*
X127000000Y-107000000D03*
X132500000Y-100750000D03*
X119570002Y-115902449D03*
X99000000Y-99000000D03*
X92750000Y-110250000D03*
X131500000Y-99750000D03*
X92000000Y-108000000D03*
X99550000Y-104200000D03*
X98250000Y-99000000D03*
X92750000Y-107250000D03*
X95500000Y-104500000D03*
X103000000Y-109200000D03*
X119450001Y-119900000D03*
X92500000Y-98750000D03*
X114500000Y-104800000D03*
X93250000Y-104000000D03*
X138512499Y-102750000D03*
X100500000Y-99000000D03*
X93250000Y-102500000D03*
X122300000Y-109800000D03*
X130500000Y-100750000D03*
X135500000Y-100750000D03*
X92750000Y-117000000D03*
X98250000Y-105000000D03*
X152800000Y-101000000D03*
X92500000Y-119600000D03*
X92000000Y-114250000D03*
X147900000Y-114639997D03*
X108250000Y-107500000D03*
X127000000Y-106250000D03*
X144512499Y-106750001D03*
X136500000Y-100750000D03*
X99000000Y-99750000D03*
X92000000Y-115750000D03*
X152000000Y-119000000D03*
X92500000Y-101750000D03*
X124400000Y-116000000D03*
X94000000Y-103250000D03*
X129656250Y-116000000D03*
X92000000Y-112750000D03*
X92750000Y-108750000D03*
X115500000Y-114700000D03*
X146700000Y-101300000D03*
X94000000Y-104500000D03*
X113750000Y-119000000D03*
X112750000Y-119000000D03*
X92500000Y-104500000D03*
X100450000Y-121350000D03*
X146899999Y-114640000D03*
X92500000Y-103250000D03*
X94000000Y-100250000D03*
X93500000Y-106500000D03*
X127000000Y-107750000D03*
X102900000Y-103700000D03*
X92400000Y-121300000D03*
X108100000Y-110000000D03*
X120650001Y-119900000D03*
X139762499Y-101750000D03*
X131500000Y-98750000D03*
X98500000Y-104200000D03*
X98250000Y-99750000D03*
X93500000Y-108000000D03*
X99750000Y-99750000D03*
X92750000Y-113500000D03*
X93500000Y-109500000D03*
X101600000Y-114400000D03*
X144512499Y-108000000D03*
X99000000Y-100500000D03*
X92500000Y-100250000D03*
X108375000Y-118400000D03*
X134500000Y-100750000D03*
X97416170Y-104191296D03*
X94000000Y-101750000D03*
X106700000Y-98724999D03*
X96544845Y-109223289D03*
X133500000Y-100750000D03*
X111100000Y-107000000D03*
X92000000Y-118250000D03*
X92000000Y-109500000D03*
X138512499Y-101750000D03*
X114750000Y-119000000D03*
X93100000Y-115850000D03*
X94500000Y-111200000D03*
X93500000Y-111000000D03*
X98250000Y-100500000D03*
X97796289Y-109234999D03*
X130500000Y-99750000D03*
X150500000Y-103200000D03*
X93250000Y-101000000D03*
X131500000Y-100750000D03*
X98900000Y-121000000D03*
X105175000Y-118300000D03*
X93250000Y-99500000D03*
X134250000Y-102000000D03*
X100500000Y-99750000D03*
X147800000Y-109100000D03*
X139762499Y-102750000D03*
X92750000Y-111750000D03*
X130500000Y-98750000D03*
X137750000Y-102250000D03*
X92000000Y-111000000D03*
X112250000Y-110000000D03*
X105149999Y-121400000D03*
G04 #@! TO.N,+3.3V*
X94100000Y-113600000D03*
X94600000Y-107600000D03*
X127000000Y-100750000D03*
X99010000Y-113600000D03*
X133300000Y-106000000D03*
X127000000Y-103749999D03*
X129250000Y-100750000D03*
X117870001Y-115202450D03*
X101410000Y-113500000D03*
X95700000Y-107600000D03*
X127000000Y-101500000D03*
X127000000Y-104499999D03*
X127000000Y-102999999D03*
X96800000Y-107600000D03*
X117870001Y-116802448D03*
X128500000Y-100750000D03*
X94100000Y-114400000D03*
X133434996Y-104060002D03*
X99550000Y-105200000D03*
X114181583Y-114110000D03*
X127000000Y-105250000D03*
X125700000Y-117800000D03*
X127000000Y-102249999D03*
X127750000Y-100750000D03*
X105700000Y-111600000D03*
X97100000Y-115700000D03*
X95500001Y-103400000D03*
X127750000Y-101500000D03*
X97200000Y-121100000D03*
X127750000Y-104500000D03*
X106100000Y-113400000D03*
X129250000Y-101500000D03*
X109700000Y-119800000D03*
X128500000Y-101500000D03*
X125900000Y-115200000D03*
X141100000Y-105800000D03*
X94600000Y-118850000D03*
X106500000Y-111600000D03*
G04 #@! TO.N,Net-(U6-GPIO9)*
X105100000Y-114000000D03*
X106900000Y-118200000D03*
G04 #@! TO.N,Net-(U6-CHIP_EN)*
X100500000Y-117200000D03*
X97800000Y-114600000D03*
G04 #@! TO.N,Net-(J7-Pin_2)*
X136460000Y-116000000D03*
X128900000Y-119000000D03*
G04 #@! TO.N,Net-(J7-Pin_16)*
X145350000Y-116000000D03*
X128400000Y-113100000D03*
G04 #@! TO.N,Net-(J7-Pin_4)*
X137730000Y-116000000D03*
X130000000Y-119300000D03*
G04 #@! TO.N,Net-(J7-Pin_8)*
X140270000Y-116000000D03*
X132600000Y-117600000D03*
G04 #@! TO.N,Net-(J7-Pin_6)*
X131200000Y-119000000D03*
X139000000Y-116000000D03*
G04 #@! TO.N,Net-(J7-Pin_14)*
X129900000Y-113021000D03*
X144080000Y-116000000D03*
G04 #@! TO.N,Net-(D1-A)*
X150500000Y-108050000D03*
X149800000Y-100800000D03*
G04 #@! TO.N,Net-(D6-K)*
X120850001Y-115100000D03*
X121500000Y-111110000D03*
G04 #@! TO.N,Net-(J7-Pin_10)*
X141540000Y-116000000D03*
X133300000Y-115300000D03*
G04 #@! TO.N,/ADC/ALERT*
X98650000Y-115250000D03*
X99500000Y-117300000D03*
G04 #@! TO.N,Net-(J7-Pin_12)*
X142810000Y-116000000D03*
X131700000Y-114000000D03*
G04 #@! TO.N,/ESP_32/Battery_stat*
X134300000Y-107600000D03*
X101083178Y-112616822D03*
G04 #@! TO.N,/ESP_32/IO_INT*
X124300000Y-112300000D03*
X125706250Y-116750000D03*
G04 #@! TO.N,Net-(J6-Pin_2)*
X103610000Y-112800000D03*
G04 #@! TO.N,Net-(U5-PG)*
X132574998Y-102300002D03*
X129840000Y-104860000D03*
G04 #@! TO.N,Net-(J6-Pin_1)*
X103400000Y-113700000D03*
G04 #@! TD*
G04 #@! TA.AperFunction,Conductor*
G04 #@! TO.N,+3.3V*
G36*
X97343039Y-98020185D02*
G01*
X97388794Y-98072989D01*
X97400000Y-98124500D01*
X97400000Y-103478797D01*
X97380315Y-103545836D01*
X97327511Y-103591591D01*
X97308098Y-103598570D01*
X97255457Y-103612675D01*
X97184384Y-103631719D01*
X97184379Y-103631722D01*
X97047460Y-103710771D01*
X97047452Y-103710777D01*
X96935651Y-103822578D01*
X96935645Y-103822586D01*
X96856596Y-103959505D01*
X96856593Y-103959512D01*
X96815670Y-104112239D01*
X96815670Y-104270353D01*
X96856021Y-104420943D01*
X96856593Y-104423079D01*
X96856596Y-104423086D01*
X96935645Y-104560005D01*
X96935649Y-104560010D01*
X96935650Y-104560012D01*
X97047454Y-104671816D01*
X97047456Y-104671817D01*
X97047460Y-104671820D01*
X97151324Y-104731785D01*
X97184386Y-104750873D01*
X97337113Y-104791796D01*
X97337115Y-104791796D01*
X97495225Y-104791796D01*
X97495227Y-104791796D01*
X97495228Y-104791795D01*
X97503283Y-104790735D01*
X97503514Y-104792495D01*
X97563347Y-104793914D01*
X97621214Y-104833071D01*
X97648725Y-104897296D01*
X97648638Y-104912816D01*
X97649500Y-104912816D01*
X97649500Y-104920943D01*
X97649500Y-105079057D01*
X97673525Y-105168717D01*
X97690423Y-105231783D01*
X97690426Y-105231790D01*
X97769475Y-105368709D01*
X97769479Y-105368714D01*
X97769480Y-105368716D01*
X97881284Y-105480520D01*
X97881286Y-105480521D01*
X97881290Y-105480524D01*
X98018209Y-105559573D01*
X98018216Y-105559577D01*
X98170943Y-105600500D01*
X98170945Y-105600500D01*
X98329055Y-105600500D01*
X98329057Y-105600500D01*
X98481784Y-105559577D01*
X98618716Y-105480520D01*
X98730520Y-105368716D01*
X98809577Y-105231784D01*
X98850500Y-105079057D01*
X98850500Y-104920943D01*
X98821615Y-104813142D01*
X98821919Y-104800341D01*
X98817601Y-104788284D01*
X98822735Y-104766080D01*
X98823278Y-104743297D01*
X98830826Y-104731093D01*
X98833343Y-104720210D01*
X98848025Y-104703285D01*
X98854861Y-104692235D01*
X98864223Y-104683113D01*
X98868716Y-104680520D01*
X98937889Y-104611346D01*
X98938471Y-104610780D01*
X98968665Y-104594800D01*
X98998642Y-104578432D01*
X98999481Y-104578492D01*
X99000226Y-104578098D01*
X99034255Y-104580978D01*
X99068334Y-104583416D01*
X99069136Y-104583931D01*
X99069847Y-104583992D01*
X99072980Y-104586402D01*
X99112681Y-104611917D01*
X99181284Y-104680520D01*
X99181286Y-104680521D01*
X99181290Y-104680524D01*
X99270078Y-104731785D01*
X99318216Y-104759577D01*
X99470943Y-104800500D01*
X99470945Y-104800500D01*
X99629055Y-104800500D01*
X99629057Y-104800500D01*
X99781784Y-104759577D01*
X99848701Y-104720943D01*
X113899500Y-104720943D01*
X113899500Y-104879057D01*
X113926687Y-104980518D01*
X113940423Y-105031783D01*
X113940426Y-105031790D01*
X114019475Y-105168709D01*
X114019479Y-105168714D01*
X114019480Y-105168716D01*
X114131284Y-105280520D01*
X114131286Y-105280521D01*
X114131290Y-105280524D01*
X114235208Y-105340520D01*
X114268216Y-105359577D01*
X114420943Y-105400500D01*
X114420945Y-105400500D01*
X114579055Y-105400500D01*
X114579057Y-105400500D01*
X114731784Y-105359577D01*
X114868716Y-105280520D01*
X114980520Y-105168716D01*
X115059577Y-105031784D01*
X115100500Y-104879057D01*
X115100500Y-104720943D01*
X115059577Y-104568216D01*
X115054841Y-104560013D01*
X114980524Y-104431290D01*
X114980518Y-104431282D01*
X114868717Y-104319481D01*
X114868712Y-104319477D01*
X114839227Y-104302454D01*
X114839226Y-104302454D01*
X114731784Y-104240423D01*
X114671373Y-104224236D01*
X114585226Y-104201153D01*
X115679500Y-104201153D01*
X115679500Y-105458846D01*
X115710261Y-105613489D01*
X115710264Y-105613501D01*
X115770602Y-105759172D01*
X115770609Y-105759185D01*
X115858210Y-105890288D01*
X115858213Y-105890292D01*
X115969707Y-106001786D01*
X115969711Y-106001789D01*
X116100814Y-106089390D01*
X116100827Y-106089397D01*
X116245933Y-106149501D01*
X116246503Y-106149737D01*
X116401153Y-106180499D01*
X116401156Y-106180500D01*
X116401158Y-106180500D01*
X116558844Y-106180500D01*
X116558845Y-106180499D01*
X116713497Y-106149737D01*
X116859179Y-106089394D01*
X116990289Y-106001789D01*
X117101789Y-105890289D01*
X117189394Y-105759179D01*
X117249737Y-105613497D01*
X117280500Y-105458842D01*
X117280500Y-104783742D01*
X117300185Y-104716703D01*
X117352989Y-104670948D01*
X117422147Y-104661004D01*
X117485703Y-104690029D01*
X117492181Y-104696061D01*
X117556635Y-104760515D01*
X117687865Y-104836281D01*
X117834234Y-104875500D01*
X117834236Y-104875500D01*
X117985764Y-104875500D01*
X117985766Y-104875500D01*
X118132135Y-104836281D01*
X118263365Y-104760515D01*
X118370515Y-104653365D01*
X118446281Y-104522135D01*
X118485500Y-104375766D01*
X118485500Y-104224234D01*
X123114500Y-104224234D01*
X123114500Y-104375766D01*
X123129510Y-104431783D01*
X123153719Y-104522136D01*
X123180613Y-104568716D01*
X123229485Y-104653365D01*
X123336635Y-104760515D01*
X123467865Y-104836281D01*
X123614234Y-104875500D01*
X123614236Y-104875500D01*
X123765764Y-104875500D01*
X123765766Y-104875500D01*
X123912135Y-104836281D01*
X124043365Y-104760515D01*
X124107819Y-104696061D01*
X124169142Y-104662576D01*
X124238834Y-104667560D01*
X124294767Y-104709432D01*
X124319184Y-104774896D01*
X124319500Y-104783742D01*
X124319500Y-105458846D01*
X124350261Y-105613489D01*
X124350264Y-105613501D01*
X124410602Y-105759172D01*
X124410609Y-105759185D01*
X124498210Y-105890288D01*
X124498213Y-105890292D01*
X124609707Y-106001786D01*
X124609711Y-106001789D01*
X124740814Y-106089390D01*
X124740827Y-106089397D01*
X124885933Y-106149501D01*
X124886503Y-106149737D01*
X125041153Y-106180499D01*
X125041156Y-106180500D01*
X125041158Y-106180500D01*
X125198844Y-106180500D01*
X125198845Y-106180499D01*
X125246887Y-106170943D01*
X126399500Y-106170943D01*
X126399500Y-106329057D01*
X126429341Y-106440423D01*
X126440423Y-106481783D01*
X126440423Y-106481784D01*
X126487313Y-106563001D01*
X126503784Y-106630901D01*
X126487313Y-106686999D01*
X126440423Y-106768215D01*
X126440423Y-106768216D01*
X126399500Y-106920943D01*
X126399500Y-107079057D01*
X126440289Y-107231282D01*
X126440423Y-107231783D01*
X126440423Y-107231784D01*
X126487313Y-107313001D01*
X126503784Y-107380901D01*
X126487313Y-107436999D01*
X126440423Y-107518215D01*
X126440423Y-107518216D01*
X126399500Y-107670943D01*
X126399500Y-107829057D01*
X126440086Y-107980524D01*
X126440423Y-107981783D01*
X126440426Y-107981790D01*
X126519475Y-108118709D01*
X126519479Y-108118714D01*
X126519480Y-108118716D01*
X126631284Y-108230520D01*
X126631286Y-108230521D01*
X126631290Y-108230524D01*
X126720087Y-108281790D01*
X126768216Y-108309577D01*
X126920943Y-108350500D01*
X126920945Y-108350500D01*
X127079055Y-108350500D01*
X127079057Y-108350500D01*
X127231784Y-108309577D01*
X127368716Y-108230520D01*
X127480520Y-108118716D01*
X127559577Y-107981784D01*
X127600500Y-107829057D01*
X127600500Y-107670943D01*
X127560308Y-107520943D01*
X133699500Y-107520943D01*
X133699500Y-107679057D01*
X133739693Y-107829057D01*
X133740423Y-107831783D01*
X133740426Y-107831790D01*
X133819475Y-107968709D01*
X133819479Y-107968714D01*
X133819480Y-107968716D01*
X133931284Y-108080520D01*
X133931286Y-108080521D01*
X133931290Y-108080524D01*
X134015353Y-108129057D01*
X134068216Y-108159577D01*
X134220943Y-108200500D01*
X134220945Y-108200500D01*
X134379055Y-108200500D01*
X134379057Y-108200500D01*
X134531784Y-108159577D01*
X134668716Y-108080520D01*
X134780520Y-107968716D01*
X134859577Y-107831784D01*
X134900500Y-107679057D01*
X134900500Y-107520943D01*
X134859577Y-107368216D01*
X134835788Y-107327011D01*
X134780524Y-107231290D01*
X134780518Y-107231282D01*
X134668717Y-107119481D01*
X134668709Y-107119475D01*
X134531790Y-107040426D01*
X134531786Y-107040424D01*
X134531784Y-107040423D01*
X134379057Y-106999500D01*
X134220943Y-106999500D01*
X134068216Y-107040423D01*
X134068209Y-107040426D01*
X133931290Y-107119475D01*
X133931282Y-107119481D01*
X133819481Y-107231282D01*
X133819475Y-107231290D01*
X133740426Y-107368209D01*
X133740423Y-107368216D01*
X133699500Y-107520943D01*
X127560308Y-107520943D01*
X127559577Y-107518216D01*
X127510373Y-107432992D01*
X127508373Y-107428842D01*
X127503405Y-107398743D01*
X127496214Y-107369100D01*
X127497686Y-107364086D01*
X127496996Y-107359905D01*
X127502989Y-107346026D01*
X127512687Y-107313000D01*
X127521146Y-107298349D01*
X127559577Y-107231784D01*
X127600500Y-107079057D01*
X127600500Y-106920943D01*
X127559577Y-106768216D01*
X127512686Y-106686998D01*
X127496214Y-106619100D01*
X127512687Y-106563000D01*
X127524149Y-106543147D01*
X127559577Y-106481784D01*
X127600500Y-106329057D01*
X127600500Y-106270945D01*
X129974500Y-106270945D01*
X129974500Y-106429059D01*
X130014692Y-106579055D01*
X130015423Y-106581785D01*
X130015426Y-106581792D01*
X130094475Y-106718711D01*
X130094479Y-106718716D01*
X130094480Y-106718718D01*
X130206284Y-106830522D01*
X130206286Y-106830523D01*
X130206290Y-106830526D01*
X130272440Y-106868717D01*
X130343216Y-106909579D01*
X130495943Y-106950502D01*
X130495945Y-106950502D01*
X130654055Y-106950502D01*
X130654057Y-106950502D01*
X130806784Y-106909579D01*
X130943716Y-106830522D01*
X130987318Y-106786920D01*
X131048641Y-106753435D01*
X131118333Y-106758419D01*
X131162680Y-106786920D01*
X131206282Y-106830522D01*
X131206284Y-106830523D01*
X131206288Y-106830526D01*
X131272438Y-106868717D01*
X131343214Y-106909579D01*
X131495941Y-106950502D01*
X131495943Y-106950502D01*
X131654053Y-106950502D01*
X131654055Y-106950502D01*
X131806782Y-106909579D01*
X131943714Y-106830522D01*
X132055518Y-106718718D01*
X132083100Y-106670944D01*
X143911999Y-106670944D01*
X143911999Y-106829058D01*
X143944540Y-106950501D01*
X143952922Y-106981784D01*
X143952925Y-106981791D01*
X144031974Y-107118710D01*
X144031978Y-107118715D01*
X144031979Y-107118717D01*
X144143783Y-107230521D01*
X144208029Y-107267613D01*
X144256244Y-107318179D01*
X144269468Y-107386786D01*
X144243500Y-107451651D01*
X144208029Y-107482387D01*
X144143786Y-107519477D01*
X144143781Y-107519481D01*
X144031980Y-107631282D01*
X144031974Y-107631290D01*
X143952925Y-107768209D01*
X143952922Y-107768216D01*
X143911999Y-107920943D01*
X143911999Y-108079057D01*
X143952585Y-108230524D01*
X143952922Y-108231783D01*
X143952925Y-108231790D01*
X144031974Y-108368709D01*
X144031978Y-108368714D01*
X144031979Y-108368716D01*
X144143783Y-108480520D01*
X144143785Y-108480521D01*
X144143789Y-108480524D01*
X144230386Y-108530520D01*
X144280715Y-108559577D01*
X144433442Y-108600500D01*
X144433444Y-108600500D01*
X144591554Y-108600500D01*
X144591556Y-108600500D01*
X144744283Y-108559577D01*
X144881215Y-108480520D01*
X144993019Y-108368716D01*
X145072076Y-108231784D01*
X145112999Y-108079057D01*
X145112999Y-107970943D01*
X149899500Y-107970943D01*
X149899500Y-108129057D01*
X149927026Y-108231783D01*
X149940423Y-108281783D01*
X149940426Y-108281790D01*
X150019475Y-108418709D01*
X150019479Y-108418714D01*
X150019480Y-108418716D01*
X150131284Y-108530520D01*
X150131286Y-108530521D01*
X150131290Y-108530524D01*
X150207834Y-108574716D01*
X150268216Y-108609577D01*
X150420943Y-108650500D01*
X150420945Y-108650500D01*
X150579055Y-108650500D01*
X150579057Y-108650500D01*
X150731784Y-108609577D01*
X150868716Y-108530520D01*
X150980520Y-108418716D01*
X151059577Y-108281784D01*
X151100500Y-108129057D01*
X151100500Y-107970943D01*
X151059577Y-107818216D01*
X151030706Y-107768209D01*
X150980524Y-107681290D01*
X150980518Y-107681282D01*
X150868717Y-107569481D01*
X150868709Y-107569475D01*
X150731790Y-107490426D01*
X150731786Y-107490424D01*
X150731784Y-107490423D01*
X150579057Y-107449500D01*
X150420943Y-107449500D01*
X150268216Y-107490423D01*
X150268209Y-107490426D01*
X150131290Y-107569475D01*
X150131282Y-107569481D01*
X150019481Y-107681282D01*
X150019475Y-107681290D01*
X149940426Y-107818209D01*
X149940423Y-107818216D01*
X149899500Y-107970943D01*
X145112999Y-107970943D01*
X145112999Y-107920943D01*
X145072076Y-107768216D01*
X145021890Y-107681290D01*
X144993023Y-107631290D01*
X144993017Y-107631282D01*
X144881216Y-107519481D01*
X144881211Y-107519477D01*
X144816968Y-107482387D01*
X144768753Y-107431821D01*
X144755529Y-107363214D01*
X144781497Y-107298349D01*
X144816968Y-107267613D01*
X144881215Y-107230521D01*
X144993019Y-107118717D01*
X145072076Y-106981785D01*
X145112999Y-106829058D01*
X145112999Y-106670944D01*
X145072076Y-106518217D01*
X145015917Y-106420945D01*
X144993023Y-106381291D01*
X144993017Y-106381283D01*
X144881216Y-106269482D01*
X144881208Y-106269476D01*
X144744289Y-106190427D01*
X144744285Y-106190425D01*
X144744283Y-106190424D01*
X144591556Y-106149501D01*
X144433442Y-106149501D01*
X144280715Y-106190424D01*
X144280708Y-106190427D01*
X144143789Y-106269476D01*
X144143781Y-106269482D01*
X144031980Y-106381283D01*
X144031974Y-106381291D01*
X143952925Y-106518210D01*
X143952922Y-106518217D01*
X143911999Y-106670944D01*
X132083100Y-106670944D01*
X132100630Y-106640581D01*
X132123588Y-106600817D01*
X132123588Y-106600816D01*
X132124945Y-106598466D01*
X132134575Y-106581786D01*
X132175498Y-106429059D01*
X132175498Y-106270945D01*
X132134575Y-106118218D01*
X132077570Y-106019481D01*
X132055522Y-105981292D01*
X132055516Y-105981284D01*
X131943715Y-105869483D01*
X131943707Y-105869477D01*
X131806788Y-105790428D01*
X131806784Y-105790426D01*
X131806782Y-105790425D01*
X131654055Y-105749502D01*
X131495941Y-105749502D01*
X131343214Y-105790425D01*
X131343207Y-105790428D01*
X131206288Y-105869477D01*
X131206280Y-105869483D01*
X131162680Y-105913084D01*
X131101357Y-105946569D01*
X131031665Y-105941585D01*
X130987318Y-105913084D01*
X130943717Y-105869483D01*
X130943709Y-105869477D01*
X130806790Y-105790428D01*
X130806786Y-105790426D01*
X130806784Y-105790425D01*
X130654057Y-105749502D01*
X130495943Y-105749502D01*
X130343216Y-105790425D01*
X130343209Y-105790428D01*
X130206290Y-105869477D01*
X130206282Y-105869483D01*
X130094481Y-105981284D01*
X130094475Y-105981292D01*
X130015426Y-106118211D01*
X130015423Y-106118218D01*
X129974500Y-106270945D01*
X127600500Y-106270945D01*
X127600500Y-106170943D01*
X127559577Y-106018216D01*
X127538256Y-105981286D01*
X127480524Y-105881290D01*
X127480518Y-105881282D01*
X127368717Y-105769481D01*
X127368709Y-105769475D01*
X127231790Y-105690426D01*
X127231786Y-105690424D01*
X127231784Y-105690423D01*
X127079057Y-105649500D01*
X126920943Y-105649500D01*
X126768216Y-105690423D01*
X126768209Y-105690426D01*
X126631290Y-105769475D01*
X126631282Y-105769481D01*
X126519481Y-105881282D01*
X126519475Y-105881290D01*
X126440426Y-106018209D01*
X126440423Y-106018216D01*
X126399500Y-106170943D01*
X125246887Y-106170943D01*
X125353497Y-106149737D01*
X125499179Y-106089394D01*
X125499185Y-106089390D01*
X125543599Y-106059714D01*
X125603811Y-106019481D01*
X125630289Y-106001789D01*
X125741789Y-105890289D01*
X125829394Y-105759179D01*
X125889737Y-105613497D01*
X125920500Y-105458842D01*
X125920500Y-104780943D01*
X129239500Y-104780943D01*
X129239500Y-104939057D01*
X129277013Y-105079055D01*
X129280423Y-105091783D01*
X129280426Y-105091790D01*
X129359475Y-105228709D01*
X129359479Y-105228714D01*
X129359480Y-105228716D01*
X129471284Y-105340520D01*
X129471286Y-105340521D01*
X129471290Y-105340524D01*
X129575173Y-105400500D01*
X129608216Y-105419577D01*
X129760943Y-105460500D01*
X129760945Y-105460500D01*
X129919055Y-105460500D01*
X129919057Y-105460500D01*
X130071784Y-105419577D01*
X130208716Y-105340520D01*
X130320520Y-105228716D01*
X130399577Y-105091784D01*
X130440500Y-104939057D01*
X130440500Y-104780943D01*
X130399577Y-104628216D01*
X130390167Y-104611917D01*
X130320524Y-104491290D01*
X130320518Y-104491282D01*
X130208717Y-104379481D01*
X130208709Y-104379475D01*
X130071790Y-104300426D01*
X130071786Y-104300424D01*
X130071784Y-104300423D01*
X129919057Y-104259500D01*
X129760943Y-104259500D01*
X129608216Y-104300423D01*
X129608209Y-104300426D01*
X129471290Y-104379475D01*
X129471282Y-104379481D01*
X129359481Y-104491282D01*
X129359475Y-104491290D01*
X129280426Y-104628209D01*
X129280423Y-104628216D01*
X129239500Y-104780943D01*
X125920500Y-104780943D01*
X125920500Y-104201158D01*
X125920500Y-104201155D01*
X125920499Y-104201153D01*
X125906601Y-104131282D01*
X125889737Y-104046503D01*
X125878544Y-104019480D01*
X125829397Y-103900827D01*
X125829390Y-103900814D01*
X125741789Y-103769711D01*
X125741786Y-103769707D01*
X125630292Y-103658213D01*
X125630288Y-103658210D01*
X125499185Y-103570609D01*
X125499172Y-103570602D01*
X125353501Y-103510264D01*
X125353489Y-103510261D01*
X125198845Y-103479500D01*
X125198842Y-103479500D01*
X125041158Y-103479500D01*
X125041155Y-103479500D01*
X124886510Y-103510261D01*
X124886498Y-103510264D01*
X124740827Y-103570602D01*
X124740814Y-103570609D01*
X124609711Y-103658210D01*
X124609707Y-103658213D01*
X124498213Y-103769707D01*
X124498210Y-103769711D01*
X124410609Y-103900814D01*
X124410604Y-103900824D01*
X124387131Y-103957494D01*
X124343290Y-104011897D01*
X124276996Y-104033962D01*
X124209296Y-104016683D01*
X124165183Y-103972041D01*
X124162973Y-103968213D01*
X124150515Y-103946635D01*
X124043365Y-103839485D01*
X123960958Y-103791907D01*
X123912136Y-103763719D01*
X123838950Y-103744109D01*
X123765766Y-103724500D01*
X123614234Y-103724500D01*
X123467863Y-103763719D01*
X123336635Y-103839485D01*
X123336632Y-103839487D01*
X123229487Y-103946632D01*
X123229485Y-103946635D01*
X123153719Y-104077863D01*
X123126213Y-104180520D01*
X123114500Y-104224234D01*
X118485500Y-104224234D01*
X118446281Y-104077865D01*
X118370515Y-103946635D01*
X118263365Y-103839485D01*
X118180958Y-103791907D01*
X118132136Y-103763719D01*
X118058950Y-103744109D01*
X117985766Y-103724500D01*
X117834234Y-103724500D01*
X117687863Y-103763719D01*
X117556635Y-103839485D01*
X117556632Y-103839487D01*
X117449487Y-103946632D01*
X117449483Y-103946638D01*
X117434815Y-103972043D01*
X117384247Y-104020258D01*
X117315640Y-104033479D01*
X117250775Y-104007510D01*
X117212868Y-103957494D01*
X117189394Y-103900821D01*
X117189390Y-103900814D01*
X117101789Y-103769711D01*
X117101786Y-103769707D01*
X116990292Y-103658213D01*
X116990288Y-103658210D01*
X116859185Y-103570609D01*
X116859172Y-103570602D01*
X116713501Y-103510264D01*
X116713489Y-103510261D01*
X116558845Y-103479500D01*
X116558842Y-103479500D01*
X116401158Y-103479500D01*
X116401155Y-103479500D01*
X116246510Y-103510261D01*
X116246498Y-103510264D01*
X116100827Y-103570602D01*
X116100814Y-103570609D01*
X115969711Y-103658210D01*
X115969707Y-103658213D01*
X115858213Y-103769707D01*
X115858210Y-103769711D01*
X115770609Y-103900814D01*
X115770602Y-103900827D01*
X115710264Y-104046498D01*
X115710261Y-104046510D01*
X115679500Y-104201153D01*
X114585226Y-104201153D01*
X114579057Y-104199500D01*
X114420943Y-104199500D01*
X114268216Y-104240423D01*
X114268209Y-104240426D01*
X114131290Y-104319475D01*
X114131282Y-104319481D01*
X114019481Y-104431282D01*
X114019475Y-104431290D01*
X113940426Y-104568209D01*
X113940423Y-104568216D01*
X113899500Y-104720943D01*
X99848701Y-104720943D01*
X99918716Y-104680520D01*
X100030520Y-104568716D01*
X100109577Y-104431784D01*
X100150500Y-104279057D01*
X100150500Y-104120943D01*
X100109577Y-103968216D01*
X100092073Y-103937899D01*
X100075601Y-103870000D01*
X100098453Y-103803973D01*
X100100000Y-103802144D01*
X100100000Y-103400000D01*
X97924000Y-103400000D01*
X97856961Y-103380315D01*
X97811206Y-103327511D01*
X97800000Y-103276000D01*
X97800000Y-101148364D01*
X97819685Y-101081325D01*
X97872489Y-101035570D01*
X97941647Y-101025626D01*
X97985998Y-101040976D01*
X98018216Y-101059577D01*
X98170943Y-101100500D01*
X98170945Y-101100500D01*
X98329055Y-101100500D01*
X98329057Y-101100500D01*
X98481784Y-101059577D01*
X98563001Y-101012686D01*
X98630900Y-100996214D01*
X98686998Y-101012686D01*
X98768216Y-101059577D01*
X98920943Y-101100500D01*
X98920945Y-101100500D01*
X99079055Y-101100500D01*
X99079057Y-101100500D01*
X99231784Y-101059577D01*
X99368716Y-100980520D01*
X99480520Y-100868716D01*
X99559577Y-100731784D01*
X99600500Y-100579057D01*
X99600500Y-100474500D01*
X99620185Y-100407461D01*
X99672989Y-100361706D01*
X99724500Y-100350500D01*
X99829055Y-100350500D01*
X99829057Y-100350500D01*
X99981784Y-100309577D01*
X100063001Y-100262686D01*
X100130900Y-100246214D01*
X100186998Y-100262686D01*
X100268216Y-100309577D01*
X100420943Y-100350500D01*
X100420945Y-100350500D01*
X100579055Y-100350500D01*
X100579057Y-100350500D01*
X100731784Y-100309577D01*
X100868716Y-100230520D01*
X100980520Y-100118716D01*
X101059577Y-99981784D01*
X101100500Y-99829057D01*
X101100500Y-99670943D01*
X101059577Y-99518216D01*
X101012686Y-99436998D01*
X100996214Y-99369100D01*
X101012687Y-99313000D01*
X101059577Y-99231784D01*
X101100500Y-99079057D01*
X101100500Y-98920943D01*
X101059577Y-98768216D01*
X101059573Y-98768209D01*
X100983243Y-98635999D01*
X100966770Y-98568099D01*
X100989623Y-98502072D01*
X101044544Y-98458882D01*
X101090630Y-98450000D01*
X103376000Y-98450000D01*
X103443039Y-98469685D01*
X103488794Y-98522489D01*
X103500000Y-98574000D01*
X103500000Y-103151402D01*
X103480315Y-103218441D01*
X103427511Y-103264196D01*
X103358353Y-103274140D01*
X103294797Y-103245115D01*
X103288319Y-103239083D01*
X103268717Y-103219481D01*
X103268709Y-103219475D01*
X103131790Y-103140426D01*
X103131786Y-103140424D01*
X103131784Y-103140423D01*
X102979057Y-103099500D01*
X102820943Y-103099500D01*
X102668216Y-103140423D01*
X102668209Y-103140426D01*
X102531290Y-103219475D01*
X102531282Y-103219481D01*
X102419481Y-103331282D01*
X102419475Y-103331290D01*
X102340426Y-103468209D01*
X102340423Y-103468216D01*
X102299500Y-103620943D01*
X102299500Y-103779057D01*
X102334138Y-103908326D01*
X102340423Y-103931783D01*
X102340426Y-103931790D01*
X102419475Y-104068709D01*
X102419479Y-104068714D01*
X102419480Y-104068716D01*
X102531284Y-104180520D01*
X102531286Y-104180521D01*
X102531290Y-104180524D01*
X102607003Y-104224236D01*
X102668216Y-104259577D01*
X102820943Y-104300500D01*
X102820945Y-104300500D01*
X102979055Y-104300500D01*
X102979057Y-104300500D01*
X103131784Y-104259577D01*
X103268716Y-104180520D01*
X103380520Y-104068716D01*
X103459577Y-103931784D01*
X103497057Y-103791904D01*
X103533421Y-103732246D01*
X103596268Y-103701717D01*
X103616831Y-103700000D01*
X103900000Y-103700000D01*
X103900000Y-98124500D01*
X103919685Y-98057461D01*
X103972489Y-98011706D01*
X104024000Y-98000500D01*
X106291094Y-98000500D01*
X106358133Y-98020185D01*
X106403888Y-98072989D01*
X106413832Y-98142147D01*
X106384807Y-98205703D01*
X106353094Y-98231886D01*
X106347853Y-98234912D01*
X106331284Y-98244478D01*
X106219481Y-98356281D01*
X106219475Y-98356289D01*
X106140426Y-98493208D01*
X106140423Y-98493215D01*
X106099500Y-98645942D01*
X106099500Y-98804056D01*
X106130821Y-98920945D01*
X106140423Y-98956782D01*
X106140426Y-98956789D01*
X106219475Y-99093708D01*
X106219479Y-99093713D01*
X106219480Y-99093715D01*
X106331284Y-99205519D01*
X106331286Y-99205520D01*
X106331290Y-99205523D01*
X106460300Y-99280006D01*
X106468216Y-99284576D01*
X106620943Y-99325499D01*
X106620945Y-99325499D01*
X106779055Y-99325499D01*
X106779057Y-99325499D01*
X106855072Y-99305131D01*
X108249500Y-99305131D01*
X108249500Y-101094856D01*
X108249502Y-101094882D01*
X108252413Y-101119987D01*
X108252415Y-101119991D01*
X108297793Y-101222764D01*
X108297794Y-101222765D01*
X108377235Y-101302206D01*
X108480009Y-101347585D01*
X108505135Y-101350500D01*
X109242873Y-101350499D01*
X109309910Y-101370183D01*
X109355665Y-101422987D01*
X109365609Y-101492146D01*
X109336584Y-101555702D01*
X109277806Y-101593476D01*
X109262270Y-101596972D01*
X109130589Y-101617829D01*
X108958363Y-101673787D01*
X108958360Y-101673788D01*
X108797002Y-101756006D01*
X108650505Y-101862441D01*
X108650500Y-101862445D01*
X108522445Y-101990500D01*
X108522441Y-101990505D01*
X108416006Y-102137002D01*
X108333788Y-102298360D01*
X108333787Y-102298363D01*
X108277829Y-102470589D01*
X108249500Y-102649448D01*
X108249500Y-102830551D01*
X108277829Y-103009410D01*
X108333787Y-103181636D01*
X108333788Y-103181639D01*
X108383425Y-103279055D01*
X108410040Y-103331290D01*
X108416006Y-103342997D01*
X108522441Y-103489494D01*
X108522445Y-103489499D01*
X108650500Y-103617554D01*
X108650505Y-103617558D01*
X108763978Y-103700000D01*
X108797006Y-103723996D01*
X108886726Y-103769711D01*
X108958360Y-103806211D01*
X108958363Y-103806212D01*
X109015314Y-103824716D01*
X109130591Y-103862171D01*
X109213429Y-103875291D01*
X109309449Y-103890500D01*
X109309454Y-103890500D01*
X109490551Y-103890500D01*
X109577259Y-103876765D01*
X109669409Y-103862171D01*
X109841639Y-103806211D01*
X110002994Y-103723996D01*
X110149501Y-103617553D01*
X110277553Y-103489501D01*
X110383996Y-103342994D01*
X110466211Y-103181639D01*
X110522171Y-103009409D01*
X110542464Y-102881284D01*
X110550500Y-102830551D01*
X110550500Y-102649448D01*
X110529713Y-102518209D01*
X110522171Y-102470591D01*
X110483152Y-102350500D01*
X110466212Y-102298363D01*
X110466209Y-102298356D01*
X110451309Y-102269114D01*
X110451308Y-102269113D01*
X110446010Y-102258715D01*
X110426765Y-102220945D01*
X131974498Y-102220945D01*
X131974498Y-102379059D01*
X132007366Y-102501722D01*
X132015421Y-102531785D01*
X132015424Y-102531792D01*
X132094473Y-102668711D01*
X132094477Y-102668716D01*
X132094478Y-102668718D01*
X132206282Y-102780522D01*
X132206284Y-102780523D01*
X132206288Y-102780526D01*
X132335517Y-102855135D01*
X132343214Y-102859579D01*
X132495941Y-102900502D01*
X132495943Y-102900502D01*
X132654053Y-102900502D01*
X132654055Y-102900502D01*
X132806782Y-102859579D01*
X132943714Y-102780522D01*
X133055518Y-102668718D01*
X133134575Y-102531786D01*
X133175498Y-102379059D01*
X133175498Y-102220945D01*
X133134575Y-102068218D01*
X133098800Y-102006253D01*
X133055522Y-101931292D01*
X133055516Y-101931284D01*
X132943715Y-101819483D01*
X132943707Y-101819477D01*
X132806788Y-101740428D01*
X132806784Y-101740426D01*
X132806782Y-101740425D01*
X132654055Y-101699502D01*
X132495941Y-101699502D01*
X132343214Y-101740425D01*
X132343207Y-101740428D01*
X132206288Y-101819477D01*
X132206280Y-101819483D01*
X132094479Y-101931284D01*
X132094473Y-101931292D01*
X132015424Y-102068211D01*
X132015421Y-102068218D01*
X131974498Y-102220945D01*
X110426765Y-102220945D01*
X110383996Y-102137006D01*
X110341893Y-102079056D01*
X110277558Y-101990505D01*
X110277554Y-101990500D01*
X110149499Y-101862445D01*
X110149494Y-101862441D01*
X110002997Y-101756006D01*
X110002996Y-101756005D01*
X110002994Y-101756004D01*
X109941164Y-101724500D01*
X109841639Y-101673788D01*
X109841636Y-101673787D01*
X109669410Y-101617829D01*
X109537728Y-101596972D01*
X109474594Y-101567042D01*
X109437663Y-101507731D01*
X109438661Y-101437868D01*
X109477271Y-101379636D01*
X109541235Y-101351522D01*
X109557120Y-101350499D01*
X110294864Y-101350499D01*
X110294879Y-101350497D01*
X110294882Y-101350497D01*
X110319987Y-101347586D01*
X110319988Y-101347585D01*
X110319991Y-101347585D01*
X110422765Y-101302206D01*
X110502206Y-101222765D01*
X110547585Y-101119991D01*
X110550500Y-101094865D01*
X110550499Y-100144448D01*
X111939675Y-100144448D01*
X111939675Y-100325551D01*
X111968004Y-100504410D01*
X112023962Y-100676636D01*
X112023963Y-100676639D01*
X112070625Y-100768216D01*
X112101625Y-100829057D01*
X112106181Y-100837997D01*
X112212616Y-100984494D01*
X112212620Y-100984499D01*
X112340675Y-101112554D01*
X112340680Y-101112558D01*
X112450968Y-101192686D01*
X112487181Y-101218996D01*
X112586251Y-101269475D01*
X112648535Y-101301211D01*
X112648538Y-101301212D01*
X112734593Y-101329172D01*
X112820766Y-101357171D01*
X112893659Y-101368716D01*
X112999624Y-101385500D01*
X112999629Y-101385500D01*
X113180726Y-101385500D01*
X113277429Y-101370183D01*
X113359584Y-101357171D01*
X113531814Y-101301211D01*
X113693169Y-101218996D01*
X113839676Y-101112553D01*
X113967728Y-100984501D01*
X114074171Y-100837994D01*
X114156386Y-100676639D01*
X114212346Y-100504409D01*
X114230737Y-100388294D01*
X114240675Y-100325551D01*
X114240675Y-100271153D01*
X115679500Y-100271153D01*
X115679500Y-101028846D01*
X115710261Y-101183489D01*
X115710264Y-101183501D01*
X115770602Y-101329172D01*
X115770609Y-101329185D01*
X115858210Y-101460288D01*
X115858213Y-101460292D01*
X115969707Y-101571786D01*
X115969711Y-101571789D01*
X116100814Y-101659390D01*
X116100827Y-101659397D01*
X116246498Y-101719735D01*
X116246503Y-101719737D01*
X116401153Y-101750499D01*
X116401156Y-101750500D01*
X116401158Y-101750500D01*
X116558844Y-101750500D01*
X116558845Y-101750499D01*
X116713497Y-101719737D01*
X116836674Y-101668716D01*
X116859172Y-101659397D01*
X116859172Y-101659396D01*
X116859179Y-101659394D01*
X116990289Y-101571789D01*
X117101789Y-101460289D01*
X117189394Y-101329179D01*
X117200567Y-101302206D01*
X117209550Y-101280518D01*
X117249737Y-101183497D01*
X117280500Y-101028842D01*
X117280500Y-100271158D01*
X117280500Y-100271155D01*
X117280499Y-100271153D01*
X124319500Y-100271153D01*
X124319500Y-101028846D01*
X124350261Y-101183489D01*
X124350264Y-101183501D01*
X124410602Y-101329172D01*
X124410609Y-101329185D01*
X124498210Y-101460288D01*
X124498213Y-101460292D01*
X124609707Y-101571786D01*
X124609711Y-101571789D01*
X124740814Y-101659390D01*
X124740827Y-101659397D01*
X124886498Y-101719735D01*
X124886503Y-101719737D01*
X125041153Y-101750499D01*
X125041156Y-101750500D01*
X125041158Y-101750500D01*
X125198844Y-101750500D01*
X125198845Y-101750499D01*
X125353497Y-101719737D01*
X125476674Y-101668716D01*
X125499172Y-101659397D01*
X125499172Y-101659396D01*
X125499179Y-101659394D01*
X125630289Y-101571789D01*
X125741789Y-101460289D01*
X125829394Y-101329179D01*
X125840567Y-101302206D01*
X125849550Y-101280518D01*
X125889737Y-101183497D01*
X125920500Y-101028842D01*
X125920500Y-100271158D01*
X125920500Y-100271155D01*
X125920499Y-100271153D01*
X125912417Y-100230524D01*
X125889737Y-100116503D01*
X125889735Y-100116498D01*
X125829397Y-99970827D01*
X125829390Y-99970814D01*
X125741789Y-99839711D01*
X125741786Y-99839707D01*
X125630292Y-99728213D01*
X125630288Y-99728210D01*
X125499185Y-99640609D01*
X125499172Y-99640602D01*
X125353501Y-99580264D01*
X125353489Y-99580261D01*
X125198845Y-99549500D01*
X125198842Y-99549500D01*
X125041158Y-99549500D01*
X125041155Y-99549500D01*
X124886510Y-99580261D01*
X124886498Y-99580264D01*
X124740827Y-99640602D01*
X124740814Y-99640609D01*
X124609711Y-99728210D01*
X124609707Y-99728213D01*
X124498213Y-99839707D01*
X124498210Y-99839711D01*
X124410609Y-99970814D01*
X124410602Y-99970827D01*
X124350264Y-100116498D01*
X124350261Y-100116510D01*
X124319500Y-100271153D01*
X117280499Y-100271153D01*
X117272417Y-100230524D01*
X117249737Y-100116503D01*
X117249735Y-100116498D01*
X117189397Y-99970827D01*
X117189390Y-99970814D01*
X117101789Y-99839711D01*
X117101786Y-99839707D01*
X116990292Y-99728213D01*
X116990288Y-99728210D01*
X116859185Y-99640609D01*
X116859172Y-99640602D01*
X116713501Y-99580264D01*
X116713489Y-99580261D01*
X116558845Y-99549500D01*
X116558842Y-99549500D01*
X116401158Y-99549500D01*
X116401155Y-99549500D01*
X116246510Y-99580261D01*
X116246498Y-99580264D01*
X116100827Y-99640602D01*
X116100814Y-99640609D01*
X115969711Y-99728210D01*
X115969707Y-99728213D01*
X115858213Y-99839707D01*
X115858210Y-99839711D01*
X115770609Y-99970814D01*
X115770602Y-99970827D01*
X115710264Y-100116498D01*
X115710261Y-100116510D01*
X115679500Y-100271153D01*
X114240675Y-100271153D01*
X114240675Y-100144448D01*
X114218462Y-100004205D01*
X114212346Y-99965591D01*
X114171446Y-99839711D01*
X114156387Y-99793363D01*
X114156386Y-99793360D01*
X114123190Y-99728210D01*
X114074171Y-99632006D01*
X114045497Y-99592539D01*
X113967733Y-99485505D01*
X113967729Y-99485500D01*
X113839674Y-99357445D01*
X113839669Y-99357441D01*
X113693172Y-99251006D01*
X113693171Y-99251005D01*
X113693169Y-99251004D01*
X113639468Y-99223642D01*
X113531814Y-99168788D01*
X113531811Y-99168787D01*
X113359585Y-99112829D01*
X113180726Y-99084500D01*
X113180721Y-99084500D01*
X112999629Y-99084500D01*
X112999624Y-99084500D01*
X112820764Y-99112829D01*
X112648538Y-99168787D01*
X112648535Y-99168788D01*
X112487177Y-99251006D01*
X112340680Y-99357441D01*
X112340675Y-99357445D01*
X112212620Y-99485500D01*
X112212616Y-99485505D01*
X112106181Y-99632002D01*
X112023963Y-99793360D01*
X112023962Y-99793363D01*
X111968004Y-99965589D01*
X111939675Y-100144448D01*
X110550499Y-100144448D01*
X110550499Y-99305136D01*
X110550497Y-99305117D01*
X110547586Y-99280012D01*
X110547585Y-99280010D01*
X110547585Y-99280009D01*
X110502206Y-99177235D01*
X110422765Y-99097794D01*
X110380330Y-99079057D01*
X110319992Y-99052415D01*
X110294865Y-99049500D01*
X108505143Y-99049500D01*
X108505117Y-99049502D01*
X108480012Y-99052413D01*
X108480008Y-99052415D01*
X108377235Y-99097793D01*
X108297794Y-99177234D01*
X108252415Y-99280006D01*
X108252415Y-99280008D01*
X108249500Y-99305131D01*
X106855072Y-99305131D01*
X106931784Y-99284576D01*
X107037326Y-99223642D01*
X107068713Y-99205521D01*
X107068713Y-99205520D01*
X107068716Y-99205519D01*
X107180520Y-99093715D01*
X107259577Y-98956783D01*
X107300500Y-98804056D01*
X107300500Y-98645942D01*
X107259577Y-98493215D01*
X107245992Y-98469685D01*
X107180524Y-98356289D01*
X107180518Y-98356281D01*
X107068715Y-98244478D01*
X107056240Y-98237276D01*
X107046906Y-98231887D01*
X106998691Y-98181321D01*
X106985467Y-98112714D01*
X107011435Y-98047849D01*
X107068348Y-98007320D01*
X107108906Y-98000500D01*
X115034108Y-98000500D01*
X126434108Y-98000500D01*
X130134397Y-98000500D01*
X130201436Y-98020185D01*
X130247191Y-98072989D01*
X130257135Y-98142147D01*
X130228110Y-98205703D01*
X130196397Y-98231887D01*
X130131287Y-98269477D01*
X130131282Y-98269481D01*
X130019481Y-98381282D01*
X130019475Y-98381290D01*
X129940426Y-98518209D01*
X129940423Y-98518216D01*
X129899500Y-98670943D01*
X129899500Y-98829057D01*
X129934148Y-98958363D01*
X129940423Y-98981783D01*
X129940426Y-98981790D01*
X130019475Y-99118709D01*
X130019481Y-99118717D01*
X130063083Y-99162319D01*
X130096568Y-99223642D01*
X130091584Y-99293334D01*
X130063083Y-99337681D01*
X130019481Y-99381282D01*
X130019475Y-99381290D01*
X129940426Y-99518209D01*
X129940423Y-99518216D01*
X129899500Y-99670943D01*
X129899500Y-99829057D01*
X129937486Y-99970821D01*
X129940423Y-99981783D01*
X129940426Y-99981790D01*
X130019475Y-100118709D01*
X130019481Y-100118717D01*
X130063083Y-100162319D01*
X130096568Y-100223642D01*
X130091584Y-100293334D01*
X130063083Y-100337681D01*
X130019481Y-100381282D01*
X130019475Y-100381290D01*
X129940426Y-100518209D01*
X129940423Y-100518216D01*
X129899500Y-100670943D01*
X129899500Y-100829057D01*
X129940086Y-100980524D01*
X129940423Y-100981783D01*
X129940426Y-100981790D01*
X130019475Y-101118709D01*
X130019479Y-101118714D01*
X130019480Y-101118716D01*
X130131284Y-101230520D01*
X130131286Y-101230521D01*
X130131290Y-101230524D01*
X130253727Y-101301212D01*
X130268216Y-101309577D01*
X130420943Y-101350500D01*
X130420945Y-101350500D01*
X130579055Y-101350500D01*
X130579057Y-101350500D01*
X130731784Y-101309577D01*
X130868716Y-101230520D01*
X130912319Y-101186917D01*
X130973642Y-101153432D01*
X131043334Y-101158416D01*
X131087681Y-101186917D01*
X131131284Y-101230520D01*
X131131286Y-101230521D01*
X131131290Y-101230524D01*
X131253727Y-101301212D01*
X131268216Y-101309577D01*
X131420943Y-101350500D01*
X131420945Y-101350500D01*
X131579055Y-101350500D01*
X131579057Y-101350500D01*
X131731784Y-101309577D01*
X131868716Y-101230520D01*
X131912319Y-101186917D01*
X131973642Y-101153432D01*
X132043334Y-101158416D01*
X132087681Y-101186917D01*
X132131284Y-101230520D01*
X132131286Y-101230521D01*
X132131290Y-101230524D01*
X132253727Y-101301212D01*
X132268216Y-101309577D01*
X132420943Y-101350500D01*
X132420945Y-101350500D01*
X132579055Y-101350500D01*
X132579057Y-101350500D01*
X132731784Y-101309577D01*
X132868716Y-101230520D01*
X132912319Y-101186917D01*
X132973642Y-101153432D01*
X133043334Y-101158416D01*
X133087681Y-101186917D01*
X133131284Y-101230520D01*
X133131286Y-101230521D01*
X133131290Y-101230524D01*
X133253727Y-101301212D01*
X133268216Y-101309577D01*
X133420943Y-101350500D01*
X133420945Y-101350500D01*
X133579055Y-101350500D01*
X133579057Y-101350500D01*
X133731784Y-101309577D01*
X133868716Y-101230520D01*
X133912319Y-101186917D01*
X133920264Y-101182578D01*
X133925690Y-101175331D01*
X133950449Y-101166096D01*
X133973642Y-101153432D01*
X133982671Y-101154077D01*
X133991154Y-101150914D01*
X134016974Y-101156530D01*
X134043334Y-101158416D01*
X134052387Y-101164234D01*
X134059427Y-101165766D01*
X134087681Y-101186917D01*
X134121067Y-101220303D01*
X134154552Y-101281626D01*
X134149568Y-101351318D01*
X134107696Y-101407251D01*
X134065481Y-101427758D01*
X134047567Y-101432558D01*
X134018214Y-101440423D01*
X134018209Y-101440426D01*
X133881290Y-101519475D01*
X133881282Y-101519481D01*
X133769481Y-101631282D01*
X133769475Y-101631290D01*
X133690426Y-101768209D01*
X133690423Y-101768216D01*
X133649500Y-101920943D01*
X133649500Y-102079057D01*
X133690086Y-102230524D01*
X133690423Y-102231783D01*
X133690426Y-102231790D01*
X133769475Y-102368709D01*
X133769479Y-102368714D01*
X133769480Y-102368716D01*
X133881284Y-102480520D01*
X133881286Y-102480521D01*
X133881290Y-102480524D01*
X134018209Y-102559573D01*
X134018216Y-102559577D01*
X134170943Y-102600500D01*
X134170945Y-102600500D01*
X134329055Y-102600500D01*
X134329057Y-102600500D01*
X134481784Y-102559577D01*
X134618716Y-102480520D01*
X134662319Y-102436917D01*
X134723642Y-102403432D01*
X134793334Y-102408416D01*
X134837681Y-102436917D01*
X134881284Y-102480520D01*
X134881286Y-102480521D01*
X134881290Y-102480524D01*
X135018209Y-102559573D01*
X135018216Y-102559577D01*
X135170943Y-102600500D01*
X135170945Y-102600500D01*
X135329055Y-102600500D01*
X135329057Y-102600500D01*
X135481784Y-102559577D01*
X135618716Y-102480520D01*
X135730520Y-102368716D01*
X135809577Y-102231784D01*
X135825879Y-102170943D01*
X137149500Y-102170943D01*
X137149500Y-102329057D01*
X137190214Y-102481002D01*
X137190423Y-102481783D01*
X137190426Y-102481790D01*
X137269475Y-102618709D01*
X137269479Y-102618714D01*
X137269480Y-102618716D01*
X137381284Y-102730520D01*
X137381286Y-102730521D01*
X137381290Y-102730524D01*
X137518209Y-102809573D01*
X137518216Y-102809577D01*
X137670943Y-102850500D01*
X137670945Y-102850500D01*
X137822596Y-102850500D01*
X137889635Y-102870185D01*
X137935390Y-102922989D01*
X137942371Y-102942406D01*
X137952922Y-102981785D01*
X137952925Y-102981790D01*
X138031974Y-103118709D01*
X138031978Y-103118714D01*
X138031979Y-103118716D01*
X138143783Y-103230520D01*
X138143785Y-103230521D01*
X138143789Y-103230524D01*
X138227852Y-103279057D01*
X138280715Y-103309577D01*
X138433442Y-103350500D01*
X138433444Y-103350500D01*
X138591554Y-103350500D01*
X138591556Y-103350500D01*
X138744283Y-103309577D01*
X138881215Y-103230520D01*
X138993019Y-103118716D01*
X139030112Y-103054467D01*
X139080678Y-103006253D01*
X139149285Y-102993029D01*
X139214150Y-103018997D01*
X139244884Y-103054466D01*
X139281979Y-103118716D01*
X139393783Y-103230520D01*
X139393785Y-103230521D01*
X139393789Y-103230524D01*
X139477852Y-103279057D01*
X139530715Y-103309577D01*
X139683442Y-103350500D01*
X139683444Y-103350500D01*
X139841554Y-103350500D01*
X139841556Y-103350500D01*
X139994283Y-103309577D01*
X140131215Y-103230520D01*
X140240792Y-103120943D01*
X149899500Y-103120943D01*
X149899500Y-103279057D01*
X149912898Y-103329057D01*
X149940423Y-103431783D01*
X149940426Y-103431790D01*
X150019475Y-103568709D01*
X150019479Y-103568714D01*
X150019480Y-103568716D01*
X150131284Y-103680520D01*
X150131286Y-103680521D01*
X150131290Y-103680524D01*
X150220877Y-103732246D01*
X150268216Y-103759577D01*
X150420943Y-103800500D01*
X150420945Y-103800500D01*
X150579055Y-103800500D01*
X150579057Y-103800500D01*
X150731784Y-103759577D01*
X150868716Y-103680520D01*
X150980520Y-103568716D01*
X151059577Y-103431784D01*
X151100500Y-103279057D01*
X151100500Y-103120943D01*
X151059577Y-102968216D01*
X151044676Y-102942406D01*
X150980524Y-102831290D01*
X150980518Y-102831282D01*
X150868717Y-102719481D01*
X150868709Y-102719475D01*
X150731790Y-102640426D01*
X150731786Y-102640424D01*
X150731784Y-102640423D01*
X150579057Y-102599500D01*
X150420943Y-102599500D01*
X150268216Y-102640423D01*
X150268209Y-102640426D01*
X150131290Y-102719475D01*
X150131282Y-102719481D01*
X150019481Y-102831282D01*
X150019475Y-102831290D01*
X149940426Y-102968209D01*
X149940423Y-102968216D01*
X149899500Y-103120943D01*
X140240792Y-103120943D01*
X140243019Y-103118716D01*
X140322076Y-102981784D01*
X140362999Y-102829057D01*
X140362999Y-102670943D01*
X140322076Y-102518216D01*
X140307948Y-102493746D01*
X140243023Y-102381290D01*
X140243017Y-102381282D01*
X140199416Y-102337681D01*
X140165931Y-102276358D01*
X140170915Y-102206666D01*
X140199416Y-102162319D01*
X140243019Y-102118716D01*
X140322076Y-101981784D01*
X140362999Y-101829057D01*
X140362999Y-101670943D01*
X140322076Y-101518216D01*
X140300315Y-101480524D01*
X140243023Y-101381290D01*
X140243017Y-101381282D01*
X140131216Y-101269481D01*
X140131208Y-101269475D01*
X140047147Y-101220943D01*
X146099500Y-101220943D01*
X146099500Y-101379057D01*
X146137127Y-101519481D01*
X146140423Y-101531783D01*
X146140426Y-101531790D01*
X146219475Y-101668709D01*
X146219479Y-101668714D01*
X146219480Y-101668716D01*
X146331284Y-101780520D01*
X146331286Y-101780521D01*
X146331290Y-101780524D01*
X146415353Y-101829057D01*
X146468216Y-101859577D01*
X146620943Y-101900500D01*
X146620945Y-101900500D01*
X146779055Y-101900500D01*
X146779057Y-101900500D01*
X146931784Y-101859577D01*
X147068716Y-101780520D01*
X147180520Y-101668716D01*
X147259577Y-101531784D01*
X147300500Y-101379057D01*
X147300500Y-101220943D01*
X147259577Y-101068216D01*
X147235040Y-101025716D01*
X147180524Y-100931290D01*
X147180518Y-100931282D01*
X147068717Y-100819481D01*
X147068716Y-100819480D01*
X146931784Y-100740423D01*
X146859084Y-100720943D01*
X149199500Y-100720943D01*
X149199500Y-100879057D01*
X149238796Y-101025710D01*
X149240423Y-101031783D01*
X149240426Y-101031790D01*
X149319475Y-101168709D01*
X149319479Y-101168714D01*
X149319480Y-101168716D01*
X149431284Y-101280520D01*
X149431286Y-101280521D01*
X149431290Y-101280524D01*
X149515575Y-101329185D01*
X149568216Y-101359577D01*
X149720943Y-101400500D01*
X149720945Y-101400500D01*
X149879055Y-101400500D01*
X149879057Y-101400500D01*
X150031784Y-101359577D01*
X150168716Y-101280520D01*
X150280520Y-101168716D01*
X150359577Y-101031784D01*
X150400500Y-100879057D01*
X150400500Y-100720943D01*
X150359577Y-100568216D01*
X150343793Y-100540877D01*
X150280524Y-100431290D01*
X150280518Y-100431282D01*
X150168717Y-100319481D01*
X150168709Y-100319475D01*
X150031790Y-100240426D01*
X150031786Y-100240424D01*
X150031784Y-100240423D01*
X149879057Y-100199500D01*
X149720943Y-100199500D01*
X149568216Y-100240423D01*
X149568209Y-100240426D01*
X149431290Y-100319475D01*
X149431282Y-100319481D01*
X149319481Y-100431282D01*
X149319475Y-100431290D01*
X149240426Y-100568209D01*
X149240423Y-100568216D01*
X149199500Y-100720943D01*
X146859084Y-100720943D01*
X146779057Y-100699500D01*
X146620943Y-100699500D01*
X146468216Y-100740423D01*
X146468209Y-100740426D01*
X146331290Y-100819475D01*
X146331282Y-100819481D01*
X146219481Y-100931282D01*
X146219475Y-100931290D01*
X146140426Y-101068209D01*
X146140423Y-101068216D01*
X146099500Y-101220943D01*
X140047147Y-101220943D01*
X139994289Y-101190426D01*
X139994285Y-101190424D01*
X139994283Y-101190423D01*
X139841556Y-101149500D01*
X139683442Y-101149500D01*
X139530715Y-101190423D01*
X139530708Y-101190426D01*
X139393789Y-101269475D01*
X139393781Y-101269481D01*
X139281980Y-101381282D01*
X139281976Y-101381287D01*
X139244886Y-101445531D01*
X139194320Y-101493746D01*
X139125713Y-101506970D01*
X139060848Y-101481002D01*
X139030112Y-101445531D01*
X138993021Y-101381287D01*
X138993017Y-101381282D01*
X138881216Y-101269481D01*
X138881208Y-101269475D01*
X138744289Y-101190426D01*
X138744285Y-101190424D01*
X138744283Y-101190423D01*
X138591556Y-101149500D01*
X138433442Y-101149500D01*
X138280715Y-101190423D01*
X138280708Y-101190426D01*
X138143789Y-101269475D01*
X138143781Y-101269481D01*
X138031980Y-101381282D01*
X138031974Y-101381290D01*
X137952925Y-101518209D01*
X137952922Y-101518214D01*
X137942371Y-101557594D01*
X137906005Y-101617254D01*
X137843158Y-101647783D01*
X137822596Y-101649500D01*
X137670943Y-101649500D01*
X137518216Y-101690423D01*
X137518209Y-101690426D01*
X137381290Y-101769475D01*
X137381282Y-101769481D01*
X137269481Y-101881282D01*
X137269475Y-101881290D01*
X137190426Y-102018209D01*
X137190423Y-102018216D01*
X137149500Y-102170943D01*
X135825879Y-102170943D01*
X135850500Y-102079057D01*
X135850500Y-101920943D01*
X135809577Y-101768216D01*
X135802528Y-101756006D01*
X135730524Y-101631290D01*
X135730518Y-101631282D01*
X135628932Y-101529696D01*
X135595447Y-101468373D01*
X135600431Y-101398681D01*
X135642303Y-101342748D01*
X135684518Y-101322241D01*
X135731784Y-101309577D01*
X135868716Y-101230520D01*
X135912319Y-101186917D01*
X135973642Y-101153432D01*
X136043334Y-101158416D01*
X136087681Y-101186917D01*
X136131284Y-101230520D01*
X136131286Y-101230521D01*
X136131290Y-101230524D01*
X136253727Y-101301212D01*
X136268216Y-101309577D01*
X136420943Y-101350500D01*
X136420945Y-101350500D01*
X136579055Y-101350500D01*
X136579057Y-101350500D01*
X136731784Y-101309577D01*
X136868716Y-101230520D01*
X136980520Y-101118716D01*
X137059577Y-100981784D01*
X137100500Y-100829057D01*
X137100500Y-100670943D01*
X137059577Y-100518216D01*
X137029552Y-100466211D01*
X136980524Y-100381290D01*
X136980518Y-100381282D01*
X136868717Y-100269481D01*
X136868709Y-100269475D01*
X136837691Y-100251567D01*
X136789475Y-100201001D01*
X136776251Y-100132394D01*
X136799373Y-100071294D01*
X136800577Y-100069638D01*
X136848996Y-100002994D01*
X136931211Y-99841639D01*
X136987171Y-99669409D01*
X137004431Y-99560435D01*
X137015500Y-99490551D01*
X137015500Y-99309448D01*
X136999019Y-99205397D01*
X136987171Y-99130591D01*
X136951852Y-99021889D01*
X136931212Y-98958363D01*
X136931211Y-98958360D01*
X136896675Y-98890581D01*
X136848996Y-98797006D01*
X136757408Y-98670945D01*
X136742558Y-98650505D01*
X136742554Y-98650500D01*
X136614499Y-98522445D01*
X136614494Y-98522441D01*
X136590669Y-98505131D01*
X139249500Y-98505131D01*
X139249500Y-100294856D01*
X139249502Y-100294882D01*
X139252413Y-100319987D01*
X139252415Y-100319991D01*
X139297793Y-100422764D01*
X139297794Y-100422765D01*
X139377235Y-100502206D01*
X139480009Y-100547585D01*
X139505135Y-100550500D01*
X141294864Y-100550499D01*
X141294879Y-100550497D01*
X141294882Y-100550497D01*
X141319987Y-100547586D01*
X141319988Y-100547585D01*
X141319991Y-100547585D01*
X141422765Y-100502206D01*
X141502206Y-100422765D01*
X141547585Y-100319991D01*
X141550500Y-100294865D01*
X141550499Y-99557125D01*
X141570183Y-99490089D01*
X141622987Y-99444334D01*
X141692146Y-99434390D01*
X141755702Y-99463415D01*
X141793476Y-99522193D01*
X141796972Y-99537729D01*
X141817829Y-99669410D01*
X141873787Y-99841636D01*
X141873788Y-99841639D01*
X141893992Y-99881290D01*
X141951733Y-99994612D01*
X141956006Y-100002997D01*
X142062441Y-100149494D01*
X142062445Y-100149499D01*
X142190500Y-100277554D01*
X142190505Y-100277558D01*
X142279945Y-100342539D01*
X142337006Y-100383996D01*
X142429825Y-100431290D01*
X142498360Y-100466211D01*
X142498363Y-100466212D01*
X142546309Y-100481790D01*
X142670591Y-100522171D01*
X142753429Y-100535291D01*
X142849449Y-100550500D01*
X142849454Y-100550500D01*
X143030551Y-100550500D01*
X143117259Y-100536765D01*
X143209409Y-100522171D01*
X143381639Y-100466211D01*
X143542994Y-100383996D01*
X143689501Y-100277553D01*
X143817553Y-100149501D01*
X143923996Y-100002994D01*
X144006211Y-99841639D01*
X144062171Y-99669409D01*
X144079431Y-99560435D01*
X144090500Y-99490551D01*
X144090500Y-99309448D01*
X144074019Y-99205397D01*
X144062171Y-99130591D01*
X144026852Y-99021889D01*
X144006212Y-98958363D01*
X144006211Y-98958360D01*
X143971675Y-98890581D01*
X143923996Y-98797006D01*
X143832408Y-98670945D01*
X143817558Y-98650505D01*
X143817554Y-98650500D01*
X143689499Y-98522445D01*
X143689494Y-98522441D01*
X143542997Y-98416006D01*
X143542996Y-98416005D01*
X143542994Y-98416004D01*
X143489704Y-98388851D01*
X143381639Y-98333788D01*
X143381636Y-98333787D01*
X143209410Y-98277829D01*
X143030551Y-98249500D01*
X143030546Y-98249500D01*
X142849454Y-98249500D01*
X142849449Y-98249500D01*
X142670589Y-98277829D01*
X142498363Y-98333787D01*
X142498360Y-98333788D01*
X142337002Y-98416006D01*
X142190505Y-98522441D01*
X142190500Y-98522445D01*
X142062445Y-98650500D01*
X142062441Y-98650505D01*
X141956006Y-98797002D01*
X141873788Y-98958360D01*
X141873787Y-98958363D01*
X141817829Y-99130589D01*
X141796972Y-99262271D01*
X141767042Y-99325405D01*
X141707731Y-99362336D01*
X141637868Y-99361338D01*
X141579636Y-99322728D01*
X141551522Y-99258764D01*
X141550499Y-99242872D01*
X141550499Y-98505143D01*
X141550499Y-98505136D01*
X141550144Y-98502072D01*
X141547586Y-98480012D01*
X141547585Y-98480010D01*
X141547585Y-98480009D01*
X141502206Y-98377235D01*
X141422765Y-98297794D01*
X141397035Y-98286433D01*
X141319992Y-98252415D01*
X141294865Y-98249500D01*
X139505143Y-98249500D01*
X139505117Y-98249502D01*
X139480012Y-98252413D01*
X139480008Y-98252415D01*
X139377235Y-98297793D01*
X139297794Y-98377234D01*
X139252415Y-98480006D01*
X139252415Y-98480008D01*
X139249500Y-98505131D01*
X136590669Y-98505131D01*
X136467997Y-98416006D01*
X136467996Y-98416005D01*
X136467994Y-98416004D01*
X136414704Y-98388851D01*
X136306639Y-98333788D01*
X136306636Y-98333787D01*
X136134410Y-98277829D01*
X135955551Y-98249500D01*
X135955546Y-98249500D01*
X135774454Y-98249500D01*
X135774449Y-98249500D01*
X135595589Y-98277829D01*
X135423363Y-98333787D01*
X135423360Y-98333788D01*
X135262002Y-98416006D01*
X135115505Y-98522441D01*
X135115500Y-98522445D01*
X134987445Y-98650500D01*
X134987441Y-98650505D01*
X134881006Y-98797002D01*
X134798788Y-98958360D01*
X134798787Y-98958363D01*
X134742829Y-99130589D01*
X134721972Y-99262271D01*
X134692042Y-99325405D01*
X134632731Y-99362336D01*
X134562868Y-99361338D01*
X134504636Y-99322728D01*
X134476522Y-99258764D01*
X134475499Y-99242872D01*
X134475499Y-98505143D01*
X134475499Y-98505136D01*
X134475144Y-98502072D01*
X134472586Y-98480012D01*
X134472585Y-98480010D01*
X134472585Y-98480009D01*
X134427206Y-98377235D01*
X134347765Y-98297794D01*
X134322035Y-98286433D01*
X134244992Y-98252415D01*
X134219865Y-98249500D01*
X132430143Y-98249500D01*
X132430117Y-98249502D01*
X132405012Y-98252413D01*
X132405008Y-98252415D01*
X132302235Y-98297793D01*
X132222794Y-98377234D01*
X132215463Y-98393837D01*
X132170375Y-98447212D01*
X132103588Y-98467737D01*
X132036306Y-98448896D01*
X131994643Y-98405746D01*
X131980520Y-98381284D01*
X131868716Y-98269480D01*
X131868715Y-98269479D01*
X131868712Y-98269477D01*
X131803603Y-98231887D01*
X131755388Y-98181321D01*
X131742164Y-98112714D01*
X131768132Y-98047849D01*
X131825046Y-98007320D01*
X131865603Y-98000500D01*
X143934108Y-98000500D01*
X151745308Y-98000500D01*
X151812347Y-98020185D01*
X151857027Y-98071749D01*
X151857220Y-98071651D01*
X151857615Y-98072428D01*
X151858102Y-98072989D01*
X151859279Y-98075693D01*
X151962273Y-98277829D01*
X151966657Y-98286433D01*
X152105483Y-98477510D01*
X152272490Y-98644517D01*
X152463567Y-98783343D01*
X152504215Y-98804054D01*
X152674003Y-98890566D01*
X152674005Y-98890566D01*
X152674008Y-98890568D01*
X152877793Y-98956782D01*
X152898632Y-98963553D01*
X152903361Y-98964688D01*
X152902899Y-98966609D01*
X152958488Y-98992930D01*
X152995448Y-99052224D01*
X153000000Y-99085513D01*
X153000000Y-100275500D01*
X152980315Y-100342539D01*
X152927511Y-100388294D01*
X152876000Y-100399500D01*
X152720943Y-100399500D01*
X152568216Y-100440423D01*
X152568209Y-100440426D01*
X152431290Y-100519475D01*
X152431282Y-100519481D01*
X152319481Y-100631282D01*
X152319475Y-100631290D01*
X152240426Y-100768209D01*
X152240423Y-100768216D01*
X152199500Y-100920943D01*
X152199500Y-101079057D01*
X152240086Y-101230524D01*
X152240423Y-101231783D01*
X152240426Y-101231790D01*
X152319475Y-101368709D01*
X152319479Y-101368714D01*
X152319480Y-101368716D01*
X152431284Y-101480520D01*
X152431286Y-101480521D01*
X152431290Y-101480524D01*
X152520087Y-101531790D01*
X152568216Y-101559577D01*
X152720943Y-101600500D01*
X152720945Y-101600500D01*
X152876000Y-101600500D01*
X152943039Y-101620185D01*
X152988794Y-101672989D01*
X153000000Y-101724500D01*
X153000000Y-120914486D01*
X152980315Y-120981525D01*
X152927511Y-121027280D01*
X152903191Y-121034611D01*
X152903360Y-121035312D01*
X152898631Y-121036446D01*
X152674003Y-121109433D01*
X152463566Y-121216657D01*
X152388849Y-121270943D01*
X152272490Y-121355483D01*
X152272488Y-121355485D01*
X152272487Y-121355485D01*
X152105485Y-121522487D01*
X152105485Y-121522488D01*
X152105483Y-121522490D01*
X152078538Y-121559577D01*
X151966657Y-121713566D01*
X151857220Y-121928349D01*
X151856013Y-121927734D01*
X151816038Y-121977350D01*
X151749746Y-121999421D01*
X151745308Y-121999500D01*
X105699097Y-121999500D01*
X105632058Y-121979815D01*
X105586303Y-121927011D01*
X105576359Y-121857853D01*
X105605384Y-121794297D01*
X105611416Y-121787819D01*
X105618715Y-121780520D01*
X105630519Y-121768716D01*
X105709576Y-121631784D01*
X105750499Y-121479057D01*
X105750499Y-121320943D01*
X105709576Y-121168216D01*
X105675638Y-121109433D01*
X105630523Y-121031290D01*
X105630517Y-121031282D01*
X105518716Y-120919481D01*
X105518708Y-120919475D01*
X105381789Y-120840426D01*
X105381785Y-120840424D01*
X105381783Y-120840423D01*
X105229056Y-120799500D01*
X105070942Y-120799500D01*
X104918215Y-120840423D01*
X104918208Y-120840426D01*
X104781289Y-120919475D01*
X104781281Y-120919481D01*
X104669480Y-121031282D01*
X104669474Y-121031290D01*
X104590425Y-121168209D01*
X104590422Y-121168216D01*
X104549499Y-121320943D01*
X104549499Y-121479057D01*
X104583867Y-121607318D01*
X104590422Y-121631783D01*
X104590425Y-121631790D01*
X104669474Y-121768709D01*
X104669480Y-121768717D01*
X104688582Y-121787819D01*
X104722067Y-121849142D01*
X104717083Y-121918834D01*
X104675211Y-121974767D01*
X104609747Y-121999184D01*
X104600901Y-121999500D01*
X100949098Y-121999500D01*
X100882059Y-121979815D01*
X100836304Y-121927011D01*
X100826360Y-121857853D01*
X100855385Y-121794297D01*
X100861417Y-121787819D01*
X100880527Y-121768709D01*
X100930520Y-121718716D01*
X101009577Y-121581784D01*
X101050500Y-121429057D01*
X101050500Y-121270943D01*
X101009577Y-121118216D01*
X100959391Y-121031290D01*
X100930524Y-120981290D01*
X100930518Y-120981282D01*
X100818717Y-120869481D01*
X100818709Y-120869475D01*
X100681790Y-120790426D01*
X100681786Y-120790424D01*
X100681784Y-120790423D01*
X100529057Y-120749500D01*
X100370943Y-120749500D01*
X100218216Y-120790423D01*
X100218209Y-120790426D01*
X100081290Y-120869475D01*
X100081282Y-120869481D01*
X99969481Y-120981282D01*
X99969475Y-120981290D01*
X99890426Y-121118209D01*
X99890423Y-121118216D01*
X99849500Y-121270943D01*
X99849500Y-121429057D01*
X99884473Y-121559576D01*
X99890423Y-121581783D01*
X99890426Y-121581790D01*
X99969475Y-121718709D01*
X99969481Y-121718717D01*
X100038583Y-121787819D01*
X100072068Y-121849142D01*
X100067084Y-121918834D01*
X100025212Y-121974767D01*
X99959748Y-121999184D01*
X99950902Y-121999500D01*
X92848628Y-121999500D01*
X92781589Y-121979815D01*
X92735834Y-121927011D01*
X92725890Y-121857853D01*
X92754915Y-121794297D01*
X92763195Y-121786493D01*
X92762969Y-121786267D01*
X92780527Y-121768709D01*
X92880520Y-121668716D01*
X92959577Y-121531784D01*
X93000500Y-121379057D01*
X93000500Y-121220943D01*
X92959577Y-121068216D01*
X92880520Y-120931284D01*
X92870179Y-120920943D01*
X98299500Y-120920943D01*
X98299500Y-121079056D01*
X98340423Y-121231783D01*
X98340426Y-121231790D01*
X98419475Y-121368709D01*
X98419479Y-121368714D01*
X98419480Y-121368716D01*
X98531284Y-121480520D01*
X98531286Y-121480521D01*
X98531290Y-121480524D01*
X98620087Y-121531790D01*
X98668216Y-121559577D01*
X98820943Y-121600500D01*
X98820945Y-121600500D01*
X98979055Y-121600500D01*
X98979057Y-121600500D01*
X99131784Y-121559577D01*
X99268716Y-121480520D01*
X99380520Y-121368716D01*
X99459577Y-121231784D01*
X99500500Y-121079057D01*
X99500500Y-120920943D01*
X99459577Y-120768216D01*
X99459573Y-120768209D01*
X99380524Y-120631290D01*
X99380518Y-120631282D01*
X99268717Y-120519481D01*
X99268709Y-120519475D01*
X99131790Y-120440426D01*
X99131786Y-120440424D01*
X99131784Y-120440423D01*
X98979057Y-120399500D01*
X98820943Y-120399500D01*
X98668216Y-120440423D01*
X98668209Y-120440426D01*
X98531290Y-120519475D01*
X98531282Y-120519481D01*
X98419481Y-120631282D01*
X98419475Y-120631290D01*
X98340426Y-120768209D01*
X98340423Y-120768216D01*
X98299500Y-120920943D01*
X92870179Y-120920943D01*
X92768716Y-120819480D01*
X92768714Y-120819479D01*
X92768709Y-120819475D01*
X92631790Y-120740426D01*
X92631786Y-120740424D01*
X92631784Y-120740423D01*
X92479057Y-120699500D01*
X92320943Y-120699500D01*
X92168216Y-120740423D01*
X92168209Y-120740426D01*
X92031290Y-120819475D01*
X92031282Y-120819481D01*
X91962181Y-120888583D01*
X91900858Y-120922068D01*
X91831166Y-120917084D01*
X91775233Y-120875212D01*
X91750816Y-120809748D01*
X91750500Y-120800902D01*
X91750500Y-119965602D01*
X91770185Y-119898563D01*
X91822989Y-119852808D01*
X91892147Y-119842864D01*
X91955703Y-119871889D01*
X91981885Y-119903600D01*
X92019480Y-119968716D01*
X92131284Y-120080520D01*
X92131286Y-120080521D01*
X92131290Y-120080524D01*
X92220087Y-120131790D01*
X92268216Y-120159577D01*
X92420943Y-120200500D01*
X92420945Y-120200500D01*
X92579055Y-120200500D01*
X92579057Y-120200500D01*
X92731784Y-120159577D01*
X92868716Y-120080520D01*
X92980520Y-119968716D01*
X93059577Y-119831784D01*
X93062482Y-119820943D01*
X118849501Y-119820943D01*
X118849501Y-119979057D01*
X118876688Y-120080518D01*
X118890424Y-120131783D01*
X118890427Y-120131790D01*
X118969476Y-120268709D01*
X118969480Y-120268714D01*
X118969481Y-120268716D01*
X119081285Y-120380520D01*
X119081287Y-120380521D01*
X119081291Y-120380524D01*
X119185041Y-120440423D01*
X119218217Y-120459577D01*
X119370944Y-120500500D01*
X119370946Y-120500500D01*
X119529056Y-120500500D01*
X119529058Y-120500500D01*
X119681785Y-120459577D01*
X119818717Y-120380520D01*
X119930521Y-120268716D01*
X119942613Y-120247772D01*
X119993179Y-120199555D01*
X120061786Y-120186331D01*
X120126651Y-120212298D01*
X120157389Y-120247772D01*
X120169478Y-120268712D01*
X120169480Y-120268715D01*
X120169481Y-120268716D01*
X120281285Y-120380520D01*
X120281287Y-120380521D01*
X120281291Y-120380524D01*
X120385041Y-120440423D01*
X120418217Y-120459577D01*
X120570944Y-120500500D01*
X120570946Y-120500500D01*
X120729056Y-120500500D01*
X120729058Y-120500500D01*
X120881785Y-120459577D01*
X121018717Y-120380520D01*
X121130521Y-120268716D01*
X121209578Y-120131784D01*
X121250501Y-119979057D01*
X121250501Y-119820943D01*
X121209578Y-119668216D01*
X121170451Y-119600445D01*
X121130525Y-119531290D01*
X121130519Y-119531282D01*
X121018718Y-119419481D01*
X121018710Y-119419475D01*
X120881791Y-119340426D01*
X120881787Y-119340424D01*
X120881785Y-119340423D01*
X120729058Y-119299500D01*
X120570944Y-119299500D01*
X120418217Y-119340423D01*
X120418210Y-119340426D01*
X120281291Y-119419475D01*
X120281283Y-119419481D01*
X120169482Y-119531282D01*
X120169478Y-119531287D01*
X120157388Y-119552229D01*
X120106821Y-119600445D01*
X120038214Y-119613668D01*
X119973349Y-119587700D01*
X119942614Y-119552229D01*
X119930523Y-119531287D01*
X119930519Y-119531282D01*
X119818718Y-119419481D01*
X119818710Y-119419475D01*
X119681791Y-119340426D01*
X119681787Y-119340424D01*
X119681785Y-119340423D01*
X119529058Y-119299500D01*
X119370944Y-119299500D01*
X119218217Y-119340423D01*
X119218210Y-119340426D01*
X119081291Y-119419475D01*
X119081283Y-119419481D01*
X118969482Y-119531282D01*
X118969476Y-119531290D01*
X118890427Y-119668209D01*
X118890424Y-119668216D01*
X118849501Y-119820943D01*
X93062482Y-119820943D01*
X93100500Y-119679057D01*
X93100500Y-119520943D01*
X93059577Y-119368216D01*
X93043531Y-119340423D01*
X92980524Y-119231290D01*
X92980518Y-119231282D01*
X92868717Y-119119481D01*
X92868709Y-119119475D01*
X92731790Y-119040426D01*
X92731786Y-119040424D01*
X92731784Y-119040423D01*
X92579057Y-118999500D01*
X92420943Y-118999500D01*
X92420941Y-118999500D01*
X92369280Y-119013342D01*
X92369269Y-119013345D01*
X92268216Y-119040423D01*
X92220918Y-119067730D01*
X92220913Y-119067732D01*
X92131287Y-119119477D01*
X92131282Y-119119481D01*
X92019481Y-119231282D01*
X92019477Y-119231287D01*
X91964687Y-119326187D01*
X91914120Y-119374403D01*
X91845513Y-119387625D01*
X91780648Y-119361657D01*
X91740120Y-119304743D01*
X91734562Y-119281833D01*
X91719955Y-119180237D01*
X91719954Y-119180235D01*
X91719954Y-119180231D01*
X91690246Y-119079055D01*
X91659912Y-118975745D01*
X91659912Y-118905875D01*
X91697686Y-118847097D01*
X91761242Y-118818072D01*
X91810976Y-118821034D01*
X91920943Y-118850500D01*
X91920946Y-118850500D01*
X92079053Y-118850500D01*
X92079057Y-118850500D01*
X92231784Y-118809577D01*
X92368716Y-118730520D01*
X92480520Y-118618716D01*
X92559577Y-118481784D01*
X92600500Y-118329057D01*
X92600500Y-118220943D01*
X104574500Y-118220943D01*
X104574500Y-118379057D01*
X104612127Y-118519481D01*
X104615423Y-118531783D01*
X104615426Y-118531790D01*
X104694475Y-118668709D01*
X104694479Y-118668714D01*
X104694480Y-118668716D01*
X104806284Y-118780520D01*
X104806286Y-118780521D01*
X104806290Y-118780524D01*
X104893729Y-118831006D01*
X104943216Y-118859577D01*
X105095943Y-118900500D01*
X105095945Y-118900500D01*
X105254055Y-118900500D01*
X105254057Y-118900500D01*
X105406784Y-118859577D01*
X105543716Y-118780520D01*
X105655520Y-118668716D01*
X105734577Y-118531784D01*
X105775500Y-118379057D01*
X105775500Y-118220943D01*
X105748705Y-118120943D01*
X106299500Y-118120943D01*
X106299500Y-118279057D01*
X106326687Y-118380518D01*
X106340423Y-118431783D01*
X106340426Y-118431790D01*
X106419475Y-118568709D01*
X106419479Y-118568714D01*
X106419480Y-118568716D01*
X106531284Y-118680520D01*
X106531286Y-118680521D01*
X106531290Y-118680524D01*
X106619221Y-118731290D01*
X106668216Y-118759577D01*
X106820943Y-118800500D01*
X106820945Y-118800500D01*
X106979055Y-118800500D01*
X106979057Y-118800500D01*
X107131784Y-118759577D01*
X107268716Y-118680520D01*
X107380520Y-118568716D01*
X107459577Y-118431784D01*
X107489277Y-118320943D01*
X107774500Y-118320943D01*
X107774500Y-118479057D01*
X107815289Y-118631282D01*
X107815423Y-118631783D01*
X107815426Y-118631790D01*
X107894475Y-118768709D01*
X107894479Y-118768714D01*
X107894480Y-118768716D01*
X108006284Y-118880520D01*
X108006286Y-118880521D01*
X108006290Y-118880524D01*
X108094221Y-118931290D01*
X108143216Y-118959577D01*
X108295943Y-119000500D01*
X108295945Y-119000500D01*
X108454055Y-119000500D01*
X108454057Y-119000500D01*
X108606784Y-118959577D01*
X108673701Y-118920943D01*
X112149500Y-118920943D01*
X112149500Y-119079057D01*
X112190289Y-119231282D01*
X112190423Y-119231783D01*
X112190426Y-119231790D01*
X112269475Y-119368709D01*
X112269479Y-119368714D01*
X112269480Y-119368716D01*
X112381284Y-119480520D01*
X112381286Y-119480521D01*
X112381290Y-119480524D01*
X112505489Y-119552229D01*
X112518216Y-119559577D01*
X112670943Y-119600500D01*
X112670945Y-119600500D01*
X112829055Y-119600500D01*
X112829057Y-119600500D01*
X112981784Y-119559577D01*
X113118716Y-119480520D01*
X113162319Y-119436917D01*
X113223642Y-119403432D01*
X113293334Y-119408416D01*
X113337681Y-119436917D01*
X113381284Y-119480520D01*
X113381286Y-119480521D01*
X113381290Y-119480524D01*
X113505489Y-119552229D01*
X113518216Y-119559577D01*
X113670943Y-119600500D01*
X113670945Y-119600500D01*
X113829055Y-119600500D01*
X113829057Y-119600500D01*
X113981784Y-119559577D01*
X114118716Y-119480520D01*
X114162319Y-119436917D01*
X114223642Y-119403432D01*
X114293334Y-119408416D01*
X114337681Y-119436917D01*
X114381284Y-119480520D01*
X114381286Y-119480521D01*
X114381290Y-119480524D01*
X114505489Y-119552229D01*
X114518216Y-119559577D01*
X114670943Y-119600500D01*
X114670945Y-119600500D01*
X114829055Y-119600500D01*
X114829057Y-119600500D01*
X114981784Y-119559577D01*
X115118716Y-119480520D01*
X115230520Y-119368716D01*
X115309577Y-119231784D01*
X115350500Y-119079057D01*
X115350500Y-119020943D01*
X123199500Y-119020943D01*
X123199500Y-119179057D01*
X123238924Y-119326187D01*
X123240423Y-119331783D01*
X123240426Y-119331790D01*
X123319475Y-119468709D01*
X123319479Y-119468714D01*
X123319480Y-119468716D01*
X123431284Y-119580520D01*
X123431286Y-119580521D01*
X123431290Y-119580524D01*
X123521743Y-119632746D01*
X123568216Y-119659577D01*
X123720943Y-119700500D01*
X123720945Y-119700500D01*
X123879055Y-119700500D01*
X123879057Y-119700500D01*
X124031784Y-119659577D01*
X124168716Y-119580520D01*
X124280520Y-119468716D01*
X124359577Y-119331784D01*
X124389277Y-119220943D01*
X125899500Y-119220943D01*
X125899500Y-119379057D01*
X125940289Y-119531282D01*
X125940423Y-119531783D01*
X125940426Y-119531790D01*
X126019475Y-119668709D01*
X126019479Y-119668714D01*
X126019480Y-119668716D01*
X126131284Y-119780520D01*
X126131286Y-119780521D01*
X126131290Y-119780524D01*
X126268209Y-119859573D01*
X126268216Y-119859577D01*
X126420943Y-119900500D01*
X126420945Y-119900500D01*
X126579055Y-119900500D01*
X126579057Y-119900500D01*
X126731784Y-119859577D01*
X126868716Y-119780520D01*
X126980520Y-119668716D01*
X127059577Y-119531784D01*
X127100500Y-119379057D01*
X127100500Y-119220943D01*
X127059577Y-119068216D01*
X126980520Y-118931284D01*
X126970179Y-118920943D01*
X128299500Y-118920943D01*
X128299500Y-119079057D01*
X128340289Y-119231282D01*
X128340423Y-119231783D01*
X128340426Y-119231790D01*
X128419475Y-119368709D01*
X128419479Y-119368714D01*
X128419480Y-119368716D01*
X128531284Y-119480520D01*
X128531286Y-119480521D01*
X128531290Y-119480524D01*
X128655489Y-119552229D01*
X128668216Y-119559577D01*
X128820943Y-119600500D01*
X128820945Y-119600500D01*
X128979055Y-119600500D01*
X128979057Y-119600500D01*
X129131784Y-119559577D01*
X129267913Y-119480983D01*
X129335811Y-119464511D01*
X129401838Y-119487364D01*
X129437299Y-119526372D01*
X129440422Y-119531781D01*
X129440423Y-119531784D01*
X129519480Y-119668716D01*
X129631284Y-119780520D01*
X129631286Y-119780521D01*
X129631290Y-119780524D01*
X129768209Y-119859573D01*
X129768216Y-119859577D01*
X129920943Y-119900500D01*
X129920945Y-119900500D01*
X130079055Y-119900500D01*
X130079057Y-119900500D01*
X130231784Y-119859577D01*
X130368716Y-119780520D01*
X130424788Y-119724448D01*
X147499500Y-119724448D01*
X147499500Y-119905551D01*
X147527829Y-120084410D01*
X147583787Y-120256636D01*
X147583788Y-120256639D01*
X147666006Y-120417997D01*
X147772441Y-120564494D01*
X147772445Y-120564499D01*
X147900500Y-120692554D01*
X147900505Y-120692558D01*
X147978880Y-120749500D01*
X148047006Y-120798996D01*
X148152484Y-120852740D01*
X148208360Y-120881211D01*
X148208363Y-120881212D01*
X148294476Y-120909191D01*
X148380591Y-120937171D01*
X148463429Y-120950291D01*
X148559449Y-120965500D01*
X148559454Y-120965500D01*
X148740551Y-120965500D01*
X148827259Y-120951765D01*
X148919409Y-120937171D01*
X149091639Y-120881211D01*
X149252994Y-120798996D01*
X149399501Y-120692553D01*
X149527553Y-120564501D01*
X149633996Y-120417994D01*
X149716211Y-120256639D01*
X149772171Y-120084409D01*
X149790988Y-119965602D01*
X149800500Y-119905551D01*
X149800500Y-119724448D01*
X149772172Y-119545597D01*
X149772171Y-119545596D01*
X149772171Y-119545591D01*
X149764163Y-119520943D01*
X150699500Y-119520943D01*
X150699500Y-119679057D01*
X150726742Y-119780723D01*
X150740423Y-119831783D01*
X150740426Y-119831790D01*
X150819475Y-119968709D01*
X150819479Y-119968714D01*
X150819480Y-119968716D01*
X150931284Y-120080520D01*
X150931286Y-120080521D01*
X150931290Y-120080524D01*
X151020087Y-120131790D01*
X151068216Y-120159577D01*
X151220943Y-120200500D01*
X151220945Y-120200500D01*
X151379055Y-120200500D01*
X151379057Y-120200500D01*
X151531784Y-120159577D01*
X151668716Y-120080520D01*
X151780520Y-119968716D01*
X151859577Y-119831784D01*
X151896923Y-119692404D01*
X151933287Y-119632746D01*
X151996134Y-119602217D01*
X152016697Y-119600500D01*
X152079055Y-119600500D01*
X152079057Y-119600500D01*
X152231784Y-119559577D01*
X152368716Y-119480520D01*
X152480520Y-119368716D01*
X152559577Y-119231784D01*
X152600500Y-119079057D01*
X152600500Y-118920943D01*
X152559577Y-118768216D01*
X152538258Y-118731290D01*
X152480524Y-118631290D01*
X152480518Y-118631282D01*
X152368717Y-118519481D01*
X152368709Y-118519475D01*
X152231790Y-118440426D01*
X152231786Y-118440424D01*
X152231784Y-118440423D01*
X152079057Y-118399500D01*
X151920943Y-118399500D01*
X151768216Y-118440423D01*
X151768209Y-118440426D01*
X151631290Y-118519475D01*
X151631282Y-118519481D01*
X151519481Y-118631282D01*
X151519475Y-118631290D01*
X151440426Y-118768209D01*
X151440423Y-118768216D01*
X151403076Y-118907595D01*
X151366713Y-118967254D01*
X151303866Y-118997783D01*
X151283303Y-118999500D01*
X151220943Y-118999500D01*
X151068216Y-119040423D01*
X151068209Y-119040426D01*
X150931290Y-119119475D01*
X150931282Y-119119481D01*
X150819481Y-119231282D01*
X150819475Y-119231290D01*
X150740426Y-119368209D01*
X150740423Y-119368216D01*
X150699500Y-119520943D01*
X149764163Y-119520943D01*
X149751030Y-119480524D01*
X149716212Y-119373363D01*
X149716211Y-119373360D01*
X149678577Y-119299500D01*
X149633996Y-119212006D01*
X149566773Y-119119481D01*
X149527558Y-119065505D01*
X149527554Y-119065500D01*
X149399499Y-118937445D01*
X149399494Y-118937441D01*
X149252997Y-118831006D01*
X149252996Y-118831005D01*
X149252994Y-118831004D01*
X149193125Y-118800499D01*
X149091639Y-118748788D01*
X149091636Y-118748787D01*
X148919410Y-118692829D01*
X148740551Y-118664500D01*
X148740546Y-118664500D01*
X148559454Y-118664500D01*
X148559449Y-118664500D01*
X148380589Y-118692829D01*
X148208363Y-118748787D01*
X148208360Y-118748788D01*
X148047002Y-118831006D01*
X147900505Y-118937441D01*
X147900500Y-118937445D01*
X147772445Y-119065500D01*
X147772441Y-119065505D01*
X147666006Y-119212002D01*
X147583788Y-119373360D01*
X147583787Y-119373363D01*
X147527829Y-119545589D01*
X147499500Y-119724448D01*
X130424788Y-119724448D01*
X130480520Y-119668716D01*
X130559577Y-119531784D01*
X130572241Y-119484519D01*
X130608604Y-119424860D01*
X130671450Y-119394330D01*
X130740826Y-119402624D01*
X130779696Y-119428932D01*
X130831284Y-119480520D01*
X130831286Y-119480521D01*
X130831290Y-119480524D01*
X130955489Y-119552229D01*
X130968216Y-119559577D01*
X131120943Y-119600500D01*
X131120945Y-119600500D01*
X131279055Y-119600500D01*
X131279057Y-119600500D01*
X131431784Y-119559577D01*
X131568716Y-119480520D01*
X131680520Y-119368716D01*
X131759577Y-119231784D01*
X131800500Y-119079057D01*
X131800500Y-118920943D01*
X131759577Y-118768216D01*
X131738258Y-118731290D01*
X131680524Y-118631290D01*
X131680518Y-118631282D01*
X131568717Y-118519481D01*
X131568709Y-118519475D01*
X131431790Y-118440426D01*
X131431786Y-118440424D01*
X131431784Y-118440423D01*
X131279057Y-118399500D01*
X131120943Y-118399500D01*
X130968216Y-118440423D01*
X130968209Y-118440426D01*
X130831290Y-118519475D01*
X130831282Y-118519481D01*
X130719481Y-118631282D01*
X130719475Y-118631290D01*
X130640426Y-118768209D01*
X130640423Y-118768214D01*
X130637126Y-118780520D01*
X130629341Y-118809577D01*
X130627759Y-118815480D01*
X130591394Y-118875140D01*
X130528546Y-118905669D01*
X130459171Y-118897374D01*
X130420303Y-118871067D01*
X130368717Y-118819481D01*
X130368709Y-118819475D01*
X130231790Y-118740426D01*
X130231786Y-118740424D01*
X130231784Y-118740423D01*
X130079057Y-118699500D01*
X129920943Y-118699500D01*
X129768216Y-118740423D01*
X129768215Y-118740423D01*
X129632087Y-118819016D01*
X129564187Y-118835488D01*
X129498160Y-118812635D01*
X129462700Y-118773627D01*
X129459577Y-118768219D01*
X129459577Y-118768216D01*
X129380520Y-118631284D01*
X129268716Y-118519480D01*
X129268714Y-118519479D01*
X129268709Y-118519475D01*
X129131790Y-118440426D01*
X129131786Y-118440424D01*
X129131784Y-118440423D01*
X128979057Y-118399500D01*
X128820943Y-118399500D01*
X128668216Y-118440423D01*
X128668209Y-118440426D01*
X128531290Y-118519475D01*
X128531282Y-118519481D01*
X128419481Y-118631282D01*
X128419475Y-118631290D01*
X128340426Y-118768209D01*
X128340423Y-118768216D01*
X128299500Y-118920943D01*
X126970179Y-118920943D01*
X126868716Y-118819480D01*
X126868714Y-118819479D01*
X126868709Y-118819475D01*
X126731790Y-118740426D01*
X126731786Y-118740424D01*
X126731784Y-118740423D01*
X126579057Y-118699500D01*
X126420943Y-118699500D01*
X126268216Y-118740423D01*
X126268209Y-118740426D01*
X126131290Y-118819475D01*
X126131282Y-118819481D01*
X126019481Y-118931282D01*
X126019475Y-118931290D01*
X125940426Y-119068209D01*
X125940423Y-119068216D01*
X125899500Y-119220943D01*
X124389277Y-119220943D01*
X124400500Y-119179057D01*
X124400500Y-119020943D01*
X124359577Y-118868216D01*
X124338093Y-118831004D01*
X124280524Y-118731290D01*
X124280518Y-118731282D01*
X124168717Y-118619481D01*
X124168709Y-118619475D01*
X124031790Y-118540426D01*
X124031786Y-118540424D01*
X124031784Y-118540423D01*
X123879057Y-118499500D01*
X123720943Y-118499500D01*
X123568216Y-118540423D01*
X123568209Y-118540426D01*
X123431290Y-118619475D01*
X123431282Y-118619481D01*
X123319481Y-118731282D01*
X123319475Y-118731290D01*
X123240426Y-118868209D01*
X123240423Y-118868216D01*
X123199500Y-119020943D01*
X115350500Y-119020943D01*
X115350500Y-118920943D01*
X115309577Y-118768216D01*
X115237722Y-118643758D01*
X115221250Y-118575858D01*
X115244103Y-118509831D01*
X115299025Y-118466641D01*
X115368578Y-118460000D01*
X115377169Y-118461975D01*
X115520943Y-118500500D01*
X115520946Y-118500500D01*
X115679055Y-118500500D01*
X115679057Y-118500500D01*
X115831784Y-118459577D01*
X115968716Y-118380520D01*
X116080520Y-118268716D01*
X116159577Y-118131784D01*
X116200500Y-117979057D01*
X116200500Y-117820943D01*
X116159577Y-117668216D01*
X116080520Y-117531284D01*
X116070179Y-117520943D01*
X131999500Y-117520943D01*
X131999500Y-117679057D01*
X132040289Y-117831282D01*
X132040423Y-117831783D01*
X132040426Y-117831790D01*
X132119475Y-117968709D01*
X132119479Y-117968714D01*
X132119480Y-117968716D01*
X132231284Y-118080520D01*
X132231286Y-118080521D01*
X132231290Y-118080524D01*
X132320087Y-118131790D01*
X132368216Y-118159577D01*
X132520943Y-118200500D01*
X132520945Y-118200500D01*
X132679055Y-118200500D01*
X132679057Y-118200500D01*
X132831784Y-118159577D01*
X132968716Y-118080520D01*
X133080520Y-117968716D01*
X133159577Y-117831784D01*
X133200500Y-117679057D01*
X133200500Y-117520943D01*
X133159577Y-117368216D01*
X133137816Y-117330524D01*
X133080524Y-117231290D01*
X133080518Y-117231282D01*
X132968717Y-117119481D01*
X132968709Y-117119475D01*
X132831790Y-117040426D01*
X132831786Y-117040424D01*
X132831784Y-117040423D01*
X132679057Y-116999500D01*
X132520943Y-116999500D01*
X132368216Y-117040423D01*
X132368209Y-117040426D01*
X132231290Y-117119475D01*
X132231282Y-117119481D01*
X132119481Y-117231282D01*
X132119475Y-117231290D01*
X132040426Y-117368209D01*
X132040423Y-117368216D01*
X131999500Y-117520943D01*
X116070179Y-117520943D01*
X115968716Y-117419480D01*
X115968714Y-117419479D01*
X115968709Y-117419475D01*
X115831790Y-117340426D01*
X115831786Y-117340424D01*
X115831784Y-117340423D01*
X115679057Y-117299500D01*
X115520943Y-117299500D01*
X115368216Y-117340423D01*
X115368209Y-117340426D01*
X115231290Y-117419475D01*
X115231282Y-117419481D01*
X115119481Y-117531282D01*
X115119475Y-117531290D01*
X115040426Y-117668209D01*
X115040423Y-117668216D01*
X114999500Y-117820943D01*
X114999500Y-117979057D01*
X115026687Y-118080518D01*
X115040423Y-118131783D01*
X115040423Y-118131784D01*
X115112277Y-118256241D01*
X115128748Y-118324141D01*
X115105896Y-118390168D01*
X115050974Y-118433358D01*
X114981421Y-118439999D01*
X114972804Y-118438016D01*
X114829057Y-118399500D01*
X114670943Y-118399500D01*
X114518216Y-118440423D01*
X114518209Y-118440426D01*
X114381290Y-118519475D01*
X114381282Y-118519481D01*
X114337681Y-118563083D01*
X114276358Y-118596568D01*
X114206666Y-118591584D01*
X114162319Y-118563083D01*
X114118717Y-118519481D01*
X114118709Y-118519475D01*
X113981790Y-118440426D01*
X113981786Y-118440424D01*
X113981784Y-118440423D01*
X113829057Y-118399500D01*
X113670943Y-118399500D01*
X113518216Y-118440423D01*
X113518209Y-118440426D01*
X113381290Y-118519475D01*
X113381282Y-118519481D01*
X113337681Y-118563083D01*
X113276358Y-118596568D01*
X113206666Y-118591584D01*
X113162319Y-118563083D01*
X113118717Y-118519481D01*
X113118709Y-118519475D01*
X112981790Y-118440426D01*
X112981786Y-118440424D01*
X112981784Y-118440423D01*
X112829057Y-118399500D01*
X112670943Y-118399500D01*
X112518216Y-118440423D01*
X112518209Y-118440426D01*
X112381290Y-118519475D01*
X112381282Y-118519481D01*
X112269481Y-118631282D01*
X112269475Y-118631290D01*
X112190426Y-118768209D01*
X112190423Y-118768216D01*
X112149500Y-118920943D01*
X108673701Y-118920943D01*
X108743716Y-118880520D01*
X108855520Y-118768716D01*
X108934577Y-118631784D01*
X108975500Y-118479057D01*
X108975500Y-118320943D01*
X108934577Y-118168216D01*
X108929587Y-118159573D01*
X108855524Y-118031290D01*
X108855518Y-118031282D01*
X108743717Y-117919481D01*
X108743709Y-117919475D01*
X108606790Y-117840426D01*
X108606786Y-117840424D01*
X108606784Y-117840423D01*
X108454057Y-117799500D01*
X108295943Y-117799500D01*
X108143216Y-117840423D01*
X108143209Y-117840426D01*
X108006290Y-117919475D01*
X108006282Y-117919481D01*
X107894481Y-118031282D01*
X107894475Y-118031290D01*
X107815426Y-118168209D01*
X107815423Y-118168216D01*
X107774500Y-118320943D01*
X107489277Y-118320943D01*
X107500500Y-118279057D01*
X107500500Y-118120943D01*
X107459577Y-117968216D01*
X107438258Y-117931290D01*
X107380524Y-117831290D01*
X107380518Y-117831282D01*
X107268717Y-117719481D01*
X107268709Y-117719475D01*
X107131790Y-117640426D01*
X107131786Y-117640424D01*
X107131784Y-117640423D01*
X106979057Y-117599500D01*
X106820943Y-117599500D01*
X106668216Y-117640423D01*
X106668209Y-117640426D01*
X106531290Y-117719475D01*
X106531282Y-117719481D01*
X106419481Y-117831282D01*
X106419475Y-117831290D01*
X106340426Y-117968209D01*
X106340423Y-117968216D01*
X106299500Y-118120943D01*
X105748705Y-118120943D01*
X105734577Y-118068216D01*
X105713258Y-118031290D01*
X105655524Y-117931290D01*
X105655518Y-117931282D01*
X105543717Y-117819481D01*
X105543709Y-117819475D01*
X105406790Y-117740426D01*
X105406786Y-117740424D01*
X105406784Y-117740423D01*
X105254057Y-117699500D01*
X105095943Y-117699500D01*
X104943216Y-117740423D01*
X104943209Y-117740426D01*
X104806290Y-117819475D01*
X104806282Y-117819481D01*
X104694481Y-117931282D01*
X104694475Y-117931290D01*
X104615426Y-118068209D01*
X104615423Y-118068216D01*
X104574500Y-118220943D01*
X92600500Y-118220943D01*
X92600500Y-118170943D01*
X92559577Y-118018216D01*
X92559573Y-118018209D01*
X92480524Y-117881290D01*
X92480518Y-117881282D01*
X92368717Y-117769481D01*
X92368709Y-117769475D01*
X92231790Y-117690426D01*
X92231786Y-117690424D01*
X92231784Y-117690423D01*
X92079057Y-117649500D01*
X91924000Y-117649500D01*
X91856961Y-117629815D01*
X91811206Y-117577011D01*
X91800000Y-117525500D01*
X91800000Y-116474500D01*
X91819685Y-116407461D01*
X91872489Y-116361706D01*
X91924000Y-116350500D01*
X92079055Y-116350500D01*
X92079057Y-116350500D01*
X92231784Y-116309577D01*
X92368716Y-116230520D01*
X92417747Y-116181488D01*
X92434368Y-116172412D01*
X92448008Y-116159265D01*
X92464401Y-116156012D01*
X92479068Y-116148004D01*
X92497961Y-116149355D01*
X92516542Y-116145669D01*
X92532090Y-116151795D01*
X92548759Y-116152988D01*
X92563922Y-116164339D01*
X92581547Y-116171284D01*
X92597200Y-116189250D01*
X92604693Y-116194859D01*
X92606041Y-116196694D01*
X92609691Y-116201762D01*
X92619480Y-116218716D01*
X92628148Y-116227384D01*
X92634000Y-116235508D01*
X92642414Y-116259397D01*
X92654552Y-116281626D01*
X92653824Y-116291793D01*
X92657212Y-116301410D01*
X92651374Y-116326056D01*
X92649568Y-116351318D01*
X92643458Y-116359479D01*
X92641109Y-116369399D01*
X92622873Y-116386977D01*
X92607696Y-116407251D01*
X92595892Y-116412985D01*
X92590805Y-116417889D01*
X92582341Y-116419568D01*
X92565481Y-116427758D01*
X92547567Y-116432558D01*
X92518214Y-116440423D01*
X92518209Y-116440426D01*
X92381290Y-116519475D01*
X92381282Y-116519481D01*
X92269481Y-116631282D01*
X92269475Y-116631290D01*
X92190426Y-116768209D01*
X92190423Y-116768216D01*
X92149500Y-116920943D01*
X92149500Y-117079057D01*
X92190289Y-117231282D01*
X92190423Y-117231783D01*
X92190426Y-117231790D01*
X92269475Y-117368709D01*
X92269479Y-117368714D01*
X92269480Y-117368716D01*
X92381284Y-117480520D01*
X92381286Y-117480521D01*
X92381290Y-117480524D01*
X92470087Y-117531790D01*
X92518216Y-117559577D01*
X92670943Y-117600500D01*
X92670945Y-117600500D01*
X92829055Y-117600500D01*
X92829057Y-117600500D01*
X92981784Y-117559577D01*
X93118716Y-117480520D01*
X93230520Y-117368716D01*
X93309577Y-117231784D01*
X93350500Y-117079057D01*
X93350500Y-116920943D01*
X93310308Y-116770943D01*
X93749500Y-116770943D01*
X93749500Y-116929057D01*
X93789693Y-117079057D01*
X93790423Y-117081783D01*
X93790426Y-117081790D01*
X93869475Y-117218709D01*
X93869479Y-117218714D01*
X93869480Y-117218716D01*
X93981284Y-117330520D01*
X93981286Y-117330521D01*
X93981290Y-117330524D01*
X94065353Y-117379057D01*
X94118216Y-117409577D01*
X94270943Y-117450500D01*
X94270945Y-117450500D01*
X94429055Y-117450500D01*
X94429057Y-117450500D01*
X94581784Y-117409577D01*
X94718716Y-117330520D01*
X94828293Y-117220943D01*
X98899500Y-117220943D01*
X98899500Y-117379057D01*
X98940289Y-117531282D01*
X98940423Y-117531783D01*
X98940426Y-117531790D01*
X99019475Y-117668709D01*
X99019479Y-117668714D01*
X99019480Y-117668716D01*
X99131284Y-117780520D01*
X99131286Y-117780521D01*
X99131290Y-117780524D01*
X99220087Y-117831790D01*
X99268216Y-117859577D01*
X99420943Y-117900500D01*
X99420945Y-117900500D01*
X99579055Y-117900500D01*
X99579057Y-117900500D01*
X99731784Y-117859577D01*
X99868716Y-117780520D01*
X99962407Y-117686828D01*
X100023726Y-117653346D01*
X100093418Y-117658330D01*
X100125574Y-117676138D01*
X100131281Y-117680517D01*
X100131284Y-117680520D01*
X100131287Y-117680521D01*
X100131290Y-117680524D01*
X100198765Y-117719480D01*
X100268216Y-117759577D01*
X100420943Y-117800500D01*
X100420945Y-117800500D01*
X100579055Y-117800500D01*
X100579057Y-117800500D01*
X100731784Y-117759577D01*
X100868716Y-117680520D01*
X100980520Y-117568716D01*
X101059577Y-117431784D01*
X101100500Y-117279057D01*
X101100500Y-117120943D01*
X101059577Y-116968216D01*
X101038258Y-116931290D01*
X100980524Y-116831290D01*
X100980518Y-116831282D01*
X100868717Y-116719481D01*
X100868709Y-116719475D01*
X100784648Y-116670943D01*
X125105750Y-116670943D01*
X125105750Y-116829057D01*
X125143038Y-116968216D01*
X125146673Y-116981783D01*
X125146676Y-116981790D01*
X125225725Y-117118709D01*
X125225729Y-117118714D01*
X125225730Y-117118716D01*
X125337534Y-117230520D01*
X125337536Y-117230521D01*
X125337540Y-117230524D01*
X125421603Y-117279057D01*
X125474466Y-117309577D01*
X125627193Y-117350500D01*
X125627195Y-117350500D01*
X125785305Y-117350500D01*
X125785307Y-117350500D01*
X125938034Y-117309577D01*
X126074966Y-117230520D01*
X126186770Y-117118716D01*
X126265827Y-116981784D01*
X126306750Y-116829057D01*
X126306750Y-116670943D01*
X126265827Y-116518216D01*
X126244508Y-116481290D01*
X126186774Y-116381290D01*
X126186768Y-116381282D01*
X126074967Y-116269481D01*
X126074959Y-116269475D01*
X125938040Y-116190426D01*
X125938036Y-116190424D01*
X125938034Y-116190423D01*
X125785307Y-116149500D01*
X125627193Y-116149500D01*
X125474466Y-116190423D01*
X125474459Y-116190426D01*
X125337540Y-116269475D01*
X125337532Y-116269481D01*
X125225731Y-116381282D01*
X125225725Y-116381290D01*
X125146676Y-116518209D01*
X125146673Y-116518216D01*
X125105750Y-116670943D01*
X100784648Y-116670943D01*
X100731790Y-116640426D01*
X100731786Y-116640424D01*
X100731784Y-116640423D01*
X100579057Y-116599500D01*
X100420943Y-116599500D01*
X100268216Y-116640423D01*
X100268209Y-116640426D01*
X100131290Y-116719475D01*
X100131286Y-116719478D01*
X100037595Y-116813169D01*
X99976271Y-116846653D01*
X99906580Y-116841669D01*
X99874426Y-116823862D01*
X99868720Y-116819484D01*
X99868716Y-116819480D01*
X99868710Y-116819476D01*
X99868708Y-116819475D01*
X99731790Y-116740426D01*
X99731786Y-116740424D01*
X99731784Y-116740423D01*
X99579057Y-116699500D01*
X99420943Y-116699500D01*
X99268216Y-116740423D01*
X99268209Y-116740426D01*
X99131290Y-116819475D01*
X99131282Y-116819481D01*
X99019481Y-116931282D01*
X99019475Y-116931290D01*
X98940426Y-117068209D01*
X98940423Y-117068216D01*
X98899500Y-117220943D01*
X94828293Y-117220943D01*
X94830520Y-117218716D01*
X94909577Y-117081784D01*
X94950500Y-116929057D01*
X94950500Y-116770943D01*
X94909577Y-116618216D01*
X94899348Y-116600499D01*
X94830524Y-116481290D01*
X94830518Y-116481282D01*
X94718717Y-116369481D01*
X94718709Y-116369475D01*
X94581790Y-116290426D01*
X94581786Y-116290424D01*
X94581784Y-116290423D01*
X94429057Y-116249500D01*
X94270943Y-116249500D01*
X94118216Y-116290423D01*
X94118209Y-116290426D01*
X93981290Y-116369475D01*
X93981282Y-116369481D01*
X93869481Y-116481282D01*
X93869475Y-116481290D01*
X93790426Y-116618209D01*
X93790423Y-116618216D01*
X93749500Y-116770943D01*
X93310308Y-116770943D01*
X93309577Y-116768216D01*
X93281440Y-116719480D01*
X93230524Y-116631290D01*
X93230518Y-116631282D01*
X93228932Y-116629696D01*
X93228021Y-116628028D01*
X93225574Y-116624839D01*
X93226071Y-116624457D01*
X93195447Y-116568373D01*
X93200431Y-116498681D01*
X93242303Y-116442748D01*
X93284518Y-116422241D01*
X93331784Y-116409577D01*
X93468716Y-116330520D01*
X93580520Y-116218716D01*
X93659577Y-116081784D01*
X93700500Y-115929057D01*
X93700500Y-115770943D01*
X93659577Y-115618216D01*
X93637816Y-115580524D01*
X93580524Y-115481290D01*
X93580518Y-115481282D01*
X93468717Y-115369481D01*
X93468716Y-115369480D01*
X93381344Y-115319036D01*
X93333130Y-115268471D01*
X93319906Y-115199864D01*
X93323567Y-115179572D01*
X93350500Y-115079057D01*
X93350500Y-114920943D01*
X93309577Y-114768216D01*
X93288258Y-114731290D01*
X93230524Y-114631290D01*
X93230518Y-114631282D01*
X93120179Y-114520943D01*
X97199500Y-114520943D01*
X97199500Y-114679057D01*
X97239063Y-114826706D01*
X97240423Y-114831783D01*
X97240426Y-114831790D01*
X97319475Y-114968709D01*
X97319479Y-114968714D01*
X97319480Y-114968716D01*
X97431284Y-115080520D01*
X97431286Y-115080521D01*
X97431290Y-115080524D01*
X97550762Y-115149500D01*
X97568216Y-115159577D01*
X97720943Y-115200500D01*
X97720945Y-115200500D01*
X97879055Y-115200500D01*
X97879057Y-115200500D01*
X97893406Y-115196655D01*
X97963254Y-115198316D01*
X98021117Y-115237477D01*
X98048623Y-115301705D01*
X98049500Y-115316429D01*
X98049500Y-115329057D01*
X98090289Y-115481282D01*
X98090423Y-115481783D01*
X98090426Y-115481790D01*
X98169475Y-115618709D01*
X98169479Y-115618714D01*
X98169480Y-115618716D01*
X98281284Y-115730520D01*
X98281286Y-115730521D01*
X98281290Y-115730524D01*
X98367887Y-115780520D01*
X98418216Y-115809577D01*
X98570943Y-115850500D01*
X98570945Y-115850500D01*
X98729055Y-115850500D01*
X98729057Y-115850500D01*
X98830226Y-115823392D01*
X118969502Y-115823392D01*
X118969502Y-115981506D01*
X119006268Y-116118716D01*
X119010425Y-116134232D01*
X119010428Y-116134239D01*
X119089477Y-116271158D01*
X119089481Y-116271163D01*
X119089482Y-116271165D01*
X119201286Y-116382969D01*
X119201288Y-116382970D01*
X119201292Y-116382973D01*
X119278865Y-116427759D01*
X119338218Y-116462026D01*
X119490945Y-116502949D01*
X119490947Y-116502949D01*
X119649057Y-116502949D01*
X119649059Y-116502949D01*
X119801786Y-116462026D01*
X119938718Y-116382969D01*
X120050522Y-116271165D01*
X120129579Y-116134233D01*
X120170502Y-115981506D01*
X120170502Y-115920943D01*
X123799500Y-115920943D01*
X123799500Y-116079057D01*
X123840086Y-116230524D01*
X123840423Y-116231783D01*
X123840426Y-116231790D01*
X123919475Y-116368709D01*
X123919479Y-116368714D01*
X123919480Y-116368716D01*
X124031284Y-116480520D01*
X124031286Y-116480521D01*
X124031290Y-116480524D01*
X124098765Y-116519480D01*
X124168216Y-116559577D01*
X124320943Y-116600500D01*
X124320945Y-116600500D01*
X124479055Y-116600500D01*
X124479057Y-116600500D01*
X124631784Y-116559577D01*
X124638970Y-116555427D01*
X124638973Y-116555427D01*
X124768709Y-116480524D01*
X124768708Y-116480524D01*
X124768716Y-116480520D01*
X124880520Y-116368716D01*
X124959577Y-116231784D01*
X125000500Y-116079057D01*
X125000500Y-115920943D01*
X124959577Y-115768216D01*
X124937816Y-115730524D01*
X124880524Y-115631290D01*
X124880518Y-115631282D01*
X124768717Y-115519481D01*
X124768709Y-115519475D01*
X124631790Y-115440426D01*
X124631786Y-115440424D01*
X124631784Y-115440423D01*
X124479057Y-115399500D01*
X124320943Y-115399500D01*
X124168216Y-115440423D01*
X124168209Y-115440426D01*
X124031290Y-115519475D01*
X124031282Y-115519481D01*
X123919481Y-115631282D01*
X123919475Y-115631290D01*
X123840426Y-115768209D01*
X123840423Y-115768216D01*
X123799500Y-115920943D01*
X120170502Y-115920943D01*
X120170502Y-115823392D01*
X120129579Y-115670665D01*
X120106843Y-115631284D01*
X120050526Y-115533739D01*
X120050520Y-115533731D01*
X119938719Y-115421930D01*
X119938711Y-115421924D01*
X119801792Y-115342875D01*
X119801788Y-115342873D01*
X119801786Y-115342872D01*
X119649059Y-115301949D01*
X119490945Y-115301949D01*
X119338218Y-115342872D01*
X119338211Y-115342875D01*
X119201292Y-115421924D01*
X119201284Y-115421930D01*
X119089483Y-115533731D01*
X119089477Y-115533739D01*
X119010428Y-115670658D01*
X119010425Y-115670665D01*
X118969502Y-115823392D01*
X98830226Y-115823392D01*
X98881784Y-115809577D01*
X99018716Y-115730520D01*
X99130520Y-115618716D01*
X99209577Y-115481784D01*
X99250500Y-115329057D01*
X99250500Y-115170943D01*
X99209577Y-115018216D01*
X99204091Y-115008714D01*
X99130524Y-114881290D01*
X99130518Y-114881282D01*
X99018717Y-114769481D01*
X99018709Y-114769475D01*
X98881790Y-114690426D01*
X98881786Y-114690424D01*
X98881784Y-114690423D01*
X98729057Y-114649500D01*
X98570943Y-114649500D01*
X98570938Y-114649500D01*
X98556591Y-114653345D01*
X98486741Y-114651681D01*
X98428880Y-114612518D01*
X98404017Y-114562892D01*
X98400500Y-114548440D01*
X98400500Y-114520943D01*
X98359577Y-114368216D01*
X98354497Y-114359417D01*
X98354497Y-114359416D01*
X98332285Y-114320943D01*
X100999500Y-114320943D01*
X100999500Y-114479057D01*
X101040289Y-114631282D01*
X101040423Y-114631783D01*
X101040426Y-114631790D01*
X101119475Y-114768709D01*
X101119479Y-114768714D01*
X101119480Y-114768716D01*
X101231284Y-114880520D01*
X101231286Y-114880521D01*
X101231290Y-114880524D01*
X101320087Y-114931790D01*
X101368216Y-114959577D01*
X101520943Y-115000500D01*
X101520945Y-115000500D01*
X101679055Y-115000500D01*
X101679057Y-115000500D01*
X101831784Y-114959577D01*
X101968716Y-114880520D01*
X102080520Y-114768716D01*
X102159577Y-114631784D01*
X102162482Y-114620943D01*
X114899500Y-114620943D01*
X114899500Y-114779057D01*
X114940289Y-114931282D01*
X114940423Y-114931783D01*
X114940426Y-114931790D01*
X115019475Y-115068709D01*
X115019479Y-115068714D01*
X115019480Y-115068716D01*
X115131284Y-115180520D01*
X115131286Y-115180521D01*
X115131290Y-115180524D01*
X115235173Y-115240500D01*
X115268216Y-115259577D01*
X115420943Y-115300500D01*
X115420945Y-115300500D01*
X115579055Y-115300500D01*
X115579057Y-115300500D01*
X115731784Y-115259577D01*
X115867913Y-115180983D01*
X115935811Y-115164511D01*
X116001838Y-115187364D01*
X116037299Y-115226372D01*
X116040422Y-115231782D01*
X116040423Y-115231784D01*
X116119480Y-115368716D01*
X116231284Y-115480520D01*
X116231286Y-115480521D01*
X116231290Y-115480524D01*
X116320087Y-115531790D01*
X116368216Y-115559577D01*
X116520943Y-115600500D01*
X116520945Y-115600500D01*
X116679055Y-115600500D01*
X116679057Y-115600500D01*
X116831784Y-115559577D01*
X116968716Y-115480520D01*
X117080520Y-115368716D01*
X117159577Y-115231784D01*
X117200500Y-115079057D01*
X117200500Y-115020943D01*
X120249501Y-115020943D01*
X120249501Y-115179057D01*
X120289694Y-115329057D01*
X120290424Y-115331783D01*
X120290427Y-115331790D01*
X120369476Y-115468709D01*
X120369480Y-115468714D01*
X120369481Y-115468716D01*
X120481285Y-115580520D01*
X120481287Y-115580521D01*
X120481291Y-115580524D01*
X120569222Y-115631290D01*
X120618217Y-115659577D01*
X120770944Y-115700500D01*
X120770946Y-115700500D01*
X120929056Y-115700500D01*
X120929058Y-115700500D01*
X121081785Y-115659577D01*
X121218717Y-115580520D01*
X121330521Y-115468716D01*
X121409578Y-115331784D01*
X121450501Y-115179057D01*
X121450501Y-115042818D01*
X128177625Y-115042818D01*
X128177625Y-115200932D01*
X128215659Y-115342875D01*
X128218548Y-115353658D01*
X128218551Y-115353665D01*
X128297600Y-115490584D01*
X128297604Y-115490589D01*
X128297605Y-115490591D01*
X128409409Y-115602395D01*
X128409411Y-115602396D01*
X128409415Y-115602399D01*
X128508445Y-115659573D01*
X128546341Y-115681452D01*
X128699068Y-115722375D01*
X128699070Y-115722375D01*
X128857179Y-115722375D01*
X128857182Y-115722375D01*
X128920977Y-115705281D01*
X128990824Y-115706944D01*
X129048687Y-115746106D01*
X129076191Y-115810334D01*
X129072843Y-115857148D01*
X129055750Y-115920941D01*
X129055750Y-115920943D01*
X129055750Y-116079057D01*
X129096336Y-116230524D01*
X129096673Y-116231783D01*
X129096676Y-116231790D01*
X129175725Y-116368709D01*
X129175729Y-116368714D01*
X129175730Y-116368716D01*
X129287534Y-116480520D01*
X129287536Y-116480521D01*
X129287540Y-116480524D01*
X129355015Y-116519480D01*
X129424466Y-116559577D01*
X129577193Y-116600500D01*
X129577195Y-116600500D01*
X129735305Y-116600500D01*
X129735307Y-116600500D01*
X129888034Y-116559577D01*
X130024966Y-116480520D01*
X130136770Y-116368716D01*
X130215827Y-116231784D01*
X130256750Y-116079057D01*
X130256750Y-115920943D01*
X135859500Y-115920943D01*
X135859500Y-116079057D01*
X135900086Y-116230524D01*
X135900423Y-116231783D01*
X135900426Y-116231790D01*
X135979475Y-116368709D01*
X135979479Y-116368714D01*
X135979480Y-116368716D01*
X136091284Y-116480520D01*
X136091286Y-116480521D01*
X136091290Y-116480524D01*
X136158765Y-116519480D01*
X136228216Y-116559577D01*
X136380943Y-116600500D01*
X136380945Y-116600500D01*
X136539055Y-116600500D01*
X136539057Y-116600500D01*
X136691784Y-116559577D01*
X136828716Y-116480520D01*
X136940520Y-116368716D01*
X136987612Y-116287148D01*
X137038179Y-116238933D01*
X137106786Y-116225709D01*
X137171651Y-116251677D01*
X137202387Y-116287147D01*
X137249480Y-116368716D01*
X137361284Y-116480520D01*
X137361286Y-116480521D01*
X137361290Y-116480524D01*
X137428765Y-116519480D01*
X137498216Y-116559577D01*
X137650943Y-116600500D01*
X137650945Y-116600500D01*
X137809055Y-116600500D01*
X137809057Y-116600500D01*
X137961784Y-116559577D01*
X138098716Y-116480520D01*
X138210520Y-116368716D01*
X138257612Y-116287148D01*
X138308179Y-116238933D01*
X138376786Y-116225709D01*
X138441651Y-116251677D01*
X138472387Y-116287147D01*
X138519480Y-116368716D01*
X138631284Y-116480520D01*
X138631286Y-116480521D01*
X138631290Y-116480524D01*
X138698765Y-116519480D01*
X138768216Y-116559577D01*
X138920943Y-116600500D01*
X138920945Y-116600500D01*
X139079055Y-116600500D01*
X139079057Y-116600500D01*
X139231784Y-116559577D01*
X139368716Y-116480520D01*
X139480520Y-116368716D01*
X139527612Y-116287148D01*
X139578179Y-116238933D01*
X139646786Y-116225709D01*
X139711651Y-116251677D01*
X139742387Y-116287147D01*
X139789480Y-116368716D01*
X139901284Y-116480520D01*
X139901286Y-116480521D01*
X139901290Y-116480524D01*
X139968765Y-116519480D01*
X140038216Y-116559577D01*
X140190943Y-116600500D01*
X140190945Y-116600500D01*
X140349055Y-116600500D01*
X140349057Y-116600500D01*
X140501784Y-116559577D01*
X140638716Y-116480520D01*
X140750520Y-116368716D01*
X140797612Y-116287148D01*
X140848179Y-116238933D01*
X140916786Y-116225709D01*
X140981651Y-116251677D01*
X141012387Y-116287147D01*
X141059480Y-116368716D01*
X141171284Y-116480520D01*
X141171286Y-116480521D01*
X141171290Y-116480524D01*
X141238765Y-116519480D01*
X141308216Y-116559577D01*
X141460943Y-116600500D01*
X141460945Y-116600500D01*
X141619055Y-116600500D01*
X141619057Y-116600500D01*
X141771784Y-116559577D01*
X141908716Y-116480520D01*
X142020520Y-116368716D01*
X142067612Y-116287148D01*
X142118179Y-116238933D01*
X142186786Y-116225709D01*
X142251651Y-116251677D01*
X142282387Y-116287147D01*
X142329480Y-116368716D01*
X142441284Y-116480520D01*
X142441286Y-116480521D01*
X142441290Y-116480524D01*
X142508765Y-116519480D01*
X142578216Y-116559577D01*
X142730943Y-116600500D01*
X142730945Y-116600500D01*
X142889055Y-116600500D01*
X142889057Y-116600500D01*
X143041784Y-116559577D01*
X143178716Y-116480520D01*
X143290520Y-116368716D01*
X143337612Y-116287148D01*
X143388179Y-116238933D01*
X143456786Y-116225709D01*
X143521651Y-116251677D01*
X143552387Y-116287147D01*
X143599480Y-116368716D01*
X143711284Y-116480520D01*
X143711286Y-116480521D01*
X143711290Y-116480524D01*
X143778765Y-116519480D01*
X143848216Y-116559577D01*
X144000943Y-116600500D01*
X144000945Y-116600500D01*
X144159055Y-116600500D01*
X144159057Y-116600500D01*
X144311784Y-116559577D01*
X144448716Y-116480520D01*
X144560520Y-116368716D01*
X144607612Y-116287148D01*
X144658179Y-116238933D01*
X144726786Y-116225709D01*
X144791651Y-116251677D01*
X144822387Y-116287147D01*
X144869480Y-116368716D01*
X144981284Y-116480520D01*
X144981286Y-116480521D01*
X144981290Y-116480524D01*
X145048765Y-116519480D01*
X145118216Y-116559577D01*
X145270943Y-116600500D01*
X145270945Y-116600500D01*
X145429055Y-116600500D01*
X145429057Y-116600500D01*
X145581784Y-116559577D01*
X145718716Y-116480520D01*
X145830520Y-116368716D01*
X145909577Y-116231784D01*
X145950500Y-116079057D01*
X145950500Y-115920943D01*
X145909577Y-115768216D01*
X145887816Y-115730524D01*
X145830524Y-115631290D01*
X145830518Y-115631282D01*
X145718717Y-115519481D01*
X145718709Y-115519475D01*
X145581790Y-115440426D01*
X145581786Y-115440424D01*
X145581784Y-115440423D01*
X145429057Y-115399500D01*
X145270943Y-115399500D01*
X145118216Y-115440423D01*
X145118209Y-115440426D01*
X144981290Y-115519475D01*
X144981282Y-115519481D01*
X144869481Y-115631282D01*
X144869477Y-115631287D01*
X144822387Y-115712851D01*
X144771820Y-115761067D01*
X144703213Y-115774290D01*
X144638348Y-115748322D01*
X144607613Y-115712851D01*
X144560522Y-115631287D01*
X144560518Y-115631282D01*
X144448717Y-115519481D01*
X144448709Y-115519475D01*
X144311790Y-115440426D01*
X144311786Y-115440424D01*
X144311784Y-115440423D01*
X144159057Y-115399500D01*
X144000943Y-115399500D01*
X143848216Y-115440423D01*
X143848209Y-115440426D01*
X143711290Y-115519475D01*
X143711282Y-115519481D01*
X143599481Y-115631282D01*
X143599477Y-115631287D01*
X143552387Y-115712851D01*
X143501820Y-115761067D01*
X143433213Y-115774290D01*
X143368348Y-115748322D01*
X143337613Y-115712851D01*
X143290522Y-115631287D01*
X143290518Y-115631282D01*
X143178717Y-115519481D01*
X143178709Y-115519475D01*
X143041790Y-115440426D01*
X143041786Y-115440424D01*
X143041784Y-115440423D01*
X142889057Y-115399500D01*
X142730943Y-115399500D01*
X142578216Y-115440423D01*
X142578209Y-115440426D01*
X142441290Y-115519475D01*
X142441282Y-115519481D01*
X142329481Y-115631282D01*
X142329477Y-115631287D01*
X142282387Y-115712851D01*
X142231820Y-115761067D01*
X142163213Y-115774290D01*
X142098348Y-115748322D01*
X142067613Y-115712851D01*
X142020522Y-115631287D01*
X142020518Y-115631282D01*
X141908717Y-115519481D01*
X141908709Y-115519475D01*
X141771790Y-115440426D01*
X141771786Y-115440424D01*
X141771784Y-115440423D01*
X141619057Y-115399500D01*
X141460943Y-115399500D01*
X141308216Y-115440423D01*
X141308209Y-115440426D01*
X141171290Y-115519475D01*
X141171282Y-115519481D01*
X141059481Y-115631282D01*
X141059477Y-115631287D01*
X141012387Y-115712851D01*
X140961820Y-115761067D01*
X140893213Y-115774290D01*
X140828348Y-115748322D01*
X140797613Y-115712851D01*
X140750522Y-115631287D01*
X140750518Y-115631282D01*
X140638717Y-115519481D01*
X140638709Y-115519475D01*
X140501790Y-115440426D01*
X140501786Y-115440424D01*
X140501784Y-115440423D01*
X140349057Y-115399500D01*
X140190943Y-115399500D01*
X140038216Y-115440423D01*
X140038209Y-115440426D01*
X139901290Y-115519475D01*
X139901282Y-115519481D01*
X139789481Y-115631282D01*
X139789477Y-115631287D01*
X139742387Y-115712851D01*
X139691820Y-115761067D01*
X139623213Y-115774290D01*
X139558348Y-115748322D01*
X139527613Y-115712851D01*
X139480522Y-115631287D01*
X139480518Y-115631282D01*
X139368717Y-115519481D01*
X139368709Y-115519475D01*
X139231790Y-115440426D01*
X139231786Y-115440424D01*
X139231784Y-115440423D01*
X139079057Y-115399500D01*
X138920943Y-115399500D01*
X138768216Y-115440423D01*
X138768209Y-115440426D01*
X138631290Y-115519475D01*
X138631282Y-115519481D01*
X138519481Y-115631282D01*
X138519477Y-115631287D01*
X138472387Y-115712851D01*
X138421820Y-115761067D01*
X138353213Y-115774290D01*
X138288348Y-115748322D01*
X138257613Y-115712851D01*
X138210522Y-115631287D01*
X138210518Y-115631282D01*
X138098717Y-115519481D01*
X138098709Y-115519475D01*
X137961790Y-115440426D01*
X137961786Y-115440424D01*
X137961784Y-115440423D01*
X137809057Y-115399500D01*
X137650943Y-115399500D01*
X137498216Y-115440423D01*
X137498209Y-115440426D01*
X137361290Y-115519475D01*
X137361282Y-115519481D01*
X137249481Y-115631282D01*
X137249477Y-115631287D01*
X137202387Y-115712851D01*
X137151820Y-115761067D01*
X137083213Y-115774290D01*
X137018348Y-115748322D01*
X136987613Y-115712851D01*
X136940522Y-115631287D01*
X136940518Y-115631282D01*
X136828717Y-115519481D01*
X136828709Y-115519475D01*
X136691790Y-115440426D01*
X136691786Y-115440424D01*
X136691784Y-115440423D01*
X136539057Y-115399500D01*
X136380943Y-115399500D01*
X136228216Y-115440423D01*
X136228209Y-115440426D01*
X136091290Y-115519475D01*
X136091282Y-115519481D01*
X135979481Y-115631282D01*
X135979475Y-115631290D01*
X135900426Y-115768209D01*
X135900423Y-115768216D01*
X135859500Y-115920943D01*
X130256750Y-115920943D01*
X130215827Y-115768216D01*
X130194066Y-115730524D01*
X130136774Y-115631290D01*
X130136768Y-115631282D01*
X130024967Y-115519481D01*
X130024959Y-115519475D01*
X129888040Y-115440426D01*
X129888036Y-115440424D01*
X129888034Y-115440423D01*
X129735307Y-115399500D01*
X129577193Y-115399500D01*
X129577191Y-115399500D01*
X129513398Y-115416593D01*
X129508516Y-115416476D01*
X129504164Y-115418693D01*
X129473928Y-115415653D01*
X129443548Y-115414930D01*
X129439503Y-115412192D01*
X129434645Y-115411704D01*
X129410852Y-115392799D01*
X129385686Y-115375766D01*
X129383763Y-115371277D01*
X129379940Y-115368239D01*
X129370142Y-115339468D01*
X129358183Y-115311538D01*
X129358560Y-115305454D01*
X129357418Y-115302099D01*
X129360517Y-115273934D01*
X129360949Y-115266982D01*
X129361221Y-115265884D01*
X129373263Y-115220943D01*
X132699500Y-115220943D01*
X132699500Y-115379057D01*
X132737127Y-115519481D01*
X132740423Y-115531783D01*
X132740426Y-115531790D01*
X132819475Y-115668709D01*
X132819479Y-115668714D01*
X132819480Y-115668716D01*
X132931284Y-115780520D01*
X132931286Y-115780521D01*
X132931290Y-115780524D01*
X133015353Y-115829057D01*
X133068216Y-115859577D01*
X133220943Y-115900500D01*
X133220945Y-115900500D01*
X133379055Y-115900500D01*
X133379057Y-115900500D01*
X133531784Y-115859577D01*
X133668716Y-115780520D01*
X133780520Y-115668716D01*
X133859577Y-115531784D01*
X133900500Y-115379057D01*
X133900500Y-115220943D01*
X133859577Y-115068216D01*
X133855122Y-115060499D01*
X133780524Y-114931290D01*
X133780518Y-114931282D01*
X133668717Y-114819481D01*
X133668709Y-114819475D01*
X133531790Y-114740426D01*
X133531786Y-114740424D01*
X133531784Y-114740423D01*
X133379057Y-114699500D01*
X133220943Y-114699500D01*
X133068216Y-114740423D01*
X133068209Y-114740426D01*
X132931290Y-114819475D01*
X132931282Y-114819481D01*
X132819481Y-114931282D01*
X132819475Y-114931290D01*
X132740426Y-115068209D01*
X132740423Y-115068216D01*
X132699500Y-115220943D01*
X129373263Y-115220943D01*
X129378625Y-115200932D01*
X129378625Y-115042818D01*
X129337702Y-114890091D01*
X129330158Y-114877025D01*
X129258649Y-114753165D01*
X129258643Y-114753157D01*
X129146842Y-114641356D01*
X129146834Y-114641350D01*
X129009915Y-114562301D01*
X129009911Y-114562299D01*
X129009909Y-114562298D01*
X128857182Y-114521375D01*
X128699068Y-114521375D01*
X128546341Y-114562298D01*
X128546334Y-114562301D01*
X128409415Y-114641350D01*
X128409407Y-114641356D01*
X128297606Y-114753157D01*
X128297600Y-114753165D01*
X128218551Y-114890084D01*
X128218548Y-114890091D01*
X128177625Y-115042818D01*
X121450501Y-115042818D01*
X121450501Y-115020943D01*
X121409578Y-114868216D01*
X121409574Y-114868209D01*
X121330525Y-114731290D01*
X121330519Y-114731282D01*
X121218718Y-114619481D01*
X121218710Y-114619475D01*
X121081791Y-114540426D01*
X121081787Y-114540424D01*
X121081785Y-114540423D01*
X120929058Y-114499500D01*
X120770944Y-114499500D01*
X120618217Y-114540423D01*
X120618210Y-114540426D01*
X120481291Y-114619475D01*
X120481283Y-114619481D01*
X120369482Y-114731282D01*
X120369476Y-114731290D01*
X120290427Y-114868209D01*
X120290424Y-114868216D01*
X120249501Y-115020943D01*
X117200500Y-115020943D01*
X117200500Y-114920943D01*
X117159577Y-114768216D01*
X117138258Y-114731290D01*
X117080524Y-114631290D01*
X117080518Y-114631282D01*
X116968717Y-114519481D01*
X116968709Y-114519475D01*
X116831790Y-114440426D01*
X116831786Y-114440424D01*
X116831784Y-114440423D01*
X116679057Y-114399500D01*
X116520943Y-114399500D01*
X116368216Y-114440423D01*
X116368215Y-114440423D01*
X116232087Y-114519016D01*
X116164187Y-114535488D01*
X116098160Y-114512635D01*
X116062700Y-114473627D01*
X116059577Y-114468219D01*
X116059577Y-114468216D01*
X115980520Y-114331284D01*
X115868716Y-114219480D01*
X115868714Y-114219479D01*
X115868709Y-114219475D01*
X115731790Y-114140426D01*
X115731786Y-114140424D01*
X115731784Y-114140423D01*
X115579057Y-114099500D01*
X115420943Y-114099500D01*
X115268216Y-114140423D01*
X115268209Y-114140426D01*
X115131290Y-114219475D01*
X115131282Y-114219481D01*
X115019481Y-114331282D01*
X115019475Y-114331290D01*
X114940426Y-114468209D01*
X114940423Y-114468216D01*
X114899500Y-114620943D01*
X102162482Y-114620943D01*
X102200500Y-114479057D01*
X102200500Y-114320943D01*
X102159577Y-114168216D01*
X102154532Y-114159477D01*
X102080524Y-114031290D01*
X102080518Y-114031282D01*
X101968717Y-113919481D01*
X101968709Y-113919475D01*
X101831790Y-113840426D01*
X101831786Y-113840424D01*
X101831784Y-113840423D01*
X101679057Y-113799500D01*
X101520943Y-113799500D01*
X101368216Y-113840423D01*
X101368209Y-113840426D01*
X101231290Y-113919475D01*
X101231282Y-113919481D01*
X101119481Y-114031282D01*
X101119475Y-114031290D01*
X101040426Y-114168209D01*
X101040423Y-114168216D01*
X100999500Y-114320943D01*
X98332285Y-114320943D01*
X98280522Y-114231287D01*
X98280518Y-114231282D01*
X98168717Y-114119481D01*
X98168709Y-114119475D01*
X98031790Y-114040426D01*
X98031786Y-114040424D01*
X98031784Y-114040423D01*
X97879057Y-113999500D01*
X97720943Y-113999500D01*
X97568216Y-114040423D01*
X97568209Y-114040426D01*
X97431290Y-114119475D01*
X97431282Y-114119481D01*
X97319481Y-114231282D01*
X97319475Y-114231290D01*
X97240426Y-114368209D01*
X97240423Y-114368216D01*
X97199500Y-114520943D01*
X93120179Y-114520943D01*
X93118717Y-114519481D01*
X93118709Y-114519475D01*
X92981790Y-114440426D01*
X92981786Y-114440424D01*
X92981784Y-114440423D01*
X92829057Y-114399500D01*
X92724500Y-114399500D01*
X92715814Y-114396949D01*
X92706853Y-114398238D01*
X92682812Y-114387259D01*
X92657461Y-114379815D01*
X92651533Y-114372974D01*
X92643297Y-114369213D01*
X92629007Y-114346978D01*
X92611706Y-114327011D01*
X92609418Y-114316496D01*
X92605523Y-114310435D01*
X92600500Y-114275500D01*
X92600500Y-114224500D01*
X92620185Y-114157461D01*
X92672989Y-114111706D01*
X92724500Y-114100500D01*
X92829055Y-114100500D01*
X92829057Y-114100500D01*
X92981784Y-114059577D01*
X93118716Y-113980520D01*
X93230520Y-113868716D01*
X93309577Y-113731784D01*
X93339277Y-113620943D01*
X102799500Y-113620943D01*
X102799500Y-113779057D01*
X102837127Y-113919481D01*
X102840423Y-113931783D01*
X102840426Y-113931790D01*
X102919475Y-114068709D01*
X102919479Y-114068714D01*
X102919480Y-114068716D01*
X103031284Y-114180520D01*
X103031286Y-114180521D01*
X103031290Y-114180524D01*
X103120087Y-114231790D01*
X103168216Y-114259577D01*
X103320943Y-114300500D01*
X103320945Y-114300500D01*
X103479055Y-114300500D01*
X103479057Y-114300500D01*
X103631784Y-114259577D01*
X103768716Y-114180520D01*
X103880520Y-114068716D01*
X103959577Y-113931784D01*
X103962482Y-113920943D01*
X104499500Y-113920943D01*
X104499500Y-114079057D01*
X104540289Y-114231282D01*
X104540423Y-114231783D01*
X104540426Y-114231790D01*
X104619475Y-114368709D01*
X104619479Y-114368714D01*
X104619480Y-114368716D01*
X104731284Y-114480520D01*
X104731286Y-114480521D01*
X104731290Y-114480524D01*
X104826492Y-114535488D01*
X104868216Y-114559577D01*
X105020943Y-114600500D01*
X105020945Y-114600500D01*
X105179055Y-114600500D01*
X105179057Y-114600500D01*
X105331784Y-114559577D01*
X105468716Y-114480520D01*
X105580520Y-114368716D01*
X105659577Y-114231784D01*
X105700500Y-114079057D01*
X105700500Y-113920943D01*
X131099500Y-113920943D01*
X131099500Y-114079057D01*
X131140289Y-114231282D01*
X131140423Y-114231783D01*
X131140426Y-114231790D01*
X131219475Y-114368709D01*
X131219479Y-114368714D01*
X131219480Y-114368716D01*
X131331284Y-114480520D01*
X131331286Y-114480521D01*
X131331290Y-114480524D01*
X131426492Y-114535488D01*
X131468216Y-114559577D01*
X131620943Y-114600500D01*
X131620945Y-114600500D01*
X131779055Y-114600500D01*
X131779057Y-114600500D01*
X131926686Y-114560943D01*
X146299499Y-114560943D01*
X146299499Y-114719057D01*
X146335403Y-114853050D01*
X146340422Y-114871783D01*
X146340425Y-114871790D01*
X146419474Y-115008709D01*
X146419477Y-115008713D01*
X146419479Y-115008716D01*
X146531283Y-115120520D01*
X146531285Y-115120521D01*
X146531289Y-115120524D01*
X146661462Y-115195678D01*
X146668215Y-115199577D01*
X146820942Y-115240500D01*
X146820944Y-115240500D01*
X146979054Y-115240500D01*
X146979056Y-115240500D01*
X147131783Y-115199577D01*
X147268715Y-115120520D01*
X147312320Y-115076915D01*
X147373643Y-115043430D01*
X147443335Y-115048414D01*
X147487682Y-115076915D01*
X147531284Y-115120517D01*
X147531286Y-115120518D01*
X147531290Y-115120521D01*
X147635213Y-115180520D01*
X147668216Y-115199574D01*
X147820943Y-115240497D01*
X147820945Y-115240497D01*
X147979055Y-115240497D01*
X147979057Y-115240497D01*
X148131784Y-115199574D01*
X148268716Y-115120517D01*
X148380520Y-115008713D01*
X148459577Y-114871781D01*
X148500500Y-114719054D01*
X148500500Y-114560940D01*
X148459577Y-114408213D01*
X148436481Y-114368209D01*
X148380524Y-114271287D01*
X148380521Y-114271283D01*
X148380520Y-114271281D01*
X148268716Y-114159477D01*
X148268713Y-114159475D01*
X148268709Y-114159472D01*
X148131790Y-114080423D01*
X148131786Y-114080421D01*
X148131784Y-114080420D01*
X147979057Y-114039497D01*
X147820943Y-114039497D01*
X147668216Y-114080420D01*
X147668209Y-114080423D01*
X147531290Y-114159472D01*
X147531281Y-114159479D01*
X147487676Y-114203083D01*
X147426353Y-114236567D01*
X147356661Y-114231581D01*
X147312316Y-114203081D01*
X147268716Y-114159481D01*
X147268708Y-114159475D01*
X147131789Y-114080426D01*
X147131785Y-114080424D01*
X147131783Y-114080423D01*
X146979056Y-114039500D01*
X146820942Y-114039500D01*
X146668215Y-114080423D01*
X146668208Y-114080426D01*
X146531289Y-114159475D01*
X146531281Y-114159481D01*
X146419480Y-114271282D01*
X146419474Y-114271290D01*
X146340425Y-114408209D01*
X146340422Y-114408216D01*
X146299499Y-114560943D01*
X131926686Y-114560943D01*
X131931784Y-114559577D01*
X132068716Y-114480520D01*
X132180520Y-114368716D01*
X132259577Y-114231784D01*
X132300500Y-114079057D01*
X132300500Y-113920943D01*
X132259577Y-113768216D01*
X132208460Y-113679678D01*
X132180524Y-113631290D01*
X132180518Y-113631282D01*
X132068717Y-113519481D01*
X132068709Y-113519475D01*
X131931790Y-113440426D01*
X131931786Y-113440424D01*
X131931784Y-113440423D01*
X131779057Y-113399500D01*
X131620943Y-113399500D01*
X131468216Y-113440423D01*
X131468209Y-113440426D01*
X131331290Y-113519475D01*
X131331282Y-113519481D01*
X131219481Y-113631282D01*
X131219475Y-113631290D01*
X131140426Y-113768209D01*
X131140423Y-113768216D01*
X131099500Y-113920943D01*
X105700500Y-113920943D01*
X105659577Y-113768216D01*
X105608460Y-113679678D01*
X105580524Y-113631290D01*
X105580518Y-113631282D01*
X105468717Y-113519481D01*
X105468709Y-113519475D01*
X105331790Y-113440426D01*
X105331786Y-113440424D01*
X105331784Y-113440423D01*
X105179057Y-113399500D01*
X105020943Y-113399500D01*
X104868216Y-113440423D01*
X104868209Y-113440426D01*
X104731290Y-113519475D01*
X104731282Y-113519481D01*
X104619481Y-113631282D01*
X104619475Y-113631290D01*
X104540426Y-113768209D01*
X104540423Y-113768216D01*
X104499500Y-113920943D01*
X103962482Y-113920943D01*
X104000500Y-113779057D01*
X104000500Y-113620943D01*
X103959577Y-113468216D01*
X103944727Y-113442496D01*
X103928255Y-113374597D01*
X103951107Y-113308570D01*
X103976630Y-113282120D01*
X103978708Y-113280524D01*
X103978716Y-113280520D01*
X104090520Y-113168716D01*
X104169577Y-113031784D01*
X104172482Y-113020943D01*
X127799500Y-113020943D01*
X127799500Y-113179057D01*
X127840289Y-113331282D01*
X127840423Y-113331783D01*
X127840426Y-113331790D01*
X127919475Y-113468709D01*
X127919479Y-113468714D01*
X127919480Y-113468716D01*
X128031284Y-113580520D01*
X128031286Y-113580521D01*
X128031290Y-113580524D01*
X128119221Y-113631290D01*
X128168216Y-113659577D01*
X128320943Y-113700500D01*
X128320945Y-113700500D01*
X128479055Y-113700500D01*
X128479057Y-113700500D01*
X128631784Y-113659577D01*
X128768716Y-113580520D01*
X128880520Y-113468716D01*
X128959577Y-113331784D01*
X129000500Y-113179057D01*
X129000500Y-113020943D01*
X128979332Y-112941943D01*
X129299500Y-112941943D01*
X129299500Y-113100057D01*
X129334458Y-113230520D01*
X129340423Y-113252783D01*
X129340426Y-113252790D01*
X129419475Y-113389709D01*
X129419479Y-113389714D01*
X129419480Y-113389716D01*
X129531284Y-113501520D01*
X129531286Y-113501521D01*
X129531290Y-113501524D01*
X129665583Y-113579057D01*
X129668216Y-113580577D01*
X129820943Y-113621500D01*
X129820945Y-113621500D01*
X129979055Y-113621500D01*
X129979057Y-113621500D01*
X130131784Y-113580577D01*
X130268716Y-113501520D01*
X130380520Y-113389716D01*
X130459577Y-113252784D01*
X130500500Y-113100057D01*
X130500500Y-112941943D01*
X130459577Y-112789216D01*
X130426134Y-112731290D01*
X130380524Y-112652290D01*
X130380518Y-112652282D01*
X130268717Y-112540481D01*
X130268709Y-112540475D01*
X130131790Y-112461426D01*
X130131786Y-112461424D01*
X130131784Y-112461423D01*
X129979057Y-112420500D01*
X129820943Y-112420500D01*
X129668216Y-112461423D01*
X129668209Y-112461426D01*
X129531290Y-112540475D01*
X129531282Y-112540481D01*
X129419481Y-112652282D01*
X129419475Y-112652290D01*
X129340426Y-112789209D01*
X129340423Y-112789216D01*
X129299500Y-112941943D01*
X128979332Y-112941943D01*
X128959577Y-112868216D01*
X128934260Y-112824365D01*
X128880524Y-112731290D01*
X128880518Y-112731282D01*
X128768717Y-112619481D01*
X128768709Y-112619475D01*
X128631790Y-112540426D01*
X128631786Y-112540424D01*
X128631784Y-112540423D01*
X128479057Y-112499500D01*
X128320943Y-112499500D01*
X128168216Y-112540423D01*
X128168209Y-112540426D01*
X128031290Y-112619475D01*
X128031282Y-112619481D01*
X127919481Y-112731282D01*
X127919475Y-112731290D01*
X127840426Y-112868209D01*
X127840423Y-112868216D01*
X127799500Y-113020943D01*
X104172482Y-113020943D01*
X104210500Y-112879057D01*
X104210500Y-112720943D01*
X104169577Y-112568216D01*
X104153531Y-112540423D01*
X104090524Y-112431290D01*
X104090518Y-112431282D01*
X103978717Y-112319481D01*
X103978716Y-112319480D01*
X103841784Y-112240423D01*
X103769084Y-112220943D01*
X123699500Y-112220943D01*
X123699500Y-112379057D01*
X123736788Y-112518216D01*
X123740423Y-112531783D01*
X123740426Y-112531790D01*
X123819475Y-112668709D01*
X123819479Y-112668714D01*
X123819480Y-112668716D01*
X123931284Y-112780520D01*
X123931286Y-112780521D01*
X123931290Y-112780524D01*
X124068209Y-112859573D01*
X124068216Y-112859577D01*
X124220943Y-112900500D01*
X124220945Y-112900500D01*
X124379055Y-112900500D01*
X124379057Y-112900500D01*
X124531784Y-112859577D01*
X124668716Y-112780520D01*
X124780520Y-112668716D01*
X124859577Y-112531784D01*
X124900500Y-112379057D01*
X124900500Y-112220943D01*
X124859577Y-112068216D01*
X124829616Y-112016322D01*
X124780524Y-111931290D01*
X124780518Y-111931282D01*
X124668717Y-111819481D01*
X124668709Y-111819475D01*
X124531790Y-111740426D01*
X124531786Y-111740424D01*
X124531784Y-111740423D01*
X124379057Y-111699500D01*
X124220943Y-111699500D01*
X124068216Y-111740423D01*
X124068209Y-111740426D01*
X123931290Y-111819475D01*
X123931282Y-111819481D01*
X123819481Y-111931282D01*
X123819475Y-111931290D01*
X123740426Y-112068209D01*
X123740423Y-112068216D01*
X123699500Y-112220943D01*
X103769084Y-112220943D01*
X103689057Y-112199500D01*
X103530943Y-112199500D01*
X103378216Y-112240423D01*
X103378209Y-112240426D01*
X103241290Y-112319475D01*
X103241282Y-112319481D01*
X103129481Y-112431282D01*
X103129475Y-112431290D01*
X103050426Y-112568209D01*
X103050423Y-112568216D01*
X103009500Y-112720943D01*
X103009500Y-112879057D01*
X103047127Y-113019481D01*
X103050423Y-113031783D01*
X103050425Y-113031788D01*
X103065272Y-113057505D01*
X103081743Y-113125406D01*
X103058890Y-113191432D01*
X103033375Y-113217875D01*
X103031285Y-113219478D01*
X102919481Y-113331282D01*
X102919475Y-113331290D01*
X102840426Y-113468209D01*
X102840423Y-113468216D01*
X102799500Y-113620943D01*
X93339277Y-113620943D01*
X93350500Y-113579057D01*
X93350500Y-113420943D01*
X93309577Y-113268216D01*
X93300671Y-113252790D01*
X93230524Y-113131290D01*
X93230518Y-113131282D01*
X93118717Y-113019481D01*
X93118709Y-113019475D01*
X92981790Y-112940426D01*
X92981786Y-112940424D01*
X92981784Y-112940423D01*
X92829057Y-112899500D01*
X92724500Y-112899500D01*
X92724041Y-112899365D01*
X92723580Y-112899497D01*
X92690497Y-112889515D01*
X92657461Y-112879815D01*
X92657148Y-112879453D01*
X92656688Y-112879315D01*
X92634218Y-112852991D01*
X92611706Y-112827011D01*
X92611533Y-112826416D01*
X92611326Y-112826173D01*
X92610939Y-112824365D01*
X92601635Y-112792236D01*
X92600500Y-112783903D01*
X92600500Y-112670943D01*
X92564815Y-112537765D01*
X100482678Y-112537765D01*
X100482678Y-112695879D01*
X100505358Y-112780520D01*
X100523601Y-112848605D01*
X100523604Y-112848612D01*
X100602653Y-112985531D01*
X100602657Y-112985536D01*
X100602658Y-112985538D01*
X100714462Y-113097342D01*
X100714464Y-113097343D01*
X100714468Y-113097346D01*
X100838088Y-113168717D01*
X100851394Y-113176399D01*
X101004121Y-113217322D01*
X101004123Y-113217322D01*
X101162233Y-113217322D01*
X101162235Y-113217322D01*
X101314962Y-113176399D01*
X101451894Y-113097342D01*
X101563698Y-112985538D01*
X101642755Y-112848606D01*
X101683678Y-112695879D01*
X101683678Y-112537765D01*
X101642755Y-112385038D01*
X101604906Y-112319481D01*
X101563702Y-112248112D01*
X101563696Y-112248104D01*
X101451895Y-112136303D01*
X101451887Y-112136297D01*
X101314968Y-112057248D01*
X101314964Y-112057246D01*
X101314962Y-112057245D01*
X101162235Y-112016322D01*
X101004121Y-112016322D01*
X100851394Y-112057245D01*
X100851387Y-112057248D01*
X100714468Y-112136297D01*
X100714460Y-112136303D01*
X100602659Y-112248104D01*
X100602653Y-112248112D01*
X100523604Y-112385031D01*
X100523601Y-112385038D01*
X100482678Y-112537765D01*
X92564815Y-112537765D01*
X92559577Y-112518216D01*
X92559576Y-112518214D01*
X92557473Y-112510365D01*
X92559809Y-112509739D01*
X92553658Y-112452472D01*
X92584939Y-112389996D01*
X92645031Y-112354349D01*
X92675686Y-112350500D01*
X92829055Y-112350500D01*
X92829057Y-112350500D01*
X92981784Y-112309577D01*
X93118716Y-112230520D01*
X93230520Y-112118716D01*
X93309577Y-111981784D01*
X93350500Y-111829057D01*
X93350500Y-111724500D01*
X93370185Y-111657461D01*
X93422989Y-111611706D01*
X93474500Y-111600500D01*
X93579055Y-111600500D01*
X93579057Y-111600500D01*
X93731784Y-111559577D01*
X93836212Y-111499285D01*
X93904111Y-111482813D01*
X93970138Y-111505666D01*
X94005598Y-111544672D01*
X94019480Y-111568716D01*
X94131284Y-111680520D01*
X94131286Y-111680521D01*
X94131290Y-111680524D01*
X94183211Y-111710500D01*
X94268216Y-111759577D01*
X94420943Y-111800500D01*
X94420945Y-111800500D01*
X94579055Y-111800500D01*
X94579057Y-111800500D01*
X94731784Y-111759577D01*
X94868716Y-111680520D01*
X94980520Y-111568716D01*
X95059577Y-111431784D01*
X95100500Y-111279057D01*
X95100500Y-111120943D01*
X95076385Y-111030943D01*
X120899500Y-111030943D01*
X120899500Y-111189057D01*
X120923616Y-111279057D01*
X120940423Y-111341783D01*
X120940426Y-111341790D01*
X121019475Y-111478709D01*
X121019479Y-111478714D01*
X121019480Y-111478716D01*
X121131284Y-111590520D01*
X121131286Y-111590521D01*
X121131290Y-111590524D01*
X121247230Y-111657461D01*
X121268216Y-111669577D01*
X121420943Y-111710500D01*
X121420945Y-111710500D01*
X121579055Y-111710500D01*
X121579057Y-111710500D01*
X121731784Y-111669577D01*
X121868716Y-111590520D01*
X121980520Y-111478716D01*
X122059577Y-111341784D01*
X122100500Y-111189057D01*
X122100500Y-111030943D01*
X122059577Y-110878216D01*
X122028689Y-110824716D01*
X121980524Y-110741290D01*
X121980518Y-110741282D01*
X121868717Y-110629481D01*
X121868709Y-110629475D01*
X121731790Y-110550426D01*
X121731786Y-110550424D01*
X121731784Y-110550423D01*
X121579057Y-110509500D01*
X121420943Y-110509500D01*
X121268216Y-110550423D01*
X121268209Y-110550426D01*
X121131290Y-110629475D01*
X121131282Y-110629481D01*
X121019481Y-110741282D01*
X121019475Y-110741290D01*
X120940426Y-110878209D01*
X120940423Y-110878216D01*
X120899500Y-111030943D01*
X95076385Y-111030943D01*
X95059577Y-110968216D01*
X95007612Y-110878209D01*
X94980524Y-110831290D01*
X94980518Y-110831282D01*
X94868717Y-110719481D01*
X94868709Y-110719475D01*
X94731790Y-110640426D01*
X94731786Y-110640424D01*
X94731784Y-110640423D01*
X94579057Y-110599500D01*
X94420943Y-110599500D01*
X94268216Y-110640423D01*
X94268215Y-110640423D01*
X94163787Y-110700714D01*
X94095887Y-110717185D01*
X94029860Y-110694333D01*
X93994401Y-110655326D01*
X93980522Y-110631287D01*
X93980518Y-110631282D01*
X93868717Y-110519481D01*
X93868709Y-110519475D01*
X93731790Y-110440426D01*
X93731786Y-110440424D01*
X93731784Y-110440423D01*
X93579057Y-110399500D01*
X93474500Y-110399500D01*
X93465814Y-110396949D01*
X93456853Y-110398238D01*
X93432812Y-110387259D01*
X93407461Y-110379815D01*
X93401533Y-110372974D01*
X93393297Y-110369213D01*
X93379007Y-110346978D01*
X93361706Y-110327011D01*
X93359418Y-110316496D01*
X93355523Y-110310435D01*
X93350500Y-110275500D01*
X93350500Y-110224500D01*
X93370185Y-110157461D01*
X93422989Y-110111706D01*
X93474500Y-110100500D01*
X93579055Y-110100500D01*
X93579057Y-110100500D01*
X93731784Y-110059577D01*
X93868716Y-109980520D01*
X93928293Y-109920943D01*
X107499500Y-109920943D01*
X107499500Y-110079057D01*
X107538472Y-110224500D01*
X107540423Y-110231783D01*
X107540426Y-110231790D01*
X107619475Y-110368709D01*
X107619479Y-110368714D01*
X107619480Y-110368716D01*
X107731284Y-110480520D01*
X107731286Y-110480521D01*
X107731290Y-110480524D01*
X107852366Y-110550426D01*
X107868216Y-110559577D01*
X108020943Y-110600500D01*
X108020945Y-110600500D01*
X108179055Y-110600500D01*
X108179057Y-110600500D01*
X108331784Y-110559577D01*
X108468716Y-110480520D01*
X108580520Y-110368716D01*
X108659577Y-110231784D01*
X108700500Y-110079057D01*
X108700500Y-109920943D01*
X111649500Y-109920943D01*
X111649500Y-110079057D01*
X111688472Y-110224500D01*
X111690423Y-110231783D01*
X111690426Y-110231790D01*
X111769475Y-110368709D01*
X111769479Y-110368714D01*
X111769480Y-110368716D01*
X111881284Y-110480520D01*
X111881286Y-110480521D01*
X111881290Y-110480524D01*
X112002366Y-110550426D01*
X112018216Y-110559577D01*
X112170943Y-110600500D01*
X112170945Y-110600500D01*
X112329055Y-110600500D01*
X112329057Y-110600500D01*
X112481784Y-110559577D01*
X112618716Y-110480520D01*
X112730520Y-110368716D01*
X112809577Y-110231784D01*
X112850500Y-110079057D01*
X112850500Y-109920943D01*
X112809577Y-109768216D01*
X112804589Y-109759577D01*
X112782284Y-109720943D01*
X121699500Y-109720943D01*
X121699500Y-109879057D01*
X121726687Y-109980518D01*
X121740423Y-110031783D01*
X121740426Y-110031790D01*
X121819475Y-110168709D01*
X121819479Y-110168714D01*
X121819480Y-110168716D01*
X121931284Y-110280520D01*
X121931286Y-110280521D01*
X121931290Y-110280524D01*
X122068209Y-110359573D01*
X122068216Y-110359577D01*
X122220943Y-110400500D01*
X122220945Y-110400500D01*
X122379055Y-110400500D01*
X122379057Y-110400500D01*
X122531784Y-110359577D01*
X122668716Y-110280520D01*
X122780520Y-110168716D01*
X122859577Y-110031784D01*
X122900500Y-109879057D01*
X122900500Y-109720943D01*
X122859577Y-109568216D01*
X122831437Y-109519475D01*
X122780524Y-109431290D01*
X122780518Y-109431282D01*
X122668717Y-109319481D01*
X122668709Y-109319475D01*
X122531790Y-109240426D01*
X122531786Y-109240424D01*
X122531784Y-109240423D01*
X122379057Y-109199500D01*
X122220943Y-109199500D01*
X122068216Y-109240423D01*
X122068209Y-109240426D01*
X121931290Y-109319475D01*
X121931282Y-109319481D01*
X121819481Y-109431282D01*
X121819475Y-109431290D01*
X121740426Y-109568209D01*
X121740423Y-109568216D01*
X121699500Y-109720943D01*
X112782284Y-109720943D01*
X112730522Y-109631287D01*
X112730518Y-109631282D01*
X112618717Y-109519481D01*
X112618709Y-109519475D01*
X112481790Y-109440426D01*
X112481786Y-109440424D01*
X112481784Y-109440423D01*
X112329057Y-109399500D01*
X112170943Y-109399500D01*
X112018216Y-109440423D01*
X112018209Y-109440426D01*
X111881290Y-109519475D01*
X111881282Y-109519481D01*
X111769481Y-109631282D01*
X111769475Y-109631290D01*
X111690426Y-109768209D01*
X111690426Y-109768210D01*
X111690423Y-109768216D01*
X111649500Y-109920943D01*
X108700500Y-109920943D01*
X108659577Y-109768216D01*
X108638543Y-109731783D01*
X108580524Y-109631290D01*
X108580518Y-109631282D01*
X108468717Y-109519481D01*
X108468709Y-109519475D01*
X108331790Y-109440426D01*
X108331786Y-109440424D01*
X108331784Y-109440423D01*
X108179057Y-109399500D01*
X108020943Y-109399500D01*
X107868216Y-109440423D01*
X107868209Y-109440426D01*
X107731290Y-109519475D01*
X107731282Y-109519481D01*
X107619481Y-109631282D01*
X107619475Y-109631290D01*
X107540426Y-109768209D01*
X107540426Y-109768210D01*
X107540423Y-109768216D01*
X107499500Y-109920943D01*
X93928293Y-109920943D01*
X93980520Y-109868716D01*
X94059577Y-109731784D01*
X94100500Y-109579057D01*
X94100500Y-109420943D01*
X94059577Y-109268216D01*
X94043531Y-109240423D01*
X94019099Y-109198104D01*
X93987996Y-109144232D01*
X95944345Y-109144232D01*
X95944345Y-109302346D01*
X95981344Y-109440426D01*
X95985268Y-109455072D01*
X95985271Y-109455079D01*
X96064320Y-109591998D01*
X96064324Y-109592003D01*
X96064325Y-109592005D01*
X96176129Y-109703809D01*
X96176131Y-109703810D01*
X96176135Y-109703813D01*
X96272716Y-109759573D01*
X96313061Y-109782866D01*
X96465788Y-109823789D01*
X96465790Y-109823789D01*
X96623900Y-109823789D01*
X96623902Y-109823789D01*
X96776629Y-109782866D01*
X96913561Y-109703809D01*
X97025365Y-109592005D01*
X97059800Y-109532362D01*
X97110364Y-109484147D01*
X97178971Y-109470923D01*
X97243836Y-109496890D01*
X97274573Y-109532362D01*
X97315766Y-109603711D01*
X97315768Y-109603714D01*
X97315769Y-109603715D01*
X97427573Y-109715519D01*
X97427575Y-109715520D01*
X97427579Y-109715523D01*
X97544221Y-109782865D01*
X97564505Y-109794576D01*
X97717232Y-109835499D01*
X97717234Y-109835499D01*
X97875344Y-109835499D01*
X97875346Y-109835499D01*
X98028073Y-109794576D01*
X98165005Y-109715519D01*
X98276809Y-109603715D01*
X98355866Y-109466783D01*
X98396789Y-109314056D01*
X98396789Y-109155942D01*
X98387411Y-109120943D01*
X102399500Y-109120943D01*
X102399500Y-109279057D01*
X102440289Y-109431282D01*
X102440423Y-109431783D01*
X102440426Y-109431790D01*
X102519475Y-109568709D01*
X102519479Y-109568714D01*
X102519480Y-109568716D01*
X102631284Y-109680520D01*
X102631286Y-109680521D01*
X102631290Y-109680524D01*
X102720087Y-109731790D01*
X102768216Y-109759577D01*
X102920943Y-109800500D01*
X102920945Y-109800500D01*
X103079055Y-109800500D01*
X103079057Y-109800500D01*
X103231784Y-109759577D01*
X103368716Y-109680520D01*
X103480520Y-109568716D01*
X103559577Y-109431784D01*
X103600500Y-109279057D01*
X103600500Y-109120943D01*
X103573705Y-109020943D01*
X147199500Y-109020943D01*
X147199500Y-109179057D01*
X147237127Y-109319481D01*
X147240423Y-109331783D01*
X147240426Y-109331790D01*
X147319475Y-109468709D01*
X147319479Y-109468714D01*
X147319480Y-109468716D01*
X147431284Y-109580520D01*
X147431286Y-109580521D01*
X147431290Y-109580524D01*
X147519221Y-109631290D01*
X147568216Y-109659577D01*
X147720943Y-109700500D01*
X147720945Y-109700500D01*
X147879055Y-109700500D01*
X147879057Y-109700500D01*
X148031784Y-109659577D01*
X148168716Y-109580520D01*
X148280520Y-109468716D01*
X148359577Y-109331784D01*
X148400500Y-109179057D01*
X148400500Y-109020943D01*
X148359577Y-108868216D01*
X148358567Y-108866467D01*
X148280524Y-108731290D01*
X148280518Y-108731282D01*
X148168717Y-108619481D01*
X148168709Y-108619475D01*
X148031790Y-108540426D01*
X148031786Y-108540424D01*
X148031784Y-108540423D01*
X147879057Y-108499500D01*
X147720943Y-108499500D01*
X147568216Y-108540423D01*
X147568209Y-108540426D01*
X147431290Y-108619475D01*
X147431282Y-108619481D01*
X147319481Y-108731282D01*
X147319475Y-108731290D01*
X147240426Y-108868209D01*
X147240423Y-108868216D01*
X147199500Y-109020943D01*
X103573705Y-109020943D01*
X103559577Y-108968216D01*
X103539382Y-108933237D01*
X103480524Y-108831290D01*
X103480518Y-108831282D01*
X103368717Y-108719481D01*
X103368709Y-108719475D01*
X103231790Y-108640426D01*
X103231786Y-108640424D01*
X103231784Y-108640423D01*
X103079057Y-108599500D01*
X102920943Y-108599500D01*
X102768216Y-108640423D01*
X102768209Y-108640426D01*
X102631290Y-108719475D01*
X102631282Y-108719481D01*
X102519481Y-108831282D01*
X102519475Y-108831290D01*
X102440426Y-108968209D01*
X102440423Y-108968216D01*
X102399500Y-109120943D01*
X98387411Y-109120943D01*
X98355866Y-109003215D01*
X98335660Y-108968216D01*
X98276813Y-108866289D01*
X98276807Y-108866281D01*
X98165006Y-108754480D01*
X98164998Y-108754474D01*
X98028079Y-108675425D01*
X98028075Y-108675423D01*
X98028073Y-108675422D01*
X97875346Y-108634499D01*
X97717232Y-108634499D01*
X97564505Y-108675422D01*
X97564498Y-108675425D01*
X97427579Y-108754474D01*
X97427571Y-108754480D01*
X97315770Y-108866281D01*
X97315766Y-108866286D01*
X97281334Y-108925925D01*
X97230767Y-108974141D01*
X97162160Y-108987363D01*
X97097295Y-108961395D01*
X97066560Y-108925924D01*
X97025369Y-108854579D01*
X97025363Y-108854571D01*
X96913562Y-108742770D01*
X96913554Y-108742764D01*
X96776635Y-108663715D01*
X96776631Y-108663713D01*
X96776629Y-108663712D01*
X96623902Y-108622789D01*
X96465788Y-108622789D01*
X96313061Y-108663712D01*
X96313054Y-108663715D01*
X96176135Y-108742764D01*
X96176127Y-108742770D01*
X96064326Y-108854571D01*
X96064320Y-108854579D01*
X95985271Y-108991498D01*
X95985268Y-108991505D01*
X95944345Y-109144232D01*
X93987996Y-109144232D01*
X93980524Y-109131290D01*
X93980518Y-109131282D01*
X93868717Y-109019481D01*
X93868709Y-109019475D01*
X93731790Y-108940426D01*
X93731786Y-108940424D01*
X93731784Y-108940423D01*
X93579057Y-108899500D01*
X93474500Y-108899500D01*
X93465814Y-108896949D01*
X93456853Y-108898238D01*
X93432812Y-108887259D01*
X93407461Y-108879815D01*
X93401533Y-108872974D01*
X93393297Y-108869213D01*
X93379007Y-108846978D01*
X93361706Y-108827011D01*
X93359418Y-108816496D01*
X93355523Y-108810435D01*
X93350500Y-108775500D01*
X93350500Y-108724500D01*
X93370185Y-108657461D01*
X93422989Y-108611706D01*
X93474500Y-108600500D01*
X93579055Y-108600500D01*
X93579057Y-108600500D01*
X93731784Y-108559577D01*
X93868716Y-108480520D01*
X93980520Y-108368716D01*
X94059577Y-108231784D01*
X94100500Y-108079057D01*
X94100500Y-107920943D01*
X94059577Y-107768216D01*
X94009391Y-107681290D01*
X93980524Y-107631290D01*
X93980518Y-107631282D01*
X93868717Y-107519481D01*
X93868716Y-107519480D01*
X93731784Y-107440423D01*
X93659084Y-107420943D01*
X107649500Y-107420943D01*
X107649500Y-107579057D01*
X107676295Y-107679055D01*
X107690423Y-107731783D01*
X107690426Y-107731790D01*
X107769475Y-107868709D01*
X107769479Y-107868714D01*
X107769480Y-107868716D01*
X107881284Y-107980520D01*
X107881286Y-107980521D01*
X107881290Y-107980524D01*
X108018209Y-108059573D01*
X108018216Y-108059577D01*
X108170943Y-108100500D01*
X108170945Y-108100500D01*
X108329055Y-108100500D01*
X108329057Y-108100500D01*
X108481784Y-108059577D01*
X108618716Y-107980520D01*
X108730520Y-107868716D01*
X108809577Y-107731784D01*
X108850500Y-107579057D01*
X108850500Y-107420943D01*
X108809577Y-107268216D01*
X108788258Y-107231290D01*
X108730524Y-107131290D01*
X108730518Y-107131282D01*
X108618717Y-107019481D01*
X108618716Y-107019480D01*
X108481784Y-106940423D01*
X108409084Y-106920943D01*
X110499500Y-106920943D01*
X110499500Y-107079057D01*
X110540289Y-107231282D01*
X110540423Y-107231783D01*
X110540426Y-107231790D01*
X110619475Y-107368709D01*
X110619479Y-107368714D01*
X110619480Y-107368716D01*
X110731284Y-107480520D01*
X110731286Y-107480521D01*
X110731290Y-107480524D01*
X110862304Y-107556164D01*
X110868216Y-107559577D01*
X111020943Y-107600500D01*
X111020945Y-107600500D01*
X111179055Y-107600500D01*
X111179057Y-107600500D01*
X111331784Y-107559577D01*
X111468716Y-107480520D01*
X111580520Y-107368716D01*
X111659577Y-107231784D01*
X111700500Y-107079057D01*
X111700500Y-106920943D01*
X111659577Y-106768216D01*
X111630996Y-106718711D01*
X111580524Y-106631290D01*
X111580518Y-106631282D01*
X111468717Y-106519481D01*
X111468709Y-106519475D01*
X111331790Y-106440426D01*
X111331786Y-106440424D01*
X111331784Y-106440423D01*
X111179057Y-106399500D01*
X111020943Y-106399500D01*
X110868216Y-106440423D01*
X110868209Y-106440426D01*
X110731290Y-106519475D01*
X110731282Y-106519481D01*
X110619481Y-106631282D01*
X110619475Y-106631290D01*
X110540426Y-106768209D01*
X110540423Y-106768216D01*
X110499500Y-106920943D01*
X108409084Y-106920943D01*
X108329057Y-106899500D01*
X108170943Y-106899500D01*
X108018216Y-106940423D01*
X108018209Y-106940426D01*
X107881290Y-107019475D01*
X107881282Y-107019481D01*
X107769481Y-107131282D01*
X107769475Y-107131290D01*
X107690426Y-107268209D01*
X107690423Y-107268216D01*
X107649500Y-107420943D01*
X93659084Y-107420943D01*
X93579057Y-107399500D01*
X93474500Y-107399500D01*
X93465814Y-107396949D01*
X93456853Y-107398238D01*
X93432812Y-107387259D01*
X93407461Y-107379815D01*
X93401533Y-107372974D01*
X93393297Y-107369213D01*
X93379007Y-107346978D01*
X93361706Y-107327011D01*
X93359418Y-107316496D01*
X93355523Y-107310435D01*
X93350500Y-107275500D01*
X93350500Y-107224500D01*
X93370185Y-107157461D01*
X93422989Y-107111706D01*
X93474500Y-107100500D01*
X93579055Y-107100500D01*
X93579057Y-107100500D01*
X93731784Y-107059577D01*
X93868716Y-106980520D01*
X93980520Y-106868716D01*
X94059577Y-106731784D01*
X94100500Y-106579057D01*
X94100500Y-106420943D01*
X94059577Y-106268216D01*
X94014666Y-106190427D01*
X93980524Y-106131290D01*
X93980518Y-106131282D01*
X93868717Y-106019481D01*
X93868709Y-106019475D01*
X93731790Y-105940426D01*
X93731786Y-105940424D01*
X93731784Y-105940423D01*
X93579057Y-105899500D01*
X93420943Y-105899500D01*
X93268216Y-105940423D01*
X93268209Y-105940426D01*
X93131290Y-106019475D01*
X93131282Y-106019481D01*
X93019481Y-106131282D01*
X93019475Y-106131290D01*
X92940426Y-106268209D01*
X92940423Y-106268216D01*
X92899500Y-106420943D01*
X92899500Y-106525500D01*
X92896949Y-106534185D01*
X92898238Y-106543147D01*
X92887259Y-106567187D01*
X92879815Y-106592539D01*
X92872974Y-106598466D01*
X92869213Y-106606703D01*
X92846978Y-106620992D01*
X92827011Y-106638294D01*
X92816496Y-106640581D01*
X92810435Y-106644477D01*
X92775500Y-106649500D01*
X92724500Y-106649500D01*
X92657461Y-106629815D01*
X92611706Y-106577011D01*
X92600500Y-106525500D01*
X92600500Y-106420945D01*
X92600500Y-106420943D01*
X92559577Y-106268216D01*
X92514666Y-106190427D01*
X92480524Y-106131290D01*
X92480518Y-106131282D01*
X92368717Y-106019481D01*
X92368709Y-106019475D01*
X92231790Y-105940426D01*
X92231786Y-105940424D01*
X92231784Y-105940423D01*
X92079057Y-105899500D01*
X91920943Y-105899500D01*
X91806093Y-105930274D01*
X91736243Y-105928611D01*
X91678381Y-105889448D01*
X91650877Y-105825220D01*
X91650000Y-105810499D01*
X91650000Y-101073451D01*
X91659377Y-101030402D01*
X91657935Y-101029864D01*
X91659481Y-101025716D01*
X91659484Y-101025710D01*
X91719954Y-100819769D01*
X91719996Y-100819481D01*
X91740533Y-100676639D01*
X91750500Y-100607318D01*
X91750500Y-100607309D01*
X91750569Y-100606344D01*
X91750684Y-100606034D01*
X91751130Y-100602935D01*
X91751803Y-100603031D01*
X91774979Y-100540877D01*
X91830908Y-100499000D01*
X91900599Y-100494008D01*
X91961926Y-100527487D01*
X91981641Y-100553177D01*
X92019477Y-100618712D01*
X92019479Y-100618715D01*
X92019480Y-100618716D01*
X92131284Y-100730520D01*
X92131286Y-100730521D01*
X92131290Y-100730524D01*
X92268209Y-100809573D01*
X92268216Y-100809577D01*
X92420943Y-100850500D01*
X92420945Y-100850500D01*
X92525500Y-100850500D01*
X92534185Y-100853050D01*
X92543147Y-100851762D01*
X92567187Y-100862740D01*
X92592539Y-100870185D01*
X92598466Y-100877025D01*
X92606703Y-100880787D01*
X92620992Y-100903021D01*
X92638294Y-100922989D01*
X92640581Y-100933503D01*
X92644477Y-100939565D01*
X92649500Y-100974500D01*
X92649500Y-101025500D01*
X92629815Y-101092539D01*
X92577011Y-101138294D01*
X92525500Y-101149500D01*
X92420943Y-101149500D01*
X92268216Y-101190423D01*
X92268209Y-101190426D01*
X92131290Y-101269475D01*
X92131282Y-101269481D01*
X92019481Y-101381282D01*
X92019475Y-101381290D01*
X91940426Y-101518209D01*
X91940424Y-101518214D01*
X91940423Y-101518216D01*
X91899500Y-101670943D01*
X91899500Y-101829057D01*
X91924122Y-101920945D01*
X91940423Y-101981783D01*
X91940426Y-101981790D01*
X92019475Y-102118709D01*
X92019479Y-102118714D01*
X92019480Y-102118716D01*
X92131284Y-102230520D01*
X92131286Y-102230521D01*
X92131290Y-102230524D01*
X92251628Y-102300000D01*
X92268216Y-102309577D01*
X92420943Y-102350500D01*
X92420945Y-102350500D01*
X92525500Y-102350500D01*
X92534185Y-102353050D01*
X92543147Y-102351762D01*
X92567187Y-102362740D01*
X92592539Y-102370185D01*
X92598466Y-102377025D01*
X92606703Y-102380787D01*
X92620992Y-102403021D01*
X92638294Y-102422989D01*
X92640581Y-102433503D01*
X92644477Y-102439565D01*
X92649500Y-102474500D01*
X92649500Y-102525500D01*
X92629815Y-102592539D01*
X92577011Y-102638294D01*
X92525500Y-102649500D01*
X92420943Y-102649500D01*
X92268216Y-102690423D01*
X92268209Y-102690426D01*
X92131290Y-102769475D01*
X92131282Y-102769481D01*
X92019481Y-102881282D01*
X92019475Y-102881290D01*
X91940426Y-103018209D01*
X91940423Y-103018216D01*
X91899500Y-103170943D01*
X91899500Y-103329057D01*
X91936788Y-103468216D01*
X91940423Y-103481783D01*
X91940426Y-103481790D01*
X92019475Y-103618709D01*
X92019479Y-103618714D01*
X92019480Y-103618716D01*
X92131284Y-103730520D01*
X92131285Y-103730521D01*
X92131287Y-103730522D01*
X92195531Y-103767613D01*
X92243746Y-103818179D01*
X92256970Y-103886786D01*
X92231002Y-103951651D01*
X92195531Y-103982387D01*
X92131287Y-104019477D01*
X92131282Y-104019481D01*
X92019481Y-104131282D01*
X92019475Y-104131290D01*
X91940426Y-104268209D01*
X91940423Y-104268216D01*
X91899500Y-104420943D01*
X91899500Y-104579057D01*
X91926687Y-104680518D01*
X91940423Y-104731783D01*
X91940426Y-104731790D01*
X92019475Y-104868709D01*
X92019479Y-104868714D01*
X92019480Y-104868716D01*
X92131284Y-104980520D01*
X92131286Y-104980521D01*
X92131290Y-104980524D01*
X92220087Y-105031790D01*
X92268216Y-105059577D01*
X92420943Y-105100500D01*
X92420945Y-105100500D01*
X92579055Y-105100500D01*
X92579057Y-105100500D01*
X92731784Y-105059577D01*
X92868716Y-104980520D01*
X92980520Y-104868716D01*
X93059577Y-104731784D01*
X93070128Y-104692405D01*
X93084621Y-104668629D01*
X93096190Y-104643297D01*
X93102556Y-104639205D01*
X93106494Y-104632746D01*
X93131537Y-104620580D01*
X93154968Y-104605523D01*
X93165716Y-104603977D01*
X93169341Y-104602217D01*
X93189903Y-104600500D01*
X93310097Y-104600500D01*
X93377136Y-104620185D01*
X93422891Y-104672989D01*
X93429870Y-104692400D01*
X93434434Y-104709432D01*
X93440423Y-104731785D01*
X93440426Y-104731790D01*
X93519475Y-104868709D01*
X93519479Y-104868714D01*
X93519480Y-104868716D01*
X93631284Y-104980520D01*
X93631286Y-104980521D01*
X93631290Y-104980524D01*
X93720087Y-105031790D01*
X93768216Y-105059577D01*
X93920943Y-105100500D01*
X93920945Y-105100500D01*
X94079055Y-105100500D01*
X94079057Y-105100500D01*
X94231784Y-105059577D01*
X94368716Y-104980520D01*
X94480520Y-104868716D01*
X94559577Y-104731784D01*
X94600500Y-104579057D01*
X94600500Y-104420943D01*
X94899500Y-104420943D01*
X94899500Y-104579057D01*
X94926687Y-104680518D01*
X94940423Y-104731783D01*
X94940426Y-104731790D01*
X95019475Y-104868709D01*
X95019479Y-104868714D01*
X95019480Y-104868716D01*
X95131284Y-104980520D01*
X95131286Y-104980521D01*
X95131290Y-104980524D01*
X95220087Y-105031790D01*
X95268216Y-105059577D01*
X95420943Y-105100500D01*
X95420945Y-105100500D01*
X95579055Y-105100500D01*
X95579057Y-105100500D01*
X95731784Y-105059577D01*
X95868716Y-104980520D01*
X95980520Y-104868716D01*
X96059577Y-104731784D01*
X96100500Y-104579057D01*
X96100500Y-104420943D01*
X96059577Y-104268216D01*
X96043531Y-104240423D01*
X95980524Y-104131290D01*
X95980518Y-104131282D01*
X95868717Y-104019481D01*
X95868709Y-104019475D01*
X95731790Y-103940426D01*
X95731786Y-103940424D01*
X95731784Y-103940423D01*
X95579057Y-103899500D01*
X95420943Y-103899500D01*
X95268216Y-103940423D01*
X95268209Y-103940426D01*
X95131290Y-104019475D01*
X95131282Y-104019481D01*
X95019481Y-104131282D01*
X95019475Y-104131290D01*
X94940426Y-104268209D01*
X94940423Y-104268216D01*
X94899500Y-104420943D01*
X94600500Y-104420943D01*
X94559577Y-104268216D01*
X94543531Y-104240423D01*
X94480524Y-104131290D01*
X94480518Y-104131282D01*
X94368715Y-104019479D01*
X94344125Y-104005282D01*
X94304467Y-103982386D01*
X94256253Y-103931821D01*
X94243029Y-103863214D01*
X94268997Y-103798349D01*
X94304468Y-103767613D01*
X94368716Y-103730520D01*
X94480520Y-103618716D01*
X94559577Y-103481784D01*
X94600500Y-103329057D01*
X94600500Y-103170943D01*
X94559577Y-103018216D01*
X94552670Y-103006253D01*
X94480524Y-102881290D01*
X94480518Y-102881282D01*
X94368717Y-102769481D01*
X94368709Y-102769475D01*
X94231790Y-102690426D01*
X94231786Y-102690424D01*
X94231784Y-102690423D01*
X94079057Y-102649500D01*
X93974500Y-102649500D01*
X93965814Y-102646949D01*
X93956853Y-102648238D01*
X93932812Y-102637259D01*
X93907461Y-102629815D01*
X93901533Y-102622974D01*
X93893297Y-102619213D01*
X93879007Y-102596978D01*
X93861706Y-102577011D01*
X93859418Y-102566496D01*
X93855523Y-102560435D01*
X93850500Y-102525500D01*
X93850500Y-102474500D01*
X93870185Y-102407461D01*
X93922989Y-102361706D01*
X93974500Y-102350500D01*
X94079055Y-102350500D01*
X94079057Y-102350500D01*
X94231784Y-102309577D01*
X94368716Y-102230520D01*
X94480520Y-102118716D01*
X94559577Y-101981784D01*
X94600500Y-101829057D01*
X94600500Y-101670943D01*
X94559577Y-101518216D01*
X94537816Y-101480524D01*
X94480524Y-101381290D01*
X94480518Y-101381282D01*
X94368717Y-101269481D01*
X94368709Y-101269475D01*
X94231790Y-101190426D01*
X94231786Y-101190424D01*
X94231784Y-101190423D01*
X94079057Y-101149500D01*
X93974500Y-101149500D01*
X93965814Y-101146949D01*
X93956853Y-101148238D01*
X93932812Y-101137259D01*
X93907461Y-101129815D01*
X93901533Y-101122974D01*
X93893297Y-101119213D01*
X93879007Y-101096978D01*
X93861706Y-101077011D01*
X93859418Y-101066496D01*
X93855523Y-101060435D01*
X93850500Y-101025500D01*
X93850500Y-100974500D01*
X93870185Y-100907461D01*
X93922989Y-100861706D01*
X93974500Y-100850500D01*
X94079055Y-100850500D01*
X94079057Y-100850500D01*
X94231784Y-100809577D01*
X94368716Y-100730520D01*
X94480520Y-100618716D01*
X94559577Y-100481784D01*
X94600500Y-100329057D01*
X94600500Y-100170943D01*
X94559577Y-100018216D01*
X94505733Y-99924954D01*
X94480524Y-99881290D01*
X94480518Y-99881282D01*
X94368717Y-99769481D01*
X94368709Y-99769475D01*
X94231790Y-99690426D01*
X94231786Y-99690424D01*
X94231784Y-99690423D01*
X94079057Y-99649500D01*
X93974500Y-99649500D01*
X93965814Y-99646949D01*
X93956853Y-99648238D01*
X93932812Y-99637259D01*
X93907461Y-99629815D01*
X93901533Y-99622974D01*
X93893297Y-99619213D01*
X93879007Y-99596978D01*
X93861706Y-99577011D01*
X93859418Y-99566496D01*
X93855523Y-99560435D01*
X93850500Y-99525500D01*
X93850500Y-99474500D01*
X93870185Y-99407461D01*
X93922989Y-99361706D01*
X93974500Y-99350500D01*
X94079055Y-99350500D01*
X94079057Y-99350500D01*
X94231784Y-99309577D01*
X94368716Y-99230520D01*
X94480520Y-99118716D01*
X94559577Y-98981784D01*
X94600500Y-98829057D01*
X94600500Y-98670943D01*
X94559577Y-98518216D01*
X94552025Y-98505135D01*
X94480524Y-98381290D01*
X94480518Y-98381282D01*
X94368717Y-98269481D01*
X94368712Y-98269477D01*
X94303603Y-98231887D01*
X94255388Y-98181321D01*
X94242164Y-98112714D01*
X94268132Y-98047849D01*
X94325046Y-98007320D01*
X94365603Y-98000500D01*
X97276000Y-98000500D01*
X97343039Y-98020185D01*
G37*
G04 #@! TD.AperFunction*
G04 #@! TD*
M02*
