M48
; DRILL file {KiCad 9.0.0} date 2025-03-11T16:46:41+0200
; FORMAT={-:-/ absolute / metric / decimal}
; #@! TF.CreationDate,2025-03-11T16:46:41+02:00
; #@! TF.GenerationSoftware,Kicad,Pcbnew,9.0.0
; #@! TF.FileFunction,Plated,1,4,PTH
FMAT,2
METRIC
; #@! TA.AperFunction,Plated,PTH,ComponentDrill
T1C0.250
; #@! TA.AperFunction,Plated,PTH,ViaDrill
T2C0.300
; #@! TA.AperFunction,Plated,PTH,ComponentDrill
T3C0.300
; #@! TA.AperFunction,Plated,PTH,ComponentDrill
T4C0.600
; #@! TA.AperFunction,Plated,PTH,ComponentDrill
T5C1.000
%
G90
G05
T1
X130.575Y-106.35
X131.575Y-106.35
T2
X92.0Y-106.5
X92.0Y-108.0
X92.0Y-109.5
X92.0Y-111.0
X92.0Y-112.75
X92.0Y-114.25
X92.0Y-115.75
X92.0Y-118.25
X92.4Y-121.3
X92.5Y-98.75
X92.5Y-100.25
X92.5Y-101.75
X92.5Y-103.25
X92.5Y-104.5
X92.5Y-119.6
X92.75Y-107.25
X92.75Y-108.75
X92.75Y-110.25
X92.75Y-111.75
X92.75Y-113.5
X92.75Y-115.0
X92.75Y-117.0
X93.1Y-115.85
X93.25Y-99.5
X93.25Y-101.0
X93.25Y-102.5
X93.25Y-104.0
X93.5Y-106.5
X93.5Y-108.0
X93.5Y-109.5
X93.5Y-111.0
X94.0Y-98.75
X94.0Y-100.25
X94.0Y-101.75
X94.0Y-103.25
X94.0Y-104.5
X94.1Y-113.6
X94.1Y-114.4
X94.35Y-116.85
X94.5Y-111.2
X94.6Y-107.6
X94.6Y-118.85
X95.5Y-104.5
X95.5Y-103.4
X95.7Y-107.6
X96.545Y-109.223
X96.8Y-107.6
X97.1Y-115.7
X97.2Y-121.1
X97.416Y-104.191
X97.796Y-109.235
X97.8Y-114.6
X98.25Y-99.0
X98.25Y-99.75
X98.25Y-100.5
X98.25Y-105.0
X98.5Y-104.2
X98.65Y-115.25
X98.9Y-121.0
X99.0Y-99.0
X99.0Y-99.75
X99.0Y-100.5
X99.01Y-113.6
X99.5Y-117.3
X99.55Y-104.2
X99.55Y-105.2
X99.75Y-99.0
X99.75Y-99.75
X100.45Y-121.35
X100.5Y-99.0
X100.5Y-99.75
X100.5Y-117.2
X101.083Y-112.617
X101.41Y-113.5
X101.6Y-114.4
X102.9Y-103.7
X103.0Y-109.2
X103.4Y-113.7
X103.61Y-112.8
X105.1Y-114.0
X105.15Y-121.4
X105.175Y-118.3
X105.7Y-111.6
X106.1Y-113.4
X106.5Y-111.6
X106.7Y-98.725
X106.9Y-118.2
X108.1Y-110.0
X108.25Y-107.5
X108.375Y-118.4
X109.7Y-119.8
X111.1Y-107.0
X112.25Y-110.0
X112.75Y-119.0
X113.75Y-119.0
X114.182Y-114.11
X114.5Y-104.8
X114.75Y-119.0
X115.5Y-114.7
X115.6Y-117.9
X116.6Y-115.0
X117.87Y-115.202
X117.87Y-116.802
X119.45Y-119.9
X119.57Y-115.902
X120.65Y-119.9
X120.85Y-115.1
X121.5Y-111.11
X122.3Y-109.8
X123.8Y-119.1
X124.3Y-112.3
X124.4Y-116.0
X125.7Y-117.8
X125.706Y-116.75
X125.9Y-115.2
X126.5Y-119.3
X127.0Y-100.75
X127.0Y-101.5
X127.0Y-102.25
X127.0Y-103.0
X127.0Y-103.75
X127.0Y-104.5
X127.0Y-105.25
X127.0Y-106.25
X127.0Y-107.0
X127.0Y-107.75
X127.75Y-100.75
X127.75Y-101.5
X127.75Y-104.5
X128.4Y-113.1
X128.5Y-100.75
X128.5Y-101.5
X128.778Y-115.122
X128.9Y-119.0
X129.25Y-100.75
X129.25Y-101.5
X129.656Y-116.0
X129.84Y-104.86
X129.9Y-113.021
X130.0Y-119.3
X130.5Y-98.75
X130.5Y-99.75
X130.5Y-100.75
X131.2Y-119.0
X131.5Y-98.75
X131.5Y-99.75
X131.5Y-100.75
X131.7Y-114.0
X132.5Y-100.75
X132.575Y-102.3
X132.6Y-117.6
X133.3Y-106.0
X133.3Y-115.3
X133.435Y-104.06
X133.5Y-100.75
X134.25Y-102.0
X134.3Y-107.6
X134.5Y-100.75
X135.25Y-102.0
X135.5Y-100.75
X136.46Y-116.0
X136.5Y-100.75
X137.73Y-116.0
X137.75Y-102.25
X138.512Y-101.75
X138.512Y-102.75
X139.0Y-116.0
X139.762Y-101.75
X139.762Y-102.75
X140.27Y-116.0
X141.1Y-105.8
X141.54Y-116.0
X142.81Y-116.0
X144.08Y-116.0
X144.512Y-106.75
X144.512Y-108.0
X145.35Y-116.0
X146.7Y-101.3
X146.9Y-114.64
X147.8Y-109.1
X147.9Y-114.64
X149.8Y-100.8
X150.5Y-103.2
X150.5Y-108.05
X151.3Y-119.6
X152.0Y-119.0
X152.8Y-101.0
T3
X91.025Y-103.35
T5
X109.4Y-100.2
X109.4Y-102.74
X113.09Y-100.235
X113.09Y-102.775
X133.325Y-99.4
X135.865Y-99.4
X140.4Y-99.4
X142.94Y-99.4
X148.65Y-117.275
X148.65Y-119.815
X154.75Y-101.0
X154.75Y-110.0
X154.75Y-119.0
T4
G00X116.48Y-100.95
M15
G01X116.48Y-100.35
M16
G05
G00X116.48Y-105.38
M15
G01X116.48Y-104.28
M16
G05
G00X125.12Y-100.95
M15
G01X125.12Y-100.35
M16
G05
G00X125.12Y-105.38
M15
G01X125.12Y-104.28
M16
G05
M30
