G04 #@! TF.GenerationSoftware,KiCad,Pcbnew,9.0.0*
G04 #@! TF.CreationDate,2025-03-11T16:46:41+02:00*
G04 #@! TF.ProjectId,Plant-health-meter,506c616e-742d-4686-9561-6c74682d6d65,rev?*
G04 #@! TF.SameCoordinates,Original*
G04 #@! TF.FileFunction,Copper,L1,Top*
G04 #@! TF.FilePolarity,Positive*
%FSLAX46Y46*%
G04 Gerber Fmt 4.6, Leading zero omitted, Abs format (unit mm)*
G04 Created by KiCad (PCBNEW 9.0.0) date 2025-03-11 16:46:41*
%MOMM*%
%LPD*%
G01*
G04 APERTURE LIST*
G04 Aperture macros list*
%AMRoundRect*
0 Rectangle with rounded corners*
0 $1 Rounding radius*
0 $2 $3 $4 $5 $6 $7 $8 $9 X,Y pos of 4 corners*
0 Add a 4 corners polygon primitive as box body*
4,1,4,$2,$3,$4,$5,$6,$7,$8,$9,$2,$3,0*
0 Add four circle primitives for the rounded corners*
1,1,$1+$1,$2,$3*
1,1,$1+$1,$4,$5*
1,1,$1+$1,$6,$7*
1,1,$1+$1,$8,$9*
0 Add four rect primitives between the rounded corners*
20,1,$1+$1,$2,$3,$4,$5,0*
20,1,$1+$1,$4,$5,$6,$7,0*
20,1,$1+$1,$6,$7,$8,$9,0*
20,1,$1+$1,$8,$9,$2,$3,0*%
G04 Aperture macros list end*
G04 #@! TA.AperFunction,EtchedComponent*
%ADD10C,0.000000*%
G04 #@! TD*
G04 #@! TA.AperFunction,SMDPad,CuDef*
%ADD11RoundRect,0.218750X-0.218750X-0.381250X0.218750X-0.381250X0.218750X0.381250X-0.218750X0.381250X0*%
G04 #@! TD*
G04 #@! TA.AperFunction,SMDPad,CuDef*
%ADD12RoundRect,0.135000X0.185000X-0.135000X0.185000X0.135000X-0.185000X0.135000X-0.185000X-0.135000X0*%
G04 #@! TD*
G04 #@! TA.AperFunction,SMDPad,CuDef*
%ADD13RoundRect,0.140000X-0.170000X0.140000X-0.170000X-0.140000X0.170000X-0.140000X0.170000X0.140000X0*%
G04 #@! TD*
G04 #@! TA.AperFunction,SMDPad,CuDef*
%ADD14C,1.000000*%
G04 #@! TD*
G04 #@! TA.AperFunction,SMDPad,CuDef*
%ADD15RoundRect,0.135000X-0.185000X0.135000X-0.185000X-0.135000X0.185000X-0.135000X0.185000X0.135000X0*%
G04 #@! TD*
G04 #@! TA.AperFunction,SMDPad,CuDef*
%ADD16RoundRect,0.140000X0.170000X-0.140000X0.170000X0.140000X-0.170000X0.140000X-0.170000X-0.140000X0*%
G04 #@! TD*
G04 #@! TA.AperFunction,SMDPad,CuDef*
%ADD17RoundRect,0.218750X0.218750X0.381250X-0.218750X0.381250X-0.218750X-0.381250X0.218750X-0.381250X0*%
G04 #@! TD*
G04 #@! TA.AperFunction,SMDPad,CuDef*
%ADD18RoundRect,0.175000X-0.525000X-0.825000X0.525000X-0.825000X0.525000X0.825000X-0.525000X0.825000X0*%
G04 #@! TD*
G04 #@! TA.AperFunction,SMDPad,CuDef*
%ADD19RoundRect,0.150000X-0.550000X-0.450000X0.550000X-0.450000X0.550000X0.450000X-0.550000X0.450000X0*%
G04 #@! TD*
G04 #@! TA.AperFunction,SMDPad,CuDef*
%ADD20RoundRect,0.062500X-0.337500X-0.062500X0.337500X-0.062500X0.337500X0.062500X-0.337500X0.062500X0*%
G04 #@! TD*
G04 #@! TA.AperFunction,SMDPad,CuDef*
%ADD21RoundRect,0.062500X-0.062500X-0.337500X0.062500X-0.337500X0.062500X0.337500X-0.062500X0.337500X0*%
G04 #@! TD*
G04 #@! TA.AperFunction,HeatsinkPad*
%ADD22R,3.700000X3.700000*%
G04 #@! TD*
G04 #@! TA.AperFunction,SMDPad,CuDef*
%ADD23R,0.250000X1.100000*%
G04 #@! TD*
G04 #@! TA.AperFunction,SMDPad,CuDef*
%ADD24RoundRect,0.200000X0.275000X-0.200000X0.275000X0.200000X-0.275000X0.200000X-0.275000X-0.200000X0*%
G04 #@! TD*
G04 #@! TA.AperFunction,ComponentPad*
%ADD25R,1.700000X1.700000*%
G04 #@! TD*
G04 #@! TA.AperFunction,ComponentPad*
%ADD26O,1.700000X1.700000*%
G04 #@! TD*
G04 #@! TA.AperFunction,SMDPad,CuDef*
%ADD27RoundRect,0.150000X-0.150000X0.512500X-0.150000X-0.512500X0.150000X-0.512500X0.150000X0.512500X0*%
G04 #@! TD*
G04 #@! TA.AperFunction,SMDPad,CuDef*
%ADD28RoundRect,0.225000X0.250000X-0.225000X0.250000X0.225000X-0.250000X0.225000X-0.250000X-0.225000X0*%
G04 #@! TD*
G04 #@! TA.AperFunction,SMDPad,CuDef*
%ADD29RoundRect,0.250000X-0.450000X0.325000X-0.450000X-0.325000X0.450000X-0.325000X0.450000X0.325000X0*%
G04 #@! TD*
G04 #@! TA.AperFunction,SMDPad,CuDef*
%ADD30RoundRect,0.087500X-0.487500X-0.087500X0.487500X-0.087500X0.487500X0.087500X-0.487500X0.087500X0*%
G04 #@! TD*
G04 #@! TA.AperFunction,SMDPad,CuDef*
%ADD31RoundRect,0.050000X-0.675000X-0.050000X0.675000X-0.050000X0.675000X0.050000X-0.675000X0.050000X0*%
G04 #@! TD*
G04 #@! TA.AperFunction,SMDPad,CuDef*
%ADD32RoundRect,0.062500X-0.162500X-0.062500X0.162500X-0.062500X0.162500X0.062500X-0.162500X0.062500X0*%
G04 #@! TD*
G04 #@! TA.AperFunction,SMDPad,CuDef*
%ADD33R,0.600000X1.450000*%
G04 #@! TD*
G04 #@! TA.AperFunction,SMDPad,CuDef*
%ADD34R,0.300000X1.450000*%
G04 #@! TD*
G04 #@! TA.AperFunction,HeatsinkPad*
%ADD35O,1.000000X2.100000*%
G04 #@! TD*
G04 #@! TA.AperFunction,HeatsinkPad*
%ADD36O,1.000000X1.600000*%
G04 #@! TD*
G04 #@! TA.AperFunction,SMDPad,CuDef*
%ADD37RoundRect,0.250000X-0.475000X0.250000X-0.475000X-0.250000X0.475000X-0.250000X0.475000X0.250000X0*%
G04 #@! TD*
G04 #@! TA.AperFunction,SMDPad,CuDef*
%ADD38RoundRect,0.225000X0.225000X0.250000X-0.225000X0.250000X-0.225000X-0.250000X0.225000X-0.250000X0*%
G04 #@! TD*
G04 #@! TA.AperFunction,SMDPad,CuDef*
%ADD39RoundRect,0.135000X-0.135000X-0.185000X0.135000X-0.185000X0.135000X0.185000X-0.135000X0.185000X0*%
G04 #@! TD*
G04 #@! TA.AperFunction,ComponentPad*
%ADD40RoundRect,0.250000X0.893000X0.512000X-0.893000X0.512000X-0.893000X-0.512000X0.893000X-0.512000X0*%
G04 #@! TD*
G04 #@! TA.AperFunction,ComponentPad*
%ADD41RoundRect,0.381000X0.762000X0.381000X-0.762000X0.381000X-0.762000X-0.381000X0.762000X-0.381000X0*%
G04 #@! TD*
G04 #@! TA.AperFunction,ConnectorPad*
%ADD42R,0.500000X0.500000*%
G04 #@! TD*
G04 #@! TA.AperFunction,ComponentPad*
%ADD43R,0.500000X0.900000*%
G04 #@! TD*
G04 #@! TA.AperFunction,SMDPad,CuDef*
%ADD44RoundRect,0.140000X-0.140000X-0.170000X0.140000X-0.170000X0.140000X0.170000X-0.140000X0.170000X0*%
G04 #@! TD*
G04 #@! TA.AperFunction,SMDPad,CuDef*
%ADD45RoundRect,0.150000X-0.587500X-0.150000X0.587500X-0.150000X0.587500X0.150000X-0.587500X0.150000X0*%
G04 #@! TD*
G04 #@! TA.AperFunction,SMDPad,CuDef*
%ADD46RoundRect,0.200000X-0.800000X0.200000X-0.800000X-0.200000X0.800000X-0.200000X0.800000X0.200000X0*%
G04 #@! TD*
G04 #@! TA.AperFunction,SMDPad,CuDef*
%ADD47RoundRect,0.093750X0.176777X-0.044194X-0.044194X0.176777X-0.176777X0.044194X0.044194X-0.176777X0*%
G04 #@! TD*
G04 #@! TA.AperFunction,SMDPad,CuDef*
%ADD48RoundRect,0.075000X0.229810X-0.123744X-0.123744X0.229810X-0.229810X0.123744X0.123744X-0.229810X0*%
G04 #@! TD*
G04 #@! TA.AperFunction,SMDPad,CuDef*
%ADD49RoundRect,0.225000X-0.250000X0.225000X-0.250000X-0.225000X0.250000X-0.225000X0.250000X0.225000X0*%
G04 #@! TD*
G04 #@! TA.AperFunction,SMDPad,CuDef*
%ADD50RoundRect,0.112500X-0.112500X0.187500X-0.112500X-0.187500X0.112500X-0.187500X0.112500X0.187500X0*%
G04 #@! TD*
G04 #@! TA.AperFunction,SMDPad,CuDef*
%ADD51RoundRect,0.140000X0.140000X0.170000X-0.140000X0.170000X-0.140000X-0.170000X0.140000X-0.170000X0*%
G04 #@! TD*
G04 #@! TA.AperFunction,SMDPad,CuDef*
%ADD52RoundRect,0.125000X-0.125000X-0.125000X0.125000X-0.125000X0.125000X0.125000X-0.125000X0.125000X0*%
G04 #@! TD*
G04 #@! TA.AperFunction,SMDPad,CuDef*
%ADD53RoundRect,0.062500X0.062500X-0.187500X0.062500X0.187500X-0.062500X0.187500X-0.062500X-0.187500X0*%
G04 #@! TD*
G04 #@! TA.AperFunction,ComponentPad*
%ADD54C,0.600000*%
G04 #@! TD*
G04 #@! TA.AperFunction,SMDPad,CuDef*
%ADD55R,1.600000X0.900000*%
G04 #@! TD*
G04 #@! TA.AperFunction,SMDPad,CuDef*
%ADD56R,0.350000X0.500000*%
G04 #@! TD*
G04 #@! TA.AperFunction,SMDPad,CuDef*
%ADD57RoundRect,0.075000X0.075000X-0.362500X0.075000X0.362500X-0.075000X0.362500X-0.075000X-0.362500X0*%
G04 #@! TD*
G04 #@! TA.AperFunction,SMDPad,CuDef*
%ADD58RoundRect,0.075000X0.362500X-0.075000X0.362500X0.075000X-0.362500X0.075000X-0.362500X-0.075000X0*%
G04 #@! TD*
G04 #@! TA.AperFunction,HeatsinkPad*
%ADD59R,2.450000X2.450000*%
G04 #@! TD*
G04 #@! TA.AperFunction,SMDPad,CuDef*
%ADD60RoundRect,0.135000X0.135000X0.185000X-0.135000X0.185000X-0.135000X-0.185000X0.135000X-0.185000X0*%
G04 #@! TD*
G04 #@! TA.AperFunction,SMDPad,CuDef*
%ADD61RoundRect,0.150000X0.150000X-0.512500X0.150000X0.512500X-0.150000X0.512500X-0.150000X-0.512500X0*%
G04 #@! TD*
G04 #@! TA.AperFunction,SMDPad,CuDef*
%ADD62RoundRect,0.250000X0.375000X0.850000X-0.375000X0.850000X-0.375000X-0.850000X0.375000X-0.850000X0*%
G04 #@! TD*
G04 #@! TA.AperFunction,SMDPad,CuDef*
%ADD63R,0.740000X2.400000*%
G04 #@! TD*
G04 #@! TA.AperFunction,SMDPad,CuDef*
%ADD64RoundRect,0.250000X-0.325000X-0.450000X0.325000X-0.450000X0.325000X0.450000X-0.325000X0.450000X0*%
G04 #@! TD*
G04 #@! TA.AperFunction,SMDPad,CuDef*
%ADD65RoundRect,0.140000X0.021213X-0.219203X0.219203X-0.021213X-0.021213X0.219203X-0.219203X0.021213X0*%
G04 #@! TD*
G04 #@! TA.AperFunction,SMDPad,CuDef*
%ADD66RoundRect,0.200000X-0.275000X0.200000X-0.275000X-0.200000X0.275000X-0.200000X0.275000X0.200000X0*%
G04 #@! TD*
G04 #@! TA.AperFunction,SMDPad,CuDef*
%ADD67RoundRect,0.250000X0.475000X-0.250000X0.475000X0.250000X-0.475000X0.250000X-0.475000X-0.250000X0*%
G04 #@! TD*
G04 #@! TA.AperFunction,SMDPad,CuDef*
%ADD68RoundRect,0.250000X-0.450000X0.262500X-0.450000X-0.262500X0.450000X-0.262500X0.450000X0.262500X0*%
G04 #@! TD*
G04 #@! TA.AperFunction,SMDPad,CuDef*
%ADD69R,1.400000X1.200000*%
G04 #@! TD*
G04 #@! TA.AperFunction,SMDPad,CuDef*
%ADD70RoundRect,0.147500X-0.226274X-0.017678X-0.017678X-0.226274X0.226274X0.017678X0.017678X0.226274X0*%
G04 #@! TD*
G04 #@! TA.AperFunction,SMDPad,CuDef*
%ADD71RoundRect,0.147500X0.147500X0.172500X-0.147500X0.172500X-0.147500X-0.172500X0.147500X-0.172500X0*%
G04 #@! TD*
G04 #@! TA.AperFunction,SMDPad,CuDef*
%ADD72RoundRect,0.250000X0.450000X-0.325000X0.450000X0.325000X-0.450000X0.325000X-0.450000X-0.325000X0*%
G04 #@! TD*
G04 #@! TA.AperFunction,ViaPad*
%ADD73C,0.600000*%
G04 #@! TD*
G04 #@! TA.AperFunction,Conductor*
%ADD74C,0.400000*%
G04 #@! TD*
G04 #@! TA.AperFunction,Conductor*
%ADD75C,0.300000*%
G04 #@! TD*
G04 #@! TA.AperFunction,Conductor*
%ADD76C,0.200000*%
G04 #@! TD*
G04 #@! TA.AperFunction,Conductor*
%ADD77C,0.180000*%
G04 #@! TD*
G04 #@! TA.AperFunction,Conductor*
%ADD78C,0.500000*%
G04 #@! TD*
G04 #@! TA.AperFunction,Conductor*
%ADD79C,0.320000*%
G04 #@! TD*
G04 APERTURE END LIST*
D10*
G04 #@! TA.AperFunction,EtchedComponent*
G04 #@! TO.C,AE1*
G36*
X91031785Y-102900000D02*
G01*
X91275000Y-102900000D01*
X91275000Y-103800000D01*
X86375000Y-103800000D01*
X86375000Y-105200000D01*
X91275000Y-105200000D01*
X91275000Y-105700000D01*
X86375000Y-105700000D01*
X86375000Y-107400000D01*
X89015000Y-107400000D01*
X89015000Y-110400000D01*
X86375000Y-110400000D01*
X86375000Y-112100000D01*
X89015000Y-112100000D01*
X89015000Y-115100000D01*
X86375000Y-115100000D01*
X86375000Y-116800000D01*
X90315000Y-116800000D01*
X90315000Y-117300000D01*
X85875000Y-117300000D01*
X85875000Y-114600000D01*
X88515000Y-114600000D01*
X88515000Y-112600000D01*
X85875000Y-112600000D01*
X85875000Y-109900000D01*
X88515000Y-109900000D01*
X88515000Y-107900000D01*
X85875000Y-107900000D01*
X85875000Y-103342733D01*
X90877018Y-103342733D01*
X90883592Y-103392318D01*
X90903687Y-103437628D01*
X90936357Y-103472888D01*
X90968583Y-103489782D01*
X91016842Y-103498222D01*
X91066368Y-103491691D01*
X91111553Y-103471132D01*
X91146787Y-103437489D01*
X91157400Y-103418878D01*
X91170300Y-103373363D01*
X91171043Y-103324844D01*
X91158935Y-103282181D01*
X91154581Y-103274269D01*
X91121797Y-103236326D01*
X91079395Y-103212258D01*
X91031785Y-103202417D01*
X90983378Y-103207153D01*
X90938584Y-103226815D01*
X90901814Y-103261755D01*
X90884908Y-103294647D01*
X90877018Y-103342733D01*
X85875000Y-103342733D01*
X85875000Y-102900000D01*
X91031785Y-102900000D01*
G37*
G04 #@! TD.AperFunction*
G04 #@! TD*
D11*
G04 #@! TO.P,L2,1,1*
G04 #@! TO.N,VBUS*
X123737500Y-108100000D03*
G04 #@! TO.P,L2,2,2*
G04 #@! TO.N,+5V*
X125862500Y-108100000D03*
G04 #@! TD*
D12*
G04 #@! TO.P,R24,1*
G04 #@! TO.N,/ADC/Soil_cap*
X151000000Y-116909999D03*
G04 #@! TO.P,R24,2*
G04 #@! TO.N,Net-(D7-K)*
X151000000Y-115890001D03*
G04 #@! TD*
D13*
G04 #@! TO.P,C29,1*
G04 #@! TO.N,/ADC/Soil_cap*
X151000000Y-117840000D03*
G04 #@! TO.P,C29,2*
G04 #@! TO.N,GND*
X151000000Y-118800000D03*
G04 #@! TD*
D14*
G04 #@! TO.P,TP3,1,1*
G04 #@! TO.N,/ADC/Light level*
X124500000Y-120100000D03*
G04 #@! TD*
G04 #@! TO.P,TP4,1,1*
G04 #@! TO.N,/ADC/Soil_cap*
X126100000Y-121400000D03*
G04 #@! TD*
D15*
G04 #@! TO.P,R19,1*
G04 #@! TO.N,/Sensors/V_out*
X122000000Y-119090001D03*
G04 #@! TO.P,R19,2*
G04 #@! TO.N,/ADC/Light level*
X122000000Y-120109999D03*
G04 #@! TD*
D16*
G04 #@! TO.P,C27,1*
G04 #@! TO.N,/ADC/Light level*
X123000000Y-120080000D03*
G04 #@! TO.P,C27,2*
G04 #@! TO.N,GND*
X123000000Y-119120000D03*
G04 #@! TD*
D12*
G04 #@! TO.P,R26,1*
G04 #@! TO.N,GND*
X115700000Y-117109999D03*
G04 #@! TO.P,R26,2*
G04 #@! TO.N,Net-(U9-AIN2)*
X115700000Y-116090001D03*
G04 #@! TD*
D15*
G04 #@! TO.P,R25,1*
G04 #@! TO.N,+BATT*
X116700000Y-116090001D03*
G04 #@! TO.P,R25,2*
G04 #@! TO.N,Net-(U9-AIN2)*
X116700000Y-117109999D03*
G04 #@! TD*
D17*
G04 #@! TO.P,L1,1,1*
G04 #@! TO.N,+BATT*
X143612498Y-102300000D03*
G04 #@! TO.P,L1,2,2*
G04 #@! TO.N,/PWR/Boost_Ind*
X141487498Y-102300000D03*
G04 #@! TD*
D15*
G04 #@! TO.P,R4,1*
G04 #@! TO.N,GND*
X114700000Y-105590001D03*
G04 #@! TO.P,R4,2*
G04 #@! TO.N,Net-(J5-CC2)*
X114700000Y-106609999D03*
G04 #@! TD*
D16*
G04 #@! TO.P,C28,1*
G04 #@! TO.N,GND*
X147000000Y-113719999D03*
G04 #@! TO.P,C28,2*
G04 #@! TO.N,Net-(D7-K)*
X147000000Y-112759999D03*
G04 #@! TD*
D18*
G04 #@! TO.P,D6,1,K*
G04 #@! TO.N,Net-(D6-K)*
X119650000Y-110200000D03*
D19*
G04 #@! TO.P,D6,2,A*
G04 #@! TO.N,GND*
X113550000Y-110200000D03*
G04 #@! TD*
D20*
G04 #@! TO.P,U6,1,LNA_IN*
G04 #@! TO.N,Net-(U6-LNA_IN)*
X100550000Y-107450000D03*
G04 #@! TO.P,U6,2,VDD3P3*
G04 #@! TO.N,+3.3VA*
X100550000Y-107950000D03*
G04 #@! TO.P,U6,3,VDD3P3*
X100550000Y-108450000D03*
G04 #@! TO.P,U6,4,XTAL_32K_P*
G04 #@! TO.N,/ADC/SDA*
X100550000Y-108950000D03*
G04 #@! TO.P,U6,5,XTAL_32K_N*
G04 #@! TO.N,/ADC/SCL*
X100550000Y-109450000D03*
G04 #@! TO.P,U6,6,GPIO2*
G04 #@! TO.N,unconnected-(U6-GPIO2-Pad6)*
X100550000Y-109950000D03*
G04 #@! TO.P,U6,7,CHIP_EN*
G04 #@! TO.N,Net-(U6-CHIP_EN)*
X100550000Y-110450000D03*
G04 #@! TO.P,U6,8,GPIO3*
G04 #@! TO.N,/ADC/ALERT*
X100550000Y-110950000D03*
D21*
G04 #@! TO.P,U6,9,MTMS*
G04 #@! TO.N,/ESP_32/SOIL_PWM*
X101250000Y-111650000D03*
G04 #@! TO.P,U6,10,MTDI*
G04 #@! TO.N,/ESP_32/Battery_stat*
X101750000Y-111650000D03*
G04 #@! TO.P,U6,11,VDD3P3_RTC*
G04 #@! TO.N,+3.3V*
X102250000Y-111650000D03*
G04 #@! TO.P,U6,12,MTCK*
G04 #@! TO.N,Net-(J6-Pin_1)*
X102750000Y-111650000D03*
G04 #@! TO.P,U6,13,MTDO*
G04 #@! TO.N,Net-(J6-Pin_2)*
X103250000Y-111650000D03*
G04 #@! TO.P,U6,14,GPIO8*
G04 #@! TO.N,unconnected-(U6-GPIO8-Pad14)*
X103750000Y-111650000D03*
G04 #@! TO.P,U6,15,GPIO9*
G04 #@! TO.N,Net-(U6-GPIO9)*
X104250000Y-111650000D03*
G04 #@! TO.P,U6,16,GPIO10*
G04 #@! TO.N,/ESP_32/IO_INT*
X104750000Y-111650000D03*
D20*
G04 #@! TO.P,U6,17,VDD3P3_CPU*
G04 #@! TO.N,+3.3V*
X105450000Y-110950000D03*
G04 #@! TO.P,U6,18,VDD_SPI*
X105450000Y-110450000D03*
G04 #@! TO.P,U6,19,SPIHD*
G04 #@! TO.N,unconnected-(U6-SPIHD-Pad19)*
X105450000Y-109950000D03*
G04 #@! TO.P,U6,20,SPIWP*
G04 #@! TO.N,unconnected-(U6-SPIWP-Pad20)*
X105450000Y-109450000D03*
G04 #@! TO.P,U6,21,SPICS0*
G04 #@! TO.N,unconnected-(U6-SPICS0-Pad21)*
X105450000Y-108950000D03*
G04 #@! TO.P,U6,22,SPICLK*
G04 #@! TO.N,unconnected-(U6-SPICLK-Pad22)*
X105450000Y-108450000D03*
G04 #@! TO.P,U6,23,SPID*
G04 #@! TO.N,unconnected-(U6-SPID-Pad23)*
X105450000Y-107950000D03*
G04 #@! TO.P,U6,24,SPIQ*
G04 #@! TO.N,unconnected-(U6-SPIQ-Pad24)*
X105450000Y-107450000D03*
D21*
G04 #@! TO.P,U6,25,GPIO18*
G04 #@! TO.N,/ESP_32/USB_D-*
X104750000Y-106750000D03*
G04 #@! TO.P,U6,26,GPIO19*
G04 #@! TO.N,/ESP_32/USB_D+*
X104250000Y-106750000D03*
G04 #@! TO.P,U6,27,U0RXD*
G04 #@! TO.N,unconnected-(U6-U0RXD-Pad27)*
X103750000Y-106750000D03*
G04 #@! TO.P,U6,28,U0TXD*
G04 #@! TO.N,/ESP_32/DEBUG*
X103250000Y-106750000D03*
G04 #@! TO.P,U6,29,XTAL_N*
G04 #@! TO.N,Net-(U6-XTAL_N)*
X102750000Y-106750000D03*
G04 #@! TO.P,U6,30,XTAL_P*
G04 #@! TO.N,Net-(U6-XTAL_P)*
X102250000Y-106750000D03*
G04 #@! TO.P,U6,31,VDDA*
G04 #@! TO.N,+3.3V*
X101750000Y-106750000D03*
G04 #@! TO.P,U6,32,VDDA*
X101250000Y-106750000D03*
D22*
G04 #@! TO.P,U6,33,GND*
G04 #@! TO.N,GND*
X103000000Y-109200000D03*
G04 #@! TD*
D15*
G04 #@! TO.P,R7,1*
G04 #@! TO.N,/PWR/Boost_VD*
X143199999Y-106650000D03*
G04 #@! TO.P,R7,2*
G04 #@! TO.N,GND*
X143199999Y-107669998D03*
G04 #@! TD*
D23*
G04 #@! TO.P,U9,1,ADDR*
G04 #@! TO.N,GND*
X112179998Y-120287500D03*
G04 #@! TO.P,U9,2,ALERT/RDY*
G04 #@! TO.N,/ADC/ALERT*
X112679998Y-120287500D03*
G04 #@! TO.P,U9,3,GND*
G04 #@! TO.N,GND*
X113179998Y-120287501D03*
G04 #@! TO.P,U9,4,AIN0*
G04 #@! TO.N,/ADC/Soil_cap*
X113679998Y-120287500D03*
G04 #@! TO.P,U9,5,AIN1*
G04 #@! TO.N,/ADC/Light level*
X114179998Y-120287500D03*
G04 #@! TO.P,U9,6,AIN2*
G04 #@! TO.N,Net-(U9-AIN2)*
X114179998Y-115987500D03*
G04 #@! TO.P,U9,7,AIN3*
G04 #@! TO.N,unconnected-(U9-AIN3-Pad7)*
X113679998Y-115987500D03*
G04 #@! TO.P,U9,8,VDD*
G04 #@! TO.N,+3.3V*
X113179998Y-115987499D03*
G04 #@! TO.P,U9,9,SDA*
G04 #@! TO.N,/ADC/SDA*
X112679998Y-115987500D03*
G04 #@! TO.P,U9,10,SCL*
G04 #@! TO.N,/ADC/SCL*
X112179998Y-115987500D03*
G04 #@! TD*
D12*
G04 #@! TO.P,R6,1*
G04 #@! TO.N,/PWR/source*
X142099999Y-107669998D03*
G04 #@! TO.P,R6,2*
G04 #@! TO.N,/PWR/Boost_VD*
X142099999Y-106650000D03*
G04 #@! TD*
D24*
G04 #@! TO.P,R1,1*
G04 #@! TO.N,Net-(D1-A)*
X149400000Y-108050000D03*
G04 #@! TO.P,R1,2*
G04 #@! TO.N,/PWR/charge*
X149400000Y-106400000D03*
G04 #@! TD*
D25*
G04 #@! TO.P,J6,1,Pin_1*
G04 #@! TO.N,Net-(J6-Pin_1)*
X109400000Y-100200000D03*
D26*
G04 #@! TO.P,J6,2,Pin_2*
G04 #@! TO.N,Net-(J6-Pin_2)*
X109400000Y-102740000D03*
G04 #@! TD*
D27*
G04 #@! TO.P,U1,1,~{CHRG}*
G04 #@! TO.N,Net-(D2-K)*
X147650000Y-102362500D03*
G04 #@! TO.P,U1,2,GND*
G04 #@! TO.N,GND*
X146700000Y-102362500D03*
G04 #@! TO.P,U1,3,BAT*
G04 #@! TO.N,+BATT*
X145750000Y-102362500D03*
G04 #@! TO.P,U1,4,V_{CC}*
G04 #@! TO.N,/PWR/charge*
X145750000Y-104637500D03*
G04 #@! TO.P,U1,5,STDBY*
G04 #@! TO.N,Net-(D1-K)*
X146700000Y-104637500D03*
G04 #@! TO.P,U1,6,PROG*
G04 #@! TO.N,Net-(U1-PROG)*
X147650000Y-104637500D03*
G04 #@! TD*
D28*
G04 #@! TO.P,C6,1*
G04 #@! TO.N,+5V*
X127750000Y-110975000D03*
G04 #@! TO.P,C6,2*
G04 #@! TO.N,GND*
X127750000Y-109425000D03*
G04 #@! TD*
D29*
G04 #@! TO.P,D4,1,K*
G04 #@! TO.N,Net-(D4-K)*
X95500001Y-100250001D03*
G04 #@! TO.P,D4,2,A*
G04 #@! TO.N,+3.3V*
X95500001Y-102299999D03*
G04 #@! TD*
D30*
G04 #@! TO.P,U2,1,GND*
G04 #@! TO.N,GND*
X140374999Y-104000000D03*
D31*
G04 #@! TO.P,U2,2,SW*
G04 #@! TO.N,/PWR/Boost_Ind*
X140524999Y-104550000D03*
D30*
G04 #@! TO.P,U2,3,VOUT*
G04 #@! TO.N,/PWR/source*
X140374999Y-105100000D03*
D32*
G04 #@! TO.P,U2,4,FB*
G04 #@! TO.N,/PWR/Boost_VD*
X141974999Y-105300000D03*
G04 #@! TO.P,U2,5,EN*
G04 #@! TO.N,+3.3V*
X141974999Y-104800000D03*
G04 #@! TO.P,U2,6,MODE*
G04 #@! TO.N,GND*
X141974999Y-104300000D03*
G04 #@! TO.P,U2,7,VIN*
G04 #@! TO.N,+BATT*
X141974999Y-103800000D03*
G04 #@! TD*
D33*
G04 #@! TO.P,J5,A1,GND*
G04 #@! TO.N,GND*
X124050000Y-105745000D03*
G04 #@! TO.P,J5,A4,VBUS*
G04 #@! TO.N,VBUS*
X123250000Y-105745000D03*
D34*
G04 #@! TO.P,J5,A5,CC1*
G04 #@! TO.N,Net-(J5-CC1)*
X122050000Y-105745000D03*
G04 #@! TO.P,J5,A6,D+*
G04 #@! TO.N,/PWR/D+*
X121050000Y-105745000D03*
G04 #@! TO.P,J5,A7,D-*
G04 #@! TO.N,/PWR/D-*
X120550000Y-105745000D03*
G04 #@! TO.P,J5,A8*
G04 #@! TO.N,N/C*
X119550000Y-105745000D03*
D33*
G04 #@! TO.P,J5,A9,VBUS*
G04 #@! TO.N,VBUS*
X118350000Y-105745000D03*
G04 #@! TO.P,J5,A12,GND*
G04 #@! TO.N,GND*
X117550000Y-105745000D03*
G04 #@! TO.P,J5,B1,GND*
X117550000Y-105745000D03*
G04 #@! TO.P,J5,B4,VBUS*
G04 #@! TO.N,VBUS*
X118350000Y-105745000D03*
D34*
G04 #@! TO.P,J5,B5,CC2*
G04 #@! TO.N,Net-(J5-CC2)*
X119050000Y-105745000D03*
G04 #@! TO.P,J5,B6,D+*
G04 #@! TO.N,/PWR/D+*
X120050000Y-105745000D03*
G04 #@! TO.P,J5,B7,D-*
G04 #@! TO.N,/PWR/D-*
X121550000Y-105745000D03*
G04 #@! TO.P,J5,B8*
G04 #@! TO.N,N/C*
X122550000Y-105745000D03*
D33*
G04 #@! TO.P,J5,B9,VBUS*
G04 #@! TO.N,VBUS*
X123250000Y-105745000D03*
G04 #@! TO.P,J5,B12,GND*
G04 #@! TO.N,GND*
X124050000Y-105745000D03*
D35*
G04 #@! TO.P,J5,S1,SHIELD*
X125120000Y-104830000D03*
D36*
X125120000Y-100650000D03*
D35*
X116480000Y-104830000D03*
D36*
X116480000Y-100650000D03*
G04 #@! TD*
D37*
G04 #@! TO.P,C8,1*
G04 #@! TO.N,+3.3V*
X128674999Y-105500007D03*
G04 #@! TO.P,C8,2*
G04 #@! TO.N,GND*
X128674999Y-107400005D03*
G04 #@! TD*
D38*
G04 #@! TO.P,C7,1*
G04 #@! TO.N,/PWR/LOAD*
X130849999Y-109050003D03*
G04 #@! TO.P,C7,2*
G04 #@! TO.N,GND*
X129299999Y-109050003D03*
G04 #@! TD*
D39*
G04 #@! TO.P,R11,1*
G04 #@! TO.N,Net-(D5-K)*
X104940002Y-98750001D03*
G04 #@! TO.P,R11,2*
G04 #@! TO.N,GND*
X105960000Y-98750001D03*
G04 #@! TD*
D25*
G04 #@! TO.P,J1,1,Pin_1*
G04 #@! TO.N,+3.3V*
X113090175Y-102775000D03*
D26*
G04 #@! TO.P,J1,2,Pin_2*
G04 #@! TO.N,GND*
X113090175Y-100235000D03*
G04 #@! TD*
D12*
G04 #@! TO.P,R13,1*
G04 #@! TO.N,Net-(U6-XTAL_P)*
X102300000Y-105450000D03*
G04 #@! TO.P,R13,2*
G04 #@! TO.N,Net-(C11-Pad2)*
X102300000Y-104430000D03*
G04 #@! TD*
G04 #@! TO.P,R17,1*
G04 #@! TO.N,+3.3V*
X99050000Y-112710000D03*
G04 #@! TO.P,R17,2*
G04 #@! TO.N,Net-(U6-CHIP_EN)*
X99050000Y-111690000D03*
G04 #@! TD*
D25*
G04 #@! TO.P,J2,1,Pin_1*
G04 #@! TO.N,+3.3V*
X148650000Y-117275000D03*
D26*
G04 #@! TO.P,J2,2,Pin_2*
G04 #@! TO.N,GND*
X148650000Y-119815000D03*
G04 #@! TD*
D13*
G04 #@! TO.P,C14,1*
G04 #@! TO.N,+3.3VA*
X98800000Y-108375000D03*
G04 #@! TO.P,C14,2*
G04 #@! TO.N,GND*
X98800000Y-109335000D03*
G04 #@! TD*
D40*
G04 #@! TO.P,S1,1,1*
G04 #@! TO.N,/Sensors/sensor_cap*
X154750000Y-110000000D03*
D41*
G04 #@! TO.P,S1,2*
G04 #@! TO.N,GND*
X154750000Y-119000000D03*
X154750000Y-101000000D03*
G04 #@! TD*
D16*
G04 #@! TO.P,C19,1*
G04 #@! TO.N,+3.3V*
X100300000Y-105410000D03*
G04 #@! TO.P,C19,2*
G04 #@! TO.N,GND*
X100300000Y-104450000D03*
G04 #@! TD*
D42*
G04 #@! TO.P,AE1,1,A*
G04 #@! TO.N,Net-(AE1-A)*
X91025000Y-105450000D03*
D43*
G04 #@! TO.P,AE1,2,Shield*
G04 #@! TO.N,GND*
X91025000Y-103350000D03*
G04 #@! TD*
D44*
G04 #@! TO.P,C26,1*
G04 #@! TO.N,+3.3V*
X118590000Y-115012499D03*
G04 #@! TO.P,C26,2*
G04 #@! TO.N,GND*
X119550000Y-115012499D03*
G04 #@! TD*
D45*
G04 #@! TO.P,Q1,1,G*
G04 #@! TO.N,Net-(Q1-G)*
X136412499Y-107450000D03*
G04 #@! TO.P,Q1,2,S*
G04 #@! TO.N,/PWR/LOAD*
X136412499Y-109350000D03*
G04 #@! TO.P,Q1,3,D*
G04 #@! TO.N,/PWR/source*
X138287500Y-108400000D03*
G04 #@! TD*
D46*
G04 #@! TO.P,SW1,1,1*
G04 #@! TO.N,Net-(U6-GPIO9)*
X106900000Y-117300000D03*
G04 #@! TO.P,SW1,2,2*
G04 #@! TO.N,GND*
X106900000Y-121500000D03*
G04 #@! TD*
D12*
G04 #@! TO.P,R9,1*
G04 #@! TO.N,+3.3V*
X132574998Y-104060001D03*
G04 #@! TO.P,R9,2*
G04 #@! TO.N,Net-(U5-PG)*
X132574998Y-103040003D03*
G04 #@! TD*
D14*
G04 #@! TO.P,TP1,1,1*
G04 #@! TO.N,/ADC/SDA*
X97000000Y-110500000D03*
G04 #@! TD*
D39*
G04 #@! TO.P,R14,1*
G04 #@! TO.N,+3.3V*
X94090001Y-112700000D03*
G04 #@! TO.P,R14,2*
G04 #@! TO.N,/ADC/SDA*
X95109999Y-112700000D03*
G04 #@! TD*
D47*
G04 #@! TO.P,U3,1,I/O1*
G04 #@! TO.N,/PWR/D-*
X111820971Y-107481111D03*
D48*
G04 #@! TO.P,U3,2,GND*
G04 #@! TO.N,GND*
X112254074Y-107154074D03*
D47*
G04 #@! TO.P,U3,3,I/O2*
G04 #@! TO.N,/PWR/D+*
X112581111Y-106720971D03*
G04 #@! TO.P,U3,4,I/O2*
G04 #@! TO.N,/ESP_32/USB_D+*
X111379029Y-105518889D03*
D48*
G04 #@! TO.P,U3,5,VBUS*
G04 #@! TO.N,VBUS*
X110945926Y-105845926D03*
D47*
G04 #@! TO.P,U3,6,I/O1*
G04 #@! TO.N,/ESP_32/USB_D-*
X110618889Y-106279029D03*
G04 #@! TD*
D16*
G04 #@! TO.P,C18,1*
G04 #@! TO.N,Net-(U6-LNA_IN)*
X98800000Y-107085000D03*
G04 #@! TO.P,C18,2*
G04 #@! TO.N,GND*
X98800000Y-106125000D03*
G04 #@! TD*
D49*
G04 #@! TO.P,C1,1*
G04 #@! TO.N,/PWR/charge*
X147800000Y-106450000D03*
G04 #@! TO.P,C1,2*
G04 #@! TO.N,GND*
X147800000Y-108000000D03*
G04 #@! TD*
D50*
G04 #@! TO.P,D3,1,K*
G04 #@! TO.N,/PWR/LOAD*
X134324999Y-109300001D03*
G04 #@! TO.P,D3,2,A*
G04 #@! TO.N,+5V*
X134324999Y-111400001D03*
G04 #@! TD*
D13*
G04 #@! TO.P,C11,1*
G04 #@! TO.N,GND*
X98650000Y-101520000D03*
G04 #@! TO.P,C11,2*
G04 #@! TO.N,Net-(C11-Pad2)*
X98650000Y-102480000D03*
G04 #@! TD*
D51*
G04 #@! TO.P,C5,1*
G04 #@! TO.N,+5V*
X124580000Y-109500000D03*
G04 #@! TO.P,C5,2*
G04 #@! TO.N,GND*
X123620000Y-109500000D03*
G04 #@! TD*
D44*
G04 #@! TO.P,C10,1*
G04 #@! TO.N,GND*
X101370000Y-99400000D03*
G04 #@! TO.P,C10,2*
G04 #@! TO.N,Net-(U6-XTAL_N)*
X102330000Y-99400000D03*
G04 #@! TD*
D13*
G04 #@! TO.P,C24,1*
G04 #@! TO.N,+3.3V*
X93750000Y-118870000D03*
G04 #@! TO.P,C24,2*
G04 #@! TO.N,GND*
X93750000Y-119830000D03*
G04 #@! TD*
D16*
G04 #@! TO.P,C9,1*
G04 #@! TO.N,GND*
X109150000Y-118380000D03*
G04 #@! TO.P,C9,2*
G04 #@! TO.N,Net-(U6-GPIO9)*
X109150000Y-117420000D03*
G04 #@! TD*
D51*
G04 #@! TO.P,C32,1*
G04 #@! TO.N,+3.3V*
X126186250Y-115950000D03*
G04 #@! TO.P,C32,2*
G04 #@! TO.N,GND*
X125226250Y-115950000D03*
G04 #@! TD*
D16*
G04 #@! TO.P,C21,1*
G04 #@! TO.N,+3.3V*
X101300000Y-105410000D03*
G04 #@! TO.P,C21,2*
G04 #@! TO.N,GND*
X101300000Y-104450000D03*
G04 #@! TD*
D46*
G04 #@! TO.P,SW2,1,1*
G04 #@! TO.N,Net-(U6-CHIP_EN)*
X102200000Y-117250000D03*
G04 #@! TO.P,SW2,2,2*
G04 #@! TO.N,GND*
X102200000Y-121450000D03*
G04 #@! TD*
D14*
G04 #@! TO.P,TP2,1,1*
G04 #@! TO.N,/ADC/SCL*
X97500000Y-112500000D03*
G04 #@! TD*
D44*
G04 #@! TO.P,C30,1*
G04 #@! TO.N,+3.3V*
X113720000Y-114700000D03*
G04 #@! TO.P,C30,2*
G04 #@! TO.N,GND*
X114680000Y-114700000D03*
G04 #@! TD*
D13*
G04 #@! TO.P,C22,1*
G04 #@! TO.N,Net-(U6-CHIP_EN)*
X104450000Y-117370000D03*
G04 #@! TO.P,C22,2*
G04 #@! TO.N,GND*
X104450000Y-118330000D03*
G04 #@! TD*
D52*
G04 #@! TO.P,D7,1,K*
G04 #@! TO.N,Net-(D7-K)*
X149299998Y-114250000D03*
G04 #@! TO.P,D7,2,A*
G04 #@! TO.N,/Sensors/sensor_cap*
X151499996Y-114250000D03*
G04 #@! TD*
D53*
G04 #@! TO.P,U5,1,PGND*
G04 #@! TO.N,GND*
X130324998Y-107300002D03*
G04 #@! TO.P,U5,2,VIN*
G04 #@! TO.N,/PWR/LOAD*
X130824999Y-107300002D03*
G04 #@! TO.P,U5,3,EN*
X131324999Y-107300002D03*
G04 #@! TO.P,U5,4,AGND*
G04 #@! TO.N,GND*
X131825000Y-107300002D03*
G04 #@! TO.P,U5,5,FB*
X131825000Y-105400002D03*
G04 #@! TO.P,U5,6,VOS*
G04 #@! TO.N,+3.3V*
X131324999Y-105400002D03*
G04 #@! TO.P,U5,7,SW*
G04 #@! TO.N,/PWR/Buck_ind*
X130824999Y-105400002D03*
G04 #@! TO.P,U5,8,PG*
G04 #@! TO.N,Net-(U5-PG)*
X130324998Y-105400002D03*
D54*
G04 #@! TO.P,U5,9,PAD*
G04 #@! TO.N,GND*
X130575000Y-106350002D03*
D55*
X131074999Y-106350002D03*
D54*
X131574998Y-106350002D03*
G04 #@! TD*
D12*
G04 #@! TO.P,R23,1*
G04 #@! TO.N,GND*
X147999999Y-113749998D03*
G04 #@! TO.P,R23,2*
G04 #@! TO.N,Net-(D7-K)*
X147999999Y-112730000D03*
G04 #@! TD*
D24*
G04 #@! TO.P,R20,1*
G04 #@! TO.N,+3.3V*
X97250000Y-120150000D03*
G04 #@! TO.P,R20,2*
G04 #@! TO.N,Net-(U8-SDO)*
X97250000Y-118500000D03*
G04 #@! TD*
D56*
G04 #@! TO.P,U8,1,GND*
G04 #@! TO.N,GND*
X93799999Y-115800000D03*
G04 #@! TO.P,U8,2,CSB*
G04 #@! TO.N,+3.3V*
X94450000Y-115800000D03*
G04 #@! TO.P,U8,3,SDI*
G04 #@! TO.N,/ADC/SDA*
X95100000Y-115800000D03*
G04 #@! TO.P,U8,4,SCK*
G04 #@! TO.N,/ADC/SCL*
X95750001Y-115800000D03*
G04 #@! TO.P,U8,5,SDO*
G04 #@! TO.N,Net-(U8-SDO)*
X95750001Y-117850000D03*
G04 #@! TO.P,U8,6,VDDIO*
G04 #@! TO.N,+3.3V*
X95100000Y-117850000D03*
G04 #@! TO.P,U8,7,GND*
G04 #@! TO.N,GND*
X94450000Y-117850000D03*
G04 #@! TO.P,U8,8,VDD*
G04 #@! TO.N,+3.3V*
X93799999Y-117850000D03*
G04 #@! TD*
D13*
G04 #@! TO.P,C23,1*
G04 #@! TO.N,+3.3V*
X95350000Y-118870000D03*
G04 #@! TO.P,C23,2*
G04 #@! TO.N,GND*
X95350000Y-119830000D03*
G04 #@! TD*
D57*
G04 #@! TO.P,U10,1,P00*
G04 #@! TO.N,Net-(J7-Pin_1)*
X128406250Y-117937500D03*
G04 #@! TO.P,U10,2,P01*
G04 #@! TO.N,Net-(J7-Pin_2)*
X128906250Y-117937499D03*
G04 #@! TO.P,U10,3,P02*
G04 #@! TO.N,Net-(J7-Pin_3)*
X129406250Y-117937500D03*
G04 #@! TO.P,U10,4,P03*
G04 #@! TO.N,Net-(J7-Pin_4)*
X129906250Y-117937500D03*
G04 #@! TO.P,U10,5,P04*
G04 #@! TO.N,Net-(J7-Pin_5)*
X130406250Y-117937499D03*
G04 #@! TO.P,U10,6,P05*
G04 #@! TO.N,Net-(J7-Pin_6)*
X130906250Y-117937500D03*
D58*
G04 #@! TO.P,U10,7,P06*
G04 #@! TO.N,Net-(J7-Pin_7)*
X131593750Y-117250000D03*
G04 #@! TO.P,U10,8,P07*
G04 #@! TO.N,Net-(J7-Pin_8)*
X131593749Y-116750000D03*
G04 #@! TO.P,U10,9,GND*
G04 #@! TO.N,GND*
X131593750Y-116250000D03*
G04 #@! TO.P,U10,10,P10*
G04 #@! TO.N,Net-(J7-Pin_9)*
X131593750Y-115750000D03*
G04 #@! TO.P,U10,11,P11*
G04 #@! TO.N,Net-(J7-Pin_10)*
X131593749Y-115250000D03*
G04 #@! TO.P,U10,12,P12*
G04 #@! TO.N,Net-(J7-Pin_11)*
X131593750Y-114750000D03*
D57*
G04 #@! TO.P,U10,13,P13*
G04 #@! TO.N,Net-(J7-Pin_12)*
X130906250Y-114062500D03*
G04 #@! TO.P,U10,14,P14*
G04 #@! TO.N,Net-(J7-Pin_13)*
X130406250Y-114062501D03*
G04 #@! TO.P,U10,15,P15*
G04 #@! TO.N,Net-(J7-Pin_14)*
X129906250Y-114062500D03*
G04 #@! TO.P,U10,16,P16*
G04 #@! TO.N,Net-(J7-Pin_15)*
X129406250Y-114062500D03*
G04 #@! TO.P,U10,17,P17*
G04 #@! TO.N,Net-(J7-Pin_16)*
X128906250Y-114062501D03*
G04 #@! TO.P,U10,18,A0*
G04 #@! TO.N,GND*
X128406250Y-114062500D03*
D58*
G04 #@! TO.P,U10,19,SCL*
G04 #@! TO.N,/ADC/SCL*
X127718750Y-114750000D03*
G04 #@! TO.P,U10,20,SDA*
G04 #@! TO.N,/ADC/SDA*
X127718751Y-115250000D03*
G04 #@! TO.P,U10,21,VCC*
G04 #@! TO.N,+3.3V*
X127718750Y-115750000D03*
G04 #@! TO.P,U10,22,~{INT}*
G04 #@! TO.N,/ESP_32/IO_INT*
X127718750Y-116250000D03*
G04 #@! TO.P,U10,23,A1*
G04 #@! TO.N,GND*
X127718751Y-116750000D03*
G04 #@! TO.P,U10,24,A2*
G04 #@! TO.N,+3.3V*
X127718750Y-117250000D03*
D59*
G04 #@! TO.P,U10,25,EPAD*
G04 #@! TO.N,GND*
X129656250Y-116000000D03*
G04 #@! TD*
D13*
G04 #@! TO.P,C17,1*
G04 #@! TO.N,+3.3V*
X102300000Y-112970000D03*
G04 #@! TO.P,C17,2*
G04 #@! TO.N,GND*
X102300000Y-113930000D03*
G04 #@! TD*
G04 #@! TO.P,C4,1*
G04 #@! TO.N,VBUS*
X122492502Y-108104300D03*
G04 #@! TO.P,C4,2*
G04 #@! TO.N,GND*
X122492502Y-109064300D03*
G04 #@! TD*
D60*
G04 #@! TO.P,R10,1*
G04 #@! TO.N,Net-(D4-K)*
X96000000Y-98799999D03*
G04 #@! TO.P,R10,2*
G04 #@! TO.N,GND*
X94980002Y-98799999D03*
G04 #@! TD*
D15*
G04 #@! TO.P,R18,1*
G04 #@! TO.N,Net-(D6-K)*
X123320003Y-116002502D03*
G04 #@! TO.P,R18,2*
G04 #@! TO.N,/Sensors/V_out*
X123320003Y-117022500D03*
G04 #@! TD*
D12*
G04 #@! TO.P,R15,1*
G04 #@! TO.N,+3.3V*
X96800000Y-114909999D03*
G04 #@! TO.P,R15,2*
G04 #@! TO.N,/ADC/SCL*
X96800000Y-113890001D03*
G04 #@! TD*
D49*
G04 #@! TO.P,C12,1*
G04 #@! TO.N,+3.3V*
X94500000Y-108625000D03*
G04 #@! TO.P,C12,2*
G04 #@! TO.N,GND*
X94500000Y-110175000D03*
G04 #@! TD*
D27*
G04 #@! TO.P,U4,1,VIN*
G04 #@! TO.N,/PWR/source*
X136324998Y-103112500D03*
G04 #@! TO.P,U4,2,GND*
G04 #@! TO.N,GND*
X135374999Y-103112500D03*
G04 #@! TO.P,U4,3,CTL*
X134425000Y-103112500D03*
G04 #@! TO.P,U4,4,STAT*
G04 #@! TO.N,/ESP_32/Battery_stat*
X134425000Y-105387500D03*
G04 #@! TO.P,U4,5,GATE*
G04 #@! TO.N,Net-(Q1-G)*
X135374999Y-105387500D03*
G04 #@! TO.P,U4,6,SENSE*
G04 #@! TO.N,/PWR/LOAD*
X136324998Y-105387500D03*
G04 #@! TD*
D61*
G04 #@! TO.P,U7,1*
G04 #@! TO.N,/Sensors/V_out*
X118600002Y-118750000D03*
G04 #@! TO.P,U7,2,V-*
G04 #@! TO.N,GND*
X119550001Y-118750000D03*
G04 #@! TO.P,U7,3,+*
X120500000Y-118750000D03*
G04 #@! TO.P,U7,4,-*
G04 #@! TO.N,Net-(D6-K)*
X120500000Y-116475000D03*
G04 #@! TO.P,U7,5,V+*
G04 #@! TO.N,+3.3V*
X118600002Y-116475000D03*
G04 #@! TD*
D60*
G04 #@! TO.P,R12,1*
G04 #@! TO.N,+3.3V*
X105609999Y-113300000D03*
G04 #@! TO.P,R12,2*
G04 #@! TO.N,Net-(U6-GPIO9)*
X104590001Y-113300000D03*
G04 #@! TD*
D13*
G04 #@! TO.P,C31,1*
G04 #@! TO.N,+3.3V*
X126506250Y-117470000D03*
G04 #@! TO.P,C31,2*
G04 #@! TO.N,GND*
X126506250Y-118430000D03*
G04 #@! TD*
D62*
G04 #@! TO.P,L3,1,1*
G04 #@! TO.N,/PWR/Buck_ind*
X130749999Y-103250000D03*
G04 #@! TO.P,L3,2,2*
G04 #@! TO.N,+3.3V*
X128599999Y-103250000D03*
G04 #@! TD*
D63*
G04 #@! TO.P,J7,1,Pin_1*
G04 #@! TO.N,Net-(J7-Pin_1)*
X136460000Y-119900000D03*
G04 #@! TO.P,J7,2,Pin_2*
G04 #@! TO.N,Net-(J7-Pin_2)*
X136460000Y-116000000D03*
G04 #@! TO.P,J7,3,Pin_3*
G04 #@! TO.N,Net-(J7-Pin_3)*
X137730000Y-119900000D03*
G04 #@! TO.P,J7,4,Pin_4*
G04 #@! TO.N,Net-(J7-Pin_4)*
X137730000Y-116000000D03*
G04 #@! TO.P,J7,5,Pin_5*
G04 #@! TO.N,Net-(J7-Pin_5)*
X139000000Y-119900000D03*
G04 #@! TO.P,J7,6,Pin_6*
G04 #@! TO.N,Net-(J7-Pin_6)*
X139000000Y-116000000D03*
G04 #@! TO.P,J7,7,Pin_7*
G04 #@! TO.N,Net-(J7-Pin_7)*
X140270000Y-119900000D03*
G04 #@! TO.P,J7,8,Pin_8*
G04 #@! TO.N,Net-(J7-Pin_8)*
X140270000Y-116000000D03*
G04 #@! TO.P,J7,9,Pin_9*
G04 #@! TO.N,Net-(J7-Pin_9)*
X141540000Y-119900000D03*
G04 #@! TO.P,J7,10,Pin_10*
G04 #@! TO.N,Net-(J7-Pin_10)*
X141540000Y-116000000D03*
G04 #@! TO.P,J7,11,Pin_11*
G04 #@! TO.N,Net-(J7-Pin_11)*
X142810000Y-119900000D03*
G04 #@! TO.P,J7,12,Pin_12*
G04 #@! TO.N,Net-(J7-Pin_12)*
X142810000Y-116000000D03*
G04 #@! TO.P,J7,13,Pin_13*
G04 #@! TO.N,Net-(J7-Pin_13)*
X144080000Y-119900000D03*
G04 #@! TO.P,J7,14,Pin_14*
G04 #@! TO.N,Net-(J7-Pin_14)*
X144080000Y-116000000D03*
G04 #@! TO.P,J7,15,Pin_15*
G04 #@! TO.N,Net-(J7-Pin_15)*
X145350000Y-119900000D03*
G04 #@! TO.P,J7,16,Pin_16*
G04 #@! TO.N,Net-(J7-Pin_16)*
X145350000Y-116000000D03*
G04 #@! TD*
D64*
G04 #@! TO.P,D2,1,K*
G04 #@! TO.N,Net-(D2-K)*
X147175001Y-99600000D03*
G04 #@! TO.P,D2,2,A*
G04 #@! TO.N,Net-(D1-A)*
X149224999Y-99600000D03*
G04 #@! TD*
D65*
G04 #@! TO.P,C20,1*
G04 #@! TO.N,Net-(AE1-A)*
X96192876Y-105414590D03*
G04 #@! TO.P,C20,2*
G04 #@! TO.N,GND*
X96871698Y-104735768D03*
G04 #@! TD*
D66*
G04 #@! TO.P,R2,1*
G04 #@! TO.N,GND*
X149400000Y-103175000D03*
G04 #@! TO.P,R2,2*
G04 #@! TO.N,Net-(U1-PROG)*
X149400000Y-104825000D03*
G04 #@! TD*
D49*
G04 #@! TO.P,C2,1*
G04 #@! TO.N,+BATT*
X144099999Y-103875000D03*
G04 #@! TO.P,C2,2*
G04 #@! TO.N,GND*
X144099999Y-105425000D03*
G04 #@! TD*
D39*
G04 #@! TO.P,R8,1*
G04 #@! TO.N,+3.3V*
X133390001Y-106900000D03*
G04 #@! TO.P,R8,2*
G04 #@! TO.N,/ESP_32/Battery_stat*
X134409999Y-106900000D03*
G04 #@! TD*
D25*
G04 #@! TO.P,J3,1,Pin_1*
G04 #@! TO.N,+BATT*
X140400000Y-99400000D03*
D26*
G04 #@! TO.P,J3,2,Pin_2*
X142940000Y-99400000D03*
G04 #@! TD*
D67*
G04 #@! TO.P,C3,1*
G04 #@! TO.N,/PWR/source*
X138449999Y-105549999D03*
G04 #@! TO.P,C3,2*
G04 #@! TO.N,GND*
X138449999Y-103650001D03*
G04 #@! TD*
D12*
G04 #@! TO.P,R5,1*
G04 #@! TO.N,GND*
X121452502Y-109114299D03*
G04 #@! TO.P,R5,2*
G04 #@! TO.N,Net-(J5-CC1)*
X121452502Y-108094301D03*
G04 #@! TD*
D68*
G04 #@! TO.P,R3,1*
G04 #@! TO.N,/PWR/charge*
X146000000Y-106437500D03*
G04 #@! TO.P,R3,2*
G04 #@! TO.N,+5V*
X146000000Y-108262500D03*
G04 #@! TD*
D69*
G04 #@! TO.P,Y1,1,1*
G04 #@! TO.N,Net-(C11-Pad2)*
X100200000Y-102550000D03*
G04 #@! TO.P,Y1,2,2*
G04 #@! TO.N,GND*
X102400000Y-102550000D03*
G04 #@! TO.P,Y1,3,3*
G04 #@! TO.N,Net-(U6-XTAL_N)*
X102400000Y-100850000D03*
G04 #@! TO.P,Y1,4,4*
G04 #@! TO.N,GND*
X100200000Y-100850000D03*
G04 #@! TD*
D39*
G04 #@! TO.P,R16,1*
G04 #@! TO.N,+3.3V*
X109690001Y-120600000D03*
G04 #@! TO.P,R16,2*
G04 #@! TO.N,/ADC/ALERT*
X110709999Y-120600000D03*
G04 #@! TD*
D70*
G04 #@! TO.P,L5,1,1*
G04 #@! TO.N,Net-(AE1-A)*
X96907053Y-106157053D03*
G04 #@! TO.P,L5,2,2*
G04 #@! TO.N,Net-(U6-LNA_IN)*
X97592947Y-106842947D03*
G04 #@! TD*
D25*
G04 #@! TO.P,J4,1,Pin_1*
G04 #@! TO.N,GND*
X133325000Y-99400000D03*
D26*
G04 #@! TO.P,J4,2,Pin_2*
X135865000Y-99400000D03*
G04 #@! TD*
D13*
G04 #@! TO.P,C13,1*
G04 #@! TO.N,+3.3V*
X95800000Y-108375000D03*
G04 #@! TO.P,C13,2*
G04 #@! TO.N,GND*
X95800000Y-109335000D03*
G04 #@! TD*
D66*
G04 #@! TO.P,R21,1*
G04 #@! TO.N,Net-(U8-SDO)*
X98800000Y-118475000D03*
G04 #@! TO.P,R21,2*
G04 #@! TO.N,GND*
X98800000Y-120125000D03*
G04 #@! TD*
D39*
G04 #@! TO.P,R22,1*
G04 #@! TO.N,/ESP_32/SOIL_PWM*
X149290001Y-112749999D03*
G04 #@! TO.P,R22,2*
G04 #@! TO.N,/Sensors/sensor_cap*
X150309999Y-112749999D03*
G04 #@! TD*
D71*
G04 #@! TO.P,L4,1,1*
G04 #@! TO.N,+3.3VA*
X97785000Y-108415000D03*
G04 #@! TO.P,L4,2,2*
G04 #@! TO.N,+3.3V*
X96815000Y-108415000D03*
G04 #@! TD*
D72*
G04 #@! TO.P,D1,1,K*
G04 #@! TO.N,Net-(D1-K)*
X151100000Y-101524999D03*
G04 #@! TO.P,D1,2,A*
G04 #@! TO.N,Net-(D1-A)*
X151100000Y-99475001D03*
G04 #@! TD*
D28*
G04 #@! TO.P,C16,1*
G04 #@! TO.N,+3.3V*
X107000000Y-109375000D03*
G04 #@! TO.P,C16,2*
G04 #@! TO.N,GND*
X107000000Y-107825000D03*
G04 #@! TD*
D29*
G04 #@! TO.P,D5,1,K*
G04 #@! TO.N,Net-(D5-K)*
X105450001Y-100225001D03*
G04 #@! TO.P,D5,2,A*
G04 #@! TO.N,/ESP_32/DEBUG*
X105450001Y-102274999D03*
G04 #@! TD*
D44*
G04 #@! TO.P,C15,1*
G04 #@! TO.N,+3.3V*
X106670000Y-110875000D03*
G04 #@! TO.P,C15,2*
G04 #@! TO.N,GND*
X107630000Y-110875000D03*
G04 #@! TD*
D49*
G04 #@! TO.P,C25,1*
G04 #@! TO.N,Net-(D6-K)*
X122050001Y-116262499D03*
G04 #@! TO.P,C25,2*
G04 #@! TO.N,/Sensors/V_out*
X122050001Y-117812499D03*
G04 #@! TD*
D73*
G04 #@! TO.N,GND*
X151300000Y-119600000D03*
X123800000Y-119100000D03*
X115600000Y-117900000D03*
G04 #@! TO.N,+BATT*
X116600000Y-115000000D03*
G04 #@! TO.N,GND*
X92000000Y-106500000D03*
X99750000Y-99000000D03*
X94000000Y-98750000D03*
X135250000Y-102000000D03*
X128778125Y-115121875D03*
X94350000Y-116850000D03*
X126500000Y-119300000D03*
X92750000Y-115000000D03*
X127000000Y-107000000D03*
X132500000Y-100750000D03*
X119570002Y-115902449D03*
X99000000Y-99000000D03*
X92750000Y-110250000D03*
X131500000Y-99750000D03*
X92000000Y-108000000D03*
X99550000Y-104200000D03*
X98250000Y-99000000D03*
X92750000Y-107250000D03*
X95500000Y-104500000D03*
X103000000Y-109200000D03*
X119450001Y-119900000D03*
X92500000Y-98750000D03*
X114500000Y-104800000D03*
X93250000Y-104000000D03*
X138512499Y-102750000D03*
X100500000Y-99000000D03*
X93250000Y-102500000D03*
X122300000Y-109800000D03*
X130500000Y-100750000D03*
X135500000Y-100750000D03*
X92750000Y-117000000D03*
X98250000Y-105000000D03*
X152800000Y-101000000D03*
X92500000Y-119600000D03*
X92000000Y-114250000D03*
X147900000Y-114639997D03*
X108250000Y-107500000D03*
X127000000Y-106250000D03*
X144512499Y-106750001D03*
X136500000Y-100750000D03*
X99000000Y-99750000D03*
X92000000Y-115750000D03*
X152000000Y-119000000D03*
X92500000Y-101750000D03*
X124400000Y-116000000D03*
X94000000Y-103250000D03*
X129656250Y-116000000D03*
X92000000Y-112750000D03*
X92750000Y-108750000D03*
X115500000Y-114700000D03*
X146700000Y-101300000D03*
X94000000Y-104500000D03*
X113750000Y-119000000D03*
X112750000Y-119000000D03*
X92500000Y-104500000D03*
X100450000Y-121350000D03*
X146899999Y-114640000D03*
X92500000Y-103250000D03*
X94000000Y-100250000D03*
X93500000Y-106500000D03*
X127000000Y-107750000D03*
X102900000Y-103700000D03*
X92400000Y-121300000D03*
X108100000Y-110000000D03*
X120650001Y-119900000D03*
X139762499Y-101750000D03*
X131500000Y-98750000D03*
X98500000Y-104200000D03*
X98250000Y-99750000D03*
X93500000Y-108000000D03*
X99750000Y-99750000D03*
X92750000Y-113500000D03*
X93500000Y-109500000D03*
X101600000Y-114400000D03*
X144512499Y-108000000D03*
X99000000Y-100500000D03*
X92500000Y-100250000D03*
X108375000Y-118400000D03*
X134500000Y-100750000D03*
X97416170Y-104191296D03*
X94000000Y-101750000D03*
X106700000Y-98724999D03*
X96544845Y-109223289D03*
X133500000Y-100750000D03*
X111100000Y-107000000D03*
X92000000Y-118250000D03*
X92000000Y-109500000D03*
X138512499Y-101750000D03*
X114750000Y-119000000D03*
X93100000Y-115850000D03*
X94500000Y-111200000D03*
X93500000Y-111000000D03*
X98250000Y-100500000D03*
X97796289Y-109234999D03*
X130500000Y-99750000D03*
X150500000Y-103200000D03*
X93250000Y-101000000D03*
X131500000Y-100750000D03*
X98900000Y-121000000D03*
X105175000Y-118300000D03*
X93250000Y-99500000D03*
X134250000Y-102000000D03*
X100500000Y-99750000D03*
X147800000Y-109100000D03*
X139762499Y-102750000D03*
X92750000Y-111750000D03*
X130500000Y-98750000D03*
X137750000Y-102250000D03*
X92000000Y-111000000D03*
X112250000Y-110000000D03*
X105149999Y-121400000D03*
G04 #@! TO.N,+3.3V*
X94100000Y-113600000D03*
X94600000Y-107600000D03*
X127000000Y-100750000D03*
X99010000Y-113600000D03*
X133300000Y-106000000D03*
X127000000Y-103749999D03*
X129250000Y-100750000D03*
X117870001Y-115202450D03*
X101410000Y-113500000D03*
X95700000Y-107600000D03*
X127000000Y-101500000D03*
X127000000Y-104499999D03*
X127000000Y-102999999D03*
X96800000Y-107600000D03*
X117870001Y-116802448D03*
X128500000Y-100750000D03*
X94100000Y-114400000D03*
X133434996Y-104060002D03*
X99550000Y-105200000D03*
X114181583Y-114110000D03*
X127000000Y-105250000D03*
X125700000Y-117800000D03*
X127000000Y-102249999D03*
X127750000Y-100750000D03*
X105700000Y-111600000D03*
X97100000Y-115700000D03*
X95500001Y-103400000D03*
X127750000Y-101500000D03*
X97200000Y-121100000D03*
X127750000Y-104500000D03*
X106100000Y-113400000D03*
X129250000Y-101500000D03*
X109700000Y-119800000D03*
X128500000Y-101500000D03*
X125900000Y-115200000D03*
X141100000Y-105800000D03*
X94600000Y-118850000D03*
X106500000Y-111600000D03*
G04 #@! TO.N,Net-(U6-GPIO9)*
X105100000Y-114000000D03*
X106900000Y-118200000D03*
G04 #@! TO.N,Net-(U6-CHIP_EN)*
X100500000Y-117200000D03*
X97800000Y-114600000D03*
G04 #@! TO.N,Net-(J7-Pin_2)*
X136460000Y-116000000D03*
X128900000Y-119000000D03*
G04 #@! TO.N,Net-(J7-Pin_16)*
X145350000Y-116000000D03*
X128400000Y-113100000D03*
G04 #@! TO.N,Net-(J7-Pin_4)*
X137730000Y-116000000D03*
X130000000Y-119300000D03*
G04 #@! TO.N,Net-(J7-Pin_8)*
X140270000Y-116000000D03*
X132600000Y-117600000D03*
G04 #@! TO.N,Net-(J7-Pin_6)*
X131200000Y-119000000D03*
X139000000Y-116000000D03*
G04 #@! TO.N,Net-(J7-Pin_14)*
X129900000Y-113021000D03*
X144080000Y-116000000D03*
G04 #@! TO.N,Net-(D1-A)*
X150500000Y-108050000D03*
X149800000Y-100800000D03*
G04 #@! TO.N,Net-(D6-K)*
X120850001Y-115100000D03*
X121500000Y-111110000D03*
G04 #@! TO.N,Net-(J7-Pin_10)*
X141540000Y-116000000D03*
X133300000Y-115300000D03*
G04 #@! TO.N,/ADC/ALERT*
X98650000Y-115250000D03*
X99500000Y-117300000D03*
G04 #@! TO.N,Net-(J7-Pin_12)*
X142810000Y-116000000D03*
X131700000Y-114000000D03*
G04 #@! TO.N,/ESP_32/Battery_stat*
X134300000Y-107600000D03*
X101083178Y-112616822D03*
G04 #@! TO.N,/ESP_32/IO_INT*
X124300000Y-112300000D03*
X125706250Y-116750000D03*
G04 #@! TO.N,Net-(J6-Pin_2)*
X103610000Y-112800000D03*
G04 #@! TO.N,Net-(U5-PG)*
X132574998Y-102300002D03*
X129840000Y-104860000D03*
G04 #@! TO.N,Net-(J6-Pin_1)*
X103400000Y-113700000D03*
G04 #@! TD*
D74*
G04 #@! TO.N,VBUS*
X122492502Y-108104300D02*
X123300000Y-108104300D01*
D75*
X123250000Y-105745000D02*
X123250000Y-108054300D01*
X123250000Y-108054300D02*
X123300000Y-108104300D01*
D74*
X123300000Y-108104300D02*
X123733200Y-108104300D01*
X123733200Y-108104300D02*
X123737500Y-108100000D01*
D76*
G04 #@! TO.N,/ESP_32/IO_INT*
X105000000Y-112350000D02*
X104750000Y-112100000D01*
X124300000Y-112300000D02*
X123900000Y-112300000D01*
X110350000Y-113350000D02*
X107550000Y-113350000D01*
X123900000Y-112300000D02*
X123300000Y-111700000D01*
X123300000Y-111700000D02*
X112000000Y-111700000D01*
X112000000Y-111700000D02*
X110350000Y-113350000D01*
X107550000Y-113350000D02*
X106600000Y-112400000D01*
X106600000Y-112400000D02*
X105000000Y-112400000D01*
X104750000Y-112100000D02*
X104750000Y-111650000D01*
X105000000Y-112400000D02*
X105000000Y-112350000D01*
D74*
G04 #@! TO.N,/Sensors/sensor_cap*
X150309999Y-112749999D02*
X150309999Y-110890001D01*
X150309999Y-110890001D02*
X151200000Y-110000000D01*
X151200000Y-110000000D02*
X154750000Y-110000000D01*
D76*
G04 #@! TO.N,/ESP_32/SOIL_PWM*
X149290001Y-112140004D02*
X149149997Y-112000000D01*
X149149997Y-112000000D02*
X146500000Y-112000000D01*
D74*
G04 #@! TO.N,Net-(D7-K)*
X149299998Y-114250000D02*
X149850000Y-114250000D01*
X149850000Y-114250000D02*
X151000000Y-115400000D01*
X151000000Y-115400000D02*
X151000000Y-115890001D01*
D76*
G04 #@! TO.N,/ADC/Soil_cap*
X151000000Y-117840000D02*
X150560000Y-117840000D01*
X150560000Y-117840000D02*
X150300000Y-118100000D01*
X150300000Y-118100000D02*
X150300000Y-121500000D01*
X150300000Y-121500000D02*
X149900000Y-121900000D01*
X113679998Y-120287500D02*
X113679998Y-121279998D01*
X114300000Y-121900000D02*
X149900000Y-121900000D01*
X113679998Y-121279998D02*
X114300000Y-121900000D01*
D75*
G04 #@! TO.N,GND*
X151000000Y-119300000D02*
X151300000Y-119600000D01*
X151000000Y-118800000D02*
X151000000Y-119300000D01*
G04 #@! TO.N,/ADC/Soil_cap*
X151020000Y-117900000D02*
X151020000Y-116929999D01*
X151020000Y-116929999D02*
X151000000Y-116909999D01*
G04 #@! TO.N,Net-(U6-LNA_IN)*
X97800000Y-107100000D02*
X97592947Y-106892947D01*
X97592947Y-106892947D02*
X97592947Y-106842947D01*
G04 #@! TO.N,/ADC/Light level*
X123000000Y-120080000D02*
X124480000Y-120080000D01*
X124480000Y-120080000D02*
X124500000Y-120100000D01*
D76*
G04 #@! TO.N,/PWR/D-*
X121562502Y-105959300D02*
X121562502Y-106737498D01*
X121562502Y-106737498D02*
X121400000Y-106900000D01*
X120700000Y-106900000D02*
X120562502Y-106762502D01*
X121400000Y-106900000D02*
X120700000Y-106900000D01*
X120562502Y-106762502D02*
X120562502Y-105959300D01*
D75*
G04 #@! TO.N,/Sensors/V_out*
X118600002Y-118750000D02*
X118600002Y-118099998D01*
X119000000Y-117700000D02*
X121300000Y-117700000D01*
X118600002Y-118099998D02*
X119000000Y-117700000D01*
X121300000Y-117700000D02*
X121412499Y-117812499D01*
X121412499Y-117812499D02*
X122050001Y-117812499D01*
G04 #@! TO.N,/ADC/Light level*
X123000000Y-120080000D02*
X122029999Y-120080000D01*
X122029999Y-120080000D02*
X122000000Y-120109999D01*
D76*
X114179998Y-120287500D02*
X114179998Y-120979998D01*
X114179998Y-120979998D02*
X114450000Y-121250000D01*
X114450000Y-121250000D02*
X121550000Y-121250000D01*
X121550000Y-121250000D02*
X122000000Y-120800000D01*
X122000000Y-120800000D02*
X122000000Y-120109999D01*
D75*
G04 #@! TO.N,GND*
X123780000Y-119120000D02*
X123800000Y-119100000D01*
X123000000Y-119120000D02*
X123780000Y-119120000D01*
G04 #@! TO.N,/Sensors/V_out*
X123320003Y-117022500D02*
X123320003Y-117579997D01*
X123320003Y-117579997D02*
X123087501Y-117812499D01*
X123087501Y-117812499D02*
X122050001Y-117812499D01*
X122000000Y-119090001D02*
X122000000Y-117862500D01*
X122000000Y-117862500D02*
X122050001Y-117812499D01*
G04 #@! TO.N,VBUS*
X119700000Y-103700000D02*
X118350000Y-105050000D01*
X118350000Y-105050000D02*
X118350000Y-105745000D01*
X123250000Y-105745000D02*
X123250000Y-104950000D01*
X122000000Y-103700000D02*
X119700000Y-103700000D01*
X123250000Y-104950000D02*
X122000000Y-103700000D01*
D76*
G04 #@! TO.N,Net-(D6-K)*
X119650000Y-110200000D02*
X119650000Y-110550000D01*
X119650000Y-110550000D02*
X120200000Y-111100000D01*
D75*
G04 #@! TO.N,GND*
X112350000Y-109900000D02*
X112250000Y-110000000D01*
D76*
G04 #@! TO.N,Net-(D6-K)*
X120200000Y-111100000D02*
X121490000Y-111100000D01*
X121490000Y-111100000D02*
X121500000Y-111110000D01*
D75*
G04 #@! TO.N,GND*
X113550000Y-110200000D02*
X113250000Y-109900000D01*
X113250000Y-109900000D02*
X112350000Y-109900000D01*
D77*
G04 #@! TO.N,/PWR/D+*
X112846277Y-106986135D02*
X112846277Y-107477575D01*
X112846277Y-107477575D02*
X112916137Y-107547433D01*
X114118702Y-108270000D02*
X114118702Y-107872585D01*
X114958702Y-108510000D02*
X115078702Y-108510000D01*
X120062502Y-107159446D02*
X120062502Y-105959300D01*
X115558702Y-107632560D02*
X115678702Y-107632560D01*
X116518702Y-108270000D02*
X116518702Y-107872585D01*
X115918702Y-107872560D02*
X115918702Y-108270000D01*
X116758702Y-107632585D02*
X116878702Y-107632585D01*
X117478702Y-108510000D02*
X117599999Y-108510000D01*
X118583865Y-107547433D02*
X119674515Y-107547433D01*
X117621298Y-108510000D02*
X118583865Y-107547433D01*
X119674515Y-107547433D02*
X120062502Y-107159446D01*
X117599999Y-108510000D02*
X117621298Y-108510000D01*
X114118702Y-107872585D02*
G75*
G02*
X114358702Y-107632602I239998J-15D01*
G01*
X114718702Y-107872585D02*
X114718702Y-108270000D01*
X117358702Y-108510000D02*
X117478702Y-108510000D01*
X115318702Y-108270000D02*
X115318702Y-107872560D01*
X117118702Y-108270000D02*
G75*
G03*
X117358702Y-108509998I239998J0D01*
G01*
X114358702Y-107632585D02*
X114478702Y-107632585D01*
X116518702Y-107872585D02*
G75*
G02*
X116758702Y-107632602I239998J-15D01*
G01*
X113878702Y-108510000D02*
G75*
G03*
X114118700Y-108270000I-2J240000D01*
G01*
X112916137Y-107547435D02*
X113878702Y-108510000D01*
X117118702Y-107872585D02*
X117118702Y-108270000D01*
X115918702Y-108270000D02*
G75*
G03*
X116158702Y-108509998I239998J0D01*
G01*
X116278702Y-108510000D02*
G75*
G03*
X116518700Y-108270000I-2J240000D01*
G01*
X112916137Y-107547433D02*
X112916137Y-107547435D01*
X115678702Y-107632560D02*
G75*
G02*
X115918740Y-107872560I-2J-240040D01*
G01*
X115318702Y-107872560D02*
G75*
G02*
X115558702Y-107632602I239998J-40D01*
G01*
X116158702Y-108510000D02*
X116278702Y-108510000D01*
X112581112Y-106720970D02*
X112846277Y-106986135D01*
X115078702Y-108510000D02*
G75*
G03*
X115318700Y-108270000I-2J240000D01*
G01*
X116878702Y-107632585D02*
G75*
G02*
X117118715Y-107872585I-2J-240015D01*
G01*
X114478702Y-107632585D02*
G75*
G02*
X114718715Y-107872585I-2J-240015D01*
G01*
X114718702Y-108270000D02*
G75*
G03*
X114958702Y-108509998I239998J0D01*
G01*
G04 #@! TO.N,/ESP_32/USB_D-*
X104750000Y-106149999D02*
X104690000Y-106089999D01*
X110438647Y-105835037D02*
X110618889Y-106015279D01*
X107711884Y-106218197D02*
G75*
G03*
X107951897Y-105978197I16J239997D01*
G01*
X109902238Y-105540000D02*
X110371299Y-105540000D01*
X107591884Y-106218197D02*
X107711884Y-106218197D01*
X104750000Y-106750000D02*
X104750000Y-106149999D01*
X107951884Y-105780000D02*
G75*
G02*
X108191884Y-105539984I240016J0D01*
G01*
X104690000Y-106089999D02*
X104690000Y-105877244D01*
X107111884Y-105540000D02*
G75*
G02*
X107351900Y-105780000I16J-240000D01*
G01*
X104690000Y-105877244D02*
X105027244Y-105540000D01*
X107351884Y-105978197D02*
G75*
G03*
X107591884Y-106218216I240016J-3D01*
G01*
X105027244Y-105540000D02*
X107111884Y-105540000D01*
X107351884Y-105780000D02*
X107351884Y-105978197D01*
X110371299Y-105540000D02*
X110438647Y-105607348D01*
X107951884Y-105978197D02*
X107951884Y-105780000D01*
X108191884Y-105540000D02*
X108311884Y-105540000D01*
X110438647Y-105607348D02*
X110438647Y-105835037D01*
X110618889Y-106015279D02*
X110618889Y-106279029D01*
X108311884Y-105540000D02*
X109902238Y-105540000D01*
D78*
G04 #@! TO.N,GND*
X117550000Y-105745000D02*
X117395000Y-105745000D01*
X117395000Y-105745000D02*
X116480000Y-104830000D01*
D76*
G04 #@! TO.N,Net-(J5-CC2)*
X115309999Y-106609999D02*
X115500000Y-106800000D01*
X115500000Y-106800000D02*
X118920000Y-106800000D01*
X119050000Y-106670000D02*
X119050000Y-105745000D01*
X114700000Y-106609999D02*
X115309999Y-106609999D01*
X118920000Y-106800000D02*
X119050000Y-106670000D01*
D75*
G04 #@! TO.N,VBUS*
X110945926Y-105845926D02*
X111400000Y-106300000D01*
X111400000Y-106300000D02*
X111800000Y-106300000D01*
X115300000Y-102800000D02*
X118800000Y-102800000D01*
X111800000Y-106300000D02*
X115300000Y-102800000D01*
X118800000Y-102800000D02*
X119700000Y-103700000D01*
D76*
G04 #@! TO.N,/PWR/D+*
X120050000Y-104850000D02*
X120200000Y-104700000D01*
X120200000Y-104700000D02*
X120900000Y-104700000D01*
X120050000Y-105745000D02*
X120050000Y-104850000D01*
X120900000Y-104700000D02*
X121050000Y-104850000D01*
X121050000Y-105745000D02*
X121050000Y-104850000D01*
D78*
G04 #@! TO.N,VBUS*
X123262502Y-105242440D02*
X123262502Y-105959300D01*
D74*
G04 #@! TO.N,+3.3V*
X95500001Y-103400000D02*
X95500002Y-103399999D01*
X95500002Y-103399999D02*
X95500002Y-102549998D01*
D76*
G04 #@! TO.N,GND*
X116492502Y-105492502D02*
X116492502Y-105044300D01*
G04 #@! TO.N,Net-(U9-AIN2)*
X116700000Y-117109999D02*
X116700000Y-117090001D01*
X116700000Y-117090001D02*
X115700000Y-116090001D01*
G04 #@! TO.N,GND*
X115700000Y-117800000D02*
X115600000Y-117900000D01*
X115700000Y-117109999D02*
X115700000Y-117800000D01*
G04 #@! TO.N,Net-(U9-AIN2)*
X115200000Y-116100000D02*
X115209999Y-116090001D01*
X115209999Y-116090001D02*
X115700000Y-116090001D01*
G04 #@! TO.N,+BATT*
X116700000Y-116090001D02*
X116700000Y-115100000D01*
X116700000Y-115100000D02*
X116600000Y-115000000D01*
D79*
G04 #@! TO.N,Net-(AE1-A)*
X91025000Y-105450000D02*
X96185750Y-105450000D01*
D75*
X96192875Y-105442875D02*
X96192873Y-105414592D01*
D76*
X96185750Y-105450000D02*
X96192875Y-105442875D01*
D79*
X96907053Y-106157053D02*
X96192875Y-105442875D01*
D75*
G04 #@! TO.N,GND*
X111100000Y-107000000D02*
X111300000Y-106800000D01*
X111300000Y-106800000D02*
X111900000Y-106800000D01*
X94450000Y-116950000D02*
X94350000Y-116850000D01*
X108100000Y-110405000D02*
X107630000Y-110875000D01*
X114500000Y-104800000D02*
X114500000Y-104867221D01*
X147800000Y-108000000D02*
X147800000Y-109100000D01*
X150500000Y-103200000D02*
X149425000Y-103200000D01*
X96871699Y-104735767D02*
X97416170Y-104191296D01*
D74*
X152800000Y-101000000D02*
X154750000Y-101000000D01*
D75*
X97896290Y-109335000D02*
X98800000Y-109335000D01*
X114700000Y-105067221D02*
X114700000Y-105590001D01*
D76*
X101300000Y-101000000D02*
X101100000Y-100800000D01*
D75*
X111900000Y-106800000D02*
X112254074Y-107154074D01*
D76*
X122492502Y-109064300D02*
X122352502Y-109064300D01*
D74*
X154750000Y-119000000D02*
X152000000Y-119000000D01*
D76*
X128406250Y-114062500D02*
X128406250Y-114750000D01*
D75*
X98800000Y-120125000D02*
X98800000Y-120900000D01*
D76*
X104480000Y-118300000D02*
X104450000Y-118330000D01*
X98800000Y-106125000D02*
X98800000Y-105550000D01*
X98800000Y-105550000D02*
X98250000Y-105000000D01*
X102400000Y-102550000D02*
X101650000Y-102550000D01*
X101300000Y-102200000D02*
X101300000Y-101000000D01*
D75*
X102400000Y-103200000D02*
X102400000Y-102550000D01*
D76*
X128778125Y-115121875D02*
X129656250Y-116000000D01*
D75*
X96433134Y-109335000D02*
X95800000Y-109335000D01*
X105960001Y-98749999D02*
X106675001Y-98750000D01*
X93150000Y-115800000D02*
X93799999Y-115800000D01*
D76*
X131593750Y-116250000D02*
X129906250Y-116250000D01*
D75*
X102900000Y-103700000D02*
X102400000Y-103200000D01*
X100600000Y-100850000D02*
X100200000Y-100850000D01*
X97796289Y-109234999D02*
X97896290Y-109335000D01*
D78*
X124062502Y-105959300D02*
X124217502Y-105959300D01*
D74*
X135374999Y-103112500D02*
X134425000Y-103112500D01*
D76*
X105175000Y-118300000D02*
X104480000Y-118300000D01*
X131825001Y-105400002D02*
X131824999Y-107300005D01*
D75*
X105250000Y-121500000D02*
X105149999Y-121400000D01*
D76*
X139649999Y-104000000D02*
X139300000Y-103650001D01*
D75*
X114680000Y-114700000D02*
X115500000Y-114700000D01*
X102400000Y-102550000D02*
X102300000Y-102550000D01*
X107925000Y-107825000D02*
X108250000Y-107500000D01*
D76*
X139300000Y-103650001D02*
X138449999Y-103650001D01*
D75*
X149425000Y-103200000D02*
X149400000Y-103175000D01*
D76*
X101100000Y-100800000D02*
X100250000Y-100800000D01*
X141974998Y-104300000D02*
X142224999Y-104300000D01*
D75*
X107000000Y-107825000D02*
X107925000Y-107825000D01*
X106675001Y-98750000D02*
X106700000Y-98724999D01*
X130324999Y-107300002D02*
X128674999Y-107300005D01*
X102200000Y-121450000D02*
X100550000Y-121450000D01*
X94450000Y-117850000D02*
X94450000Y-116950000D01*
X109150000Y-118380000D02*
X108395000Y-118380000D01*
D76*
X128406250Y-114750000D02*
X128778125Y-115121875D01*
D75*
X108395000Y-118380000D02*
X108375000Y-118400000D01*
D76*
X124450000Y-115950000D02*
X125226250Y-115950000D01*
D75*
X98800000Y-120900000D02*
X98900000Y-121000000D01*
X146700000Y-101300000D02*
X146700000Y-102362500D01*
D76*
X94500000Y-110175000D02*
X94500000Y-111200000D01*
D74*
X152750000Y-101000000D02*
X152800000Y-101000000D01*
D75*
X114500000Y-104867221D02*
X114700000Y-105067221D01*
D76*
X142224999Y-104300000D02*
X143349999Y-105425000D01*
X143349999Y-105425000D02*
X144099999Y-105425001D01*
D75*
X93100000Y-115850000D02*
X93150000Y-115800000D01*
D76*
X126506250Y-118430000D02*
X126506250Y-119293750D01*
D75*
X106900000Y-121500000D02*
X105250000Y-121500000D01*
D76*
X124400000Y-116000000D02*
X124450000Y-115950000D01*
X101650000Y-102550000D02*
X101300000Y-102200000D01*
D75*
X100550000Y-121450000D02*
X100450000Y-121350000D01*
X98900000Y-121000000D02*
X99000000Y-121100000D01*
D76*
X126506250Y-119293750D02*
X126500000Y-119300000D01*
D75*
X100200000Y-100850000D02*
X99800000Y-100450000D01*
X96544845Y-109223289D02*
X96433134Y-109335000D01*
D76*
X127718751Y-116750000D02*
X128906250Y-116750000D01*
D78*
X124217502Y-105959300D02*
X125132502Y-105044300D01*
D76*
X140375000Y-104000000D02*
X139649999Y-104000000D01*
X100250000Y-100800000D02*
X100200000Y-100850000D01*
D75*
G04 #@! TO.N,/PWR/LOAD*
X137500000Y-106600000D02*
X137500000Y-107800000D01*
X136324998Y-105387500D02*
X136900000Y-105962502D01*
X136412499Y-108887501D02*
X136412499Y-109350000D01*
X136900000Y-105962502D02*
X136900000Y-106000000D01*
X136900000Y-106000000D02*
X137500000Y-106600000D01*
X137500000Y-107800000D02*
X136412499Y-108887501D01*
D74*
G04 #@! TO.N,+5V*
X146250000Y-108512500D02*
X146000000Y-108262500D01*
D76*
G04 #@! TO.N,+3.3V*
X105609999Y-113300000D02*
X106000000Y-113300000D01*
X132574998Y-104650001D02*
X132574998Y-104059999D01*
X102250000Y-111650000D02*
X102250000Y-112920000D01*
X100300000Y-105850000D02*
X100300000Y-105410000D01*
X126506250Y-117470000D02*
X126786250Y-117470000D01*
D75*
X99010000Y-112750000D02*
X99050000Y-112710000D01*
D76*
X126806250Y-115950000D02*
X127006250Y-115750000D01*
X133434996Y-104060002D02*
X133474996Y-104100002D01*
D75*
X106050000Y-110450000D02*
X106545000Y-110450000D01*
X113720000Y-114780000D02*
X113720000Y-114700000D01*
X95100000Y-117850000D02*
X95100000Y-118100000D01*
X105450000Y-110950000D02*
X105950000Y-110950000D01*
D76*
X109690001Y-120590001D02*
X109690001Y-120600000D01*
D75*
X95350000Y-118870000D02*
X95350000Y-118375000D01*
D78*
X118600001Y-116475001D02*
X118600000Y-115022500D01*
D76*
X133390001Y-106090001D02*
X133300000Y-106000000D01*
X127006250Y-115750000D02*
X127718750Y-115750000D01*
D75*
X94090001Y-113590001D02*
X94100000Y-113600000D01*
D76*
X102250000Y-112920000D02*
X102300000Y-112970000D01*
D75*
X97250000Y-120600000D02*
X97250000Y-120150000D01*
X106545000Y-110450000D02*
X106895000Y-110100000D01*
X94090001Y-112700000D02*
X94090001Y-113590001D01*
X95350000Y-118375000D02*
X95225000Y-118250000D01*
X93799999Y-117850000D02*
X93800000Y-118820000D01*
D76*
X141974999Y-104800000D02*
X142088519Y-104800000D01*
D75*
X113720000Y-114700000D02*
X113720000Y-114571583D01*
X97200000Y-121100000D02*
X97200000Y-120650000D01*
D76*
X125900000Y-115200000D02*
X125900000Y-115400000D01*
D75*
X128675000Y-103325003D02*
X128600000Y-103250003D01*
X106075000Y-110875000D02*
X106670000Y-110875000D01*
D76*
X109700000Y-120580002D02*
X109690001Y-120590001D01*
X131324999Y-105120064D02*
X131595060Y-104850003D01*
X101410000Y-113500000D02*
X101940000Y-112970000D01*
D75*
X113720000Y-114571583D02*
X114181583Y-114110000D01*
D76*
X141100000Y-105800000D02*
X141300000Y-105600000D01*
X131324998Y-105400001D02*
X131324999Y-105120064D01*
X101750000Y-106200000D02*
X101300000Y-105750000D01*
X126506250Y-117470000D02*
X126030000Y-117470000D01*
D75*
X106895000Y-110100000D02*
X106895000Y-109375000D01*
D76*
X126030000Y-117470000D02*
X125700000Y-117800000D01*
X105450000Y-110450000D02*
X106050000Y-110450000D01*
D75*
X95100000Y-118100000D02*
X95250000Y-118250000D01*
D76*
X101750000Y-106750000D02*
X101750000Y-106200000D01*
D78*
X118600000Y-115022500D02*
X118590001Y-115012500D01*
D76*
X101250000Y-106200000D02*
X101150000Y-106100000D01*
X125900000Y-115400000D02*
X126186250Y-115686250D01*
X131595060Y-104850003D02*
X132375000Y-104849999D01*
X126186250Y-115950000D02*
X126806250Y-115950000D01*
X132375000Y-104849999D02*
X132574998Y-104650001D01*
X127718750Y-117250000D02*
X127006250Y-117250000D01*
X133390001Y-106900000D02*
X133390001Y-106090001D01*
X141300000Y-105100000D02*
X141600000Y-104800000D01*
X126186250Y-115686250D02*
X126186250Y-115950000D01*
X100550000Y-106100000D02*
X100300000Y-105850000D01*
X96800000Y-114909999D02*
X96800000Y-115400000D01*
D75*
X97200000Y-120650000D02*
X97250000Y-120600000D01*
D76*
X106000000Y-113300000D02*
X106100000Y-113400000D01*
X101150000Y-106100000D02*
X100550000Y-106100000D01*
D75*
X93800000Y-118820000D02*
X93750000Y-118870000D01*
X99010000Y-113600000D02*
X99010000Y-112750000D01*
D76*
X132574998Y-104059999D02*
X133434996Y-104060002D01*
X101300000Y-105750000D02*
X101300000Y-105410000D01*
X141600000Y-104800000D02*
X141974999Y-104800000D01*
X96800000Y-115400000D02*
X97100000Y-115700000D01*
D75*
X128675000Y-105500000D02*
X128675000Y-103325003D01*
D76*
X141300000Y-105600000D02*
X141300000Y-105100000D01*
X101250000Y-106750000D02*
X101250000Y-106200000D01*
X126786250Y-117470000D02*
X127006250Y-117250000D01*
X109700000Y-119800000D02*
X109700000Y-120580002D01*
D75*
X113179998Y-115987499D02*
X113179998Y-115320002D01*
D76*
X101940000Y-112970000D02*
X102300000Y-112970000D01*
D75*
X113179998Y-115320002D02*
X113720000Y-114780000D01*
G04 #@! TO.N,Net-(U6-GPIO9)*
X109150000Y-117419999D02*
X107020000Y-117420000D01*
D76*
X104250000Y-112250000D02*
X104590001Y-112590001D01*
X104590001Y-112590001D02*
X104590001Y-113300000D01*
X104800000Y-113900000D02*
X104590001Y-113690001D01*
X105100000Y-114000000D02*
X105000000Y-113900000D01*
X104250000Y-111650000D02*
X104250000Y-112250000D01*
X105000000Y-113900000D02*
X104800000Y-113900000D01*
D75*
X107020000Y-117420000D02*
X106900000Y-117300000D01*
D76*
X104590001Y-113690001D02*
X104590001Y-113300000D01*
D75*
X106900000Y-117300000D02*
X106900000Y-118200000D01*
D76*
G04 #@! TO.N,Net-(U6-XTAL_N)*
X103050000Y-105350000D02*
X103050000Y-105750000D01*
D75*
X103050000Y-105350000D02*
X103050000Y-105100000D01*
X103550000Y-101050000D02*
X103350000Y-100850000D01*
D76*
X102750000Y-106050000D02*
X102750000Y-106750000D01*
D75*
X102400000Y-99470000D02*
X102330000Y-99400000D01*
D76*
X103050000Y-105750000D02*
X102750000Y-106050000D01*
D75*
X103350000Y-100850000D02*
X102400000Y-100850000D01*
X103050000Y-105100000D02*
X103550000Y-104600000D01*
X103550000Y-104600000D02*
X103550000Y-101050000D01*
X102400000Y-100850000D02*
X102400000Y-99470000D01*
G04 #@! TO.N,Net-(C11-Pad2)*
X100200000Y-102550000D02*
X98720000Y-102550000D01*
X100450000Y-103700000D02*
X102050000Y-103700000D01*
X100250000Y-103500000D02*
X100450000Y-103700000D01*
X102300000Y-103950000D02*
X102300000Y-104430000D01*
X100250000Y-102600000D02*
X100250000Y-103500000D01*
X98720000Y-102550000D02*
X98650000Y-102480000D01*
X100200000Y-102550000D02*
X100250000Y-102600000D01*
X102050000Y-103700000D02*
X102300000Y-103950000D01*
D76*
G04 #@! TO.N,+3.3VA*
X99450000Y-108450000D02*
X99375000Y-108375000D01*
X98800000Y-108375000D02*
X97825000Y-108375000D01*
X99800000Y-107950000D02*
X99375000Y-108375000D01*
X100550000Y-108450000D02*
X99450000Y-108450000D01*
X100550000Y-107950000D02*
X99800000Y-107950000D01*
X99375000Y-108375000D02*
X98800000Y-108375000D01*
X97825000Y-108375000D02*
X97785000Y-108415000D01*
D79*
G04 #@! TO.N,Net-(U6-LNA_IN)*
X99735000Y-107085000D02*
X98800000Y-107085000D01*
D75*
X97815000Y-107085000D02*
X97800000Y-107100000D01*
X100550000Y-107450000D02*
X100100000Y-107450000D01*
X100100000Y-107450000D02*
X99735000Y-107085000D01*
D79*
X98800000Y-107085000D02*
X97815000Y-107085000D01*
D75*
G04 #@! TO.N,Net-(U6-CHIP_EN)*
X104330000Y-117250000D02*
X104450000Y-117370000D01*
D76*
X97800000Y-113700000D02*
X98500000Y-113000000D01*
X99300000Y-111440000D02*
X99050000Y-111690000D01*
X100135614Y-110450000D02*
X99300000Y-111285614D01*
X97800000Y-114600000D02*
X97800000Y-113700000D01*
D75*
X100550000Y-117250000D02*
X100500000Y-117200000D01*
D76*
X99300000Y-111285614D02*
X99300000Y-111440000D01*
X98500000Y-112050000D02*
X98860000Y-111690000D01*
X100550000Y-110450000D02*
X100135614Y-110450000D01*
D75*
X102200000Y-117250000D02*
X104330000Y-117250000D01*
D76*
X98860000Y-111690000D02*
X99050000Y-111690000D01*
X98500000Y-113000000D02*
X98500000Y-112050000D01*
D75*
X102200000Y-117250000D02*
X100550000Y-117250000D01*
G04 #@! TO.N,Net-(D2-K)*
X147650000Y-102362500D02*
X147650000Y-101150000D01*
X147650000Y-101150000D02*
X147175001Y-100675001D01*
X147175001Y-100675001D02*
X147175001Y-99600000D01*
G04 #@! TO.N,+3.3V*
X95775000Y-102000000D02*
X95750000Y-102000000D01*
G04 #@! TO.N,Net-(D4-K)*
X96000002Y-100024998D02*
X96000003Y-99049998D01*
G04 #@! TO.N,+3.3V*
X95274999Y-102475001D02*
X95750000Y-102000000D01*
D74*
G04 #@! TO.N,/Sensors/sensor_cap*
X150310000Y-113659998D02*
X150310000Y-112750001D01*
X150900000Y-114249998D02*
X150310000Y-113659998D01*
X151500000Y-114249998D02*
X150900000Y-114249998D01*
D76*
G04 #@! TO.N,Net-(U9-AIN2)*
X114292498Y-116100000D02*
X114179998Y-115987500D01*
X115200000Y-116100000D02*
X114292498Y-116100000D01*
D75*
G04 #@! TO.N,Net-(D5-K)*
X105450001Y-99999999D02*
X104940001Y-99490000D01*
X105450001Y-100224999D02*
X105450001Y-99999999D01*
X104940001Y-99490000D02*
X104940001Y-98750001D01*
D76*
G04 #@! TO.N,Net-(J5-CC1)*
X122062502Y-105959300D02*
X122062502Y-107237498D01*
X121700000Y-107600000D02*
X121700000Y-107846803D01*
X122062502Y-107237498D02*
X121700000Y-107600000D01*
X121700000Y-107846803D02*
X121452502Y-108094301D01*
D74*
G04 #@! TO.N,Net-(Q1-G)*
X135374999Y-105387500D02*
X135374999Y-107274999D01*
X135374999Y-107274999D02*
X135550000Y-107450000D01*
X135550000Y-107450000D02*
X136412499Y-107450000D01*
D76*
G04 #@! TO.N,Net-(J7-Pin_2)*
X128906250Y-118993750D02*
X128900000Y-119000000D01*
X128906250Y-117937499D02*
X128906250Y-118993750D01*
G04 #@! TO.N,Net-(J7-Pin_16)*
X128789000Y-113945251D02*
X128789000Y-113489000D01*
X128906250Y-114062501D02*
X128789000Y-113945251D01*
X128789000Y-113489000D02*
X128400000Y-113100000D01*
G04 #@! TO.N,Net-(J7-Pin_4)*
X129906250Y-119206250D02*
X130000000Y-119300000D01*
X129906250Y-117937500D02*
X129906250Y-119206250D01*
G04 #@! TO.N,Net-(J7-Pin_9)*
X140256002Y-117556002D02*
X141540000Y-118840000D01*
X132250000Y-115750000D02*
X132600000Y-116100000D01*
X131593750Y-115750000D02*
X132250000Y-115750000D01*
X141540000Y-118840000D02*
X141540000Y-119900000D01*
X132600000Y-116600000D02*
X133556002Y-117556002D01*
X132600000Y-116100000D02*
X132600000Y-116600000D01*
X133556002Y-117556002D02*
X140256002Y-117556002D01*
G04 #@! TO.N,Net-(J7-Pin_15)*
X144661000Y-113861000D02*
X144661000Y-117461000D01*
X133411000Y-112511000D02*
X134100000Y-113200000D01*
X129300000Y-112700000D02*
X129489000Y-112511000D01*
X134100000Y-113200000D02*
X144000000Y-113200000D01*
X129300000Y-113600000D02*
X129300000Y-112700000D01*
X129406250Y-113706250D02*
X129300000Y-113600000D01*
X144000000Y-113200000D02*
X144661000Y-113861000D01*
X129489000Y-112511000D02*
X133411000Y-112511000D01*
X145350000Y-118150000D02*
X145350000Y-119900000D01*
X144661000Y-117461000D02*
X145350000Y-118150000D01*
X129406250Y-114062500D02*
X129406250Y-113706250D01*
G04 #@! TO.N,Net-(J7-Pin_8)*
X132600000Y-117318752D02*
X132600000Y-117600000D01*
X131593749Y-116750000D02*
X132031248Y-116750000D01*
X132031248Y-116750000D02*
X132600000Y-117318752D01*
G04 #@! TO.N,Net-(J7-Pin_7)*
X133400000Y-118600000D02*
X134132999Y-117867001D01*
X140270000Y-119070000D02*
X140270000Y-119900000D01*
X139067001Y-117867001D02*
X140270000Y-119070000D01*
X131900000Y-117556250D02*
X131900000Y-118300000D01*
X134132999Y-117867001D02*
X139067001Y-117867001D01*
X131900000Y-118300000D02*
X132200000Y-118600000D01*
X131593750Y-117250000D02*
X131900000Y-117556250D01*
X132200000Y-118600000D02*
X133400000Y-118600000D01*
G04 #@! TO.N,Net-(J7-Pin_5)*
X130511000Y-119411000D02*
X130700000Y-119600000D01*
X133700000Y-119600000D02*
X135121999Y-118178001D01*
X139000000Y-119070000D02*
X139000000Y-119900000D01*
X130511000Y-118042249D02*
X130511000Y-119411000D01*
X130406250Y-117937499D02*
X130511000Y-118042249D01*
X130700000Y-119600000D02*
X133700000Y-119600000D01*
X135121999Y-118178001D02*
X138108001Y-118178001D01*
X138108001Y-118178001D02*
X139000000Y-119070000D01*
G04 #@! TO.N,Net-(J7-Pin_1)*
X135300000Y-119900000D02*
X136460000Y-119900000D01*
X128200000Y-118800000D02*
X128200000Y-120600000D01*
X128400000Y-120800000D02*
X134400000Y-120800000D01*
X134400000Y-120800000D02*
X135300000Y-119900000D01*
X128406250Y-118593750D02*
X128200000Y-118800000D01*
X128406250Y-117937500D02*
X128406250Y-118593750D01*
X128200000Y-120600000D02*
X128400000Y-120800000D01*
G04 #@! TO.N,Net-(J7-Pin_6)*
X130906250Y-118706250D02*
X131200000Y-119000000D01*
X130906250Y-117937500D02*
X130906250Y-118706250D01*
G04 #@! TO.N,Net-(J7-Pin_14)*
X129906250Y-113027250D02*
X129900000Y-113021000D01*
X129906250Y-114062500D02*
X129906250Y-113027250D01*
D75*
G04 #@! TO.N,Net-(D1-A)*
X149349998Y-99475001D02*
X149224999Y-99600000D01*
X150500000Y-100400000D02*
X150100000Y-100800000D01*
X150500000Y-108050000D02*
X149400000Y-108050000D01*
X150100000Y-100800000D02*
X149800000Y-100800000D01*
X151100000Y-99475001D02*
X149349998Y-99475001D01*
X151100000Y-99475001D02*
X151100000Y-99800000D01*
X151100000Y-99800000D02*
X150500000Y-100400000D01*
G04 #@! TO.N,Net-(D1-K)*
X148400000Y-103100000D02*
X148400000Y-102200000D01*
X146700000Y-104637500D02*
X146700000Y-104100000D01*
X146700000Y-104100000D02*
X147200000Y-103600000D01*
X148400000Y-102200000D02*
X149075001Y-101524999D01*
X147200000Y-103600000D02*
X147900000Y-103600000D01*
X147900000Y-103600000D02*
X148400000Y-103100000D01*
X149075001Y-101524999D02*
X151100000Y-101524999D01*
D76*
G04 #@! TO.N,Net-(D6-K)*
X120500000Y-116475000D02*
X120500000Y-115450001D01*
X120500000Y-115450001D02*
X120850001Y-115100000D01*
D78*
X121837499Y-116474999D02*
X122050001Y-116262499D01*
X123069949Y-116002501D02*
X123320003Y-116002501D01*
X122809951Y-116262499D02*
X123069949Y-116002501D01*
X120500000Y-116475000D02*
X121837499Y-116474999D01*
X122050001Y-116262499D02*
X122809951Y-116262499D01*
D76*
G04 #@! TO.N,Net-(J7-Pin_10)*
X133250000Y-115250000D02*
X133300000Y-115300000D01*
X131593749Y-115250000D02*
X133250000Y-115250000D01*
G04 #@! TO.N,/PWR/charge*
X146000000Y-106437500D02*
X146000000Y-104887500D01*
X149362500Y-106437500D02*
X149400000Y-106400000D01*
X146000000Y-104887500D02*
X145750000Y-104637500D01*
X146000000Y-106437500D02*
X149362500Y-106437500D01*
D75*
G04 #@! TO.N,/PWR/source*
X136324998Y-103824998D02*
X138049999Y-105549999D01*
X138049999Y-105549999D02*
X138449999Y-105549999D01*
D76*
X140374999Y-105100000D02*
X139649999Y-105100000D01*
X139649999Y-105100000D02*
X139200000Y-105549999D01*
X139200000Y-105549999D02*
X138449999Y-105549999D01*
D75*
X136324998Y-103112500D02*
X136324998Y-103824998D01*
D74*
G04 #@! TO.N,Net-(D7-K)*
X148710000Y-113160000D02*
X148279997Y-112730000D01*
X147999996Y-112730000D02*
X147029999Y-112730000D01*
X148279997Y-112730000D02*
X147999996Y-112730000D01*
X148009998Y-112740002D02*
X147999996Y-112730000D01*
X149099999Y-114249998D02*
X148710000Y-113859998D01*
X148710000Y-113859998D02*
X148710000Y-113160000D01*
X149300000Y-114250000D02*
X149099999Y-114249998D01*
X147029999Y-112730000D02*
X146999998Y-112760001D01*
D76*
G04 #@! TO.N,Net-(J7-Pin_11)*
X142100000Y-114400000D02*
X142121000Y-114421000D01*
X142121000Y-117821000D02*
X142810000Y-118510000D01*
X132800000Y-114400000D02*
X142100000Y-114400000D01*
X142121000Y-114421000D02*
X142121000Y-117821000D01*
X142810000Y-118510000D02*
X142810000Y-119900000D01*
X132450000Y-114750000D02*
X132800000Y-114400000D01*
X131593750Y-114750000D02*
X132450000Y-114750000D01*
G04 #@! TO.N,/ADC/ALERT*
X111100000Y-121700000D02*
X110709999Y-121309999D01*
X110709999Y-121309999D02*
X110709999Y-120600000D01*
X112679998Y-120287500D02*
X112679998Y-121120002D01*
X110709999Y-119609999D02*
X110200000Y-119100000D01*
X112100000Y-121700000D02*
X111100000Y-121700000D01*
X99800000Y-114100000D02*
X99800000Y-112400000D01*
X100400000Y-119100000D02*
X99900000Y-118600000D01*
X99900000Y-118600000D02*
X99900000Y-117700000D01*
X100800000Y-119100000D02*
X100400000Y-119100000D01*
X99800000Y-112400000D02*
X99800000Y-111700000D01*
X112679998Y-121120002D02*
X112100000Y-121700000D01*
X110200000Y-119100000D02*
X100800000Y-119100000D01*
X99800000Y-111700000D02*
X100550000Y-110950000D01*
X98650000Y-115250000D02*
X99800000Y-114100000D01*
X99900000Y-117700000D02*
X99500000Y-117300000D01*
X110709999Y-120600000D02*
X110709999Y-119609999D01*
G04 #@! TO.N,Net-(J7-Pin_12)*
X131637500Y-114062500D02*
X131700000Y-114000000D01*
X130906250Y-114062500D02*
X131637500Y-114062500D01*
G04 #@! TO.N,/ADC/SCL*
X111200000Y-117800000D02*
X111800000Y-117800000D01*
X112179998Y-117420002D02*
X112179998Y-115987500D01*
X95750001Y-115800000D02*
X95750001Y-116150001D01*
X110900000Y-117500000D02*
X111200000Y-117800000D01*
X97750000Y-112100000D02*
X97750000Y-111400000D01*
X95750001Y-116150001D02*
X96200000Y-116600000D01*
X110900000Y-116100000D02*
X110900000Y-117500000D01*
X112879998Y-113100000D02*
X112179998Y-113800000D01*
X97500000Y-112500000D02*
X97500000Y-112350000D01*
X97750000Y-111400000D02*
X98450000Y-110700000D01*
X98100000Y-116600000D02*
X99200000Y-115500000D01*
X127718750Y-114750000D02*
X127350000Y-114750000D01*
X99200000Y-115500000D02*
X110300000Y-115500000D01*
X97200000Y-112800000D02*
X97200000Y-113500000D01*
X96200000Y-116600000D02*
X98100000Y-116600000D01*
X126600000Y-114000000D02*
X123000000Y-114000000D01*
X111800000Y-117800000D02*
X112179998Y-117420002D01*
X98450000Y-110700000D02*
X99215686Y-110700000D01*
X112179998Y-113800000D02*
X112179998Y-115987500D01*
X100135614Y-109450000D02*
X100550000Y-109450000D01*
X122100000Y-113100000D02*
X112879998Y-113100000D01*
X110300000Y-115500000D02*
X110900000Y-116100000D01*
X97500000Y-112350000D02*
X97750000Y-112100000D01*
X99850000Y-110065686D02*
X99850000Y-109735614D01*
X123000000Y-114000000D02*
X122100000Y-113100000D01*
X95750001Y-114949999D02*
X95750001Y-115800000D01*
X127350000Y-114750000D02*
X126600000Y-114000000D01*
X99215686Y-110700000D02*
X99850000Y-110065686D01*
X97200000Y-113500000D02*
X95750001Y-114949999D01*
X97500000Y-112500000D02*
X97200000Y-112800000D01*
X99850000Y-109735614D02*
X100135614Y-109450000D01*
G04 #@! TO.N,/ADC/SDA*
X95100000Y-116300000D02*
X96100000Y-117300000D01*
X97250000Y-110200000D02*
X95059999Y-112390001D01*
X109900000Y-116300000D02*
X110200000Y-116600000D01*
X99250000Y-110100000D02*
X99450000Y-109900000D01*
X112679998Y-118020002D02*
X112679998Y-115987500D01*
X126100000Y-114500000D02*
X122500000Y-114500000D01*
X112100000Y-118600000D02*
X112679998Y-118020002D01*
X127718751Y-115250000D02*
X126850000Y-115250000D01*
X95100000Y-115800000D02*
X95100000Y-116300000D01*
X98400000Y-117300000D02*
X99400000Y-116300000D01*
X99450000Y-109900000D02*
X99450000Y-109400000D01*
X95059999Y-114449999D02*
X95059999Y-115759999D01*
X96100000Y-117300000D02*
X98400000Y-117300000D01*
X99450000Y-109400000D02*
X99900000Y-108950000D01*
X97350000Y-110100000D02*
X99250000Y-110100000D01*
X110800000Y-118600000D02*
X112100000Y-118600000D01*
X110200000Y-118000000D02*
X110800000Y-118600000D01*
X110200000Y-116600000D02*
X110200000Y-118000000D01*
X121600000Y-113600000D02*
X113200000Y-113600000D01*
X122500000Y-114500000D02*
X121600000Y-113600000D01*
X95059999Y-115759999D02*
X95100000Y-115800000D01*
X126850000Y-115250000D02*
X126100000Y-114500000D01*
X95059999Y-112390001D02*
X95059999Y-114449999D01*
X112679998Y-114120002D02*
X112679998Y-115987500D01*
X97250000Y-110200000D02*
X97350000Y-110100000D01*
X99900000Y-108950000D02*
X100550000Y-108950000D01*
X113200000Y-113600000D02*
X112679998Y-114120002D01*
X99400000Y-116300000D02*
X109900000Y-116300000D01*
G04 #@! TO.N,Net-(J7-Pin_3)*
X129406250Y-119216414D02*
X129411000Y-119211664D01*
X129411000Y-119211664D02*
X129411000Y-118788336D01*
X129406250Y-119706250D02*
X129406250Y-119216414D01*
X129411000Y-118788336D02*
X129406250Y-118783586D01*
X137730000Y-119070000D02*
X137149000Y-118489000D01*
X137730000Y-119900000D02*
X137730000Y-119800000D01*
X137730000Y-119800000D02*
X137730000Y-119070000D01*
X137149000Y-118489000D02*
X135611000Y-118489000D01*
X135611000Y-118489000D02*
X134000000Y-120100000D01*
X129800000Y-120100000D02*
X129406250Y-119706250D01*
X134000000Y-120100000D02*
X129800000Y-120100000D01*
X129406250Y-118783586D02*
X129406250Y-117937500D01*
D75*
G04 #@! TO.N,/ESP_32/DEBUG*
X105450001Y-103549999D02*
X105450001Y-102274999D01*
D76*
X103800000Y-105650000D02*
X103250000Y-106200000D01*
X103800000Y-105200000D02*
X103800000Y-105650000D01*
D75*
X104750000Y-104250000D02*
X105450001Y-103549999D01*
D76*
X104750000Y-104250000D02*
X103800000Y-105200000D01*
X103250000Y-106200000D02*
X103250000Y-106750000D01*
D75*
G04 #@! TO.N,/ESP_32/Battery_stat*
X134425000Y-106884999D02*
X134409999Y-106900000D01*
X134425000Y-105387500D02*
X134425000Y-106884999D01*
D76*
X134409999Y-107490001D02*
X134300000Y-107600000D01*
X101400000Y-112616822D02*
X101750000Y-112266822D01*
X101750000Y-112266822D02*
X101750000Y-111650000D01*
X134409999Y-106900000D02*
X134409999Y-107490001D01*
X101083178Y-112616822D02*
X101400000Y-112616822D01*
D74*
G04 #@! TO.N,/ESP_32/SOIL_PWM*
X149289997Y-112750001D02*
X149234999Y-112695001D01*
D76*
G04 #@! TO.N,/ESP_32/IO_INT*
X127106250Y-116250000D02*
X127718750Y-116250000D01*
X125706250Y-116750000D02*
X126606250Y-116750000D01*
X126606250Y-116750000D02*
X127106250Y-116250000D01*
G04 #@! TO.N,/PWR/Boost_Ind*
X140524999Y-104550000D02*
X141249999Y-104550000D01*
X141300000Y-104499999D02*
X141300000Y-102487498D01*
X141249999Y-104550000D02*
X141300000Y-104499999D01*
X141300000Y-102487498D02*
X141487498Y-102300000D01*
G04 #@! TO.N,Net-(J6-Pin_2)*
X103250000Y-112300000D02*
X103250000Y-111650000D01*
X103610000Y-112660000D02*
X103250000Y-112300000D01*
X103610000Y-112800000D02*
X103610000Y-112660000D01*
G04 #@! TO.N,Net-(J7-Pin_13)*
X130406250Y-113493750D02*
X130700000Y-113200000D01*
X130406250Y-114062501D02*
X130406250Y-113493750D01*
X133000000Y-113200000D02*
X133600000Y-113800000D01*
X143499000Y-114697000D02*
X143499000Y-117699000D01*
X144080000Y-118280000D02*
X144080000Y-119900000D01*
X130700000Y-113200000D02*
X133000000Y-113200000D01*
X133600000Y-113800000D02*
X142602000Y-113800000D01*
X142602000Y-113800000D02*
X143499000Y-114697000D01*
X143499000Y-117699000D02*
X144080000Y-118280000D01*
D75*
G04 #@! TO.N,Net-(U1-PROG)*
X149400000Y-104825000D02*
X148287500Y-104825000D01*
X148287500Y-104825000D02*
X148100000Y-104637500D01*
X148100000Y-104637500D02*
X148137500Y-104637500D01*
X147650000Y-104637500D02*
X148100000Y-104637500D01*
D76*
G04 #@! TO.N,Net-(U5-PG)*
X132574998Y-103040002D02*
X132574998Y-102300002D01*
X129840000Y-104860000D02*
X129840000Y-105140000D01*
X129840000Y-105140000D02*
X130100004Y-105400004D01*
X130100004Y-105400004D02*
X130324998Y-105400004D01*
G04 #@! TO.N,Net-(U6-XTAL_P)*
X102250000Y-106200000D02*
X102300000Y-106150000D01*
X102250000Y-106750000D02*
X102250000Y-106200000D01*
X102300000Y-106150000D02*
X102300000Y-105450000D01*
D75*
G04 #@! TO.N,Net-(U8-SDO)*
X96400000Y-118499999D02*
X97250000Y-118500000D01*
D76*
X97275000Y-118475000D02*
X97250000Y-118500000D01*
X98800000Y-118475000D02*
X97275000Y-118475000D01*
D75*
X95750001Y-117850000D02*
X96400000Y-118499999D01*
D76*
G04 #@! TO.N,Net-(J6-Pin_1)*
X102821000Y-113121000D02*
X103400000Y-113700000D01*
X102750000Y-111650000D02*
X102750000Y-112400000D01*
X102750000Y-112400000D02*
X102821000Y-112471000D01*
X102821000Y-112471000D02*
X102821000Y-113121000D01*
X103400000Y-113700000D02*
X103400000Y-113750000D01*
G04 #@! TO.N,/ESP_32/SOIL_PWM*
X101377336Y-114900000D02*
X101388336Y-114911000D01*
X125800000Y-113300000D02*
X127100000Y-112000000D01*
X100850000Y-111650000D02*
X100300000Y-112200000D01*
X110200000Y-114900000D02*
X112600000Y-112500000D01*
X101250000Y-111650000D02*
X100850000Y-111650000D01*
X100300000Y-112200000D02*
X100300000Y-114300000D01*
X100900000Y-114900000D02*
X101377336Y-114900000D01*
X100300000Y-114300000D02*
X100900000Y-114900000D01*
X101811664Y-114911000D02*
X101822664Y-114900000D01*
X101822664Y-114900000D02*
X110200000Y-114900000D01*
X112600000Y-112500000D02*
X122740254Y-112500000D01*
X101388336Y-114911000D02*
X101811664Y-114911000D01*
X122740254Y-112500000D02*
X123540254Y-113300000D01*
X123540254Y-113300000D02*
X125800000Y-113300000D01*
X127100000Y-112000000D02*
X146500000Y-112000000D01*
X149290001Y-112140004D02*
X149290001Y-112749999D01*
D77*
G04 #@! TO.N,/ESP_32/USB_D+*
X104869840Y-105160000D02*
X110528701Y-105160000D01*
X104310000Y-106089999D02*
X104310000Y-105719840D01*
X110707348Y-105338647D02*
X110935037Y-105338647D01*
X104250000Y-106149999D02*
X104310000Y-106089999D01*
X110528701Y-105160000D02*
X110707348Y-105338647D01*
X111115279Y-105518889D02*
X111379029Y-105518889D01*
X104250000Y-106750000D02*
X104250000Y-106149999D01*
X110935037Y-105338647D02*
X111115279Y-105518889D01*
X104310000Y-105719840D02*
X104869840Y-105160000D01*
G04 #@! TO.N,/PWR/D-*
X112086138Y-107746275D02*
X111820973Y-107481109D01*
X112577578Y-107746275D02*
X112086138Y-107746275D01*
X112758738Y-107927437D02*
X112577578Y-107746275D01*
X119831915Y-107927437D02*
X118741265Y-107927437D01*
X120502502Y-107256850D02*
X119831915Y-107927437D01*
X117778702Y-108890000D02*
X113721298Y-108890000D01*
X120502502Y-107106801D02*
X120502502Y-107256850D01*
X120562502Y-107046801D02*
X120502502Y-107106801D01*
X112758738Y-107927440D02*
X112758738Y-107927437D01*
X118741265Y-107927437D02*
X117778702Y-108890000D01*
X113721298Y-108890000D02*
X112758738Y-107927440D01*
X120562502Y-105959300D02*
X120562502Y-107046801D01*
G04 #@! TD*
G04 #@! TA.AperFunction,Conductor*
G04 #@! TO.N,GND*
G36*
X115443039Y-118269685D02*
G01*
X115488794Y-118322489D01*
X115500000Y-118374000D01*
X115500000Y-119626000D01*
X115480315Y-119693039D01*
X115427511Y-119738794D01*
X115376000Y-119750000D01*
X114613677Y-119750000D01*
X114546638Y-119730315D01*
X114500883Y-119677511D01*
X114498624Y-119670518D01*
X114498540Y-119670554D01*
X114493865Y-119659269D01*
X114449550Y-119592947D01*
X114383228Y-119548632D01*
X114383227Y-119548631D01*
X114324750Y-119537000D01*
X114324746Y-119537000D01*
X114035250Y-119537000D01*
X114035247Y-119537000D01*
X113964789Y-119551015D01*
X113964535Y-119549739D01*
X113907975Y-119555817D01*
X113884087Y-119548803D01*
X113824749Y-119537000D01*
X113824746Y-119537000D01*
X113535250Y-119537000D01*
X113535245Y-119537000D01*
X113476768Y-119548631D01*
X113476767Y-119548632D01*
X113410445Y-119592947D01*
X113366130Y-119659269D01*
X113366129Y-119659270D01*
X113354498Y-119717747D01*
X113354498Y-120857250D01*
X113355095Y-120863313D01*
X113352379Y-120863580D01*
X113351544Y-120872840D01*
X113354536Y-120893647D01*
X113348467Y-120906935D01*
X113347154Y-120921487D01*
X113334244Y-120938079D01*
X113325511Y-120957203D01*
X113313219Y-120965102D01*
X113304249Y-120976632D01*
X113284419Y-120983610D01*
X113266733Y-120994977D01*
X113242031Y-120998528D01*
X113238342Y-120999827D01*
X113231798Y-121000000D01*
X113128198Y-121000000D01*
X113061159Y-120980315D01*
X113015404Y-120927511D01*
X113006191Y-120863440D01*
X113004901Y-120863313D01*
X113005498Y-120857250D01*
X113005498Y-119717749D01*
X113005497Y-119717747D01*
X112993866Y-119659270D01*
X112993865Y-119659269D01*
X112949550Y-119592947D01*
X112883228Y-119548632D01*
X112883227Y-119548631D01*
X112824750Y-119537000D01*
X112824746Y-119537000D01*
X112535250Y-119537000D01*
X112535245Y-119537000D01*
X112476768Y-119548631D01*
X112476767Y-119548632D01*
X112410445Y-119592947D01*
X112366130Y-119659269D01*
X112366129Y-119659270D01*
X112354498Y-119717747D01*
X112354498Y-120857250D01*
X112355095Y-120863313D01*
X112352379Y-120863580D01*
X112347154Y-120921487D01*
X112304249Y-120976632D01*
X112238342Y-120999827D01*
X112231798Y-121000000D01*
X112124000Y-121000000D01*
X112056961Y-120980315D01*
X112011206Y-120927511D01*
X112000000Y-120876000D01*
X112000000Y-119024500D01*
X112019685Y-118957461D01*
X112072489Y-118911706D01*
X112124000Y-118900500D01*
X112139560Y-118900500D01*
X112139562Y-118900500D01*
X112215989Y-118880021D01*
X112284511Y-118840460D01*
X112340460Y-118784511D01*
X112838652Y-118286319D01*
X112899975Y-118252834D01*
X112926333Y-118250000D01*
X115376000Y-118250000D01*
X115443039Y-118269685D01*
G37*
G04 #@! TD.AperFunction*
G04 #@! TD*
G04 #@! TA.AperFunction,Conductor*
G04 #@! TO.N,+3.3V*
G36*
X118805634Y-114722134D02*
G01*
X118851389Y-114774938D01*
X118861067Y-114807045D01*
X118863472Y-114822230D01*
X118864999Y-114841624D01*
X118864999Y-115183364D01*
X118863538Y-115202344D01*
X118863489Y-115202656D01*
X118852136Y-115274344D01*
X118852057Y-115274843D01*
X118852109Y-115276125D01*
X118850997Y-115283310D01*
X118850970Y-115283366D01*
X118850932Y-115283722D01*
X118848144Y-115301326D01*
X118845000Y-115341282D01*
X118845000Y-115341292D01*
X118845000Y-115738444D01*
X118852059Y-115798089D01*
X118852060Y-115798093D01*
X118866427Y-115857935D01*
X118865661Y-115858118D01*
X118870002Y-115887374D01*
X118870002Y-117078449D01*
X118850317Y-117145488D01*
X118797513Y-117191243D01*
X118746002Y-117202449D01*
X117694001Y-117202449D01*
X117626962Y-117182764D01*
X117581207Y-117129960D01*
X117570001Y-117078449D01*
X117570001Y-114826449D01*
X117589686Y-114759410D01*
X117642490Y-114713655D01*
X117694001Y-114702449D01*
X118738595Y-114702449D01*
X118805634Y-114722134D01*
G37*
G04 #@! TD.AperFunction*
G04 #@! TD*
G04 #@! TA.AperFunction,Conductor*
G04 #@! TO.N,+3.3V*
G36*
X99902211Y-104969685D02*
G01*
X99908800Y-104974226D01*
X99921843Y-104983852D01*
X99960003Y-104997204D01*
X100047173Y-105027708D01*
X100047177Y-105027708D01*
X100047181Y-105027710D01*
X100062057Y-105029105D01*
X100076930Y-105030500D01*
X100076934Y-105030500D01*
X100523070Y-105030500D01*
X100536289Y-105029260D01*
X100552819Y-105027710D01*
X100552823Y-105027708D01*
X100552826Y-105027708D01*
X100612116Y-105006961D01*
X100678157Y-104983852D01*
X100691194Y-104974229D01*
X100711608Y-104966773D01*
X100729893Y-104955023D01*
X100752795Y-104951730D01*
X100756823Y-104950259D01*
X100764828Y-104950000D01*
X100835172Y-104950000D01*
X100902211Y-104969685D01*
X100908800Y-104974226D01*
X100921843Y-104983852D01*
X100960003Y-104997204D01*
X101047173Y-105027708D01*
X101047177Y-105027708D01*
X101047181Y-105027710D01*
X101062057Y-105029105D01*
X101076930Y-105030500D01*
X101076934Y-105030500D01*
X101523070Y-105030500D01*
X101552810Y-105027711D01*
X101552811Y-105027710D01*
X101552819Y-105027710D01*
X101552826Y-105027707D01*
X101553997Y-105027452D01*
X101554896Y-105027515D01*
X101560331Y-105027006D01*
X101560415Y-105027905D01*
X101623693Y-105032375D01*
X101679664Y-105074196D01*
X101704139Y-105139639D01*
X101697505Y-105189549D01*
X101682258Y-105233121D01*
X101679500Y-105262538D01*
X101679500Y-105637453D01*
X101682258Y-105666874D01*
X101682260Y-105666884D01*
X101723607Y-105785045D01*
X101727169Y-105854824D01*
X101692441Y-105915451D01*
X101630447Y-105947679D01*
X101606566Y-105950000D01*
X99512425Y-105950000D01*
X99497426Y-105945596D01*
X99481806Y-105946160D01*
X99464587Y-105935953D01*
X99445386Y-105930315D01*
X99434340Y-105918023D01*
X99421703Y-105910532D01*
X99409598Y-105890489D01*
X99401563Y-105881548D01*
X99398006Y-105874449D01*
X99363852Y-105776843D01*
X99317908Y-105714591D01*
X99313138Y-105705071D01*
X99308738Y-105680743D01*
X99300259Y-105657527D01*
X99300000Y-105649523D01*
X99300000Y-105074000D01*
X99319685Y-105006961D01*
X99372489Y-104961206D01*
X99424000Y-104950000D01*
X99835172Y-104950000D01*
X99902211Y-104969685D01*
G37*
G04 #@! TD.AperFunction*
G04 #@! TD*
G04 #@! TA.AperFunction,Conductor*
G04 #@! TO.N,+3.3V*
G36*
X94121168Y-118360565D02*
G01*
X94205009Y-118397585D01*
X94230135Y-118400500D01*
X94669864Y-118400499D01*
X94669879Y-118400497D01*
X94669882Y-118400497D01*
X94694987Y-118397586D01*
X94694988Y-118397585D01*
X94694991Y-118397585D01*
X94777382Y-118361206D01*
X94778832Y-118360566D01*
X94828918Y-118350000D01*
X95371083Y-118350000D01*
X95396518Y-118352637D01*
X95409260Y-118355307D01*
X95505010Y-118397585D01*
X95530136Y-118400500D01*
X95624889Y-118400499D01*
X95637470Y-118403136D01*
X95657388Y-118413815D01*
X95679073Y-118420183D01*
X95698580Y-118435902D01*
X95699047Y-118436153D01*
X95699173Y-118436381D01*
X95699716Y-118436818D01*
X95813681Y-118550783D01*
X95847166Y-118612106D01*
X95850000Y-118638464D01*
X95850000Y-119164020D01*
X95830315Y-119231059D01*
X95777511Y-119276814D01*
X95708353Y-119286758D01*
X95685046Y-119281062D01*
X95602822Y-119252290D01*
X95602814Y-119252289D01*
X95573070Y-119249500D01*
X95573066Y-119249500D01*
X95126934Y-119249500D01*
X95126930Y-119249500D01*
X95097185Y-119252289D01*
X95097173Y-119252291D01*
X94971844Y-119296147D01*
X94931707Y-119325770D01*
X94866078Y-119349741D01*
X94858073Y-119350000D01*
X94241927Y-119350000D01*
X94174888Y-119330315D01*
X94168293Y-119325770D01*
X94128157Y-119296148D01*
X94128155Y-119296147D01*
X94002826Y-119252291D01*
X94002814Y-119252289D01*
X93973070Y-119249500D01*
X93973066Y-119249500D01*
X93526934Y-119249500D01*
X93526930Y-119249500D01*
X93489669Y-119252994D01*
X93489463Y-119250800D01*
X93430743Y-119246639D01*
X93374782Y-119204805D01*
X93350322Y-119139357D01*
X93350000Y-119130429D01*
X93350000Y-118474000D01*
X93369685Y-118406961D01*
X93422489Y-118361206D01*
X93474000Y-118350000D01*
X94071082Y-118350000D01*
X94121168Y-118360565D01*
G37*
G04 #@! TD.AperFunction*
G04 #@! TD*
G04 #@! TA.AperFunction,Conductor*
G04 #@! TO.N,GND*
G36*
X148152539Y-113409685D02*
G01*
X148198294Y-113462489D01*
X148209500Y-113514000D01*
X148209500Y-113925890D01*
X148243608Y-114053184D01*
X148245707Y-114056819D01*
X148309500Y-114167312D01*
X148370675Y-114228488D01*
X148376473Y-114236503D01*
X148384972Y-114260485D01*
X148397166Y-114282816D01*
X148399029Y-114300148D01*
X148399813Y-114302359D01*
X148399438Y-114303953D01*
X148400000Y-114309174D01*
X148400000Y-115015998D01*
X148380315Y-115083037D01*
X148327511Y-115128792D01*
X148276000Y-115139998D01*
X146524000Y-115139999D01*
X146456961Y-115120314D01*
X146411206Y-115067511D01*
X146400000Y-115015999D01*
X146400000Y-113514000D01*
X146419685Y-113446961D01*
X146472489Y-113401206D01*
X146523995Y-113390000D01*
X148085500Y-113390000D01*
X148152539Y-113409685D01*
G37*
G04 #@! TD.AperFunction*
G04 #@! TD*
G04 #@! TA.AperFunction,Conductor*
G04 #@! TO.N,/PWR/Boost_VD*
G36*
X142340402Y-105169685D02*
G01*
X142384272Y-105218546D01*
X142849996Y-106149998D01*
X142849997Y-106149999D01*
X142849998Y-106150000D01*
X142882728Y-106150000D01*
X142943262Y-106165780D01*
X142964193Y-106177488D01*
X142964192Y-106177488D01*
X142964197Y-106177489D01*
X142964198Y-106177490D01*
X143031237Y-106197175D01*
X143089135Y-106205500D01*
X143725999Y-106205500D01*
X143793038Y-106225185D01*
X143838793Y-106277989D01*
X143849999Y-106329500D01*
X143849999Y-107035446D01*
X143830314Y-107102485D01*
X143777510Y-107148240D01*
X143725448Y-107159445D01*
X141723448Y-107150548D01*
X141656497Y-107130565D01*
X141610977Y-107077559D01*
X141599999Y-107026549D01*
X141599999Y-105867761D01*
X141600500Y-105865892D01*
X141600500Y-105734108D01*
X141599999Y-105732238D01*
X141599999Y-105651497D01*
X141600500Y-105643858D01*
X141600500Y-105275833D01*
X141609144Y-105246392D01*
X141615668Y-105216406D01*
X141619422Y-105211390D01*
X141620185Y-105208794D01*
X141636819Y-105188152D01*
X141638652Y-105186319D01*
X141699975Y-105152834D01*
X141726333Y-105150000D01*
X142273363Y-105150000D01*
X142340402Y-105169685D01*
G37*
G04 #@! TD.AperFunction*
G04 #@! TD*
G04 #@! TA.AperFunction,Conductor*
G04 #@! TO.N,/PWR/source*
G36*
X141599998Y-107400000D02*
G01*
X142475999Y-107400000D01*
X142543038Y-107419685D01*
X142588793Y-107472489D01*
X142599999Y-107524000D01*
X142599999Y-108276000D01*
X142580314Y-108343039D01*
X142527510Y-108388794D01*
X142475999Y-108400000D01*
X141099999Y-108400000D01*
X141099999Y-106900001D01*
X141599998Y-107400000D01*
G37*
G04 #@! TD.AperFunction*
G04 #@! TD*
G04 #@! TA.AperFunction,Conductor*
G04 #@! TO.N,+3.3V*
G36*
X107243039Y-108819685D02*
G01*
X107288794Y-108872489D01*
X107300000Y-108924000D01*
X107300000Y-110235149D01*
X107280315Y-110302188D01*
X107249634Y-110334919D01*
X107175001Y-110390001D01*
X107096147Y-110496844D01*
X107052291Y-110622173D01*
X107052289Y-110622185D01*
X107049500Y-110651929D01*
X107049500Y-111098070D01*
X107052289Y-111127814D01*
X107052291Y-111127826D01*
X107096147Y-111253155D01*
X107096148Y-111253157D01*
X107175001Y-111359999D01*
X107249635Y-111415081D01*
X107291884Y-111470727D01*
X107300000Y-111514850D01*
X107300000Y-111876000D01*
X107280315Y-111943039D01*
X107227511Y-111988794D01*
X107176000Y-112000000D01*
X106664651Y-112000000D01*
X106657022Y-111999500D01*
X106652727Y-111999500D01*
X105524000Y-111999500D01*
X105456961Y-111979815D01*
X105411206Y-111927011D01*
X105400000Y-111875500D01*
X105400000Y-110499499D01*
X105419685Y-110432460D01*
X105472489Y-110386705D01*
X105523998Y-110375499D01*
X105821948Y-110375499D01*
X105821950Y-110375499D01*
X105850172Y-110371387D01*
X105892509Y-110365220D01*
X106001347Y-110312012D01*
X106087012Y-110226347D01*
X106140220Y-110117509D01*
X106150500Y-110046949D01*
X106150499Y-109853052D01*
X106140220Y-109782491D01*
X106126516Y-109754460D01*
X106114756Y-109685591D01*
X106126515Y-109645540D01*
X106140220Y-109617509D01*
X106150500Y-109546949D01*
X106150499Y-109353052D01*
X106140220Y-109282491D01*
X106126516Y-109254460D01*
X106114756Y-109185591D01*
X106126515Y-109145540D01*
X106140220Y-109117509D01*
X106150500Y-109046949D01*
X106150499Y-108923999D01*
X106170183Y-108856961D01*
X106222987Y-108811206D01*
X106274499Y-108800000D01*
X107176000Y-108800000D01*
X107243039Y-108819685D01*
G37*
G04 #@! TD.AperFunction*
G04 #@! TD*
G04 #@! TA.AperFunction,Conductor*
G04 #@! TO.N,/PWR/source*
G36*
X140891268Y-104903047D02*
G01*
X140902016Y-104901813D01*
X140924206Y-104912719D01*
X140947928Y-104919685D01*
X140955011Y-104927859D01*
X140964721Y-104932632D01*
X140977493Y-104953805D01*
X140993683Y-104972489D01*
X140995222Y-104983194D01*
X141000811Y-104992459D01*
X141004839Y-105027523D01*
X141004426Y-105042054D01*
X140999500Y-105060438D01*
X140999500Y-105215387D01*
X140999450Y-105217147D01*
X140989176Y-105248781D01*
X140979815Y-105280663D01*
X140978434Y-105281859D01*
X140977869Y-105283600D01*
X140952121Y-105304659D01*
X140927011Y-105326418D01*
X140925201Y-105326678D01*
X140923786Y-105327836D01*
X140907601Y-105333397D01*
X140906814Y-105333607D01*
X140792686Y-105399500D01*
X140792683Y-105399502D01*
X140699502Y-105492683D01*
X140699500Y-105492686D01*
X140633608Y-105606812D01*
X140599500Y-105734108D01*
X140599500Y-105865891D01*
X140633608Y-105993187D01*
X140666554Y-106050250D01*
X140699500Y-106107314D01*
X140792686Y-106200500D01*
X140906814Y-106266392D01*
X141034108Y-106300500D01*
X141034110Y-106300500D01*
X141165889Y-106300500D01*
X141165892Y-106300500D01*
X141193908Y-106292993D01*
X141263754Y-106294656D01*
X141321617Y-106333818D01*
X141349122Y-106398046D01*
X141349999Y-106412768D01*
X141349999Y-107150001D01*
X141099999Y-106900001D01*
X141099999Y-108400000D01*
X137695044Y-108400000D01*
X137628005Y-108380315D01*
X137582250Y-108327511D01*
X137572306Y-108258353D01*
X137601331Y-108194797D01*
X137607363Y-108188319D01*
X137780470Y-108015212D01*
X137826614Y-107935288D01*
X137850500Y-107846143D01*
X137850500Y-107753856D01*
X137850500Y-106553856D01*
X137826614Y-106464712D01*
X137804741Y-106426827D01*
X137780470Y-106384788D01*
X137386318Y-105990636D01*
X137352833Y-105929313D01*
X137349999Y-105902961D01*
X137350000Y-105024000D01*
X137369685Y-104956960D01*
X137422489Y-104911206D01*
X137474000Y-104900000D01*
X140880889Y-104900000D01*
X140891268Y-104903047D01*
G37*
G04 #@! TD.AperFunction*
G04 #@! TD*
G04 #@! TA.AperFunction,Conductor*
G04 #@! TO.N,+3.3V*
G36*
X94543039Y-113869685D02*
G01*
X94588794Y-113922489D01*
X94600000Y-113974000D01*
X94600000Y-115976000D01*
X94597449Y-115984685D01*
X94598738Y-115993647D01*
X94587759Y-116017687D01*
X94580315Y-116043039D01*
X94573474Y-116048966D01*
X94569713Y-116057203D01*
X94547478Y-116071492D01*
X94527511Y-116088794D01*
X94516996Y-116091081D01*
X94510935Y-116094977D01*
X94476000Y-116100000D01*
X94399499Y-116100000D01*
X94332460Y-116080315D01*
X94286705Y-116027511D01*
X94275499Y-115976000D01*
X94275498Y-115505143D01*
X94275498Y-115505136D01*
X94272732Y-115481284D01*
X94272585Y-115480012D01*
X94272584Y-115480010D01*
X94272584Y-115480009D01*
X94227205Y-115377235D01*
X94147764Y-115297794D01*
X94139639Y-115289669D01*
X94141953Y-115287354D01*
X94109733Y-115247869D01*
X94100000Y-115199713D01*
X94100000Y-115100000D01*
X93724000Y-115100000D01*
X93656961Y-115080315D01*
X93611206Y-115027511D01*
X93600000Y-114976000D01*
X93600000Y-113974000D01*
X93619685Y-113906961D01*
X93672489Y-113861206D01*
X93724000Y-113850000D01*
X94476000Y-113850000D01*
X94543039Y-113869685D01*
G37*
G04 #@! TD.AperFunction*
G04 #@! TD*
G04 #@! TA.AperFunction,Conductor*
G04 #@! TO.N,/PWR/Buck_ind*
G36*
X131568037Y-101819687D02*
G01*
X131613792Y-101872491D01*
X131624998Y-101924002D01*
X131624998Y-104412455D01*
X131619687Y-104430538D01*
X131619371Y-104449385D01*
X131605806Y-104477813D01*
X131605313Y-104479494D01*
X131604172Y-104481239D01*
X131585279Y-104509578D01*
X131531713Y-104554438D01*
X131514201Y-104560568D01*
X131479077Y-104569980D01*
X131479071Y-104569982D01*
X131410549Y-104609542D01*
X131410547Y-104609544D01*
X131084540Y-104935550D01*
X131084536Y-104935555D01*
X131081112Y-104941487D01*
X131081109Y-104941493D01*
X131076486Y-104949502D01*
X131044978Y-105004074D01*
X131024499Y-105080501D01*
X131024498Y-105085471D01*
X131017957Y-105102109D01*
X131017530Y-105102658D01*
X131017121Y-105104181D01*
X131014758Y-105109884D01*
X130999499Y-105186598D01*
X130999500Y-105575502D01*
X130996949Y-105584188D01*
X130998238Y-105593149D01*
X130987260Y-105617185D01*
X130979816Y-105642541D01*
X130972973Y-105648469D01*
X130969213Y-105656705D01*
X130946981Y-105670991D01*
X130927012Y-105688296D01*
X130916496Y-105690583D01*
X130910435Y-105694479D01*
X130875500Y-105699502D01*
X130774498Y-105699502D01*
X130707459Y-105679817D01*
X130661704Y-105627013D01*
X130650498Y-105575502D01*
X130650497Y-105186604D01*
X130650497Y-105186602D01*
X130635238Y-105109885D01*
X130635237Y-105109883D01*
X130635236Y-105109881D01*
X130586621Y-105037125D01*
X130577110Y-105022890D01*
X130490115Y-104964762D01*
X130490113Y-104964761D01*
X130490111Y-104964760D01*
X130440308Y-104954854D01*
X130378397Y-104922469D01*
X130343823Y-104861753D01*
X130340500Y-104833237D01*
X130340500Y-104794110D01*
X130340500Y-104794108D01*
X130306392Y-104666814D01*
X130240500Y-104552686D01*
X130147314Y-104459500D01*
X130033186Y-104393608D01*
X129966902Y-104375847D01*
X129907243Y-104339483D01*
X129876714Y-104276636D01*
X129874997Y-104256073D01*
X129874997Y-101924002D01*
X129894682Y-101856963D01*
X129947486Y-101811208D01*
X129998996Y-101800002D01*
X131501001Y-101800002D01*
X131568037Y-101819687D01*
G37*
G04 #@! TD.AperFunction*
G04 #@! TD*
G04 #@! TA.AperFunction,Conductor*
G04 #@! TO.N,/PWR/LOAD*
G36*
X131392539Y-107070187D02*
G01*
X131438294Y-107122991D01*
X131449500Y-107174502D01*
X131449500Y-107524182D01*
X131455500Y-107569758D01*
X131455502Y-107569765D01*
X131502150Y-107669801D01*
X131587872Y-107755523D01*
X131585039Y-107758355D01*
X131615744Y-107796765D01*
X131624998Y-107843769D01*
X131624998Y-107950001D01*
X131624998Y-107950002D01*
X133820111Y-107949996D01*
X133887149Y-107969680D01*
X133907789Y-107986313D01*
X133961985Y-108040509D01*
X133961986Y-108040510D01*
X133961988Y-108040511D01*
X134087511Y-108112982D01*
X134087512Y-108112982D01*
X134087515Y-108112984D01*
X134227525Y-108150500D01*
X134227528Y-108150500D01*
X134372472Y-108150500D01*
X134372475Y-108150500D01*
X134512485Y-108112984D01*
X134638015Y-108040509D01*
X134692213Y-107986310D01*
X134753532Y-107952827D01*
X134779881Y-107949994D01*
X135599950Y-107949992D01*
X135656244Y-107963507D01*
X135699697Y-107985647D01*
X135793474Y-108000499D01*
X135793480Y-108000500D01*
X137031517Y-108000499D01*
X137125303Y-107985646D01*
X137125304Y-107985645D01*
X137131601Y-107984648D01*
X137200895Y-107993604D01*
X137254346Y-108038601D01*
X137274985Y-108105352D01*
X137274998Y-108107122D01*
X137274998Y-110076000D01*
X137255313Y-110143039D01*
X137202509Y-110188794D01*
X137150998Y-110200000D01*
X130498998Y-110200000D01*
X130431959Y-110180315D01*
X130386204Y-110127511D01*
X130374998Y-110076000D01*
X130374998Y-108574003D01*
X130394683Y-108506964D01*
X130447487Y-108461209D01*
X130498998Y-108450003D01*
X130624998Y-108450006D01*
X130624997Y-107741530D01*
X130644681Y-107674493D01*
X130647423Y-107670407D01*
X130647843Y-107669805D01*
X130647848Y-107669801D01*
X130694497Y-107569762D01*
X130700498Y-107524181D01*
X130700497Y-107462359D01*
X130704722Y-107430265D01*
X130725499Y-107352728D01*
X130725499Y-107247274D01*
X130714599Y-107206594D01*
X130716262Y-107136745D01*
X130755425Y-107078883D01*
X130819654Y-107051379D01*
X130834374Y-107050502D01*
X131325500Y-107050502D01*
X131392539Y-107070187D01*
G37*
G04 #@! TD.AperFunction*
G04 #@! TD*
G04 #@! TA.AperFunction,Conductor*
G04 #@! TO.N,/PWR/charge*
G36*
X146044033Y-103944685D02*
G01*
X146089788Y-103997489D01*
X146100452Y-104060576D01*
X146099500Y-104070728D01*
X146099500Y-105204269D01*
X146102353Y-105234699D01*
X146102353Y-105234701D01*
X146147206Y-105362880D01*
X146147207Y-105362882D01*
X146227850Y-105472150D01*
X146337118Y-105552793D01*
X146379845Y-105567744D01*
X146465299Y-105597646D01*
X146495730Y-105600500D01*
X146495734Y-105600500D01*
X146904270Y-105600500D01*
X146934699Y-105597646D01*
X146934701Y-105597646D01*
X147009280Y-105571549D01*
X147062882Y-105552793D01*
X147101367Y-105524389D01*
X147166995Y-105500419D01*
X147235165Y-105515734D01*
X147248626Y-105524385D01*
X147287118Y-105552793D01*
X147329845Y-105567744D01*
X147415299Y-105597646D01*
X147445730Y-105600500D01*
X147445734Y-105600500D01*
X147854270Y-105600500D01*
X147884699Y-105597646D01*
X147884701Y-105597646D01*
X147959280Y-105571549D01*
X148012882Y-105552793D01*
X148122150Y-105472150D01*
X148202793Y-105362882D01*
X148204310Y-105358548D01*
X148245030Y-105301771D01*
X148309982Y-105276022D01*
X148321352Y-105275500D01*
X148625249Y-105275500D01*
X148692288Y-105295185D01*
X148724515Y-105325188D01*
X148749489Y-105358548D01*
X148767454Y-105382546D01*
X148767457Y-105382548D01*
X148882664Y-105468793D01*
X148882671Y-105468797D01*
X148917333Y-105481725D01*
X149017517Y-105519091D01*
X149077127Y-105525500D01*
X149722872Y-105525499D01*
X149782483Y-105519091D01*
X149806251Y-105510226D01*
X149882667Y-105481725D01*
X149952359Y-105476741D01*
X150013682Y-105510226D01*
X150047166Y-105571549D01*
X150050000Y-105597907D01*
X150050000Y-107001000D01*
X150030315Y-107068039D01*
X149977511Y-107113794D01*
X149926000Y-107125000D01*
X145329499Y-107125000D01*
X145262460Y-107105315D01*
X145216705Y-107052511D01*
X145205499Y-107001000D01*
X145205499Y-104874010D01*
X145205499Y-104874000D01*
X145198517Y-104809059D01*
X145187311Y-104757548D01*
X145176353Y-104719342D01*
X145119674Y-104622429D01*
X145114728Y-104616721D01*
X145085703Y-104553168D01*
X145095646Y-104484009D01*
X145097889Y-104479357D01*
X145123438Y-104429111D01*
X145143123Y-104362072D01*
X145155499Y-104276000D01*
X145155499Y-104049000D01*
X145175184Y-103981961D01*
X145227988Y-103936206D01*
X145279499Y-103925000D01*
X145976994Y-103925000D01*
X146044033Y-103944685D01*
G37*
G04 #@! TD.AperFunction*
G04 #@! TD*
G04 #@! TA.AperFunction,Conductor*
G04 #@! TO.N,GND*
G36*
X95842090Y-106030185D02*
G01*
X95858832Y-106043676D01*
X95859041Y-106043442D01*
X95861810Y-106045898D01*
X95861819Y-106045905D01*
X95861823Y-106045909D01*
X95930613Y-106099949D01*
X95931882Y-106100500D01*
X96065254Y-106158432D01*
X96118901Y-106203195D01*
X96138697Y-106255280D01*
X96148139Y-106323970D01*
X96208154Y-106462137D01*
X96208156Y-106462141D01*
X96262951Y-106531893D01*
X96508151Y-106777092D01*
X96541636Y-106838415D01*
X96536652Y-106908106D01*
X96494781Y-106964040D01*
X96491531Y-106966392D01*
X96480430Y-106974154D01*
X96468189Y-106979225D01*
X96353458Y-107055886D01*
X96329983Y-107079360D01*
X96321061Y-107085600D01*
X96297849Y-107093411D01*
X96276358Y-107105147D01*
X96265324Y-107104357D01*
X96254841Y-107107886D01*
X96231095Y-107101910D01*
X96206666Y-107100163D01*
X96195410Y-107092929D01*
X96187084Y-107090834D01*
X96179408Y-107082645D01*
X96162319Y-107071662D01*
X96146545Y-107055888D01*
X96146541Y-107055885D01*
X96031817Y-106979228D01*
X96031804Y-106979221D01*
X95904332Y-106926421D01*
X95904322Y-106926418D01*
X95768995Y-106899500D01*
X95768993Y-106899500D01*
X95631007Y-106899500D01*
X95631005Y-106899500D01*
X95495677Y-106926418D01*
X95495667Y-106926421D01*
X95368195Y-106979221D01*
X95368182Y-106979228D01*
X95253458Y-107055885D01*
X95253454Y-107055888D01*
X95237681Y-107071662D01*
X95176358Y-107105147D01*
X95106666Y-107100163D01*
X95062319Y-107071662D01*
X95046545Y-107055888D01*
X95046541Y-107055885D01*
X94931817Y-106979228D01*
X94931804Y-106979221D01*
X94804332Y-106926421D01*
X94804322Y-106926418D01*
X94668995Y-106899500D01*
X94668993Y-106899500D01*
X94531007Y-106899500D01*
X94531005Y-106899500D01*
X94395677Y-106926418D01*
X94395667Y-106926421D01*
X94268195Y-106979221D01*
X94268182Y-106979228D01*
X94153458Y-107055885D01*
X94153454Y-107055888D01*
X94055888Y-107153454D01*
X94055885Y-107153458D01*
X93979228Y-107268182D01*
X93979221Y-107268195D01*
X93926421Y-107395667D01*
X93926418Y-107395677D01*
X93899500Y-107531004D01*
X93899500Y-107668997D01*
X93920014Y-107772126D01*
X93913787Y-107841717D01*
X93870924Y-107896894D01*
X93864653Y-107900997D01*
X93863574Y-107901834D01*
X93751834Y-108013574D01*
X93751827Y-108013583D01*
X93671382Y-108149609D01*
X93671380Y-108149614D01*
X93627292Y-108301366D01*
X93627290Y-108301379D01*
X93624500Y-108336829D01*
X93624500Y-108913150D01*
X93624501Y-108913175D01*
X93627291Y-108948627D01*
X93671380Y-109100385D01*
X93671382Y-109100390D01*
X93751827Y-109236416D01*
X93751834Y-109236425D01*
X93863574Y-109348165D01*
X93863578Y-109348168D01*
X93863580Y-109348170D01*
X93999610Y-109428618D01*
X94151373Y-109472709D01*
X94186837Y-109475500D01*
X94813162Y-109475499D01*
X94848627Y-109472709D01*
X95000390Y-109428618D01*
X95136420Y-109348170D01*
X95248170Y-109236420D01*
X95328618Y-109100390D01*
X95328618Y-109100389D01*
X95332589Y-109093675D01*
X95334977Y-109095087D01*
X95371181Y-109051560D01*
X95437809Y-109030525D01*
X95485802Y-109039145D01*
X95500826Y-109045070D01*
X95587680Y-109055500D01*
X95587686Y-109055500D01*
X96012314Y-109055500D01*
X96012320Y-109055500D01*
X96099174Y-109045070D01*
X96208515Y-109001950D01*
X96278101Y-108995669D01*
X96328930Y-109018501D01*
X96394568Y-109068276D01*
X96396395Y-109069661D01*
X96536533Y-109124924D01*
X96624599Y-109135500D01*
X97005400Y-109135499D01*
X97093467Y-109124924D01*
X97233605Y-109069661D01*
X97233610Y-109069657D01*
X97239226Y-109066500D01*
X97307309Y-109050802D01*
X97360774Y-109066500D01*
X97366392Y-109069659D01*
X97366395Y-109069661D01*
X97506533Y-109124924D01*
X97594599Y-109135500D01*
X97975400Y-109135499D01*
X98063467Y-109124924D01*
X98203605Y-109069661D01*
X98271069Y-109018501D01*
X98336379Y-108993678D01*
X98391484Y-109001951D01*
X98433455Y-109018502D01*
X98500826Y-109045070D01*
X98587680Y-109055500D01*
X98587686Y-109055500D01*
X98862553Y-109055500D01*
X98929592Y-109075185D01*
X98975347Y-109127989D01*
X98985291Y-109197147D01*
X98982329Y-109211584D01*
X98958519Y-109300448D01*
X98949500Y-109334108D01*
X98949500Y-109475500D01*
X98929815Y-109542539D01*
X98877011Y-109588294D01*
X98825500Y-109599500D01*
X97284105Y-109599500D01*
X97228772Y-109614326D01*
X97172489Y-109616168D01*
X97088694Y-109599500D01*
X97088691Y-109599500D01*
X96911309Y-109599500D01*
X96911306Y-109599500D01*
X96737341Y-109634103D01*
X96737332Y-109634106D01*
X96573459Y-109701983D01*
X96573446Y-109701990D01*
X96425965Y-109800535D01*
X96425961Y-109800538D01*
X96300538Y-109925961D01*
X96300535Y-109925965D01*
X96201990Y-110073446D01*
X96201983Y-110073459D01*
X96134106Y-110237332D01*
X96134103Y-110237341D01*
X96099500Y-110411304D01*
X96099500Y-110591323D01*
X96079815Y-110658362D01*
X96063181Y-110679004D01*
X94752686Y-111989498D01*
X94752684Y-111989502D01*
X94684911Y-112057273D01*
X94623587Y-112090757D01*
X94553896Y-112085771D01*
X94522305Y-112068393D01*
X94489925Y-112043838D01*
X94489923Y-112043837D01*
X94352980Y-111989834D01*
X94352979Y-111989833D01*
X94266928Y-111979500D01*
X93913081Y-111979500D01*
X93827023Y-111989833D01*
X93690078Y-112043837D01*
X93690076Y-112043838D01*
X93572784Y-112132783D01*
X93483839Y-112250075D01*
X93429834Y-112387022D01*
X93419501Y-112473072D01*
X93419501Y-112926919D01*
X93429834Y-113012977D01*
X93486950Y-113157813D01*
X93483995Y-113158977D01*
X93496253Y-113212206D01*
X93481837Y-113263300D01*
X93479227Y-113268183D01*
X93426420Y-113395671D01*
X93426418Y-113395677D01*
X93400535Y-113525800D01*
X93368150Y-113587711D01*
X93360125Y-113595318D01*
X93354140Y-113600503D01*
X93284956Y-113678079D01*
X93230611Y-113792712D01*
X93210926Y-113859752D01*
X93210924Y-113859760D01*
X93194500Y-113973999D01*
X93194500Y-114976008D01*
X93203767Y-115062197D01*
X93210509Y-115093186D01*
X93214974Y-115113710D01*
X93237690Y-115185360D01*
X93237691Y-115185361D01*
X93237691Y-115185362D01*
X93304751Y-115293059D01*
X93350498Y-115345854D01*
X93350502Y-115345857D01*
X93350505Y-115345861D01*
X93428077Y-115415042D01*
X93428078Y-115415042D01*
X93428079Y-115415043D01*
X93542712Y-115469388D01*
X93542714Y-115469388D01*
X93542715Y-115469389D01*
X93609754Y-115489074D01*
X93609758Y-115489074D01*
X93609760Y-115489075D01*
X93625550Y-115491345D01*
X93724000Y-115505500D01*
X93737729Y-115505500D01*
X93739556Y-115506036D01*
X93741401Y-115505554D01*
X93772947Y-115515841D01*
X93804768Y-115525185D01*
X93806591Y-115526812D01*
X93807828Y-115527216D01*
X93833806Y-115551108D01*
X93838221Y-115556519D01*
X93842458Y-115562020D01*
X93846312Y-115567324D01*
X93869795Y-115633130D01*
X93869998Y-115640215D01*
X93869998Y-115975998D01*
X93869999Y-115976005D01*
X93873790Y-116011268D01*
X93874500Y-116024519D01*
X93874500Y-116081516D01*
X93878507Y-116106814D01*
X93889354Y-116175304D01*
X93946950Y-116288342D01*
X94036658Y-116378050D01*
X94081724Y-116401012D01*
X94095835Y-116410660D01*
X94096181Y-116410139D01*
X94103574Y-116415040D01*
X94103576Y-116415042D01*
X94170839Y-116446929D01*
X94218209Y-116469387D01*
X94218211Y-116469387D01*
X94218214Y-116469389D01*
X94285253Y-116489074D01*
X94285257Y-116489074D01*
X94285259Y-116489075D01*
X94301049Y-116491345D01*
X94399499Y-116505500D01*
X94399502Y-116505500D01*
X94476000Y-116505500D01*
X94533710Y-116501372D01*
X94547243Y-116499426D01*
X94616402Y-116509369D01*
X94669206Y-116555124D01*
X94672275Y-116560159D01*
X94699500Y-116607314D01*
X94699502Y-116607316D01*
X95080005Y-116987819D01*
X95113490Y-117049142D01*
X95108506Y-117118834D01*
X95066634Y-117174767D01*
X95001170Y-117199184D01*
X94992325Y-117199500D01*
X94893482Y-117199500D01*
X94812519Y-117212323D01*
X94799696Y-117214354D01*
X94686658Y-117271950D01*
X94686657Y-117271951D01*
X94686652Y-117271954D01*
X94596954Y-117361652D01*
X94596949Y-117361659D01*
X94560483Y-117433227D01*
X94512508Y-117484022D01*
X94444687Y-117500817D01*
X94378553Y-117478279D01*
X94339515Y-117433227D01*
X94303049Y-117361658D01*
X94303047Y-117361656D01*
X94303044Y-117361652D01*
X94213346Y-117271954D01*
X94213343Y-117271952D01*
X94213341Y-117271950D01*
X94136516Y-117232805D01*
X94100300Y-117214352D01*
X94006523Y-117199500D01*
X93593481Y-117199500D01*
X93512518Y-117212323D01*
X93499695Y-117214354D01*
X93386657Y-117271950D01*
X93386656Y-117271951D01*
X93386651Y-117271954D01*
X93296953Y-117361652D01*
X93296951Y-117361656D01*
X93296949Y-117361658D01*
X93277750Y-117399337D01*
X93239351Y-117474698D01*
X93224499Y-117568475D01*
X93224499Y-117943822D01*
X93204814Y-118010861D01*
X93166044Y-118049083D01*
X93156940Y-118054751D01*
X93104145Y-118100498D01*
X93034956Y-118178079D01*
X92980611Y-118292712D01*
X92960926Y-118359752D01*
X92960924Y-118359760D01*
X92944500Y-118473999D01*
X92944500Y-119130427D01*
X92944762Y-119145051D01*
X92945071Y-119153591D01*
X92945085Y-119153972D01*
X92945206Y-119156990D01*
X92969862Y-119278267D01*
X92970483Y-119281318D01*
X92970483Y-119281320D01*
X92994939Y-119346757D01*
X93041103Y-119434108D01*
X93043511Y-119438663D01*
X93131990Y-119529586D01*
X93131997Y-119529591D01*
X93187941Y-119571413D01*
X93187954Y-119571422D01*
X93278486Y-119622469D01*
X93278490Y-119622471D01*
X93402076Y-119651124D01*
X93402075Y-119651124D01*
X93402080Y-119651125D01*
X93460800Y-119655286D01*
X93460800Y-119655285D01*
X93488256Y-119657231D01*
X93488928Y-119656924D01*
X93504906Y-119655659D01*
X93509729Y-119655589D01*
X93527527Y-119656723D01*
X93545012Y-119655083D01*
X93549920Y-119655013D01*
X93550136Y-119655073D01*
X93551699Y-119655000D01*
X93896917Y-119655000D01*
X93950034Y-119666952D01*
X94060642Y-119719389D01*
X94127681Y-119739074D01*
X94127685Y-119739074D01*
X94127687Y-119739075D01*
X94143477Y-119741345D01*
X94241927Y-119755500D01*
X94241930Y-119755500D01*
X94858065Y-119755500D01*
X94858073Y-119755500D01*
X94862841Y-119755422D01*
X94871200Y-119755288D01*
X94879077Y-119755033D01*
X94879728Y-119755010D01*
X94880688Y-119754978D01*
X95005198Y-119730629D01*
X95070827Y-119706658D01*
X95139493Y-119669766D01*
X95198178Y-119655000D01*
X95504880Y-119655000D01*
X95545839Y-119661960D01*
X95547336Y-119662483D01*
X95551115Y-119663806D01*
X95588779Y-119674969D01*
X95612086Y-119680665D01*
X95639210Y-119686320D01*
X95662274Y-119686649D01*
X95766056Y-119688130D01*
X95766056Y-119688129D01*
X95766065Y-119688130D01*
X95835223Y-119678186D01*
X95935360Y-119650330D01*
X96043057Y-119583270D01*
X96095861Y-119537515D01*
X96165042Y-119459943D01*
X96219389Y-119345305D01*
X96239074Y-119278266D01*
X96255500Y-119164020D01*
X96255500Y-119164018D01*
X96256130Y-119159637D01*
X96256742Y-119159725D01*
X96256329Y-119156852D01*
X96269077Y-119128935D01*
X96279797Y-119100193D01*
X96283454Y-119097454D01*
X96285354Y-119093296D01*
X96311171Y-119076704D01*
X96335729Y-119058319D01*
X96341361Y-119057302D01*
X96344132Y-119055522D01*
X96379067Y-119050499D01*
X96425883Y-119050499D01*
X96492922Y-119070184D01*
X96524258Y-119099012D01*
X96527529Y-119103275D01*
X96546718Y-119128282D01*
X96666006Y-119219814D01*
X96674880Y-119226624D01*
X96716082Y-119283053D01*
X96720237Y-119352799D01*
X96686024Y-119413719D01*
X96674880Y-119423376D01*
X96546718Y-119521718D01*
X96450463Y-119647160D01*
X96389956Y-119793237D01*
X96389955Y-119793239D01*
X96374500Y-119910638D01*
X96374500Y-120389363D01*
X96389953Y-120506753D01*
X96389956Y-120506762D01*
X96450464Y-120652842D01*
X96521532Y-120745459D01*
X96546726Y-120810628D01*
X96537718Y-120868395D01*
X96526420Y-120895671D01*
X96526418Y-120895678D01*
X96499500Y-121031004D01*
X96499500Y-121031007D01*
X96499500Y-121168993D01*
X96499500Y-121168995D01*
X96499499Y-121168995D01*
X96526418Y-121304322D01*
X96526421Y-121304332D01*
X96579221Y-121431804D01*
X96579228Y-121431817D01*
X96655885Y-121546541D01*
X96655888Y-121546545D01*
X96753454Y-121644111D01*
X96753458Y-121644114D01*
X96868182Y-121720771D01*
X96868195Y-121720778D01*
X96965153Y-121760939D01*
X97019557Y-121804780D01*
X97041622Y-121871074D01*
X97024343Y-121938773D01*
X96973206Y-121986384D01*
X96917701Y-121999500D01*
X92256962Y-121999500D01*
X92243078Y-121998720D01*
X92230553Y-121997308D01*
X92152735Y-121988540D01*
X92125666Y-121982362D01*
X92046462Y-121954648D01*
X92021444Y-121942600D01*
X91950395Y-121897957D01*
X91928686Y-121880644D01*
X91869355Y-121821313D01*
X91852042Y-121799604D01*
X91848707Y-121794297D01*
X91807398Y-121728553D01*
X91795351Y-121703537D01*
X91774557Y-121644111D01*
X91767636Y-121624331D01*
X91761459Y-121597263D01*
X91755744Y-121546545D01*
X91751280Y-121506922D01*
X91750500Y-121493038D01*
X91750500Y-119392683D01*
X91750500Y-119392682D01*
X91719954Y-119180231D01*
X91659484Y-118974290D01*
X91611205Y-118868575D01*
X91600000Y-118817064D01*
X91600000Y-117926635D01*
X91619685Y-117859596D01*
X91668543Y-117815728D01*
X91800000Y-117750000D01*
X91800000Y-116250000D01*
X91799999Y-116249999D01*
X91668545Y-116184272D01*
X91617387Y-116136684D01*
X91600000Y-116073363D01*
X91600000Y-106134500D01*
X91619685Y-106067461D01*
X91672489Y-106021706D01*
X91724000Y-106010500D01*
X95775051Y-106010500D01*
X95842090Y-106030185D01*
G37*
G04 #@! TD.AperFunction*
G04 #@! TA.AperFunction,Conductor*
G36*
X99686705Y-119094519D02*
G01*
X99999500Y-119407314D01*
X100092686Y-119500500D01*
X100206814Y-119566392D01*
X100334108Y-119600500D01*
X100334110Y-119600500D01*
X106076000Y-119600500D01*
X106143039Y-119620185D01*
X106188794Y-119672989D01*
X106200000Y-119724500D01*
X106200000Y-121875500D01*
X106180315Y-121942539D01*
X106127511Y-121988294D01*
X106076000Y-121999500D01*
X97482299Y-121999500D01*
X97415260Y-121979815D01*
X97369505Y-121927011D01*
X97359561Y-121857853D01*
X97388586Y-121794297D01*
X97434847Y-121760939D01*
X97531804Y-121720778D01*
X97531804Y-121720777D01*
X97531811Y-121720775D01*
X97646542Y-121644114D01*
X97744114Y-121546542D01*
X97820775Y-121431811D01*
X97873580Y-121304328D01*
X97900500Y-121168993D01*
X97900500Y-121031007D01*
X97900500Y-121031004D01*
X97878919Y-120922513D01*
X97885146Y-120852921D01*
X97925051Y-120799944D01*
X97953282Y-120778282D01*
X98049536Y-120652841D01*
X98110044Y-120506762D01*
X98125500Y-120389361D01*
X98125499Y-119910640D01*
X98125499Y-119910638D01*
X98125499Y-119910636D01*
X98110046Y-119793246D01*
X98110044Y-119793239D01*
X98110044Y-119793238D01*
X98049536Y-119647159D01*
X97953282Y-119521718D01*
X97953280Y-119521717D01*
X97953280Y-119521716D01*
X97825120Y-119423376D01*
X97810572Y-119403453D01*
X97792824Y-119386312D01*
X97790328Y-119375727D01*
X97783917Y-119366948D01*
X97782449Y-119342321D01*
X97776787Y-119318308D01*
X97780408Y-119308056D01*
X97779762Y-119297202D01*
X97791843Y-119275689D01*
X97800061Y-119252428D01*
X97811551Y-119240596D01*
X97813974Y-119236282D01*
X97824579Y-119227041D01*
X97827767Y-119224566D01*
X97827841Y-119224536D01*
X97953282Y-119128282D01*
X97955422Y-119125492D01*
X97964463Y-119118476D01*
X97990017Y-119108434D01*
X98014120Y-119095271D01*
X98022073Y-119095839D01*
X98029493Y-119092924D01*
X98056419Y-119098292D01*
X98083813Y-119100249D01*
X98093703Y-119105725D01*
X98098014Y-119106585D01*
X98101720Y-119110165D01*
X98115972Y-119118056D01*
X98222159Y-119199536D01*
X98368238Y-119260044D01*
X98485639Y-119275500D01*
X99114360Y-119275499D01*
X99114363Y-119275499D01*
X99231753Y-119260046D01*
X99231757Y-119260044D01*
X99231762Y-119260044D01*
X99377841Y-119199536D01*
X99503282Y-119103282D01*
X99503286Y-119103276D01*
X99503288Y-119103275D01*
X99509034Y-119097531D01*
X99510806Y-119099303D01*
X99557045Y-119065522D01*
X99626790Y-119061349D01*
X99686705Y-119094519D01*
G37*
G04 #@! TD.AperFunction*
G04 #@! TA.AperFunction,Conductor*
G36*
X105408766Y-116805319D02*
G01*
X105425869Y-116805116D01*
X105441592Y-116814958D01*
X105459392Y-116820185D01*
X105470592Y-116833111D01*
X105485093Y-116842188D01*
X105493000Y-116858970D01*
X105505147Y-116872989D01*
X105507732Y-116890239D01*
X105514872Y-116905394D01*
X105515292Y-116940685D01*
X105499500Y-117060638D01*
X105499500Y-117539363D01*
X105514953Y-117656753D01*
X105514956Y-117656762D01*
X105553576Y-117750000D01*
X105575464Y-117802841D01*
X105671718Y-117928282D01*
X105797159Y-118024536D01*
X105943238Y-118085044D01*
X106060639Y-118100500D01*
X106075496Y-118100499D01*
X106083646Y-118102892D01*
X106092044Y-118101608D01*
X106116666Y-118112586D01*
X106142534Y-118120180D01*
X106148097Y-118126599D01*
X106155858Y-118130060D01*
X106170638Y-118152610D01*
X106188292Y-118172982D01*
X106190499Y-118182913D01*
X106194159Y-118188497D01*
X106199013Y-118221216D01*
X106199495Y-118223385D01*
X106199500Y-118223941D01*
X106199500Y-118268993D01*
X106199923Y-118271123D01*
X106199995Y-118279046D01*
X106199952Y-118279195D01*
X106200000Y-118280160D01*
X106200000Y-118475500D01*
X106180315Y-118542539D01*
X106127511Y-118588294D01*
X106076000Y-118599500D01*
X100658676Y-118599500D01*
X100591637Y-118579815D01*
X100570995Y-118563181D01*
X100436819Y-118429005D01*
X100403334Y-118367682D01*
X100400500Y-118341324D01*
X100400500Y-118024500D01*
X100420185Y-117957461D01*
X100472989Y-117911706D01*
X100524500Y-117900500D01*
X100568995Y-117900500D01*
X100660041Y-117882389D01*
X100704328Y-117873580D01*
X100816587Y-117827080D01*
X100886054Y-117819612D01*
X100948534Y-117850887D01*
X100962409Y-117866151D01*
X100971718Y-117878282D01*
X101097159Y-117974536D01*
X101243238Y-118035044D01*
X101360639Y-118050500D01*
X103039360Y-118050499D01*
X103039363Y-118050499D01*
X103156753Y-118035046D01*
X103156757Y-118035044D01*
X103156762Y-118035044D01*
X103302841Y-117974536D01*
X103428282Y-117878282D01*
X103450741Y-117849011D01*
X103453819Y-117846764D01*
X103455403Y-117843297D01*
X103481812Y-117826324D01*
X103507168Y-117807811D01*
X103511905Y-117806985D01*
X103514181Y-117805523D01*
X103549116Y-117800500D01*
X103760369Y-117800500D01*
X103827408Y-117820185D01*
X103859173Y-117849575D01*
X103894215Y-117895785D01*
X103969246Y-117952682D01*
X104012605Y-117985562D01*
X104012607Y-117985563D01*
X104036535Y-117994999D01*
X104150826Y-118040070D01*
X104237680Y-118050500D01*
X104237686Y-118050500D01*
X104662314Y-118050500D01*
X104662320Y-118050500D01*
X104749174Y-118040070D01*
X104887395Y-117985562D01*
X105005785Y-117895785D01*
X105095562Y-117777395D01*
X105150070Y-117639174D01*
X105160500Y-117552320D01*
X105160500Y-117187680D01*
X105150070Y-117100826D01*
X105138052Y-117070352D01*
X105098475Y-116969990D01*
X105092193Y-116900403D01*
X105124530Y-116838467D01*
X105185218Y-116803846D01*
X105213829Y-116800500D01*
X105392353Y-116800500D01*
X105408766Y-116805319D01*
G37*
G04 #@! TD.AperFunction*
G04 #@! TA.AperFunction,Conductor*
G36*
X102855885Y-114146541D02*
G01*
X102855888Y-114146545D01*
X102897162Y-114187819D01*
X102930647Y-114249142D01*
X102925663Y-114318834D01*
X102883791Y-114374767D01*
X102818327Y-114399184D01*
X102809481Y-114399500D01*
X102800000Y-114399500D01*
X102800000Y-114062904D01*
X102855885Y-114146541D01*
G37*
G04 #@! TD.AperFunction*
G04 #@! TA.AperFunction,Conductor*
G36*
X104524047Y-107523427D02*
G01*
X104528822Y-107523184D01*
X104540925Y-107526737D01*
X104582599Y-107541320D01*
X104639371Y-107582041D01*
X104658681Y-107617406D01*
X104673251Y-107659047D01*
X104676812Y-107728826D01*
X104673251Y-107740953D01*
X104652433Y-107800448D01*
X104652432Y-107800455D01*
X104649500Y-107831723D01*
X104649500Y-108068276D01*
X104652432Y-108099544D01*
X104652433Y-108099551D01*
X104673251Y-108159047D01*
X104676812Y-108228826D01*
X104673251Y-108240953D01*
X104652433Y-108300448D01*
X104652432Y-108300455D01*
X104649500Y-108331723D01*
X104649500Y-108568276D01*
X104652432Y-108599544D01*
X104652433Y-108599551D01*
X104673251Y-108659047D01*
X104676812Y-108728826D01*
X104673251Y-108740953D01*
X104652433Y-108800448D01*
X104652432Y-108800455D01*
X104649500Y-108831723D01*
X104649500Y-109068276D01*
X104652432Y-109099544D01*
X104652433Y-109099551D01*
X104673251Y-109159047D01*
X104676812Y-109228826D01*
X104673251Y-109240953D01*
X104652433Y-109300448D01*
X104652432Y-109300455D01*
X104649500Y-109331723D01*
X104649500Y-109568276D01*
X104652432Y-109599544D01*
X104652433Y-109599551D01*
X104673251Y-109659047D01*
X104676812Y-109728826D01*
X104673251Y-109740953D01*
X104652433Y-109800448D01*
X104652432Y-109800455D01*
X104649500Y-109831723D01*
X104649500Y-110068276D01*
X104652432Y-110099544D01*
X104652433Y-110099551D01*
X104673251Y-110159047D01*
X104676812Y-110228826D01*
X104673251Y-110240953D01*
X104652433Y-110300448D01*
X104652432Y-110300455D01*
X104649500Y-110331723D01*
X104649500Y-110568276D01*
X104652432Y-110599544D01*
X104652433Y-110599551D01*
X104673251Y-110659047D01*
X104674473Y-110682996D01*
X104680048Y-110706321D01*
X104676568Y-110724051D01*
X104676812Y-110728826D01*
X104673251Y-110740954D01*
X104658681Y-110782593D01*
X104617959Y-110839369D01*
X104582593Y-110858681D01*
X104540954Y-110873251D01*
X104471175Y-110876812D01*
X104459047Y-110873251D01*
X104399551Y-110852433D01*
X104399544Y-110852432D01*
X104368276Y-110849500D01*
X104368272Y-110849500D01*
X104131728Y-110849500D01*
X104131724Y-110849500D01*
X104100455Y-110852432D01*
X104100448Y-110852433D01*
X104040953Y-110873251D01*
X103971174Y-110876812D01*
X103959047Y-110873251D01*
X103899551Y-110852433D01*
X103899544Y-110852432D01*
X103868276Y-110849500D01*
X103868272Y-110849500D01*
X103631728Y-110849500D01*
X103631724Y-110849500D01*
X103600455Y-110852432D01*
X103600448Y-110852433D01*
X103540953Y-110873251D01*
X103471174Y-110876812D01*
X103459047Y-110873251D01*
X103399551Y-110852433D01*
X103399544Y-110852432D01*
X103368276Y-110849500D01*
X103368272Y-110849500D01*
X103131728Y-110849500D01*
X103131724Y-110849500D01*
X103100455Y-110852432D01*
X103100448Y-110852433D01*
X103040953Y-110873251D01*
X102971174Y-110876812D01*
X102959047Y-110873251D01*
X102899551Y-110852433D01*
X102899544Y-110852432D01*
X102868276Y-110849500D01*
X102868272Y-110849500D01*
X102631728Y-110849500D01*
X102631724Y-110849500D01*
X102600455Y-110852432D01*
X102600448Y-110852433D01*
X102540953Y-110873251D01*
X102471174Y-110876812D01*
X102459047Y-110873251D01*
X102399551Y-110852433D01*
X102399544Y-110852432D01*
X102368276Y-110849500D01*
X102368272Y-110849500D01*
X102131728Y-110849500D01*
X102131724Y-110849500D01*
X102100455Y-110852432D01*
X102100448Y-110852433D01*
X102040953Y-110873251D01*
X101971174Y-110876812D01*
X101959047Y-110873251D01*
X101899551Y-110852433D01*
X101899544Y-110852432D01*
X101868276Y-110849500D01*
X101868272Y-110849500D01*
X101631728Y-110849500D01*
X101631724Y-110849500D01*
X101600455Y-110852432D01*
X101600448Y-110852433D01*
X101540953Y-110873251D01*
X101517004Y-110874473D01*
X101493681Y-110880048D01*
X101475950Y-110876568D01*
X101471174Y-110876812D01*
X101459047Y-110873251D01*
X101417406Y-110858681D01*
X101360630Y-110817961D01*
X101341321Y-110782601D01*
X101326746Y-110740951D01*
X101323184Y-110671178D01*
X101326737Y-110659074D01*
X101347567Y-110599549D01*
X101347568Y-110599539D01*
X101350500Y-110568276D01*
X101350500Y-110331723D01*
X101347568Y-110300460D01*
X101347567Y-110300455D01*
X101347567Y-110300451D01*
X101326746Y-110240951D01*
X101323184Y-110171178D01*
X101326737Y-110159074D01*
X101347567Y-110099549D01*
X101350500Y-110068272D01*
X101350500Y-109831728D01*
X101347567Y-109800451D01*
X101326746Y-109740951D01*
X101323184Y-109671178D01*
X101326737Y-109659074D01*
X101347567Y-109599549D01*
X101347572Y-109599500D01*
X101350500Y-109568276D01*
X101350500Y-109331723D01*
X101347568Y-109300460D01*
X101347567Y-109300455D01*
X101347567Y-109300451D01*
X101326746Y-109240951D01*
X101323184Y-109171178D01*
X101326737Y-109159074D01*
X101347567Y-109099549D01*
X101347568Y-109099539D01*
X101350500Y-109068276D01*
X101350500Y-108831723D01*
X101347568Y-108800460D01*
X101347567Y-108800455D01*
X101347567Y-108800451D01*
X101326746Y-108740951D01*
X101323184Y-108671178D01*
X101326737Y-108659074D01*
X101347567Y-108599549D01*
X101347568Y-108599539D01*
X101350500Y-108568276D01*
X101350500Y-108331723D01*
X101347568Y-108300460D01*
X101347567Y-108300455D01*
X101347567Y-108300451D01*
X101326746Y-108240951D01*
X101323184Y-108171178D01*
X101326737Y-108159074D01*
X101347567Y-108099549D01*
X101350500Y-108068272D01*
X101350500Y-107831728D01*
X101347567Y-107800451D01*
X101326746Y-107740951D01*
X101325523Y-107717004D01*
X101319949Y-107693678D01*
X101323427Y-107675954D01*
X101323184Y-107671178D01*
X101326741Y-107659063D01*
X101341320Y-107617400D01*
X101382040Y-107560628D01*
X101417398Y-107541321D01*
X101459048Y-107526746D01*
X101528824Y-107523185D01*
X101540925Y-107526737D01*
X101600451Y-107547567D01*
X101600459Y-107547567D01*
X101600460Y-107547568D01*
X101631724Y-107550500D01*
X101631728Y-107550500D01*
X101868276Y-107550500D01*
X101899539Y-107547568D01*
X101899539Y-107547567D01*
X101899549Y-107547567D01*
X101959048Y-107526746D01*
X102028822Y-107523184D01*
X102040925Y-107526737D01*
X102100451Y-107547567D01*
X102100459Y-107547567D01*
X102100460Y-107547568D01*
X102131724Y-107550500D01*
X102131728Y-107550500D01*
X102368276Y-107550500D01*
X102399539Y-107547568D01*
X102399539Y-107547567D01*
X102399549Y-107547567D01*
X102459048Y-107526746D01*
X102528822Y-107523184D01*
X102540925Y-107526737D01*
X102600451Y-107547567D01*
X102600459Y-107547567D01*
X102600460Y-107547568D01*
X102631724Y-107550500D01*
X102631728Y-107550500D01*
X102868276Y-107550500D01*
X102899539Y-107547568D01*
X102899539Y-107547567D01*
X102899549Y-107547567D01*
X102959048Y-107526746D01*
X103028822Y-107523184D01*
X103040925Y-107526737D01*
X103100451Y-107547567D01*
X103100459Y-107547567D01*
X103100460Y-107547568D01*
X103131724Y-107550500D01*
X103131728Y-107550500D01*
X103368276Y-107550500D01*
X103399539Y-107547568D01*
X103399539Y-107547567D01*
X103399549Y-107547567D01*
X103459048Y-107526746D01*
X103528822Y-107523184D01*
X103540925Y-107526737D01*
X103600451Y-107547567D01*
X103600459Y-107547567D01*
X103600460Y-107547568D01*
X103631724Y-107550500D01*
X103631728Y-107550500D01*
X103868276Y-107550500D01*
X103899539Y-107547568D01*
X103899539Y-107547567D01*
X103899549Y-107547567D01*
X103959048Y-107526746D01*
X104028822Y-107523184D01*
X104040925Y-107526737D01*
X104100451Y-107547567D01*
X104100459Y-107547567D01*
X104100460Y-107547568D01*
X104131724Y-107550500D01*
X104131728Y-107550500D01*
X104368276Y-107550500D01*
X104399539Y-107547568D01*
X104399539Y-107547567D01*
X104399549Y-107547567D01*
X104459048Y-107526746D01*
X104482997Y-107525523D01*
X104506324Y-107519949D01*
X104524047Y-107523427D01*
G37*
G04 #@! TD.AperFunction*
G04 #@! TA.AperFunction,Conductor*
G36*
X95487397Y-98020185D02*
G01*
X95533152Y-98072989D01*
X95543096Y-98142147D01*
X95514071Y-98205703D01*
X95495284Y-98223303D01*
X95482784Y-98232781D01*
X95393838Y-98350074D01*
X95339833Y-98487021D01*
X95329500Y-98573071D01*
X95329500Y-99026918D01*
X95339834Y-99112978D01*
X95341637Y-99120110D01*
X95338983Y-99189930D01*
X95299004Y-99247231D01*
X95234391Y-99273821D01*
X95221419Y-99274501D01*
X94984299Y-99274501D01*
X94947433Y-99277402D01*
X94947427Y-99277403D01*
X94789607Y-99323255D01*
X94789604Y-99323256D01*
X94648138Y-99406918D01*
X94648130Y-99406924D01*
X94531924Y-99523130D01*
X94531918Y-99523138D01*
X94448256Y-99664604D01*
X94448255Y-99664607D01*
X94402403Y-99822427D01*
X94402402Y-99822433D01*
X94399501Y-99859299D01*
X94399501Y-100640702D01*
X94402402Y-100677568D01*
X94402403Y-100677574D01*
X94448255Y-100835394D01*
X94448256Y-100835397D01*
X94448257Y-100835399D01*
X94480858Y-100890525D01*
X94531918Y-100976863D01*
X94531924Y-100976871D01*
X94648130Y-101093077D01*
X94648134Y-101093080D01*
X94648136Y-101093082D01*
X94712967Y-101131423D01*
X94775269Y-101168268D01*
X94822952Y-101219337D01*
X94835456Y-101288079D01*
X94808811Y-101352668D01*
X94775269Y-101381732D01*
X94648138Y-101456916D01*
X94648130Y-101456922D01*
X94531924Y-101573128D01*
X94531918Y-101573136D01*
X94448256Y-101714602D01*
X94448255Y-101714605D01*
X94402403Y-101872425D01*
X94402402Y-101872431D01*
X94399501Y-101909297D01*
X94399501Y-102690700D01*
X94402402Y-102727566D01*
X94402403Y-102727572D01*
X94448255Y-102885392D01*
X94448256Y-102885395D01*
X94448257Y-102885397D01*
X94463762Y-102911614D01*
X94531918Y-103026861D01*
X94531924Y-103026869D01*
X94648130Y-103143075D01*
X94648139Y-103143082D01*
X94741374Y-103198221D01*
X94789058Y-103249290D01*
X94801561Y-103318032D01*
X94799874Y-103329128D01*
X94799501Y-103331003D01*
X94799501Y-103331005D01*
X94799501Y-103331007D01*
X94799501Y-103468993D01*
X94799501Y-103468995D01*
X94799500Y-103468995D01*
X94826419Y-103604322D01*
X94826422Y-103604332D01*
X94879222Y-103731804D01*
X94879229Y-103731817D01*
X94955886Y-103846541D01*
X94955889Y-103846545D01*
X95053455Y-103944111D01*
X95053459Y-103944114D01*
X95168183Y-104020771D01*
X95168196Y-104020778D01*
X95295668Y-104073578D01*
X95295673Y-104073580D01*
X95295677Y-104073580D01*
X95295678Y-104073581D01*
X95431005Y-104100500D01*
X95431008Y-104100500D01*
X95568996Y-104100500D01*
X95660042Y-104082389D01*
X95704329Y-104073580D01*
X95802925Y-104032740D01*
X95831805Y-104020778D01*
X95831805Y-104020777D01*
X95831812Y-104020775D01*
X95946543Y-103944114D01*
X96044115Y-103846542D01*
X96120776Y-103731811D01*
X96125448Y-103720533D01*
X96161274Y-103634040D01*
X96173581Y-103604328D01*
X96200501Y-103468993D01*
X96200501Y-103331007D01*
X96200500Y-103331003D01*
X96200131Y-103329146D01*
X96200220Y-103328151D01*
X96199904Y-103324942D01*
X96200512Y-103324882D01*
X96206358Y-103259554D01*
X96249220Y-103204376D01*
X96258627Y-103198221D01*
X96277572Y-103187017D01*
X96351866Y-103143080D01*
X96468082Y-103026864D01*
X96551745Y-102885397D01*
X96597599Y-102727568D01*
X96600501Y-102690693D01*
X96600501Y-101909305D01*
X96597599Y-101872430D01*
X96596946Y-101870184D01*
X96551746Y-101714605D01*
X96551745Y-101714602D01*
X96551745Y-101714601D01*
X96468082Y-101573134D01*
X96468080Y-101573132D01*
X96468077Y-101573128D01*
X96351871Y-101456922D01*
X96351859Y-101456913D01*
X96224733Y-101381732D01*
X96177049Y-101330663D01*
X96164545Y-101261922D01*
X96191190Y-101197332D01*
X96224733Y-101168268D01*
X96351859Y-101093086D01*
X96351858Y-101093086D01*
X96351866Y-101093082D01*
X96468082Y-100976866D01*
X96551745Y-100835399D01*
X96597599Y-100677570D01*
X96600501Y-100640695D01*
X96600501Y-99859307D01*
X96597599Y-99822432D01*
X96591654Y-99801969D01*
X96555426Y-99677271D01*
X96550502Y-99642676D01*
X96550502Y-99365019D01*
X96570187Y-99297980D01*
X96575699Y-99290093D01*
X96606163Y-99249921D01*
X96606163Y-99249920D01*
X96660166Y-99112978D01*
X96670500Y-99026926D01*
X96670499Y-98573073D01*
X96660166Y-98487020D01*
X96606163Y-98350077D01*
X96606161Y-98350074D01*
X96517215Y-98232781D01*
X96504716Y-98223303D01*
X96463193Y-98167111D01*
X96458642Y-98097389D01*
X96492507Y-98036276D01*
X96554037Y-98003172D01*
X96579642Y-98000500D01*
X97276000Y-98000500D01*
X97343039Y-98020185D01*
X97388794Y-98072989D01*
X97400000Y-98124500D01*
X97400000Y-103800000D01*
X99720113Y-103800000D01*
X99787152Y-103819685D01*
X99807794Y-103836319D01*
X99809490Y-103838015D01*
X100111985Y-104140510D01*
X100237515Y-104212984D01*
X100377525Y-104250500D01*
X100377526Y-104250500D01*
X100522474Y-104250500D01*
X101455500Y-104250500D01*
X101522539Y-104270185D01*
X101568294Y-104322989D01*
X101579500Y-104374499D01*
X101579501Y-104500999D01*
X101559817Y-104568039D01*
X101507013Y-104613794D01*
X101455501Y-104625000D01*
X101145123Y-104625000D01*
X101141034Y-104624305D01*
X101138802Y-104624839D01*
X101104171Y-104618042D01*
X101093939Y-104614462D01*
X101093924Y-104614457D01*
X101083893Y-104610947D01*
X101076949Y-104608517D01*
X101064788Y-104603523D01*
X101016462Y-104580613D01*
X101016459Y-104580612D01*
X101016457Y-104580611D01*
X100949418Y-104560926D01*
X100949416Y-104560925D01*
X100949414Y-104560925D01*
X100949411Y-104560924D01*
X100835172Y-104544500D01*
X100764828Y-104544500D01*
X100763597Y-104544519D01*
X100751700Y-104544711D01*
X100747602Y-104544844D01*
X100747596Y-104544845D01*
X100743710Y-104544971D01*
X100742234Y-104545022D01*
X100695625Y-104554133D01*
X100695083Y-104550358D01*
X100672181Y-104553651D01*
X100626823Y-104562841D01*
X100576897Y-104584782D01*
X100573010Y-104585692D01*
X100552091Y-104593333D01*
X100552073Y-104593341D01*
X100533824Y-104603145D01*
X100516105Y-104610947D01*
X100495841Y-104618039D01*
X100454880Y-104625000D01*
X100145123Y-104625000D01*
X100104170Y-104618042D01*
X100093939Y-104614462D01*
X100093924Y-104614457D01*
X100083893Y-104610947D01*
X100076949Y-104608517D01*
X100064788Y-104603523D01*
X100016462Y-104580613D01*
X100016459Y-104580612D01*
X100016457Y-104580611D01*
X99949418Y-104560926D01*
X99949416Y-104560925D01*
X99949414Y-104560925D01*
X99949411Y-104560924D01*
X99835172Y-104544500D01*
X99822642Y-104544500D01*
X99775190Y-104535061D01*
X99754332Y-104526421D01*
X99754322Y-104526418D01*
X99618995Y-104499500D01*
X99618993Y-104499500D01*
X99481007Y-104499500D01*
X99481005Y-104499500D01*
X99345677Y-104526418D01*
X99345667Y-104526421D01*
X99218195Y-104579221D01*
X99218183Y-104579228D01*
X99103460Y-104655884D01*
X99103452Y-104655891D01*
X99092479Y-104666864D01*
X99089346Y-104669997D01*
X99054139Y-104700505D01*
X99015412Y-104743927D01*
X99012891Y-104746449D01*
X99012892Y-104746449D01*
X99005890Y-104753451D01*
X99002029Y-104758157D01*
X99001996Y-104758130D01*
X98997067Y-104764498D01*
X98984959Y-104778075D01*
X98984957Y-104778078D01*
X98977913Y-104792935D01*
X98968974Y-104808697D01*
X98929229Y-104868182D01*
X98929223Y-104868192D01*
X98876420Y-104995671D01*
X98876418Y-104995677D01*
X98849500Y-105131004D01*
X98849500Y-105131007D01*
X98849500Y-105268993D01*
X98849500Y-105268995D01*
X98849499Y-105268995D01*
X98876418Y-105404322D01*
X98876421Y-105404332D01*
X98885061Y-105425190D01*
X98894500Y-105472642D01*
X98894500Y-105649515D01*
X98894711Y-105662637D01*
X98894967Y-105670523D01*
X98895022Y-105672126D01*
X98895022Y-105672133D01*
X98900525Y-105700279D01*
X98910778Y-105752718D01*
X98909712Y-105752912D01*
X98914112Y-105777240D01*
X98917645Y-105787841D01*
X98919177Y-105795674D01*
X98919180Y-105795683D01*
X98919365Y-105796633D01*
X98932594Y-105832853D01*
X98933757Y-105836185D01*
X98950600Y-105886721D01*
X98955370Y-105896241D01*
X98981191Y-105938342D01*
X98991652Y-105955399D01*
X98993131Y-105957594D01*
X98992791Y-105957823D01*
X99003049Y-105975172D01*
X99005517Y-105980530D01*
X99015262Y-106008378D01*
X99035469Y-106056100D01*
X99039026Y-106063199D01*
X99053149Y-106083919D01*
X99054583Y-106087031D01*
X99074599Y-106120174D01*
X99074604Y-106120181D01*
X99117254Y-106178378D01*
X99117256Y-106178380D01*
X99117258Y-106178382D01*
X99129759Y-106188746D01*
X99168807Y-106246685D01*
X99170332Y-106316538D01*
X99133850Y-106376126D01*
X99070943Y-106406531D01*
X99035840Y-106407324D01*
X99022954Y-106405777D01*
X99012320Y-106404500D01*
X98587680Y-106404500D01*
X98522539Y-106412322D01*
X98500824Y-106414930D01*
X98354714Y-106472549D01*
X98353953Y-106470621D01*
X98296961Y-106483759D01*
X98231200Y-106460152D01*
X98216598Y-106447656D01*
X97967792Y-106198851D01*
X97967787Y-106198847D01*
X97967784Y-106198844D01*
X97898033Y-106144049D01*
X97898031Y-106144048D01*
X97898029Y-106144047D01*
X97833899Y-106116191D01*
X97759864Y-106084033D01*
X97759862Y-106084032D01*
X97759861Y-106084032D01*
X97753652Y-106082292D01*
X97694410Y-106045250D01*
X97667706Y-105996344D01*
X97665967Y-105990143D01*
X97665967Y-105990136D01*
X97605951Y-105851967D01*
X97597472Y-105841174D01*
X97551154Y-105782212D01*
X97281898Y-105512957D01*
X97281893Y-105512953D01*
X97281890Y-105512950D01*
X97212139Y-105458155D01*
X97212137Y-105458154D01*
X97212135Y-105458153D01*
X97073970Y-105398139D01*
X97043299Y-105393923D01*
X96979564Y-105365292D01*
X96941427Y-105306749D01*
X96937656Y-105289416D01*
X96937428Y-105288603D01*
X96878238Y-105152332D01*
X96878235Y-105152328D01*
X96878235Y-105152327D01*
X96824195Y-105083537D01*
X96824190Y-105083532D01*
X96824187Y-105083528D01*
X96523937Y-104783278D01*
X96523932Y-104783274D01*
X96523929Y-104783271D01*
X96455139Y-104729231D01*
X96318859Y-104670037D01*
X96318856Y-104670036D01*
X96171663Y-104649805D01*
X96024468Y-104670036D01*
X96024462Y-104670038D01*
X95888190Y-104729228D01*
X95888189Y-104729229D01*
X95819395Y-104783271D01*
X95801520Y-104801147D01*
X95749484Y-104853182D01*
X95688164Y-104886666D01*
X95661805Y-104889500D01*
X91724000Y-104889500D01*
X91656961Y-104869815D01*
X91611206Y-104817011D01*
X91600000Y-104765500D01*
X91600000Y-101182935D01*
X91611205Y-101131425D01*
X91659484Y-101025710D01*
X91719954Y-100819769D01*
X91721302Y-100810397D01*
X91725980Y-100777851D01*
X91750500Y-100607318D01*
X91750500Y-100500000D01*
X91750500Y-100434108D01*
X91750500Y-98506961D01*
X91751280Y-98493077D01*
X91751962Y-98487021D01*
X91761459Y-98402731D01*
X91767635Y-98375670D01*
X91795353Y-98296456D01*
X91807396Y-98271450D01*
X91852046Y-98200389D01*
X91869351Y-98178690D01*
X91928690Y-98119351D01*
X91950389Y-98102046D01*
X92021450Y-98057396D01*
X92046456Y-98045353D01*
X92125670Y-98017635D01*
X92152733Y-98011459D01*
X92215419Y-98004396D01*
X92243079Y-98001280D01*
X92256962Y-98000500D01*
X95420358Y-98000500D01*
X95487397Y-98020185D01*
G37*
G04 #@! TD.AperFunction*
G04 #@! TA.AperFunction,Conductor*
G36*
X101478994Y-101786883D02*
G01*
X101524226Y-101809930D01*
X101574696Y-101835646D01*
X101574698Y-101835647D01*
X101668475Y-101850499D01*
X101668481Y-101850500D01*
X102875500Y-101850499D01*
X102942539Y-101870184D01*
X102988294Y-101922987D01*
X102999500Y-101974499D01*
X102999500Y-103597795D01*
X102998639Y-103600724D01*
X102999360Y-103603694D01*
X102988857Y-103634040D01*
X102979815Y-103664834D01*
X102977507Y-103666833D01*
X102976508Y-103669721D01*
X102951266Y-103689571D01*
X102927011Y-103710589D01*
X102923988Y-103711023D01*
X102921587Y-103712912D01*
X102889632Y-103715963D01*
X102857853Y-103720533D01*
X102855073Y-103719263D01*
X102852034Y-103719554D01*
X102823503Y-103704846D01*
X102794297Y-103691508D01*
X102791826Y-103688516D01*
X102789931Y-103687539D01*
X102768114Y-103659796D01*
X102751942Y-103631786D01*
X102751939Y-103631781D01*
X102740511Y-103611987D01*
X102740508Y-103611982D01*
X102388016Y-103259491D01*
X102388015Y-103259490D01*
X102262485Y-103187016D01*
X102241966Y-103181518D01*
X102241962Y-103181517D01*
X102241961Y-103181516D01*
X102156968Y-103158742D01*
X102122475Y-103149500D01*
X102122474Y-103149500D01*
X101424500Y-103149500D01*
X101357461Y-103129815D01*
X101311706Y-103077011D01*
X101300500Y-103025500D01*
X101300499Y-101918481D01*
X101300227Y-101916764D01*
X101300312Y-101916103D01*
X101300117Y-101913620D01*
X101300638Y-101913578D01*
X101309183Y-101847471D01*
X101354180Y-101794020D01*
X101420932Y-101773381D01*
X101478994Y-101786883D01*
G37*
G04 #@! TD.AperFunction*
G04 #@! TA.AperFunction,Conductor*
G36*
X102136516Y-98469685D02*
G01*
X102182271Y-98522489D01*
X102192215Y-98591647D01*
X102163190Y-98655203D01*
X102104412Y-98692977D01*
X102084263Y-98697115D01*
X102072820Y-98698489D01*
X102060824Y-98699930D01*
X101922607Y-98754436D01*
X101922605Y-98754437D01*
X101804215Y-98844215D01*
X101714437Y-98962605D01*
X101714436Y-98962607D01*
X101659930Y-99100824D01*
X101659930Y-99100826D01*
X101649500Y-99187680D01*
X101649500Y-99612320D01*
X101655779Y-99664604D01*
X101659930Y-99699178D01*
X101661877Y-99706878D01*
X101660416Y-99707247D01*
X101665894Y-99767964D01*
X101633554Y-99829899D01*
X101582582Y-99861792D01*
X101574697Y-99864353D01*
X101574696Y-99864354D01*
X101461658Y-99921950D01*
X101461657Y-99921951D01*
X101461652Y-99921954D01*
X101371954Y-100011652D01*
X101371951Y-100011657D01*
X101314352Y-100124698D01*
X101299500Y-100218475D01*
X101299500Y-101481523D01*
X101299501Y-101481526D01*
X101299774Y-101483250D01*
X101299688Y-101483909D01*
X101299883Y-101486380D01*
X101299363Y-101486420D01*
X101290809Y-101552542D01*
X101245806Y-101605988D01*
X101179051Y-101626619D01*
X101121005Y-101613116D01*
X101025304Y-101564354D01*
X101025303Y-101564353D01*
X101025300Y-101564352D01*
X101025301Y-101564352D01*
X100931524Y-101549500D01*
X99468482Y-101549500D01*
X99387519Y-101562323D01*
X99374696Y-101564354D01*
X99261658Y-101621950D01*
X99261657Y-101621951D01*
X99261652Y-101621954D01*
X99171954Y-101711652D01*
X99171948Y-101711660D01*
X99144135Y-101766246D01*
X99096160Y-101817042D01*
X99028339Y-101833836D01*
X98988162Y-101825305D01*
X98964625Y-101816023D01*
X98949172Y-101809929D01*
X98904589Y-101804576D01*
X98862320Y-101799500D01*
X98437680Y-101799500D01*
X98372610Y-101807314D01*
X98350824Y-101809930D01*
X98212607Y-101864436D01*
X98212605Y-101864437D01*
X98094215Y-101954215D01*
X98022804Y-102048385D01*
X97966611Y-102089909D01*
X97896890Y-102094460D01*
X97835776Y-102060595D01*
X97802672Y-101999065D01*
X97800000Y-101973460D01*
X97800000Y-98574000D01*
X97819685Y-98506961D01*
X97872489Y-98461206D01*
X97924000Y-98450000D01*
X102069477Y-98450000D01*
X102136516Y-98469685D01*
G37*
G04 #@! TD.AperFunction*
G04 #@! TA.AperFunction,Conductor*
G36*
X106143039Y-98020185D02*
G01*
X106188794Y-98072989D01*
X106200000Y-98124500D01*
X106200000Y-99144609D01*
X106180315Y-99211648D01*
X106127511Y-99257403D01*
X106058353Y-99267347D01*
X106041406Y-99263686D01*
X106002568Y-99252402D01*
X105965702Y-99249501D01*
X105965695Y-99249501D01*
X105708806Y-99249501D01*
X105641767Y-99229816D01*
X105596012Y-99177012D01*
X105586068Y-99107854D01*
X105593452Y-99080010D01*
X105600168Y-99062980D01*
X105610502Y-98976928D01*
X105610501Y-98523075D01*
X105600168Y-98437022D01*
X105546165Y-98300079D01*
X105533422Y-98283275D01*
X105469837Y-98199425D01*
X105445014Y-98134114D01*
X105459442Y-98065750D01*
X105508540Y-98016039D01*
X105568641Y-98000500D01*
X106076000Y-98000500D01*
X106143039Y-98020185D01*
G37*
G04 #@! TD.AperFunction*
G04 #@! TD*
G04 #@! TA.AperFunction,Conductor*
G04 #@! TO.N,+3.3V*
G36*
X129668036Y-99819687D02*
G01*
X129713791Y-99872491D01*
X129724997Y-99924002D01*
X129724997Y-101616251D01*
X129705312Y-101683290D01*
X129700619Y-101689222D01*
X129700929Y-101689446D01*
X129695742Y-101696638D01*
X129649531Y-101784979D01*
X129649530Y-101784979D01*
X129629848Y-101852011D01*
X129629845Y-101852023D01*
X129619497Y-101924000D01*
X129619497Y-104256067D01*
X129620260Y-104274393D01*
X129603381Y-104342193D01*
X129558368Y-104386938D01*
X129501985Y-104419491D01*
X129501982Y-104419493D01*
X129399493Y-104521982D01*
X129399488Y-104521988D01*
X129327017Y-104647511D01*
X129327016Y-104647515D01*
X129289500Y-104787525D01*
X129289500Y-104932475D01*
X129312581Y-105018613D01*
X129327017Y-105072488D01*
X129399488Y-105198011D01*
X129399490Y-105198013D01*
X129399491Y-105198015D01*
X129501985Y-105300509D01*
X129512154Y-105306380D01*
X129542598Y-105331123D01*
X129551136Y-105340673D01*
X129559530Y-105355212D01*
X129602952Y-105398634D01*
X129605263Y-105401219D01*
X129618837Y-105429764D01*
X129633985Y-105457505D01*
X129633729Y-105461080D01*
X129635269Y-105464318D01*
X129631255Y-105495666D01*
X129629001Y-105527197D01*
X129626852Y-105530067D01*
X129626397Y-105533622D01*
X129606070Y-105557827D01*
X129587129Y-105583130D01*
X129582438Y-105585969D01*
X129581466Y-105587128D01*
X129579535Y-105587727D01*
X129566335Y-105595720D01*
X129546952Y-105604993D01*
X129533220Y-105617326D01*
X129522030Y-105626263D01*
X129519782Y-105627854D01*
X129483822Y-105655789D01*
X129483818Y-105655793D01*
X129463314Y-105684222D01*
X129463315Y-105684223D01*
X129444609Y-105710162D01*
X129444170Y-105709834D01*
X129430901Y-105727561D01*
X129427281Y-105734189D01*
X129425705Y-105736374D01*
X129425505Y-105736653D01*
X129425500Y-105736661D01*
X129425131Y-105737470D01*
X129421188Y-105745346D01*
X129396059Y-105791369D01*
X129396053Y-105791383D01*
X129373470Y-105851928D01*
X129367882Y-105862161D01*
X129356555Y-105882904D01*
X129335704Y-105910757D01*
X129310748Y-105935712D01*
X129282893Y-105956564D01*
X129251919Y-105973478D01*
X129215166Y-105987187D01*
X129171830Y-105995006D01*
X128178166Y-105995006D01*
X128172536Y-105993990D01*
X128169319Y-105994690D01*
X128134831Y-105987187D01*
X128098077Y-105973478D01*
X128067100Y-105956563D01*
X128039246Y-105935711D01*
X128014293Y-105910759D01*
X128014292Y-105910757D01*
X127993438Y-105882901D01*
X127976526Y-105851928D01*
X127953945Y-105791383D01*
X127950598Y-105782880D01*
X127947210Y-105774702D01*
X127947208Y-105774697D01*
X127904264Y-105705180D01*
X127904253Y-105705165D01*
X127858516Y-105652383D01*
X127858510Y-105652376D01*
X127825730Y-105620745D01*
X127759249Y-105585969D01*
X127737395Y-105574537D01*
X127737394Y-105574536D01*
X127737393Y-105574536D01*
X127737393Y-105574535D01*
X127670361Y-105554853D01*
X127670349Y-105554850D01*
X127598372Y-105544502D01*
X127598371Y-105544502D01*
X127074334Y-105544502D01*
X127074332Y-105544502D01*
X127070794Y-105544734D01*
X127062681Y-105545000D01*
X126937319Y-105545000D01*
X126929206Y-105544734D01*
X126925668Y-105544502D01*
X126925666Y-105544502D01*
X126648998Y-105544502D01*
X126581959Y-105524817D01*
X126536204Y-105472013D01*
X126524998Y-105420502D01*
X126524998Y-99924002D01*
X126544683Y-99856963D01*
X126597487Y-99811208D01*
X126648998Y-99800002D01*
X129600997Y-99800002D01*
X129668036Y-99819687D01*
G37*
G04 #@! TD.AperFunction*
G04 #@! TD*
G04 #@! TA.AperFunction,Conductor*
G04 #@! TO.N,GND*
G36*
X129980995Y-105800002D02*
G01*
X129874998Y-105800003D01*
X129874997Y-106950001D01*
X130492916Y-106950001D01*
X130455499Y-107030243D01*
X130449500Y-107075813D01*
X130449499Y-107075829D01*
X130449499Y-107403287D01*
X130449239Y-107411306D01*
X130448973Y-107415409D01*
X130447183Y-107429012D01*
X130444997Y-107462363D01*
X130444997Y-107476765D01*
X130444737Y-107480778D01*
X130440877Y-107491340D01*
X130433380Y-107525162D01*
X130403432Y-107589386D01*
X130400854Y-107597963D01*
X130400865Y-107597966D01*
X130379848Y-107669539D01*
X130379847Y-107669547D01*
X130369772Y-107739622D01*
X130369497Y-107741532D01*
X130369497Y-108126003D01*
X130349812Y-108193042D01*
X130297008Y-108238797D01*
X130245498Y-108250003D01*
X130074999Y-108250004D01*
X130074999Y-110125999D01*
X130055314Y-110193038D01*
X130002510Y-110238793D01*
X129950999Y-110249999D01*
X126648998Y-110249999D01*
X126581959Y-110230314D01*
X126536204Y-110177510D01*
X126524998Y-110125999D01*
X126524998Y-108656656D01*
X126532816Y-108613323D01*
X126544491Y-108582022D01*
X126546737Y-108561128D01*
X126550499Y-108526146D01*
X126550500Y-108526129D01*
X126550500Y-107673864D01*
X126550499Y-107673853D01*
X126544491Y-107617981D01*
X126544491Y-107617978D01*
X126532816Y-107586675D01*
X126524998Y-107543346D01*
X126524998Y-105923998D01*
X126544683Y-105856963D01*
X126597487Y-105811208D01*
X126648993Y-105800002D01*
X126925666Y-105800002D01*
X126927525Y-105800500D01*
X127072475Y-105800500D01*
X127074334Y-105800002D01*
X127598371Y-105800002D01*
X127665410Y-105819687D01*
X127711165Y-105872491D01*
X127714553Y-105880669D01*
X127756201Y-105992335D01*
X127756205Y-105992342D01*
X127842451Y-106107551D01*
X127842454Y-106107554D01*
X127957663Y-106193800D01*
X127957670Y-106193804D01*
X128092516Y-106244098D01*
X128092515Y-106244098D01*
X128099443Y-106244842D01*
X128152126Y-106250507D01*
X129197871Y-106250506D01*
X129257482Y-106244098D01*
X129392330Y-106193803D01*
X129507545Y-106107553D01*
X129593795Y-105992338D01*
X129613224Y-105940247D01*
X129635446Y-105880667D01*
X129648715Y-105862940D01*
X129657915Y-105842797D01*
X129669245Y-105835515D01*
X129677317Y-105824733D01*
X129698065Y-105816994D01*
X129716693Y-105805023D01*
X129738609Y-105801871D01*
X129742781Y-105800316D01*
X129751610Y-105800000D01*
X129980986Y-105800000D01*
X129980995Y-105800002D01*
G37*
G04 #@! TD.AperFunction*
G04 #@! TD*
G04 #@! TA.AperFunction,Conductor*
G04 #@! TO.N,+BATT*
G36*
X144849999Y-103400000D02*
G01*
X144849999Y-104276000D01*
X144830314Y-104343039D01*
X144777510Y-104388794D01*
X144725999Y-104400000D01*
X142801332Y-104400000D01*
X142734293Y-104380315D01*
X142713651Y-104363681D01*
X142409509Y-104059539D01*
X142397225Y-104052447D01*
X142397223Y-104052446D01*
X142389328Y-104047888D01*
X142340988Y-104019979D01*
X142264561Y-103999500D01*
X142263403Y-103999500D01*
X142254334Y-103995912D01*
X142251650Y-103993819D01*
X142251396Y-103994433D01*
X142240111Y-103989758D01*
X142163403Y-103974500D01*
X141824860Y-103974500D01*
X141757821Y-103954815D01*
X141712066Y-103902011D01*
X141702122Y-103832853D01*
X141731147Y-103769297D01*
X141737165Y-103762833D01*
X142599999Y-102900000D01*
X142599999Y-101400000D01*
X142600000Y-101400000D01*
X144849999Y-101400000D01*
X144849999Y-103400000D01*
G37*
G04 #@! TD.AperFunction*
G04 #@! TD*
G04 #@! TA.AperFunction,Conductor*
G04 #@! TO.N,GND*
G36*
X132794331Y-105028862D02*
G01*
X132850265Y-105070733D01*
X132874682Y-105136197D01*
X132874998Y-105145044D01*
X132874998Y-105601900D01*
X132858385Y-105663900D01*
X132787017Y-105787511D01*
X132787016Y-105787515D01*
X132749500Y-105927525D01*
X132749500Y-106072475D01*
X132787016Y-106212485D01*
X132858385Y-106336100D01*
X132862535Y-106351587D01*
X132869975Y-106363164D01*
X132874998Y-106398099D01*
X132874998Y-106631706D01*
X132873702Y-106649584D01*
X132869501Y-106678417D01*
X132869501Y-107121582D01*
X132873702Y-107150415D01*
X132874998Y-107168293D01*
X132874998Y-107570498D01*
X132855313Y-107637537D01*
X132802509Y-107683292D01*
X132750998Y-107694498D01*
X131919834Y-107694500D01*
X131916654Y-107693566D01*
X131913430Y-107694335D01*
X131883364Y-107683791D01*
X131852795Y-107674816D01*
X131849692Y-107671983D01*
X131847497Y-107671214D01*
X131838351Y-107661632D01*
X131822052Y-107646754D01*
X131816681Y-107639867D01*
X131815314Y-107637228D01*
X131787077Y-107601905D01*
X131786619Y-107601318D01*
X131786539Y-107601116D01*
X131781298Y-107593954D01*
X131768536Y-107574854D01*
X131741319Y-107547637D01*
X131707834Y-107486314D01*
X131705000Y-107459956D01*
X131705000Y-107174502D01*
X131701208Y-107139230D01*
X131700498Y-107125975D01*
X131700498Y-107075821D01*
X131694498Y-107030245D01*
X131694498Y-107030242D01*
X131647849Y-106930203D01*
X131569798Y-106852152D01*
X131469759Y-106805503D01*
X131469757Y-106805502D01*
X131424187Y-106799503D01*
X131424184Y-106799502D01*
X131424178Y-106799502D01*
X131424171Y-106799502D01*
X131365668Y-106799502D01*
X131348023Y-106798240D01*
X131325502Y-106795002D01*
X131325500Y-106795002D01*
X130834374Y-106795002D01*
X130834371Y-106795002D01*
X130819200Y-106795453D01*
X130819187Y-106795453D01*
X130819179Y-106795454D01*
X130804459Y-106796331D01*
X130804457Y-106796331D01*
X130804447Y-106796332D01*
X130799164Y-106797108D01*
X130799129Y-106796875D01*
X130776589Y-106799502D01*
X130725819Y-106799502D01*
X130680242Y-106805502D01*
X130680235Y-106805504D01*
X130580199Y-106852152D01*
X130502149Y-106930202D01*
X130492917Y-106950001D01*
X129874997Y-106950001D01*
X129874998Y-105800003D01*
X129980994Y-105800002D01*
X130048024Y-105819685D01*
X130068666Y-105836319D01*
X130080199Y-105847852D01*
X130180238Y-105894501D01*
X130225819Y-105900502D01*
X130424176Y-105900501D01*
X130424178Y-105900501D01*
X130442408Y-105898101D01*
X130469758Y-105894501D01*
X130471010Y-105893916D01*
X130472583Y-105893677D01*
X130478868Y-105891846D01*
X130479112Y-105892685D01*
X130540085Y-105883418D01*
X130580896Y-105896417D01*
X130635474Y-105924967D01*
X130702513Y-105944652D01*
X130702517Y-105944652D01*
X130702519Y-105944653D01*
X130711290Y-105945914D01*
X130774498Y-105955002D01*
X130774499Y-105955002D01*
X130875500Y-105955002D01*
X130911862Y-105952401D01*
X130946797Y-105947378D01*
X130955824Y-105945915D01*
X130970747Y-105940041D01*
X130970792Y-105940247D01*
X130981308Y-105937960D01*
X131007711Y-105930717D01*
X131037394Y-105913812D01*
X131048590Y-105909406D01*
X131054651Y-105905510D01*
X131054650Y-105905509D01*
X131059872Y-105902153D01*
X131126908Y-105882459D01*
X131171020Y-105892235D01*
X131171134Y-105891847D01*
X131177057Y-105893573D01*
X131179330Y-105894077D01*
X131180239Y-105894501D01*
X131225820Y-105900502D01*
X131424177Y-105900501D01*
X131424179Y-105900501D01*
X131439371Y-105898501D01*
X131469759Y-105894501D01*
X131569798Y-105847852D01*
X131617650Y-105800000D01*
X131624998Y-105800000D01*
X131624998Y-105792652D01*
X131647849Y-105769801D01*
X131694498Y-105669762D01*
X131700499Y-105624181D01*
X131700498Y-105324500D01*
X131720182Y-105257462D01*
X131772986Y-105211707D01*
X131824495Y-105200501D01*
X132421146Y-105200499D01*
X132492978Y-105181251D01*
X132510288Y-105176613D01*
X132511657Y-105175823D01*
X132518128Y-105172086D01*
X132590212Y-105130469D01*
X132663320Y-105057360D01*
X132724639Y-105023878D01*
X132794331Y-105028862D01*
G37*
G04 #@! TD.AperFunction*
G04 #@! TD*
G04 #@! TA.AperFunction,Conductor*
G04 #@! TO.N,+3.3V*
G36*
X97038156Y-107169685D02*
G01*
X97058798Y-107186318D01*
X97112023Y-107239542D01*
X97217840Y-107345359D01*
X97263681Y-107391199D01*
X97297166Y-107452522D01*
X97300000Y-107478881D01*
X97300000Y-107904556D01*
X97280315Y-107971595D01*
X97275771Y-107978189D01*
X97236942Y-108030799D01*
X97192339Y-108158266D01*
X97192337Y-108158275D01*
X97189500Y-108188532D01*
X97189500Y-108566768D01*
X97183577Y-108586936D01*
X97182469Y-108607931D01*
X97173930Y-108619790D01*
X97169815Y-108633807D01*
X97153930Y-108647571D01*
X97141646Y-108664634D01*
X97119963Y-108677003D01*
X97117011Y-108679562D01*
X97110990Y-108682123D01*
X97055945Y-108703829D01*
X97011504Y-108721354D01*
X96966016Y-108729999D01*
X96924669Y-108729999D01*
X96862670Y-108713387D01*
X96776629Y-108663712D01*
X96722152Y-108649115D01*
X96623902Y-108622789D01*
X96465788Y-108622789D01*
X96457662Y-108622789D01*
X96457662Y-108620522D01*
X96416775Y-108616569D01*
X96368228Y-108600311D01*
X96241655Y-108591810D01*
X96241647Y-108591811D01*
X96172063Y-108598091D01*
X96059749Y-108624724D01*
X96017577Y-108641355D01*
X95972088Y-108650000D01*
X95619353Y-108650000D01*
X95604568Y-108649115D01*
X95591711Y-108647571D01*
X95588106Y-108647138D01*
X95569021Y-108643307D01*
X95557485Y-108640031D01*
X95557478Y-108640029D01*
X95509496Y-108631412D01*
X95475345Y-108628225D01*
X95441197Y-108625039D01*
X95441196Y-108625039D01*
X95441195Y-108625039D01*
X95315727Y-108643838D01*
X95252778Y-108663712D01*
X95249101Y-108664873D01*
X95222951Y-108677003D01*
X95154811Y-108708610D01*
X95059429Y-108792252D01*
X95059424Y-108792257D01*
X95004101Y-108858769D01*
X95000431Y-108865184D01*
X94996095Y-108872103D01*
X94983558Y-108887259D01*
X94932397Y-108973765D01*
X94931534Y-108975144D01*
X94930080Y-108976433D01*
X94914137Y-108996987D01*
X94896986Y-109014138D01*
X94872427Y-109033189D01*
X94851548Y-109045537D01*
X94823022Y-109057881D01*
X94798260Y-109065075D01*
X94763666Y-109069999D01*
X94236336Y-109069999D01*
X94201743Y-109065076D01*
X94176976Y-109057881D01*
X94148451Y-109045537D01*
X94127565Y-109033185D01*
X94103012Y-109014138D01*
X94086319Y-108997445D01*
X94052834Y-108936122D01*
X94050000Y-108909764D01*
X94050000Y-108340234D01*
X94058458Y-108311427D01*
X94064514Y-108282021D01*
X94068790Y-108276241D01*
X94069685Y-108273195D01*
X94085349Y-108253533D01*
X94085831Y-108253039D01*
X94150306Y-108188566D01*
X94149588Y-108187848D01*
X94185655Y-108150971D01*
X94186986Y-108150224D01*
X94189492Y-108147214D01*
X94191154Y-108145657D01*
X94234017Y-108090480D01*
X94286738Y-108000896D01*
X94317673Y-107877857D01*
X94323900Y-107808266D01*
X94317722Y-107693016D01*
X94307383Y-107641038D01*
X94305000Y-107616847D01*
X94305000Y-107583156D01*
X94307382Y-107558968D01*
X94313953Y-107525929D01*
X94321011Y-107502662D01*
X94324564Y-107494086D01*
X94333899Y-107471549D01*
X94345355Y-107450116D01*
X94355954Y-107434253D01*
X94364079Y-107422092D01*
X94379489Y-107403314D01*
X94403315Y-107379488D01*
X94422092Y-107364077D01*
X94450113Y-107345355D01*
X94471541Y-107333901D01*
X94502667Y-107321009D01*
X94525926Y-107313954D01*
X94558970Y-107307382D01*
X94583158Y-107305000D01*
X94616841Y-107305000D01*
X94641032Y-107307383D01*
X94674072Y-107313955D01*
X94697325Y-107321007D01*
X94728457Y-107333902D01*
X94749885Y-107345356D01*
X94749889Y-107345359D01*
X94801018Y-107379523D01*
X94809931Y-107386072D01*
X94843068Y-107412775D01*
X94843076Y-107412780D01*
X94843084Y-107412787D01*
X94887431Y-107441288D01*
X94887435Y-107441290D01*
X94954164Y-107475894D01*
X94954167Y-107475895D01*
X94954169Y-107475896D01*
X95077741Y-107504630D01*
X95077743Y-107504630D01*
X95077750Y-107504631D01*
X95099497Y-107506185D01*
X95147433Y-107509614D01*
X95251204Y-107503680D01*
X95370694Y-107461046D01*
X95432017Y-107427561D01*
X95470323Y-107398882D01*
X95475714Y-107395068D01*
X95478739Y-107393046D01*
X95478740Y-107393047D01*
X95550119Y-107345351D01*
X95571533Y-107333905D01*
X95602673Y-107321006D01*
X95625926Y-107313954D01*
X95658970Y-107307382D01*
X95683158Y-107305000D01*
X95716841Y-107305000D01*
X95741032Y-107307383D01*
X95774072Y-107313955D01*
X95797330Y-107321010D01*
X95817540Y-107329380D01*
X95828449Y-107333899D01*
X95849881Y-107345354D01*
X95901023Y-107379525D01*
X95909928Y-107386068D01*
X95943081Y-107412785D01*
X95953648Y-107419576D01*
X95971460Y-107434253D01*
X95986436Y-107440648D01*
X95987432Y-107441288D01*
X96054170Y-107475896D01*
X96062079Y-107477735D01*
X96079603Y-107481810D01*
X96083251Y-107482846D01*
X96083406Y-107482885D01*
X96083442Y-107482895D01*
X96088136Y-107484076D01*
X96096462Y-107486171D01*
X96096462Y-107486170D01*
X96132131Y-107495147D01*
X96132131Y-107495148D01*
X96155877Y-107501124D01*
X96158107Y-107501388D01*
X96162909Y-107501958D01*
X96162910Y-107501958D01*
X96169720Y-107502765D01*
X96177741Y-107504630D01*
X96197182Y-107506020D01*
X96259125Y-107513363D01*
X96298578Y-107506686D01*
X96351218Y-107503677D01*
X96382661Y-107492456D01*
X96384215Y-107492194D01*
X96394698Y-107488665D01*
X96394697Y-107488664D01*
X96398611Y-107487348D01*
X96398623Y-107487344D01*
X96427177Y-107477735D01*
X96450389Y-107469924D01*
X96461438Y-107464346D01*
X96470707Y-107461039D01*
X96492198Y-107449303D01*
X96491991Y-107448924D01*
X96553465Y-107417893D01*
X96562387Y-107411653D01*
X96602271Y-107378204D01*
X96613038Y-107370130D01*
X96683290Y-107323188D01*
X96692544Y-107317575D01*
X96712794Y-107306475D01*
X96723895Y-107298713D01*
X96729265Y-107294893D01*
X96732515Y-107292541D01*
X96819402Y-107207045D01*
X96824908Y-107199688D01*
X96828564Y-107196952D01*
X96830462Y-107192797D01*
X96856273Y-107176208D01*
X96880841Y-107157818D01*
X96886471Y-107156802D01*
X96889240Y-107155023D01*
X96924175Y-107150000D01*
X96971117Y-107150000D01*
X97038156Y-107169685D01*
G37*
G04 #@! TD.AperFunction*
G04 #@! TD*
G04 #@! TA.AperFunction,Conductor*
G04 #@! TO.N,+5V*
G36*
X143750000Y-110750000D02*
G01*
X137500000Y-110750000D01*
X137500000Y-110500000D01*
X138963681Y-109036319D01*
X139025004Y-109002834D01*
X139051362Y-109000000D01*
X144468748Y-109000000D01*
X144750000Y-109000000D01*
X143750000Y-110750000D01*
G37*
G04 #@! TD.AperFunction*
G04 #@! TD*
G04 #@! TA.AperFunction,Conductor*
G04 #@! TO.N,GND*
G36*
X140737538Y-101419685D02*
G01*
X140783293Y-101472489D01*
X140794499Y-101524000D01*
X140794499Y-103591343D01*
X140795677Y-103613321D01*
X140798510Y-103639664D01*
X140798511Y-103639670D01*
X140822467Y-103716179D01*
X140822468Y-103716182D01*
X140834830Y-103738823D01*
X140838516Y-103753262D01*
X140844975Y-103763313D01*
X140849998Y-103798248D01*
X140849998Y-104026000D01*
X140830313Y-104093039D01*
X140777509Y-104138794D01*
X140725998Y-104150000D01*
X137474000Y-104150000D01*
X137406961Y-104130315D01*
X137361206Y-104077511D01*
X137350000Y-104026000D01*
X137349999Y-101524000D01*
X137369684Y-101456961D01*
X137422487Y-101411206D01*
X137473999Y-101400000D01*
X140670499Y-101400000D01*
X140737538Y-101419685D01*
G37*
G04 #@! TD.AperFunction*
G04 #@! TD*
G04 #@! TA.AperFunction,Conductor*
G04 #@! TO.N,+BATT*
G36*
X144198312Y-98219685D02*
G01*
X144236425Y-98258280D01*
X146071562Y-101194500D01*
X146181152Y-101369843D01*
X146185954Y-101386588D01*
X146194977Y-101400628D01*
X146195029Y-101400994D01*
X144849999Y-101670000D01*
X144849999Y-101400000D01*
X142600000Y-101400000D01*
X142600000Y-101200000D01*
X142273121Y-101200000D01*
X142255474Y-101198738D01*
X142241357Y-101196708D01*
X142225999Y-101194500D01*
X141123999Y-101194500D01*
X141123991Y-101194500D01*
X141079459Y-101199289D01*
X141066203Y-101200000D01*
X140717621Y-101200000D01*
X140699974Y-101198738D01*
X140685857Y-101196708D01*
X140670499Y-101194500D01*
X138724000Y-101194500D01*
X138656961Y-101174815D01*
X138611206Y-101122011D01*
X138600000Y-101070500D01*
X138600000Y-98324000D01*
X138619685Y-98256961D01*
X138672489Y-98211206D01*
X138724000Y-98200000D01*
X144131273Y-98200000D01*
X144198312Y-98219685D01*
G37*
G04 #@! TD.AperFunction*
G04 #@! TD*
G04 #@! TA.AperFunction,Conductor*
G04 #@! TO.N,/PWR/Boost_Ind*
G36*
X142293038Y-101419685D02*
G01*
X142338793Y-101472489D01*
X142349999Y-101524000D01*
X142349999Y-102808015D01*
X142330314Y-102875054D01*
X142313680Y-102895696D01*
X141743939Y-103465436D01*
X141719311Y-103481893D01*
X141720035Y-103482976D01*
X141622887Y-103547888D01*
X141564759Y-103634882D01*
X141564757Y-103634887D01*
X141564383Y-103636767D01*
X141545882Y-103681436D01*
X141544224Y-103683917D01*
X141544213Y-103683937D01*
X141515199Y-103747468D01*
X141515196Y-103747475D01*
X141506167Y-103770950D01*
X141506166Y-103770953D01*
X141498713Y-103862096D01*
X141498713Y-103862098D01*
X141499777Y-103869495D01*
X141508658Y-103931258D01*
X141513750Y-103955873D01*
X141556634Y-104036349D01*
X141570790Y-104104768D01*
X141566440Y-104122766D01*
X141567141Y-104122906D01*
X141549499Y-104211596D01*
X141549499Y-104388400D01*
X141550097Y-104394463D01*
X141548068Y-104394662D01*
X141546762Y-104409213D01*
X141549036Y-104433017D01*
X141543696Y-104443373D01*
X141542655Y-104454982D01*
X141527978Y-104473864D01*
X141517021Y-104495120D01*
X141502709Y-104506374D01*
X141499777Y-104510148D01*
X141489278Y-104516938D01*
X141484011Y-104519979D01*
X141435671Y-104547888D01*
X141429674Y-104551350D01*
X141415489Y-104559539D01*
X141415487Y-104559541D01*
X141361348Y-104613681D01*
X141300025Y-104647166D01*
X141273667Y-104650000D01*
X141123999Y-104650000D01*
X141115313Y-104647449D01*
X141106352Y-104648738D01*
X141082311Y-104637759D01*
X141056960Y-104630315D01*
X141051032Y-104623474D01*
X141042796Y-104619713D01*
X141028506Y-104597478D01*
X141011205Y-104577511D01*
X141008917Y-104566996D01*
X141005022Y-104560935D01*
X140999999Y-104526000D01*
X140999999Y-104408656D01*
X141019684Y-104341617D01*
X141036318Y-104320975D01*
X141104214Y-104253079D01*
X141147706Y-104154580D01*
X141150499Y-104130505D01*
X141150498Y-103869496D01*
X141147706Y-103845420D01*
X141147704Y-103845415D01*
X141104217Y-103746926D01*
X141104215Y-103746923D01*
X141104214Y-103746921D01*
X141036317Y-103679024D01*
X141002833Y-103617700D01*
X140999999Y-103591343D01*
X140999999Y-101524000D01*
X141019684Y-101456961D01*
X141072488Y-101411206D01*
X141123999Y-101400000D01*
X142225999Y-101400000D01*
X142293038Y-101419685D01*
G37*
G04 #@! TD.AperFunction*
G04 #@! TD*
G04 #@! TA.AperFunction,Conductor*
G04 #@! TO.N,GND*
G36*
X102703101Y-113569494D02*
G01*
X102763181Y-113629573D01*
X102796666Y-113690896D01*
X102799500Y-113717255D01*
X102799500Y-113779056D01*
X102800000Y-113780922D01*
X102800000Y-114499500D01*
X101769937Y-114499500D01*
X101744651Y-114506275D01*
X101712560Y-114510500D01*
X101487440Y-114510500D01*
X101455348Y-114506275D01*
X101430063Y-114499500D01*
X101430062Y-114499500D01*
X101117255Y-114499500D01*
X101050216Y-114479815D01*
X101050000Y-114479640D01*
X101050000Y-113985552D01*
X101178216Y-114059577D01*
X101330943Y-114100500D01*
X101330945Y-114100500D01*
X101489055Y-114100500D01*
X101489057Y-114100500D01*
X101641784Y-114059577D01*
X101778716Y-113980520D01*
X101890520Y-113868716D01*
X101969577Y-113731784D01*
X101993525Y-113642405D01*
X102029890Y-113582746D01*
X102092737Y-113552217D01*
X102113300Y-113550500D01*
X102523070Y-113550500D01*
X102552809Y-113547711D01*
X102552809Y-113547710D01*
X102552819Y-113547710D01*
X102574467Y-113540134D01*
X102644242Y-113536572D01*
X102703101Y-113569494D01*
G37*
G04 #@! TD.AperFunction*
G04 #@! TD*
G04 #@! TA.AperFunction,Conductor*
G04 #@! TO.N,GND*
G36*
X137693039Y-98269685D02*
G01*
X137738794Y-98322489D01*
X137750000Y-98374000D01*
X137750000Y-101126000D01*
X137730315Y-101193039D01*
X137677511Y-101238794D01*
X137626000Y-101250000D01*
X130124000Y-101250000D01*
X130056961Y-101230315D01*
X130011206Y-101177511D01*
X130000000Y-101126000D01*
X130000000Y-98374000D01*
X130019685Y-98306961D01*
X130072489Y-98261206D01*
X130124000Y-98250000D01*
X137626000Y-98250000D01*
X137693039Y-98269685D01*
G37*
G04 #@! TD.AperFunction*
G04 #@! TD*
G04 #@! TA.AperFunction,Conductor*
G04 #@! TO.N,GND*
G36*
X144062499Y-107250000D02*
G01*
X144899999Y-107606383D01*
X144899999Y-107886700D01*
X144881151Y-107952419D01*
X144809044Y-108067791D01*
X144809041Y-108067796D01*
X144796735Y-108096095D01*
X144790408Y-108108646D01*
X144756717Y-108166998D01*
X144739581Y-108189340D01*
X144739681Y-108189430D01*
X144739691Y-108189438D01*
X144739690Y-108189438D01*
X144739839Y-108189571D01*
X144737505Y-108192184D01*
X144708546Y-108228586D01*
X144631589Y-108351719D01*
X144579365Y-108398135D01*
X144526437Y-108409999D01*
X142929101Y-108409999D01*
X142862062Y-108390314D01*
X142816307Y-108337510D01*
X142806006Y-108280429D01*
X142805499Y-108280429D01*
X142805499Y-108277620D01*
X142805416Y-108277161D01*
X142805499Y-108275999D01*
X142805499Y-107524008D01*
X142805499Y-107524000D01*
X142802773Y-107498650D01*
X142815177Y-107429893D01*
X142862786Y-107378755D01*
X142926611Y-107361396D01*
X143724535Y-107364943D01*
X143724535Y-107364942D01*
X143724536Y-107364943D01*
X143727440Y-107364640D01*
X143768686Y-107360345D01*
X143820748Y-107349140D01*
X143831372Y-107346556D01*
X143912084Y-107303546D01*
X143964888Y-107257791D01*
X143982842Y-107240200D01*
X143992203Y-107223464D01*
X144042110Y-107174566D01*
X144049870Y-107172627D01*
X144062499Y-107159999D01*
X144062499Y-107250000D01*
G37*
G04 #@! TD.AperFunction*
G04 #@! TD*
G04 #@! TA.AperFunction,Conductor*
G04 #@! TO.N,GND*
G36*
X123101964Y-108623985D02*
G01*
X123145408Y-108672003D01*
X123175342Y-108730751D01*
X123175344Y-108730753D01*
X123175346Y-108730756D01*
X123269243Y-108824653D01*
X123269245Y-108824654D01*
X123269249Y-108824658D01*
X123387580Y-108884951D01*
X123387581Y-108884951D01*
X123387583Y-108884952D01*
X123387582Y-108884952D01*
X123485749Y-108900500D01*
X123485754Y-108900500D01*
X123989251Y-108900500D01*
X124049104Y-108891020D01*
X124067644Y-108893415D01*
X124086149Y-108890755D01*
X124101576Y-108897800D01*
X124118397Y-108899974D01*
X124132699Y-108912013D01*
X124149705Y-108919780D01*
X124158874Y-108934047D01*
X124171849Y-108944970D01*
X124177371Y-108962830D01*
X124187479Y-108978558D01*
X124192037Y-109010261D01*
X124192489Y-109011722D01*
X124192502Y-109013493D01*
X124192502Y-109044596D01*
X124172817Y-109111635D01*
X124157538Y-109130595D01*
X124156777Y-109131682D01*
X124106027Y-109240514D01*
X124099500Y-109290098D01*
X124099500Y-109709894D01*
X124099501Y-109709900D01*
X124106028Y-109759487D01*
X124106029Y-109759489D01*
X124106029Y-109759490D01*
X124156776Y-109868317D01*
X124162998Y-109877202D01*
X124161812Y-109878032D01*
X124189668Y-109929046D01*
X124192502Y-109955404D01*
X124192502Y-110390300D01*
X124172817Y-110457339D01*
X124120013Y-110503094D01*
X124068502Y-110514300D01*
X121016502Y-110514300D01*
X120949463Y-110494615D01*
X120903708Y-110441811D01*
X120892502Y-110390300D01*
X120892502Y-108728300D01*
X120912187Y-108661261D01*
X120964991Y-108615506D01*
X121016502Y-108604300D01*
X123034925Y-108604300D01*
X123101964Y-108623985D01*
G37*
G04 #@! TD.AperFunction*
G04 #@! TD*
G04 #@! TA.AperFunction,Conductor*
G04 #@! TO.N,+BATT*
G36*
X146200000Y-101435563D02*
G01*
X146200000Y-103276000D01*
X146180315Y-103343039D01*
X146127511Y-103388794D01*
X146076000Y-103400000D01*
X144849999Y-103400000D01*
X144849999Y-101670000D01*
X146190354Y-101401929D01*
X146200000Y-101435563D01*
G37*
G04 #@! TD.AperFunction*
G04 #@! TD*
G04 #@! TA.AperFunction,Conductor*
G04 #@! TO.N,+5V*
G36*
X146943039Y-107519685D02*
G01*
X146988794Y-107572489D01*
X147000000Y-107624000D01*
X147000000Y-108466232D01*
X146982880Y-108529102D01*
X145153899Y-111638370D01*
X145102942Y-111686174D01*
X145047019Y-111699500D01*
X127139562Y-111699500D01*
X127060438Y-111699500D01*
X126984012Y-111719978D01*
X126984011Y-111719978D01*
X126984009Y-111719979D01*
X126984008Y-111719979D01*
X126960786Y-111733387D01*
X126898786Y-111750000D01*
X125384109Y-111750000D01*
X125317070Y-111730315D01*
X125292867Y-111709969D01*
X125083500Y-111482469D01*
X124364051Y-110700707D01*
X124333139Y-110638050D01*
X124341009Y-110568625D01*
X124347065Y-110556223D01*
X124369992Y-110515237D01*
X124389677Y-110448198D01*
X124398002Y-110390300D01*
X124398002Y-109955404D01*
X124396824Y-109933435D01*
X124393990Y-109907077D01*
X124370031Y-109830560D01*
X124343709Y-109782355D01*
X124340170Y-109775353D01*
X124316618Y-109724845D01*
X124305000Y-109672441D01*
X124305000Y-109327558D01*
X124316615Y-109275158D01*
X124330854Y-109244624D01*
X124333328Y-109239624D01*
X124369992Y-109169533D01*
X124389677Y-109102494D01*
X124398002Y-109044596D01*
X124398002Y-109013493D01*
X124397996Y-109011985D01*
X124397983Y-109010214D01*
X124393503Y-108981296D01*
X124395445Y-108981017D01*
X124390887Y-108949314D01*
X124373330Y-108902242D01*
X124373701Y-108902128D01*
X124368179Y-108884268D01*
X124359299Y-108860752D01*
X124340263Y-108835537D01*
X124334917Y-108827870D01*
X124326144Y-108814220D01*
X124306457Y-108747181D01*
X124319972Y-108690882D01*
X124359951Y-108612420D01*
X124359951Y-108612418D01*
X124359952Y-108612417D01*
X124375500Y-108514251D01*
X124375500Y-108350764D01*
X124395185Y-108283725D01*
X124399639Y-108277254D01*
X124426875Y-108240267D01*
X124440514Y-108219152D01*
X124466484Y-108131460D01*
X124470919Y-108061732D01*
X124467443Y-108017987D01*
X124466287Y-108003432D01*
X124466286Y-108003429D01*
X124466286Y-108003424D01*
X124443228Y-107901310D01*
X124447663Y-107831584D01*
X124489092Y-107775322D01*
X124554362Y-107750390D01*
X124564183Y-107750000D01*
X126126000Y-107750000D01*
X126193039Y-107769685D01*
X126238794Y-107822489D01*
X126250000Y-107874000D01*
X126250000Y-108999999D01*
X126259439Y-109022787D01*
X126255661Y-109024351D01*
X126266664Y-109044502D01*
X126269498Y-109070860D01*
X126269498Y-110126001D01*
X126275336Y-110180311D01*
X126286541Y-110231817D01*
X126286544Y-110231826D01*
X126293777Y-110258191D01*
X126293781Y-110258202D01*
X126343103Y-110344817D01*
X126343108Y-110344824D01*
X126343110Y-110344827D01*
X126369578Y-110375373D01*
X126388861Y-110397627D01*
X126388864Y-110397630D01*
X126388865Y-110397631D01*
X126421639Y-110429256D01*
X126509974Y-110475464D01*
X126509975Y-110475464D01*
X126509975Y-110475465D01*
X126560103Y-110490183D01*
X126577013Y-110495149D01*
X126577017Y-110495149D01*
X126577019Y-110495150D01*
X126580657Y-110495673D01*
X126648998Y-110505499D01*
X126648999Y-110505499D01*
X129950999Y-110505499D01*
X129995545Y-110500709D01*
X130008800Y-110500000D01*
X137500000Y-110500000D01*
X143531250Y-110500000D01*
X144882811Y-108337501D01*
X144912999Y-108307314D01*
X144978891Y-108193186D01*
X144983305Y-108176711D01*
X145250000Y-107750000D01*
X145250000Y-107624000D01*
X145269685Y-107556961D01*
X145322489Y-107511206D01*
X145374000Y-107500000D01*
X146876000Y-107500000D01*
X146943039Y-107519685D01*
G37*
G04 #@! TD.AperFunction*
G04 #@! TD*
G04 #@! TA.AperFunction,Conductor*
G04 #@! TO.N,GND*
G36*
X144843038Y-104769685D02*
G01*
X144888793Y-104822489D01*
X144899999Y-104874000D01*
X144899999Y-107606383D01*
X144062499Y-107250000D01*
X144062498Y-106000000D01*
X143089135Y-106000000D01*
X143022096Y-105980315D01*
X142978227Y-105931456D01*
X142525588Y-105026178D01*
X142522616Y-105013591D01*
X142517521Y-105005662D01*
X142512498Y-104970733D01*
X142512498Y-104873998D01*
X142532183Y-104806961D01*
X142584987Y-104761206D01*
X142636498Y-104750000D01*
X144775999Y-104750000D01*
X144843038Y-104769685D01*
G37*
G04 #@! TD.AperFunction*
G04 #@! TD*
G04 #@! TA.AperFunction,Conductor*
G04 #@! TO.N,GND*
G36*
X135693039Y-101519685D02*
G01*
X135738794Y-101572489D01*
X135750000Y-101624000D01*
X135750000Y-103626000D01*
X135730315Y-103693039D01*
X135677511Y-103738794D01*
X135626000Y-103750000D01*
X133884170Y-103750000D01*
X133854729Y-103741355D01*
X133824743Y-103734832D01*
X133819727Y-103731077D01*
X133817131Y-103730315D01*
X133796489Y-103713681D01*
X133786319Y-103703511D01*
X133752834Y-103642188D01*
X133750000Y-103615830D01*
X133750000Y-101624000D01*
X133769685Y-101556961D01*
X133822489Y-101511206D01*
X133874000Y-101500000D01*
X135626000Y-101500000D01*
X135693039Y-101519685D01*
G37*
G04 #@! TD.AperFunction*
G04 #@! TD*
G04 #@! TA.AperFunction,Conductor*
G04 #@! TO.N,GND*
G36*
X208565796Y-98020185D02*
G01*
X208584631Y-98035048D01*
X220888478Y-109846743D01*
X220902922Y-109863309D01*
X220922541Y-109890312D01*
X220923611Y-109892413D01*
X220924580Y-109893205D01*
X220940153Y-109924877D01*
X220947991Y-109948998D01*
X220954061Y-109987319D01*
X220954061Y-110012680D01*
X220947991Y-110051001D01*
X220940153Y-110075122D01*
X220922542Y-110109685D01*
X220902925Y-110136686D01*
X220888480Y-110153254D01*
X208584631Y-121964952D01*
X208522637Y-121997179D01*
X208498757Y-121999500D01*
X154754692Y-121999500D01*
X154687653Y-121979815D01*
X154642972Y-121928250D01*
X154642780Y-121928349D01*
X154642384Y-121927571D01*
X154641898Y-121927011D01*
X154640720Y-121924306D01*
X154533342Y-121713566D01*
X154394517Y-121522490D01*
X154227510Y-121355483D01*
X154036433Y-121216657D01*
X153825992Y-121109432D01*
X153821651Y-121107220D01*
X153822193Y-121106156D01*
X153772136Y-121065809D01*
X153750079Y-120999512D01*
X153750000Y-120995100D01*
X153750000Y-116006092D01*
X153750597Y-115993938D01*
X153768018Y-115817056D01*
X153772757Y-115793232D01*
X153822577Y-115628994D01*
X153831875Y-115606549D01*
X153912775Y-115455195D01*
X153926272Y-115434995D01*
X154035149Y-115302328D01*
X154052322Y-115285154D01*
X154126363Y-115224390D01*
X154190666Y-115197081D01*
X154252481Y-115205688D01*
X154262085Y-115209667D01*
X154290320Y-115219770D01*
X154454543Y-115269586D01*
X154483627Y-115276871D01*
X154507468Y-115281613D01*
X154537120Y-115286011D01*
X154713994Y-115303432D01*
X154728951Y-115304535D01*
X154741105Y-115305132D01*
X154756093Y-115305500D01*
X154756111Y-115305500D01*
X203380764Y-115305500D01*
X203382868Y-115305439D01*
X203398430Y-115304989D01*
X203412756Y-115304159D01*
X203430381Y-115302624D01*
X203638433Y-115278425D01*
X203669049Y-115273053D01*
X203673250Y-115272317D01*
X203673252Y-115272316D01*
X203673255Y-115272316D01*
X203701142Y-115265740D01*
X203735025Y-115255648D01*
X203925165Y-115186808D01*
X203957665Y-115172864D01*
X203983298Y-115160062D01*
X204013952Y-115142467D01*
X204189275Y-115027863D01*
X204203785Y-115017767D01*
X204215322Y-115009234D01*
X204229234Y-114998308D01*
X209019066Y-111006782D01*
X209030242Y-110996998D01*
X209039124Y-110988833D01*
X209049831Y-110978498D01*
X209173609Y-110853055D01*
X209193433Y-110830907D01*
X209208614Y-110812187D01*
X209226192Y-110788215D01*
X209320016Y-110646264D01*
X209335181Y-110620695D01*
X209346454Y-110599391D01*
X209359062Y-110572475D01*
X209423652Y-110415058D01*
X209433584Y-110387042D01*
X209440523Y-110363960D01*
X209447686Y-110335106D01*
X209480603Y-110168161D01*
X209484928Y-110138748D01*
X209484929Y-110138734D01*
X209484931Y-110138723D01*
X209484931Y-110138721D01*
X209487268Y-110114785D01*
X209487271Y-110114741D01*
X209488715Y-110085098D01*
X209488716Y-110085072D01*
X209488716Y-109914926D01*
X209488715Y-109914900D01*
X209487271Y-109885257D01*
X209487268Y-109885213D01*
X209484931Y-109861277D01*
X209484931Y-109861275D01*
X209484929Y-109861261D01*
X209484928Y-109861251D01*
X209480603Y-109831838D01*
X209447686Y-109664893D01*
X209440523Y-109636039D01*
X209433584Y-109612957D01*
X209428463Y-109598512D01*
X209423654Y-109584945D01*
X209359058Y-109427515D01*
X209346467Y-109400635D01*
X209346454Y-109400608D01*
X209335181Y-109379304D01*
X209335170Y-109379286D01*
X209335162Y-109379271D01*
X209320011Y-109353727D01*
X209274458Y-109284808D01*
X209226192Y-109211784D01*
X209208614Y-109187812D01*
X209193433Y-109169092D01*
X209193425Y-109169083D01*
X209193412Y-109169067D01*
X209173631Y-109146968D01*
X209173587Y-109146921D01*
X209049842Y-109021512D01*
X209039132Y-109011174D01*
X209039124Y-109011166D01*
X209030242Y-109003001D01*
X209019066Y-108993217D01*
X207821608Y-107995335D01*
X204229243Y-105001698D01*
X204215328Y-104990770D01*
X204215322Y-104990765D01*
X204203785Y-104982232D01*
X204189275Y-104972136D01*
X204189274Y-104972135D01*
X204013969Y-104857543D01*
X204013964Y-104857540D01*
X204013952Y-104857532D01*
X204013946Y-104857528D01*
X204013934Y-104857521D01*
X203995230Y-104846785D01*
X203983302Y-104839939D01*
X203983298Y-104839937D01*
X203983293Y-104839934D01*
X203957671Y-104827137D01*
X203957664Y-104827134D01*
X203925187Y-104813199D01*
X203735016Y-104744348D01*
X203717708Y-104739193D01*
X203701137Y-104734258D01*
X203701129Y-104734256D01*
X203673276Y-104727688D01*
X203673268Y-104727686D01*
X203673258Y-104727684D01*
X203673247Y-104727682D01*
X203673237Y-104727680D01*
X203638457Y-104721578D01*
X203638451Y-104721577D01*
X203638438Y-104721575D01*
X203430381Y-104697376D01*
X203412734Y-104695839D01*
X203398435Y-104695011D01*
X203380764Y-104694500D01*
X203380760Y-104694500D01*
X154756093Y-104694500D01*
X154746101Y-104694745D01*
X154741096Y-104694868D01*
X154728938Y-104695465D01*
X154714003Y-104696567D01*
X154537126Y-104713987D01*
X154537100Y-104713990D01*
X154507471Y-104718384D01*
X154483608Y-104723131D01*
X154454578Y-104730404D01*
X154454547Y-104730412D01*
X154290321Y-104780228D01*
X154262072Y-104790336D01*
X154262052Y-104790344D01*
X154252477Y-104794311D01*
X154238538Y-104795809D01*
X154225949Y-104801972D01*
X154204489Y-104799471D01*
X154183008Y-104801781D01*
X154169077Y-104795344D01*
X154156549Y-104793884D01*
X154126357Y-104775604D01*
X154052333Y-104714854D01*
X154035145Y-104697666D01*
X153926277Y-104565010D01*
X153912772Y-104544798D01*
X153831878Y-104393456D01*
X153822575Y-104370998D01*
X153772757Y-104206769D01*
X153768018Y-104182941D01*
X153750597Y-104006061D01*
X153750000Y-103993907D01*
X153750000Y-99004899D01*
X153769685Y-98937860D01*
X153821669Y-98892815D01*
X153821651Y-98892780D01*
X153821794Y-98892707D01*
X153822489Y-98892105D01*
X153825833Y-98890648D01*
X153825986Y-98890569D01*
X153825992Y-98890568D01*
X154036433Y-98783343D01*
X154227510Y-98644517D01*
X154394517Y-98477510D01*
X154533343Y-98286433D01*
X154640568Y-98075992D01*
X154640567Y-98075992D01*
X154642780Y-98071651D01*
X154643986Y-98072265D01*
X154683962Y-98022650D01*
X154750254Y-98000579D01*
X154754692Y-98000500D01*
X208498757Y-98000500D01*
X208565796Y-98020185D01*
G37*
G04 #@! TD.AperFunction*
G04 #@! TD*
G04 #@! TA.AperFunction,Conductor*
G04 #@! TO.N,/Sensors/sensor_cap*
G36*
X203395086Y-105000830D02*
G01*
X203603143Y-105025029D01*
X203631022Y-105031603D01*
X203821166Y-105100444D01*
X203846798Y-105113246D01*
X204022121Y-105227850D01*
X204033658Y-105236383D01*
X208823490Y-109227909D01*
X208832372Y-109236074D01*
X208956150Y-109361517D01*
X208971331Y-109380237D01*
X209065155Y-109522188D01*
X209076428Y-109543492D01*
X209141018Y-109700909D01*
X209147957Y-109723991D01*
X209180874Y-109890936D01*
X209183216Y-109914924D01*
X209183216Y-110085075D01*
X209180874Y-110109063D01*
X209147957Y-110276008D01*
X209141018Y-110299090D01*
X209076428Y-110456507D01*
X209065155Y-110477811D01*
X208971331Y-110619762D01*
X208956150Y-110638482D01*
X208832372Y-110763925D01*
X208823490Y-110772090D01*
X204033658Y-114763616D01*
X204022121Y-114772149D01*
X203846798Y-114886753D01*
X203821165Y-114899555D01*
X203631025Y-114968395D01*
X203603138Y-114974971D01*
X203395086Y-114999170D01*
X203380760Y-115000000D01*
X154756093Y-115000000D01*
X154743939Y-114999403D01*
X154567065Y-114981982D01*
X154543224Y-114977240D01*
X154379001Y-114927424D01*
X154356543Y-114918121D01*
X154205201Y-114837227D01*
X154184989Y-114823722D01*
X154052333Y-114714854D01*
X154035145Y-114697666D01*
X153926277Y-114565010D01*
X153912772Y-114544798D01*
X153831878Y-114393456D01*
X153822575Y-114370998D01*
X153772757Y-114206769D01*
X153768018Y-114182941D01*
X153750597Y-114006061D01*
X153750000Y-113993907D01*
X153750000Y-106006092D01*
X153750597Y-105993938D01*
X153768018Y-105817056D01*
X153772757Y-105793232D01*
X153822577Y-105628994D01*
X153831875Y-105606549D01*
X153912775Y-105455195D01*
X153926272Y-105434995D01*
X154035149Y-105302328D01*
X154052328Y-105285149D01*
X154184995Y-105176272D01*
X154205195Y-105162775D01*
X154356549Y-105081875D01*
X154378994Y-105072577D01*
X154543232Y-105022757D01*
X154567056Y-105018018D01*
X154743939Y-105000597D01*
X154756093Y-105000000D01*
X203380760Y-105000000D01*
X203395086Y-105000830D01*
G37*
G04 #@! TD.AperFunction*
G04 #@! TD*
G04 #@! TA.AperFunction,Conductor*
G04 #@! TO.N,VBUS*
G36*
X123492539Y-105119685D02*
G01*
X123538294Y-105172489D01*
X123549500Y-105224000D01*
X123549500Y-106489752D01*
X123561131Y-106548229D01*
X123561132Y-106548230D01*
X123605447Y-106614552D01*
X123671769Y-106658867D01*
X123671770Y-106658868D01*
X123730247Y-106670499D01*
X123730250Y-106670500D01*
X123855507Y-106670500D01*
X123922546Y-106690185D01*
X123968301Y-106742989D01*
X123976461Y-106767186D01*
X124265003Y-108045015D01*
X124265833Y-108048688D01*
X124261398Y-108118416D01*
X124219969Y-108174678D01*
X124154699Y-108199610D01*
X124144878Y-108200000D01*
X122360062Y-108200000D01*
X122293023Y-108180315D01*
X122247268Y-108127511D01*
X122237324Y-108058353D01*
X122239996Y-108045015D01*
X122570706Y-106763515D01*
X122606517Y-106703521D01*
X122669079Y-106672412D01*
X122690772Y-106670500D01*
X122719750Y-106670500D01*
X122719751Y-106670499D01*
X122737002Y-106667068D01*
X122778229Y-106658868D01*
X122778229Y-106658867D01*
X122778231Y-106658867D01*
X122844552Y-106614552D01*
X122888867Y-106548231D01*
X122888867Y-106548229D01*
X122888868Y-106548229D01*
X122900499Y-106489752D01*
X122900500Y-106489750D01*
X122900500Y-105501302D01*
X122904434Y-105470317D01*
X122975996Y-105193015D01*
X123011807Y-105133021D01*
X123074370Y-105101912D01*
X123096062Y-105100000D01*
X123425500Y-105100000D01*
X123492539Y-105119685D01*
G37*
G04 #@! TD.AperFunction*
G04 #@! TD*
G04 #@! TA.AperFunction,Conductor*
G04 #@! TO.N,GND*
G36*
X121013041Y-118120185D02*
G01*
X121058796Y-118172989D01*
X121070002Y-118224500D01*
X121070002Y-120188500D01*
X121050317Y-120255539D01*
X120997513Y-120301294D01*
X120946002Y-120312500D01*
X119194001Y-120312500D01*
X119126962Y-120292815D01*
X119081207Y-120240011D01*
X119070001Y-120188500D01*
X119070001Y-119546412D01*
X119083515Y-119490119D01*
X119135648Y-119387804D01*
X119135648Y-119387802D01*
X119135649Y-119387801D01*
X119150501Y-119294024D01*
X119150502Y-119294019D01*
X119150501Y-118224499D01*
X119170185Y-118157461D01*
X119222989Y-118111706D01*
X119274501Y-118100500D01*
X120946002Y-118100500D01*
X121013041Y-118120185D01*
G37*
G04 #@! TD.AperFunction*
G04 #@! TA.AperFunction,Conductor*
G36*
X120013041Y-114632184D02*
G01*
X120058796Y-114684988D01*
X120070002Y-114736499D01*
X120070001Y-115624744D01*
X120050316Y-115691784D01*
X120033685Y-115712423D01*
X120021950Y-115724157D01*
X119964352Y-115837198D01*
X119949500Y-115930975D01*
X119949500Y-117019017D01*
X119962001Y-117097950D01*
X119964354Y-117112804D01*
X119967615Y-117119204D01*
X119967617Y-117119207D01*
X119980512Y-117187876D01*
X119954234Y-117252616D01*
X119897127Y-117292872D01*
X119857131Y-117299500D01*
X119242871Y-117299500D01*
X119175832Y-117279815D01*
X119130077Y-117227011D01*
X119120133Y-117157853D01*
X119132387Y-117119204D01*
X119135648Y-117112804D01*
X119135648Y-117112802D01*
X119135649Y-117112801D01*
X119150501Y-117019024D01*
X119150502Y-117019019D01*
X119150501Y-115930982D01*
X119135648Y-115837196D01*
X119126889Y-115820006D01*
X119114015Y-115794738D01*
X119100500Y-115738444D01*
X119100500Y-115341292D01*
X119104765Y-115314357D01*
X119104490Y-115314314D01*
X119106017Y-115304674D01*
X119120500Y-115213234D01*
X119120499Y-114811765D01*
X119120499Y-114811764D01*
X119120499Y-114811760D01*
X119111651Y-114755897D01*
X119120606Y-114686604D01*
X119165602Y-114633152D01*
X119232353Y-114612512D01*
X119234124Y-114612499D01*
X119946002Y-114612499D01*
X120013041Y-114632184D01*
G37*
G04 #@! TD.AperFunction*
G04 #@! TD*
M02*
