G04 #@! TF.GenerationSoftware,KiCad,Pcbnew,9.0.0*
G04 #@! TF.CreationDate,2025-03-11T16:46:41+02:00*
G04 #@! TF.ProjectId,Plant-health-meter,506c616e-742d-4686-9561-6c74682d6d65,rev?*
G04 #@! TF.SameCoordinates,Original*
G04 #@! TF.FileFunction,Profile,NP*
%FSLAX46Y46*%
G04 Gerber Fmt 4.6, Leading zero omitted, Abs format (unit mm)*
G04 Created by KiCad (PCBNEW 9.0.0) date 2025-03-11 16:46:41*
%MOMM*%
%LPD*%
G01*
G04 APERTURE LIST*
G04 #@! TA.AperFunction,Profile*
%ADD10C,0.050000*%
G04 #@! TD*
G04 APERTURE END LIST*
D10*
X115100000Y-97500000D02*
X92250000Y-97500000D01*
X126500000Y-97500000D02*
X144000000Y-97500000D01*
X126500000Y-97500000D02*
X115100000Y-97500000D01*
X91250000Y-98500000D02*
G75*
G02*
X92250000Y-97500000I1000000J0D01*
G01*
X86250000Y-118500000D02*
G75*
G02*
X85250000Y-117500000I0J1000000D01*
G01*
X92250000Y-122500000D02*
G75*
G02*
X91250000Y-121500000I0J1000000D01*
G01*
X154250000Y-97500000D02*
G75*
G02*
X152250000Y-97500000I-1000000J0D01*
G01*
X90250000Y-118500000D02*
G75*
G02*
X91250000Y-119500000I0J-1000000D01*
G01*
X90250000Y-101500000D02*
X86250000Y-101500000D01*
X91250000Y-98500000D02*
X91250000Y-100500000D01*
X221249999Y-110499999D02*
X208750000Y-122500000D01*
X145000000Y-122500000D02*
X136750000Y-122500000D01*
X208750000Y-97500000D02*
X221249999Y-109500001D01*
X154250000Y-97500000D02*
X208750000Y-97500000D01*
X90250000Y-118500000D02*
X86250000Y-118500000D01*
X152250000Y-122500000D02*
G75*
G02*
X154250000Y-122500000I1000000J0D01*
G01*
X85250000Y-102500000D02*
X85250000Y-117500000D01*
X145500000Y-122500000D02*
X152250000Y-122500000D01*
X154250000Y-122500000D02*
X208750000Y-122500000D01*
X221249999Y-109500001D02*
G75*
G02*
X221249999Y-110499999I-499999J-499999D01*
G01*
X85250000Y-102500000D02*
G75*
G02*
X86250000Y-101500000I1000000J0D01*
G01*
X152250000Y-97500000D02*
X144000000Y-97500000D01*
X91250000Y-121500000D02*
X91250000Y-119500000D01*
X91250000Y-100500000D02*
G75*
G02*
X90250000Y-101500000I-1000000J0D01*
G01*
X145500000Y-122500000D02*
X145000000Y-122500000D01*
X92250000Y-122500000D02*
X136750000Y-122500000D01*
M02*
